<svg width="17" height="17" viewBox="0 0 17 17" fill="none" xmlns="http://www.w3.org/2000/svg">
<path d="M12.75 11.475V12.75C12.75 13.26 12.41 13.6 11.9 13.6C11.39 13.6 11.05 13.26 11.05 12.75V11.475H5.95V12.75C5.95 13.26 5.61 13.6 5.1 13.6C4.59 13.6 4.25 13.26 4.25 12.75V11.475H2.55C1.955 11.475 1.36 11.305 0.85 11.05V14.45C0.85 15.895 1.955 17 3.4 17H13.6C15.045 17 16.15 15.895 16.15 14.45V11.05C15.64 11.305 15.045 11.475 14.45 11.475H12.75ZM16.15 3.4H12.75V2.55C12.75 1.105 11.645 0 10.2 0H6.8C5.355 0 4.25 1.105 4.25 2.55V3.4H0.85C0.34 3.4 0 3.74 0 4.25V7.65C0 9.095 1.105 10.2 2.55 10.2H14.45C15.895 10.2 17 9.095 17 7.65V4.25C17 3.74 16.66 3.4 16.15 3.4ZM11.05 3.4H5.95V2.55C5.95 2.04 6.29 1.7 6.8 1.7H10.2C10.71 1.7 11.05 2.04 11.05 2.55V3.4Z" fill="#65558F"/>
</svg>
