<svg width="17" height="17" viewBox="0 0 17 17" fill="none" xmlns="http://www.w3.org/2000/svg">
<path d="M16.2842 0.159704C15.6757 0.0559267 15.0595 0.00250872 14.4421 3.6565e-06C12.3355 -0.00170638 10.2729 0.59642 8.5 1.72309C6.72258 0.611213 4.66025 0.027767 2.55788 0.04203C1.94045 0.0445351 1.3243 0.0979531 0.715828 0.20173C0.516518 0.235754 0.336026 0.339122 0.206855 0.493219C0.0776837 0.647317 0.0083228 0.842017 0.0112631 1.04226V11.1286C0.00944504 11.2521 0.0351386 11.3745 0.0865157 11.487C0.137893 11.5996 0.213691 11.6995 0.308516 11.7798C0.403341 11.86 0.514863 11.9186 0.635148 11.9513C0.755432 11.9841 0.881522 11.9901 1.00445 11.9691C2.2209 11.7606 3.4672 11.7952 4.66994 12.0709C5.87268 12.3466 7.00753 12.8579 8.00765 13.5745L8.10952 13.6334H8.20289C8.29704 13.6722 8.39801 13.6922 8.5 13.6922C8.60199 13.6922 8.70296 13.6722 8.79711 13.6334H8.89048L8.99235 13.5745C9.98549 12.8418 11.1171 12.314 12.3201 12.0224C13.523 11.7307 14.7729 11.6812 15.9956 11.8767C16.1185 11.8977 16.2446 11.8916 16.3649 11.8589C16.4851 11.8262 16.5967 11.7676 16.6915 11.6873C16.7863 11.6071 16.8621 11.5071 16.9135 11.3946C16.9649 11.282 16.9906 11.1596 16.9887 11.0361V0.9498C16.9799 0.758289 16.9052 0.575522 16.7771 0.431815C16.6489 0.288107 16.475 0.192095 16.2842 0.159704ZM7.65113 11.3303C6.08061 10.5122 4.33247 10.0853 2.55788 10.0863C2.27776 10.0863 1.99763 10.0863 1.70901 10.0863V1.68106C1.99173 1.66493 2.27516 1.66493 2.55788 1.68106C4.36886 1.67908 6.14031 2.20529 7.65113 3.19401V11.3303ZM15.291 10.12C15.0024 10.12 14.7222 10.12 14.4421 10.12C12.6675 10.1189 10.9194 10.5458 9.34887 11.3639V3.19401C10.8597 2.20529 12.6311 1.67908 14.4421 1.68106C14.7248 1.66493 15.0083 1.66493 15.291 1.68106V10.12ZM16.2842 13.6081C15.6757 13.5044 15.0595 13.451 14.4421 13.4484C12.3355 13.4467 10.2729 14.0449 8.5 15.1715C6.72714 14.0449 4.66448 13.4467 2.55788 13.4484C1.94045 13.451 1.3243 13.5044 0.715828 13.6081C0.605328 13.6255 0.499385 13.6643 0.40409 13.7224C0.308795 13.7804 0.226029 13.8566 0.160552 13.9464C0.0950741 14.0362 0.0481767 14.138 0.0225563 14.2458C-0.00306415 14.3537 -0.0069021 14.4654 0.0112631 14.5748C0.0544017 14.793 0.183152 14.9855 0.36931 15.1099C0.555468 15.2344 0.783856 15.2807 1.00445 15.2388C2.2209 15.0302 3.4672 15.0648 4.66994 15.3405C5.87268 15.6163 7.00753 16.1275 8.00765 16.8442C8.15142 16.9455 8.32352 17 8.5 17C8.67648 17 8.84858 16.9455 8.99235 16.8442C9.99247 16.1275 11.1273 15.6163 12.3301 15.3405C13.5328 15.0648 14.7791 15.0302 15.9956 15.2388C16.2161 15.2807 16.4445 15.2344 16.6307 15.1099C16.8168 14.9855 16.9456 14.793 16.9887 14.5748C17.0069 14.4654 17.0031 14.3537 16.9774 14.2458C16.9518 14.138 16.9049 14.0362 16.8394 13.9464C16.774 13.8566 16.6912 13.7804 16.5959 13.7224C16.5006 13.6643 16.3947 13.6255 16.2842 13.6081Z" fill="#65558F"/>
</svg>
