<svg width="14" height="17" viewBox="0 0 14 17" fill="none" xmlns="http://www.w3.org/2000/svg">
<path d="M13.2222 1.43149e-07C13.1201 -6.3547e-05 13.0189 0.0218788 12.9245 0.0645728C12.8301 0.107267 12.7444 0.169875 12.6721 0.248817C12.5999 0.32776 12.5426 0.421488 12.5035 0.524644C12.4645 0.627799 12.4444 0.738359 12.4444 0.85V1.39121C11.7885 2.28006 10.9594 2.99788 10.0176 3.49241C9.07575 3.98695 8.04488 4.24575 7 4.25H2.33333C1.7147 4.25074 1.1216 4.51963 0.684163 4.99769C0.246725 5.47575 0.000675263 6.12392 0 6.8V8.5C0.000675263 9.17607 0.246725 9.82425 0.684163 10.3023C1.1216 10.7804 1.7147 11.0493 2.33333 11.05H2.70961L0.840824 15.8154C0.790039 15.9447 0.769421 16.0857 0.78082 16.2258C0.79222 16.3659 0.83528 16.5007 0.906135 16.6182C0.976991 16.7356 1.07342 16.832 1.18677 16.8986C1.30012 16.9653 1.42684 17.0001 1.55556 17H4.66667C4.81892 17.0001 4.96784 16.9513 5.09492 16.8596C5.22199 16.768 5.32162 16.6375 5.3814 16.4845L7.49988 11.0823C8.45704 11.1591 9.38964 11.4495 10.2401 11.9356C11.0905 12.4217 11.8408 13.0932 12.4444 13.9086V14.45C12.4444 14.6754 12.5264 14.8916 12.6722 15.051C12.8181 15.2104 13.0159 15.3 13.2222 15.3C13.4285 15.3 13.6263 15.2104 13.7722 15.051C13.9181 14.8916 14 14.6754 14 14.45V0.85C14.0001 0.738358 13.98 0.627798 13.9409 0.524643C13.9018 0.421487 13.8446 0.327758 13.7723 0.248815C13.7001 0.169872 13.6143 0.107264 13.5199 0.0645705C13.4255 0.021877 13.3244 -6.46655e-05 13.2222 1.43149e-07V1.43149e-07ZM2.33333 9.35C2.1271 9.34985 1.92935 9.26025 1.78351 9.10087C1.63768 8.9415 1.55569 8.72539 1.55556 8.5V6.8C1.5557 6.57461 1.63768 6.3585 1.78352 6.19913C1.92935 6.03976 2.1271 5.95015 2.33333 5.95H3.11111V9.35H2.33333ZM4.15397 15.3H2.73513L4.40158 11.05H5.82042L4.15397 15.3ZM12.4444 11.4935C10.9109 10.1128 8.98696 9.35533 7 9.34996H4.66667V5.94996H7C8.987 5.94441 10.9109 5.18679 12.4444 3.80597V11.4935Z" fill="#65558F"/>
</svg>
