<svg width="17" height="19" viewBox="0 0 17 19" fill="none" xmlns="http://www.w3.org/2000/svg">
<path d="M4.8832 15.7447C4.35985 15.9211 4.07861 16.4884 4.25502 17.0117C4.43144 17.5351 4.99871 17.8163 5.52206 17.6399L4.8832 15.7447ZM10.0518 17.0192L9.96008 16.0234L10.0518 17.0192ZM12.9613 16.3654L13.4039 17.2621L12.9613 16.3654ZM15.7414 13.8079L14.9609 13.1827V13.1827L15.7414 13.8079ZM13.84 12.2076L14.5511 12.9107L13.84 12.2076ZM12.5596 13.5024L13.2707 14.2055V14.2055L12.5596 13.5024ZM9.08198 13.0769C8.5297 13.0769 8.08198 13.5246 8.08198 14.0769C8.08198 14.6292 8.5297 15.0769 9.08198 15.0769V13.0769ZM15.4458 12.0468L14.8868 12.8759H14.8868L15.4458 12.0468ZM6.18668 11.6178L6.63791 12.5102L6.18668 11.6178ZM9.66673 11.2959L9.9326 10.3319L9.66673 11.2959ZM11.0257 11.6707L10.7599 12.6347L11.0257 11.6707ZM11.4563 13.3104L10.7453 12.6073H10.7453L11.4563 13.3104ZM9.98732 13.3738C9.59899 13.7665 9.60254 14.3997 9.99525 14.788C10.388 15.1763 11.0211 15.1728 11.4094 14.7801L9.98732 13.3738ZM5.52206 17.6399C5.56792 17.6245 5.72539 17.5989 6.07023 17.6238C6.39451 17.6472 6.77714 17.705 7.2279 17.7766C8.06992 17.9104 9.18222 18.1036 10.1436 18.015L9.96008 16.0234C9.30503 16.0838 8.47765 15.9501 7.54164 15.8014C7.10338 15.7318 6.6374 15.6595 6.2141 15.629C5.81135 15.6 5.32226 15.5967 4.8832 15.7447L5.52206 17.6399ZM10.1436 18.015C10.7242 17.9615 11.2526 17.9338 11.7335 17.8458C12.2656 17.7484 12.7611 17.5794 13.4039 17.2621L12.5188 15.4686C12.0046 15.7224 11.6863 15.8212 11.3735 15.8785C11.0095 15.9451 10.6616 15.9588 9.96008 16.0234L10.1436 18.015ZM13.4039 17.2621C14.0443 16.9461 14.6517 16.4425 15.1633 15.9454C15.6846 15.4389 16.1562 14.8896 16.522 14.433L14.9609 13.1827C14.6261 13.6008 14.2113 14.0818 13.7695 14.511C13.318 14.9498 12.8856 15.2876 12.5188 15.4686L13.4039 17.2621ZM13.1289 11.5045L11.8486 12.7993L13.2707 14.2055L14.5511 12.9107L13.1289 11.5045ZM11.1881 13.0769H9.08198V15.0769H11.1881V13.0769ZM11.8486 12.7993C11.6714 12.9784 11.4336 13.0769 11.1881 13.0769V15.0769C11.9713 15.0769 12.7203 14.7621 13.2707 14.2055L11.8486 12.7993ZM16.0048 11.2176C15.1002 10.6077 13.8948 10.7299 13.1289 11.5045L14.5511 12.9107C14.6431 12.8177 14.782 12.8053 14.8868 12.8759L16.0048 11.2176ZM16.522 14.433C17.3596 13.3871 17.044 11.9182 16.0048 11.2176L14.8868 12.8759C14.952 12.9199 14.9868 12.9814 14.9969 13.0393C15.0064 13.0934 14.9948 13.1405 14.9609 13.1827L16.522 14.433ZM1.64656 11.8077H4.23279V9.80769H1.64656V11.8077ZM3.87935 11.4615V17.3462H5.87935V11.4615H3.87935ZM4.23279 17H1.64656V19H4.23279V17ZM2 17.3462V11.4615H0V17.3462H2ZM1.64656 17C1.85229 17 2 17.1656 2 17.3462H0C0 18.249 0.726655 19 1.64656 19V17ZM3.87935 17.3462C3.87935 17.1656 4.02706 17 4.23279 17V19C5.1527 19 5.87935 18.249 5.87935 17.3462H3.87935ZM4.23279 11.8077C4.02706 11.8077 3.87935 11.6421 3.87935 11.4615H5.87935C5.87935 10.5587 5.1527 9.80769 4.23279 9.80769V11.8077ZM1.64656 9.80769C0.726653 9.80769 0 10.5587 0 11.4615H2C2 11.6421 1.8523 11.8077 1.64656 11.8077V9.80769ZM5.65386 13.0078L6.63791 12.5102L5.73545 10.7254L4.7514 11.223L5.65386 13.0078ZM8.21073 12.1346H8.47588V10.1346H8.21073V12.1346ZM9.40085 12.2599L10.7599 12.6347L11.2916 10.7067L9.9326 10.3319L9.40085 12.2599ZM10.7453 12.6073L9.98732 13.3738L11.4094 14.7801L12.1674 14.0136L10.7453 12.6073ZM10.7599 12.6347C10.7614 12.6351 10.7592 12.6347 10.755 12.6321C10.751 12.6297 10.7474 12.6267 10.7447 12.6239C10.7397 12.6186 10.74 12.6165 10.7407 12.6192C10.7414 12.6219 10.7404 12.6215 10.7416 12.6169C10.7422 12.6143 10.7434 12.6112 10.7449 12.6085C10.7466 12.6055 10.7474 12.6052 10.7453 12.6073L12.1674 14.0136C13.2235 12.9455 12.7571 11.1109 11.2916 10.7067L10.7599 12.6347ZM8.47588 12.1346C8.78824 12.1346 9.09929 12.1767 9.40085 12.2599L9.9326 10.3319C9.45797 10.201 8.96807 10.1346 8.47588 10.1346V12.1346ZM6.63791 12.5102C7.12679 12.263 7.66524 12.1346 8.21073 12.1346V10.1346C7.35097 10.1346 6.50346 10.3371 5.73545 10.7254L6.63791 12.5102ZM12.2846 6.23077C12.2846 7.13352 11.5639 7.84615 10.6984 7.84615V9.84615C12.6895 9.84615 14.2846 8.21689 14.2846 6.23077H12.2846ZM10.6984 7.84615C9.83286 7.84615 9.11215 7.13352 9.11215 6.23077H7.11215C7.11215 8.21689 8.70722 9.84615 10.6984 9.84615V7.84615ZM9.11215 6.23077C9.11215 5.32802 9.83286 4.61538 10.6984 4.61538V2.61538C8.70722 2.61538 7.11215 4.24464 7.11215 6.23077H9.11215ZM10.6984 4.61538C11.5639 4.61538 12.2846 5.32802 12.2846 6.23077H14.2846C14.2846 4.24464 12.6895 2.61538 10.6984 2.61538V4.61538ZM8.11215 5.23077C7.24663 5.23077 6.52591 4.51813 6.52591 3.61538H4.52591C4.52591 5.60151 6.12099 7.23077 8.11215 7.23077V5.23077ZM6.52591 3.61538C6.52591 2.71264 7.24663 2 8.11215 2V0C6.12099 0 4.52591 1.62926 4.52591 3.61538H6.52591ZM8.11215 2C8.97766 2 9.69838 2.71264 9.69838 3.61538H11.6984C11.6984 1.62926 10.1033 0 8.11215 0V2Z" fill="#65558F"/>
</svg>
