<svg width="19" height="19" viewBox="0 0 19 19" fill="none" xmlns="http://www.w3.org/2000/svg">
<path d="M6.95 6.95V5.95C6.39772 5.95 5.95 6.39772 5.95 6.95H6.95ZM7.03467 6.95H8.03467C8.03467 6.39772 7.58695 5.95 7.03467 5.95V6.95ZM12.05 6.95V5.95C11.4977 5.95 11.05 6.39772 11.05 6.95H12.05ZM12.1253 6.95H13.1253C13.1253 6.39772 12.6776 5.95 12.1253 5.95V6.95ZM7.03467 7.01807V8.01807C7.58695 8.01807 8.03467 7.57035 8.03467 7.01807H7.03467ZM6.95 7.01807H5.95C5.95 7.57035 6.39772 8.01807 6.95 8.01807V7.01807ZM12.1253 7.01807V8.01807C12.6776 8.01807 13.1253 7.57035 13.1253 7.01807H12.1253ZM12.05 7.01807H11.05C11.05 7.57035 11.4977 8.01807 12.05 8.01807V7.01807ZM7.40357 11.5583C7.11289 11.0887 6.49656 10.9437 6.02696 11.2344C5.55737 11.5251 5.41233 12.1414 5.70301 12.611L7.40357 11.5583ZM13.297 12.611C13.5877 12.1414 13.4426 11.5251 12.973 11.2344C12.5034 10.9437 11.8871 11.0887 11.5964 11.5583L13.297 12.611ZM17 9.5C17 13.6421 13.6421 17 9.5 17V19C14.7467 19 19 14.7467 19 9.5H17ZM9.5 17C5.35786 17 2 13.6421 2 9.5H0C0 14.7467 4.25329 19 9.5 19V17ZM2 9.5C2 5.35786 5.35786 2 9.5 2V0C4.25329 0 0 4.25329 0 9.5H2ZM9.5 2C13.6421 2 17 5.35786 17 9.5H19C19 4.25329 14.7467 0 9.5 0V2ZM6.95 7.95H7.03467V5.95H6.95V7.95ZM12.05 7.95H12.1253V5.95H12.05V7.95ZM6.03467 6.95V7.01807H8.03467V6.95H6.03467ZM7.03467 6.01807H6.95V8.01807H7.03467V6.01807ZM7.95 7.01807V6.95H5.95V7.01807H7.95ZM11.1253 6.95V7.01807H13.1253V6.95H11.1253ZM12.1253 6.01807H12.05V8.01807H12.1253V6.01807ZM13.05 7.01807V6.95H11.05V7.01807H13.05ZM9.5 12.75C8.63054 12.75 7.8535 12.2852 7.40357 11.5583L5.70301 12.611C6.49256 13.8865 7.89179 14.75 9.5 14.75V12.75ZM11.5964 11.5583C11.1465 12.2852 10.3695 12.75 9.5 12.75V14.75C11.1082 14.75 12.5074 13.8865 13.297 12.611L11.5964 11.5583Z" fill="#65558F"/>
</svg>
