<svg width="20" height="22" viewBox="0 0 20 22" fill="none" xmlns="http://www.w3.org/2000/svg">
<path d="M13.5366 13.1571C13.4437 13.0633 13.3331 12.9889 13.2112 12.9382C13.0894 12.8874 12.9586 12.8613 12.8266 12.8613C12.6946 12.8613 12.5639 12.8874 12.4421 12.9382C12.3202 12.9889 12.2096 13.0633 12.1166 13.1571C11.9304 13.3444 11.8258 13.5979 11.8258 13.8621C11.8258 14.1262 11.9304 14.3797 12.1166 14.5671L18.2966 20.7471C18.3896 20.8408 18.5002 20.9152 18.6221 20.966C18.7439 21.0167 18.8746 21.0429 19.0066 21.0429C19.1386 21.0429 19.2694 21.0167 19.3912 20.966C19.5131 20.9152 19.6237 20.8408 19.7166 20.7471C19.9029 20.5597 20.0074 20.3062 20.0074 20.0421C20.0074 19.7779 19.9029 19.5244 19.7166 19.3371L13.5366 13.1571ZM14.7666 10.6671C15.562 10.6664 16.3246 10.3498 16.8866 9.78706L19.7166 6.95706C19.9029 6.7697 20.0074 6.51625 20.0074 6.25206C20.0074 5.98788 19.9029 5.73443 19.7166 5.54706C19.6237 5.45333 19.5131 5.37894 19.3912 5.32817C19.2694 5.2774 19.1386 5.25127 19.0066 5.25127C18.8746 5.25127 18.7439 5.2774 18.6221 5.32817C18.5002 5.37894 18.3896 5.45333 18.2966 5.54706L15.4666 8.37706C15.2793 8.56331 15.0258 8.66786 14.7616 8.66786C14.4974 8.66786 14.244 8.56331 14.0566 8.37706L17.5966 4.83706C17.7829 4.6497 17.8874 4.39625 17.8874 4.13206C17.8874 3.86788 17.7829 3.61443 17.5966 3.42706C17.5037 3.33333 17.3931 3.25894 17.2712 3.20817C17.1494 3.1574 17.0186 3.13126 16.8866 3.13126C16.7546 3.13126 16.6239 3.1574 16.5021 3.20817C16.3802 3.25894 16.2696 3.33333 16.1766 3.42706L12.6466 6.95706C12.4604 6.7697 12.3558 6.51625 12.3558 6.25206C12.3558 5.98788 12.4604 5.73443 12.6466 5.54706L15.4666 2.71706C15.5713 2.62742 15.6563 2.5171 15.7164 2.39303C15.7764 2.26897 15.8101 2.13384 15.8154 1.99612C15.8208 1.8584 15.7975 1.72107 15.7473 1.59274C15.697 1.46442 15.6207 1.34787 15.5233 1.25041C15.4258 1.15296 15.3093 1.0767 15.181 1.02643C15.0526 0.976151 14.9153 0.952945 14.7776 0.958265C14.6399 0.963584 14.5047 0.997314 14.3807 1.05734C14.2566 1.11736 14.1463 1.20238 14.0566 1.30706L11.2266 4.13706C10.6648 4.69956 10.3493 5.46206 10.3493 6.25706C10.3493 7.05207 10.6648 7.81456 11.2266 8.37706L10.0066 9.61706L8.44663 8.07706C8.88938 7.27802 9.05681 6.35546 8.92307 5.45179C8.78933 4.54813 8.36185 3.71361 7.70663 3.07706C6.26663 1.63706 2.53663 0.0270631 0.776635 1.81706C-0.983365 3.60706 0.606635 7.29706 2.00663 8.74706C2.78846 9.53169 3.83962 9.98934 4.94663 10.0271H5.08663C5.76275 10.0174 6.42462 9.83129 7.00663 9.48706L8.57663 11.0271L0.296635 19.3071C0.204053 19.4003 0.130742 19.5109 0.0808885 19.6324C0.0310348 19.754 0.00561434 19.8842 0.00607863 20.0156C0.00654292 20.147 0.0328828 20.277 0.0835944 20.3982C0.134306 20.5194 0.208396 20.6295 0.301635 20.7221C0.394873 20.8146 0.505434 20.888 0.627005 20.9378C0.748576 20.9877 0.878775 21.0131 1.01017 21.0126C1.14157 21.0122 1.27158 20.9858 1.3928 20.9351C1.51401 20.8844 1.62405 20.8103 1.71663 20.7171L10.7166 11.7171L12.6366 9.79706C12.917 10.0751 13.2494 10.2951 13.6149 10.4444C13.9804 10.5937 14.3718 10.6693 14.7666 10.6671ZM6.43664 7.46706C6.24929 7.6533 6.02571 7.7991 5.77973 7.89542C5.53376 7.99175 5.27063 8.03655 5.00663 8.02706C4.42204 8.00189 3.86999 7.75096 3.46663 7.32706C2.38663 6.24706 1.62663 3.79706 2.19663 3.22706C2.38596 3.08425 2.61988 3.01336 2.85663 3.02706C4.13293 3.12879 5.34097 3.64502 6.29663 4.49706C6.70491 4.87478 6.94839 5.39782 6.97458 5.95341C7.00077 6.50899 6.80757 7.05261 6.43664 7.46706Z" fill="#564632"/>
</svg>
