<svg width="12" height="17" viewBox="0 0 12 17" fill="none" xmlns="http://www.w3.org/2000/svg">
<path d="M11.512 8.18352C11.5152 8.15541 11.5152 8.127 11.512 8.09889C10.9157 6.59385 9.78768 5.39447 8.368 4.75609V1.69256H9.168C9.38017 1.69256 9.58366 1.6034 9.73368 1.44469C9.88371 1.28598 9.968 1.07073 9.968 0.846279C9.968 0.621832 9.88371 0.406577 9.73368 0.247869C9.58366 0.0891612 9.38017 0 9.168 0H2.768C2.55583 0 2.35234 0.0891612 2.20232 0.247869C2.05229 0.406577 1.968 0.621832 1.968 0.846279C1.968 1.07073 2.05229 1.28598 2.20232 1.44469C2.35234 1.6034 2.55583 1.69256 2.768 1.69256H3.568V4.75609C2.15287 5.41169 1.03606 6.62651 0.456002 8.1412C0.452816 8.16931 0.452816 8.19772 0.456002 8.22583C0.0787539 9.19013 -0.0678981 10.238 0.0290322 11.2765C0.125962 12.3151 0.463484 13.3124 1.01171 14.18C1.55993 15.0476 2.30194 15.7589 3.17204 16.2508C4.04213 16.7427 5.01345 17 6 17C6.98655 17 7.95787 16.7427 8.82796 16.2508C9.69806 15.7589 10.4401 15.0476 10.9883 14.18C11.5365 13.3124 11.874 12.3151 11.971 11.2765C12.0679 10.238 11.9212 9.19013 11.544 8.22583L11.512 8.18352ZM4.616 6.14398C4.77639 6.08866 4.91614 5.98112 5.01528 5.83672C5.11442 5.69233 5.16788 5.51848 5.168 5.34002V1.69256H6.768V5.34002C6.76812 5.51848 6.82158 5.69233 6.92072 5.83672C7.01986 5.98112 7.15961 6.08866 7.32 6.14398C8.11745 6.41716 8.82315 6.92856 9.352 7.61651H2.584C3.11285 6.92856 3.81855 6.41716 4.616 6.14398V6.14398ZM5.968 15.233C4.8017 15.2308 3.68377 14.7397 2.85907 13.8673C2.03436 12.9949 1.57012 11.8123 1.568 10.5785C1.5693 10.1486 1.62856 9.7212 1.744 9.30907H10.192C10.3074 9.7212 10.3667 10.1486 10.368 10.5785C10.3659 11.8123 9.90163 12.9949 9.07693 13.8673C8.25223 14.7397 7.1343 15.2308 5.968 15.233V15.233ZM7.568 11.8479C7.40977 11.8479 7.2551 11.8975 7.12354 11.9905C6.99198 12.0835 6.88945 12.2157 6.8289 12.3703C6.76835 12.525 6.7525 12.6951 6.78337 12.8593C6.81424 13.0234 6.89043 13.1742 7.00231 13.2926C7.1142 13.4109 7.25674 13.4915 7.41193 13.5242C7.56711 13.5569 7.72797 13.5401 7.87415 13.476C8.02033 13.412 8.14527 13.3035 8.23317 13.1643C8.32108 13.0252 8.368 12.8616 8.368 12.6942C8.368 12.4697 8.28371 12.2545 8.13368 12.0958C7.98366 11.9371 7.78017 11.8479 7.568 11.8479ZM4.368 11.0016C4.20978 11.0016 4.0551 11.0513 3.92354 11.1442C3.79198 11.2372 3.68945 11.3694 3.6289 11.524C3.56835 11.6787 3.5525 11.8488 3.58337 12.013C3.61424 12.1772 3.69043 12.328 3.80232 12.4463C3.9142 12.5647 4.05674 12.6453 4.21193 12.6779C4.36711 12.7106 4.52797 12.6938 4.67415 12.6298C4.82033 12.5657 4.94527 12.4572 5.03318 12.3181C5.12108 12.1789 5.168 12.0153 5.168 11.8479C5.168 11.6235 5.08371 11.4082 4.93369 11.2495C4.78366 11.0908 4.58017 11.0016 4.368 11.0016Z" fill="#65558F"/>
</svg>
