<svg width="16" height="17" viewBox="0 0 16 17" fill="none" xmlns="http://www.w3.org/2000/svg">
<path d="M15.8982 4.93658L15.1049 1.80543C15.0241 1.49448 14.8836 1.20301 14.6914 0.947973C14.4992 0.692933 14.2592 0.479407 13.9853 0.319807C13.7115 0.160207 13.4093 0.0577169 13.0963 0.0182952C12.7833 -0.0211265 12.4658 0.00330641 12.1621 0.0901735L10.6312 0.510896C10.53 0.538116 10.435 0.585524 10.3517 0.650384C10.2685 0.715244 10.1987 0.796273 10.1464 0.888794C10.094 0.981315 10.0601 1.0835 10.0467 1.18944C10.0332 1.29539 10.0405 1.403 10.0681 1.50607L10.2743 2.31515L1.85039 4.58867C1.6476 4.64375 1.47447 4.77855 1.36891 4.96356C1.26336 5.14856 1.23398 5.3687 1.28721 5.57575L1.49345 6.38484L0.700235 6.5952C0.489863 6.62202 0.298553 6.73299 0.168391 6.90369C0.0382301 7.07438 -0.0201206 7.29083 0.00617596 7.50542C0.0324725 7.72 0.141262 7.91514 0.308613 8.0479C0.475963 8.18067 0.688165 8.24019 0.898538 8.21336C0.967037 8.22176 1.03627 8.22176 1.10477 8.21336L1.89798 7.99491L2.10422 8.80399C2.15888 9.00828 2.28987 9.18257 2.46909 9.28944C2.58921 9.36216 2.72603 9.40123 2.8657 9.40271C2.93392 9.41496 3.00371 9.41496 3.07194 9.40271L5.66573 8.56936V8.90917C5.66628 9.26841 5.7477 9.62272 5.9037 9.9448L1.93764 13.9902C1.78828 14.1415 1.70395 14.3471 1.70321 14.5618C1.70246 14.7765 1.78537 14.9827 1.93368 15.1351C2.08199 15.2874 2.28356 15.3734 2.49405 15.3742C2.70454 15.375 2.90671 15.2904 3.05607 15.1391L7.02212 11.0937L7.24422 11.1827V16.1909C7.24422 16.4055 7.32779 16.6113 7.47655 16.763C7.6253 16.9148 7.82706 17 8.03743 17C8.24781 17 8.44956 16.9148 8.59832 16.763C8.74707 16.6113 8.83064 16.4055 8.83064 16.1909V11.1908C8.90922 11.1633 8.98605 11.1309 9.06068 11.0937L13.0267 15.1391C13.1761 15.2904 13.3783 15.375 13.5887 15.3742C13.7992 15.3734 14.0008 15.2874 14.1491 15.1351C14.2974 14.9827 14.3803 14.7765 14.3796 14.5618C14.3788 14.3471 14.2945 14.1415 14.1452 13.9902L10.1791 9.9448C10.3331 9.62163 10.4169 9.2684 10.425 8.90917V7.29101L11.4958 6.99974L11.6941 7.80882C11.7406 7.98533 11.8443 8.14059 11.9884 8.24931C12.1324 8.35803 12.3083 8.4138 12.4873 8.40754H12.6936L14.2245 7.98682C14.5339 7.90398 14.8238 7.75836 15.0768 7.55866C15.3297 7.35896 15.5407 7.10928 15.6969 6.82454C15.8531 6.5398 15.9515 6.22586 15.9861 5.90147C16.0206 5.57708 15.9907 5.24891 15.8982 4.93658V4.93658ZM8.83858 8.90917C8.83776 9.11749 8.75821 9.31746 8.61648 9.46744V9.46744C8.46943 9.61201 8.27339 9.69316 8.06916 9.69398C7.86107 9.69309 7.66166 9.60882 7.51391 9.45935C7.36737 9.30865 7.28476 9.10525 7.28388 8.89299V8.08391L8.83858 7.69555V8.90917ZM3.43681 7.50137L3.02434 5.93984L10.6868 3.84432L10.893 4.6534L11.0992 5.46248L3.43681 7.50137ZM14.2879 5.96411C14.2359 6.05697 14.1664 6.13839 14.0833 6.20366C14.0003 6.26893 13.9054 6.31676 13.8041 6.34438L13.0109 6.55474L12.3922 4.2084L12.0114 2.64687L11.8052 1.83779L12.5984 1.62743C12.6994 1.59933 12.8049 1.59193 12.9088 1.60564C13.0127 1.61935 13.1129 1.6539 13.2036 1.70731C13.2943 1.76071 13.3737 1.83192 13.4373 1.9168C13.5009 2.00169 13.5474 2.09858 13.574 2.20188L14.3673 5.33303C14.3965 5.43823 14.4046 5.54839 14.391 5.65686C14.3773 5.76533 14.3423 5.86985 14.2879 5.96411Z" fill="#65558F"/>
</svg>
