<svg width="13" height="17" viewBox="0 0 13 17" fill="none" xmlns="http://www.w3.org/2000/svg">
<path d="M10.8333 0H5.05556C4.48092 0 3.92982 0.244236 3.52349 0.67898C3.11716 1.11372 2.88889 1.70336 2.88889 2.31818H2.16667C1.59203 2.31818 1.04093 2.56242 0.634602 2.99716C0.228273 3.43191 0 4.02154 0 4.63636V6.95455C0 7.56937 0.228273 8.159 0.634602 8.59375C1.04093 9.02849 1.59203 9.27273 2.16667 9.27273H6.5C6.69155 9.27273 6.87525 9.35414 7.01069 9.49905C7.14613 9.64397 7.22222 9.84051 7.22222 10.0455V10.8182C6.83913 10.8182 6.47173 10.981 6.20085 11.2708C5.92996 11.5607 5.77778 11.9538 5.77778 12.3636V15.4545C5.77778 15.8644 5.92996 16.2575 6.20085 16.5473C6.47173 16.8372 6.83913 17 7.22222 17H8.66667C9.04976 17 9.41716 16.8372 9.68804 16.5473C9.95893 16.2575 10.1111 15.8644 10.1111 15.4545V12.3636C10.1111 11.9538 9.95893 11.5607 9.68804 11.2708C9.41716 10.981 9.04976 10.8182 8.66667 10.8182V10.0455C8.66667 9.43063 8.43839 8.841 8.03206 8.40625C7.62574 7.97151 7.07464 7.72727 6.5 7.72727H2.16667C1.97512 7.72727 1.79142 7.64586 1.65598 7.50095C1.52054 7.35603 1.44444 7.15949 1.44444 6.95455V4.63636C1.44444 4.43142 1.52054 4.23488 1.65598 4.08996C1.79142 3.94505 1.97512 3.86364 2.16667 3.86364H2.88889C2.88889 4.47846 3.11716 5.0681 3.52349 5.50284C3.92982 5.93758 4.48092 6.18182 5.05556 6.18182H10.8333C11.408 6.18182 11.9591 5.93758 12.3654 5.50284C12.7717 5.0681 13 4.47846 13 3.86364V2.31818C13 1.70336 12.7717 1.11372 12.3654 0.67898C11.9591 0.244236 11.408 0 10.8333 0ZM8.66667 12.3636V15.4545H7.22222V12.3636H8.66667ZM11.5556 3.86364C11.5556 4.06858 11.4795 4.26512 11.344 4.41004C11.2086 4.55495 11.0249 4.63636 10.8333 4.63636H5.05556C4.86401 4.63636 4.68031 4.55495 4.54487 4.41004C4.40942 4.26512 4.33333 4.06858 4.33333 3.86364V2.31818C4.33333 2.11324 4.40942 1.9167 4.54487 1.77178C4.68031 1.62687 4.86401 1.54545 5.05556 1.54545H10.8333C11.0249 1.54545 11.2086 1.62687 11.344 1.77178C11.4795 1.9167 11.5556 2.11324 11.5556 2.31818V3.86364Z" fill="#65558F"/>
</svg>
