<svg width="36" height="30" viewBox="0 0 36 30" fill="none" xmlns="http://www.w3.org/2000/svg">
<path d="M30 29.4698H6C4.54131 29.4698 3.14236 28.8903 2.11091 27.8589C1.07946 26.8274 0.5 25.4285 0.5 23.9698V11.9698C0.5 10.5111 1.07946 9.11215 2.11091 8.0807C3.14236 7.04925 4.54131 6.46978 6 6.46978H7.2L9.56 2.96978C10.0649 2.21882 10.7467 1.60351 11.5454 1.17802C12.3441 0.752532 13.2351 0.529921 14.14 0.529785H21.86C22.7649 0.529921 23.6559 0.752532 24.4546 1.17802C25.2533 1.60351 25.9351 2.21882 26.44 2.96978L28.8 6.46978H30C31.4587 6.46978 32.8576 7.04925 33.8891 8.0807C34.9205 9.11215 35.5 10.5111 35.5 11.9698V23.9698C35.5 25.4285 34.9205 26.8274 33.8891 27.8589C32.8576 28.8903 31.4587 29.4698 30 29.4698ZM6 9.46978C5.33696 9.46978 4.70107 9.73318 4.23223 10.202C3.76339 10.6709 3.5 11.3067 3.5 11.9698V23.9698C3.5 24.6328 3.76339 25.2687 4.23223 25.7376C4.70107 26.2064 5.33696 26.4698 6 26.4698H30C30.663 26.4698 31.2989 26.2064 31.7678 25.7376C32.2366 25.2687 32.5 24.6328 32.5 23.9698V11.9698C32.5 11.3067 32.2366 10.6709 31.7678 10.202C31.2989 9.73318 30.663 9.46978 30 9.46978H28C27.7551 9.46934 27.5141 9.40895 27.298 9.29391C27.0818 9.17886 26.8971 9.01265 26.76 8.80978L24 4.58978C23.7813 4.25596 23.4853 3.97983 23.1372 3.78485C22.789 3.58986 22.3989 3.48178 22 3.46978H14.14C13.7411 3.48178 13.351 3.58986 13.0028 3.78485C12.6547 3.97983 12.3587 4.25596 12.14 4.58978L9.24 8.80978C9.10288 9.01265 8.91818 9.17886 8.70203 9.29391C8.48588 9.40895 8.24486 9.46934 8 9.46978H6Z" fill="#8358D3"/>
<path d="M18 23.4702C16.7144 23.4702 15.4577 23.089 14.3888 22.3748C13.3199 21.6605 12.4868 20.6454 11.9948 19.4577C11.5028 18.2699 11.3741 16.963 11.6249 15.7021C11.8757 14.4413 12.4948 13.2831 13.4038 12.374C14.3129 11.465 15.471 10.8459 16.7319 10.5951C17.9928 10.3443 19.2997 10.473 20.4874 10.965C21.6752 11.457 22.6903 12.2901 23.4046 13.359C24.1188 14.4279 24.5 15.6846 24.5 16.9702C24.4947 18.6925 23.8082 20.3427 22.5904 21.5606C21.3725 22.7784 19.7223 23.4649 18 23.4702ZM18 13.4702C17.3078 13.4702 16.6311 13.6755 16.0555 14.0601C15.4799 14.4447 15.0313 14.9913 14.7664 15.6308C14.5015 16.2704 14.4322 16.9741 14.5673 17.653C14.7023 18.332 15.0356 18.9556 15.5251 19.4451C16.0146 19.9346 16.6383 20.2679 17.3172 20.403C17.9961 20.538 18.6999 20.4687 19.3394 20.2038C19.9789 19.9389 20.5256 19.4903 20.9101 18.9147C21.2947 18.3391 21.5 17.6625 21.5 16.9702C21.4948 16.0436 21.1243 15.1564 20.4691 14.5011C19.8138 13.8459 18.9266 13.4755 18 13.4702Z" fill="#8358D3"/>
</svg>
