<svg width="15" height="15" viewBox="0 0 15 15" fill="none" xmlns="http://www.w3.org/2000/svg">
<path d="M10.783 7.80586C10.6055 9.28399 9.63741 9.87461 9.21929 10.3034C8.80054 10.7334 8.87554 10.819 8.90366 11.4496C8.90836 11.5276 8.89702 11.6058 8.87036 11.6793C8.8437 11.7527 8.80227 11.82 8.74864 11.8768C8.695 11.9337 8.63029 11.979 8.55849 12.0099C8.48669 12.0408 8.40933 12.0566 8.33116 12.0565H6.66991C6.5918 12.0564 6.51454 12.0403 6.44283 12.0093C6.37113 11.9783 6.30649 11.9331 6.25286 11.8763C6.19923 11.8195 6.15773 11.7524 6.1309 11.679C6.10406 11.6057 6.09246 11.5276 6.09679 11.4496C6.09679 10.8309 6.15429 10.6871 5.78179 10.3034C5.30679 9.82836 4.18929 9.15774 4.18929 7.31336C4.18644 6.85523 4.27852 6.40149 4.45973 5.98071C4.64095 5.55994 4.90737 5.18128 5.24219 4.86858C5.57702 4.55588 5.97299 4.31594 6.40515 4.16387C6.83732 4.01181 7.29629 3.95092 7.75315 3.98504C8.21002 4.01917 8.65486 4.14757 9.05963 4.36214C9.46441 4.57672 9.82034 4.87283 10.105 5.23179C10.3897 5.59076 10.5969 6.0048 10.7136 6.44783C10.8303 6.89085 10.8539 7.35324 10.783 7.80586Z" stroke="#65558F" stroke-width="0.9375" stroke-linecap="round" stroke-linejoin="round"/>
<path d="M6.53789 12.0222V12.9672C6.53789 13.2254 6.68164 13.4372 6.85851 13.4372H8.14164C8.31976 13.4372 8.46289 13.2247 8.46289 12.9672V12.0222M7.01289 5.43473C6.64385 5.43489 6.28998 5.58161 6.02909 5.84262C5.7682 6.10363 5.62164 6.45756 5.62164 6.8266M12.0829 7.43973H13.2291M10.9291 3.68223L11.7423 2.8691M11.5541 10.6247L12.3673 11.4372M7.50039 1.48535V2.41223M3.27539 2.86848L4.08289 3.68223M2.65039 11.4372L3.45789 10.6247M2.91789 7.43973H1.77226" stroke="#65558F" stroke-width="0.9375" stroke-linecap="round" stroke-linejoin="round"/>
</svg>
