<?xml version="1.0" encoding="UTF-8" standalone="no"?>
<svg
   width="15"
   height="15"
   viewBox="0 0 15 15"
   fill="none"
   version="1.1"
   id="svg2"
   sodipodi:docname="ic_lamp_over.svg"
   inkscape:version="1.4 (e7c3feb1, 2024-10-09)"
   xmlns:inkscape="http://www.inkscape.org/namespaces/inkscape"
   xmlns:sodipodi="http://sodipodi.sourceforge.net/DTD/sodipodi-0.dtd"
   xmlns="http://www.w3.org/2000/svg"
   xmlns:svg="http://www.w3.org/2000/svg">
  <defs
     id="defs2" />
  <sodipodi:namedview
     id="namedview2"
     pagecolor="#ffffff"
     bordercolor="#000000"
     borderopacity="0.25"
     inkscape:showpageshadow="2"
     inkscape:pageopacity="0.0"
     inkscape:pagecheckerboard="0"
     inkscape:deskcolor="#d1d1d1"
     inkscape:zoom="48.722395"
     inkscape:cx="7.5016838"
     inkscape:cy="7.4708971"
     inkscape:window-width="1408"
     inkscape:window-height="847"
     inkscape:window-x="279"
     inkscape:window-y="1105"
     inkscape:window-maximized="0"
     inkscape:current-layer="svg2" />
  <path
     d="m 6.53789,12.0222 v 0.945 c 0,0.2582 0.14375,0.47 0.32062,0.47 h 1.28313 c 0.17812,0 0.32125,-0.2125 0.32125,-0.47 v -0.945 M 12.0829,7.43973 h 1.1462 m -2.3,-3.7575 0.8132,-0.81313 m -0.1882,7.7556 0.8132,0.8125 M 7.50039,1.48535 v 0.92688 m -4.225,0.45625 0.8075,0.81375 m -1.4325,7.75497 0.8075,-0.8125 m -0.54,-3.18497 H 1.77226"
     stroke="#65558f"
     stroke-width="0.9375"
     stroke-linecap="round"
     stroke-linejoin="round"
     id="path2"
     sodipodi:nodetypes="cssssccccccccccccccc" />
  <path
     id="path3"
     style="fill:#65558f;fill-opacity:1"
     d="M 5.3422322,6.0128212 C 5.4750447,5.7250907 5.6917711,5.4862782 5.9414967,5.3119922 6.4295642,4.9593609 6.9812793,4.9495837 7.1399045,4.9910382 7.4434868,5.0703752 7.4786244,5.3174119 7.4797018,5.3502608 7.4862391,5.5495882 7.4078873,5.7113366 7.3072392,5.8038972 7.1325205,5.9645765 6.9682042,5.8304748 6.6231794,5.9830867 6.4809501,6.0459978 6.3955333,6.1071302 6.307,6.2092416 6.1702614,6.3669514 6.1241609,6.500645 6.1088206,6.6520526 6.0851599,6.8855826 6.0808525,7.2703749 5.6448721,7.2865383 5.5825519,7.2888487 5.1967801,7.283512 5.1555357,6.8008883 5.1238077,6.4296226 5.3381835,6.0215926 5.3422322,6.0128212 Z M 7.7871094,3.5175781 C 7.265694,3.4786369 6.7432302,3.5491121 6.25,3.7226563 5.7567771,3.8962133 5.3040175,4.1685052 4.921875,4.5253906 4.5397496,4.8822708 4.2361246,5.3146939 4.0292969,5.7949219 3.8229937,6.2739696 3.7179915,6.7909527 3.7207031,7.3125 v 0.00195 c 3.7e-6,6.447e-4 -4e-6,0.00131 0,0.00195 0.00211,2.0304094 1.3597104,2.94757 1.7304688,3.31836 l -0.00586,-0.0039 c 0.1574679,0.162203 0.160767,0.184568 0.1738281,0.25 0.012478,0.06251 0.010093,0.24577 0.00977,0.542969 -0.00786,0.14155 0.013689,0.282713 0.0625,0.416016 0.048714,0.13327 0.1234309,0.2544 0.2207032,0.357422 0.097487,0.103249 0.213901,0.186046 0.34375,0.242187 0.1300125,0.0562 0.271936,0.08576 0.4140625,0.08594 h 1.6621094 c 0.1410774,-8e-5 0.2818966,-0.02795 0.4121093,-0.08399 0.1306652,-0.05623 0.2481696,-0.138726 0.3457032,-0.242187 0.097789,-0.10357 0.1722322,-0.225926 0.2207031,-0.359375 0.04825,-0.133023 0.068796,-0.274702 0.060547,-0.416016 -0.014587,-0.325718 -0.024805,-0.496208 -0.017578,-0.533203 0.00731,-0.0374 0.012402,-0.06593 0.2011719,-0.259766 C 9.870052,10.307447 11.043672,9.5258199 11.246094,7.8671875 11.324786,7.3543605 11.298212,6.8299731 11.166016,6.328125 11.032827,5.8224993 10.797596,5.351113 10.472656,4.9414062 10.147777,4.5317288 9.7412782,4.1921689 9.2792969,3.9472656 8.8173312,3.702376 8.3085338,3.5565306 7.7871094,3.5175781 Z" />
</svg>
