<svg width="16" height="18" viewBox="0 0 16 18" fill="none" xmlns="http://www.w3.org/2000/svg">
<path d="M15.5764 2.79816L11.988 0.61429C11.8665 0.539417 11.7287 0.5 11.5884 0.5C11.4481 0.5 11.3103 0.539417 11.1888 0.61429L7.99201 2.5593L4.7952 0.61429C4.67371 0.539417 4.53589 0.5 4.3956 0.5C4.25532 0.5 4.1175 0.539417 3.996 0.61429L0.407592 2.79816C0.284143 2.87223 0.181348 2.97998 0.109731 3.11039C0.0381129 3.24079 0.000244041 3.38917 0 3.54033V7.90807C0.000244041 8.05923 0.0381129 8.20761 0.109731 8.33801C0.181348 8.46842 0.284143 8.57617 0.407592 8.65024L3.6044 10.5867V14.4597C3.60464 14.6108 3.64251 14.7592 3.71413 14.8896C3.78574 15.02 3.88854 15.1278 4.01199 15.2018L7.60839 17.3857C7.72989 17.4606 7.8677 17.5 8.00799 17.5C8.14828 17.5 8.2861 17.4606 8.40759 17.3857L11.988 15.2018C12.1115 15.1278 12.2143 15.02 12.2859 14.8896C12.3575 14.7592 12.3954 14.6108 12.3956 14.4597V10.5867L15.5924 8.65024C15.7159 8.57617 15.8187 8.46842 15.8903 8.33801C15.9619 8.20761 15.9998 8.05923 16 7.90807V3.54033C15.9982 3.38746 15.9579 3.23792 15.8834 3.10736C15.8089 2.97679 15.7029 2.87 15.5764 2.79816ZM1.5984 7.41328V4.00099L4.3956 2.29484L7.19281 4.00099V7.41328L4.3956 9.11943L1.5984 7.41328ZM10.7892 13.9649L7.99201 15.671L5.19481 13.9649V10.5526L7.99201 8.84645L10.7892 10.5526V13.9649ZM14.3856 7.41328L11.5884 9.11943L8.79121 7.41328V4.00099L11.5884 2.29484L14.3856 4.00099V7.41328Z" fill="#65558F"/>
</svg>
