<svg width="17" height="13" viewBox="0 0 17 13" fill="none" xmlns="http://www.w3.org/2000/svg">
<path d="M7.80054 12.5C7.80054 12.5 6.80054 12.5 6.80054 11.5C6.80054 10.5 7.80054 7.5 11.8005 7.5C15.8005 7.5 16.8005 10.5 16.8005 11.5C16.8005 12.5 15.8005 12.5 15.8005 12.5H7.80054ZM11.8005 6.5C12.5962 6.5 13.3592 6.18393 13.9219 5.62132C14.4845 5.05871 14.8005 4.29565 14.8005 3.5C14.8005 2.70435 14.4845 1.94129 13.9219 1.37868C13.3592 0.816071 12.5962 0.5 11.8005 0.5C11.0049 0.5 10.2418 0.816071 9.67922 1.37868C9.11661 1.94129 8.80054 2.70435 8.80054 3.5C8.80054 4.29565 9.11661 5.05871 9.67922 5.62132C10.2418 6.18393 11.0049 6.5 11.8005 6.5ZM6.01654 12.5C5.86836 12.1878 5.79443 11.8455 5.80054 11.5C5.80054 10.145 6.48054 8.75 7.73654 7.78C7.10972 7.58644 6.45651 7.49197 5.80054 7.5C1.80054 7.5 0.800537 10.5 0.800537 11.5C0.800537 12.5 1.80054 12.5 1.80054 12.5H6.01654ZM5.30054 6.5C5.96358 6.5 6.59946 6.23661 7.0683 5.76777C7.53715 5.29893 7.80054 4.66304 7.80054 4C7.80054 3.33696 7.53715 2.70107 7.0683 2.23223C6.59946 1.76339 5.96358 1.5 5.30054 1.5C4.6375 1.5 4.00161 1.76339 3.53277 2.23223C3.06393 2.70107 2.80054 3.33696 2.80054 4C2.80054 4.66304 3.06393 5.29893 3.53277 5.76777C4.00161 6.23661 4.6375 6.5 5.30054 6.5Z" fill="#65558F"/>
</svg>
