<svg width="17" height="19" viewBox="0 0 17 19" fill="none" xmlns="http://www.w3.org/2000/svg">
<path d="M17 8.59985C17.0023 7.96436 16.8466 7.33948 16.5486 6.7885C16.2505 6.23751 15.8207 5.77998 15.3027 5.46224C15.3154 5.30625 15.3154 5.14938 15.3027 4.9934C15.3027 4.27603 15.0344 3.58805 14.557 3.08079C14.0795 2.57353 13.4319 2.28856 12.7567 2.28856H12.604C12.4626 1.8723 12.2273 1.49923 11.9187 1.20207C11.6101 0.904911 11.2375 0.692737 10.8337 0.584156C10.4299 0.475575 10.0073 0.473902 9.60272 0.579284C9.19818 0.684666 8.82416 0.893885 8.51345 1.18859C8.20274 0.893885 7.82872 0.684666 7.42418 0.579284C7.01964 0.473902 6.59695 0.475575 6.19316 0.584156C5.78937 0.692737 5.41683 0.904911 5.10819 1.20207C4.79956 1.49923 4.56427 1.8723 4.42294 2.28856H4.27018C3.59495 2.28856 2.94738 2.57353 2.46992 3.08079C1.99246 3.58805 1.72423 4.27603 1.72423 4.9934C1.71145 5.14938 1.71145 5.30625 1.72423 5.46224C1.24258 5.75147 0.83478 6.16139 0.536317 6.65631C0.237854 7.15123 0.057777 7.71616 0.011762 8.30191C-0.034253 8.88766 0.0551886 9.47648 0.272301 10.0171C0.489413 10.5577 0.827616 11.0338 1.25747 11.4039C0.97934 11.955 0.840877 12.5735 0.855669 13.1986C0.870461 13.8238 1.038 14.4341 1.34184 14.9697C1.64569 15.5052 2.07539 15.9477 2.58877 16.2536C3.10216 16.5594 3.68159 16.7182 4.27018 16.7144H4.42294C4.56427 17.1306 4.79956 17.5037 5.10819 17.8009C5.41683 18.098 5.78937 18.3102 6.19316 18.4188C6.59695 18.5274 7.01964 18.529 7.42418 18.4236C7.82872 18.3183 8.20274 18.109 8.51345 17.8143C8.82416 18.109 9.19818 18.3183 9.60272 18.4236C10.0073 18.529 10.4299 18.5274 10.8337 18.4188C11.2375 18.3102 11.6101 18.098 11.9187 17.8009C12.2273 17.5037 12.4626 17.1306 12.604 16.7144H12.7567C13.3417 16.7104 13.9158 16.546 14.4234 16.2369C14.9309 15.9278 15.3547 15.4846 15.6535 14.9503C15.9524 14.416 16.1162 13.8087 16.129 13.1874C16.1419 12.566 16.0034 11.9516 15.727 11.4039C16.1228 11.0672 16.4426 10.6405 16.6629 10.1553C16.8832 9.67007 16.9984 9.13857 17 8.59985ZM7.6648 6.3909C7.47996 6.27858 7.28698 6.18211 7.08771 6.10238C6.87389 6.02586 6.64021 6.04272 6.43809 6.14924C6.23596 6.25577 6.08195 6.44323 6.00992 6.6704C5.9379 6.89757 5.95376 7.14583 6.05403 7.36056C6.1543 7.5753 6.33075 7.73893 6.54457 7.81545C6.87126 7.94092 7.15383 8.16986 7.35416 8.47137C7.55448 8.77287 7.66291 9.13242 7.6648 9.50146V10.899C7.47996 10.7866 7.28698 10.6902 7.08771 10.6104C6.87389 10.5339 6.64021 10.5508 6.43809 10.6573C6.23596 10.7638 6.08195 10.9513 6.00992 11.1785C5.9379 11.4056 5.95376 11.6539 6.05403 11.8686C6.1543 12.0834 6.33075 12.247 6.54457 12.3235C6.87126 12.449 7.15383 12.6779 7.35416 12.9794C7.55448 13.2809 7.66291 13.6405 7.6648 14.0095V15.8128C7.6648 16.0519 7.57538 16.2812 7.41623 16.4503C7.25708 16.6194 7.04122 16.7144 6.81614 16.7144C6.65196 16.7132 6.49161 16.6615 6.35453 16.5655C6.21746 16.4695 6.10954 16.3333 6.04387 16.1734C6.18617 16.0847 6.3223 15.9853 6.45122 15.8759C6.53704 15.8001 6.60796 15.7071 6.65995 15.6022C6.71193 15.4973 6.74396 15.3826 6.75421 15.2645C6.76445 15.1465 6.75271 15.0274 6.71965 14.9142C6.6866 14.801 6.63287 14.6958 6.56155 14.6046C6.49022 14.5134 6.40269 14.4381 6.30396 14.3828C6.20522 14.3276 6.09721 14.2936 5.9861 14.2827C5.87498 14.2718 5.76294 14.2843 5.65636 14.3194C5.54978 14.3545 5.45076 14.4116 5.36495 14.4874C5.05852 14.7615 4.67074 14.9116 4.27018 14.9111C3.82003 14.9111 3.38831 14.7212 3.07001 14.383C2.7517 14.0448 2.57288 13.5862 2.57288 13.1079C2.57694 12.7685 2.67107 12.4373 2.84445 12.1522C3.0349 12.1885 3.22804 12.2066 3.42153 12.2063C3.64661 12.2063 3.86247 12.1113 4.02162 11.9422C4.18077 11.7731 4.27018 11.5438 4.27018 11.3047C4.27018 11.0656 4.18077 10.8362 4.02162 10.6672C3.86247 10.4981 3.64661 10.4031 3.42153 10.4031C3.22107 10.4043 3.02226 10.3645 2.83596 10.2859C2.53074 10.1689 2.26346 9.96147 2.0658 9.6881C1.86814 9.41474 1.74837 9.08691 1.72069 8.74345C1.693 8.39999 1.75856 8.0553 1.9096 7.75021C2.06063 7.44512 2.29082 7.19241 2.57288 7.02203C2.69347 7.1399 2.82417 7.24555 2.96326 7.33759C3.15908 7.45715 3.39158 7.48918 3.60962 7.42662C3.82766 7.36405 4.01338 7.21203 4.12591 7.004C4.23845 6.79596 4.26859 6.54895 4.20971 6.3173C4.15082 6.08565 4.00773 5.88835 3.81191 5.76879C3.69244 5.69877 3.59281 5.59603 3.52337 5.47125C3.44491 5.3265 3.40941 5.15995 3.42153 4.9934C3.42153 4.75428 3.51094 4.52495 3.6701 4.35586C3.82925 4.18678 4.04511 4.09179 4.27018 4.09179C4.3293 4.08303 4.38928 4.08303 4.4484 4.09179C4.49333 4.23665 4.54719 4.37821 4.60965 4.51554C4.66509 4.61886 4.73922 4.7095 4.82778 4.78224C4.91633 4.85499 5.01756 4.90841 5.12562 4.93941C5.23369 4.97042 5.34647 4.97841 5.45745 4.96291C5.56844 4.94742 5.67544 4.90876 5.7723 4.84914C5.96045 4.72887 6.0974 4.53581 6.15437 4.31051C6.21134 4.08522 6.1839 3.84523 6.07781 3.64098C6.00661 3.50268 5.96871 3.34781 5.96749 3.19017C5.96749 2.95105 6.0569 2.72172 6.21605 2.55264C6.37521 2.38355 6.59107 2.28856 6.81614 2.28856C7.04122 2.28856 7.25708 2.38355 7.41623 2.55264C7.57538 2.72172 7.6648 2.95105 7.6648 3.19017V6.3909ZM14.1909 10.2859C14.0046 10.3645 13.8058 10.4043 13.6054 10.4031C13.3803 10.4031 13.1644 10.4981 13.0053 10.6672C12.8461 10.8362 12.7567 11.0656 12.7567 11.3047C12.7567 11.5438 12.8461 11.7731 13.0053 11.9422C13.1644 12.1113 13.3803 12.2063 13.6054 12.2063C13.7989 12.2066 13.992 12.1885 14.1824 12.1522C14.3558 12.4373 14.45 12.7685 14.454 13.1079C14.454 13.5862 14.2752 14.0448 13.9569 14.383C13.6386 14.7212 13.2069 14.9111 12.7567 14.9111C12.3562 14.9116 11.9684 14.7615 11.6619 14.4874C11.4886 14.3343 11.2652 14.2607 11.0408 14.2827C10.8164 14.3047 10.6094 14.4205 10.4653 14.6046C10.3213 14.7887 10.252 15.0261 10.2727 15.2645C10.2934 15.5029 10.4024 15.7228 10.5757 15.8759C10.7046 15.9853 10.8407 16.0847 10.983 16.1734C10.9174 16.3333 10.8094 16.4695 10.6724 16.5655C10.5353 16.6615 10.3749 16.7132 10.2108 16.7144C9.98568 16.7144 9.76982 16.6194 9.61067 16.4503C9.45151 16.2812 9.3621 16.0519 9.3621 15.8128V14.0095C9.36399 13.6405 9.47241 13.2809 9.67274 12.9794C9.87306 12.6779 10.1556 12.449 10.4823 12.3235C10.6961 12.247 10.8726 12.0834 10.9729 11.8686C11.0731 11.6539 11.089 11.4056 11.017 11.1785C10.9449 10.9513 10.7909 10.7638 10.5888 10.6573C10.3867 10.5508 10.153 10.5339 9.93918 10.6104C9.73991 10.6902 9.54694 10.7866 9.3621 10.899V9.50146C9.36399 9.13242 9.47241 8.77287 9.67274 8.47137C9.87306 8.16986 10.1556 7.94092 10.4823 7.81545C10.6961 7.73893 10.8726 7.5753 10.9729 7.36056C11.0731 7.14583 11.089 6.89757 11.017 6.6704C10.9449 6.44323 10.7909 6.25577 10.5888 6.14924C10.3867 6.04272 10.153 6.02586 9.93918 6.10238C9.73991 6.18211 9.54694 6.27858 9.3621 6.3909V3.19017C9.3621 2.95105 9.45151 2.72172 9.61067 2.55264C9.76982 2.38355 9.98568 2.28856 10.2108 2.28856C10.4358 2.28856 10.6517 2.38355 10.8108 2.55264C10.97 2.72172 11.0594 2.95105 11.0594 3.19017C11.0582 3.34781 11.0203 3.50268 10.9491 3.64098C10.8926 3.74335 10.8557 3.85655 10.8405 3.97409C10.8253 4.09163 10.8321 4.21121 10.8605 4.32596C10.8889 4.44072 10.9383 4.54839 11.0059 4.64281C11.0736 4.73723 11.1581 4.81654 11.2546 4.87619C11.3515 4.9358 11.4585 4.97447 11.5694 4.98996C11.6804 5.00546 11.7932 4.99747 11.9013 4.96646C12.0093 4.93545 12.1106 4.88204 12.1991 4.80929C12.2877 4.73655 12.3618 4.64591 12.4172 4.54259C12.4808 4.39648 12.5346 4.24585 12.5785 4.09179C12.6376 4.08303 12.6976 4.08303 12.7567 4.09179C12.9818 4.09179 13.1976 4.18678 13.3568 4.35586C13.516 4.52495 13.6054 4.75428 13.6054 4.9934C13.6041 5.17015 13.5539 5.34259 13.4611 5.48929C13.3917 5.60629 13.2953 5.7025 13.181 5.76879C12.9852 5.88835 12.8421 6.08565 12.7832 6.3173C12.7244 6.54895 12.7545 6.79596 12.867 7.004C12.9796 7.21203 13.1653 7.36405 13.3833 7.42662C13.6014 7.48918 13.8339 7.45715 14.0297 7.33759C14.1821 7.25005 14.3244 7.14417 14.454 7.02203C14.737 7.1894 14.9691 7.43932 15.1227 7.74227C15.2764 8.04522 15.3452 8.38856 15.3211 8.73174C15.297 9.07491 15.181 9.4036 14.9868 9.67899C14.7925 9.95437 14.5281 10.165 14.2249 10.2859H14.1909Z" fill="#65558F"/>
</svg>
