<svg width="75" height="76" viewBox="0 0 75 76" fill="none" xmlns="http://www.w3.org/2000/svg">
<rect x="0.5" y="1.09961" width="74" height="74" rx="37" fill="white"/>
<rect x="0.5" y="1.09961" width="74" height="74" rx="37" stroke="#2790C3"/>
<g clip-path="url(#clip0_956_2941)">
<path d="M44.8815 27.5464C43.728 26.2316 41.6429 25.668 38.9755 25.668H31.2337C30.9698 25.6679 30.7145 25.7621 30.5138 25.9335C30.3131 26.1048 30.1801 26.3422 30.1388 26.6029L26.9153 47.0472C26.8512 47.4503 27.1634 47.8154 27.572 47.8154H32.3515L33.5518 40.2019L33.5145 40.4403C33.6001 39.9022 34.0603 39.5052 34.6054 39.5052H36.8765C41.3383 39.5052 44.8319 37.693 45.8525 32.4505C45.8828 32.2955 45.909 32.1445 45.9317 31.9971C45.8029 31.9289 45.8029 31.9289 45.9317 31.9971C46.2356 30.0594 45.9296 28.7405 44.8815 27.5464Z" fill="#27346A"/>
<path d="M35.3806 31.2991C35.5112 31.2368 35.6542 31.2045 35.7989 31.2047H41.8683C42.587 31.2047 43.2573 31.2515 43.8699 31.3501C44.0413 31.3774 44.2119 31.4101 44.3813 31.4479C44.6214 31.5009 44.8587 31.5658 45.0924 31.6422C45.3935 31.7428 45.674 31.8599 45.9318 31.9971C46.2356 30.0587 45.9296 28.7405 44.8815 27.5464C43.7274 26.2316 41.6429 25.668 38.9755 25.668H31.2331C30.688 25.668 30.2242 26.0648 30.1388 26.6029L26.9153 47.0464C26.8512 47.4503 27.1634 47.8148 27.5713 47.8148H32.3515L34.8418 32.0226C34.8663 31.8674 34.9281 31.7204 35.022 31.5944C35.1158 31.4684 35.2389 31.367 35.3806 31.2991Z" fill="#27346A"/>
<path d="M45.8525 32.4495C44.832 37.6912 41.3384 39.5042 36.8766 39.5042H34.6047C34.0597 39.5042 33.5993 39.9011 33.5147 40.4393L32.0214 49.9058C31.9656 50.2586 32.2384 50.5783 32.5954 50.5783H36.6243C36.8551 50.5782 37.0783 50.4958 37.2538 50.3459C37.4293 50.196 37.5455 49.9884 37.5815 49.7604L37.6208 49.5551L38.3801 44.7425L38.4291 44.4766C38.4651 44.2486 38.5813 44.041 38.7568 43.8911C38.9322 43.7412 39.1554 43.6588 39.3862 43.6587H39.9892C43.8921 43.6587 46.9481 42.0731 47.8411 37.4873C48.2139 35.5709 48.021 33.9709 47.0349 32.8471C46.7358 32.5067 46.3644 32.2256 45.9317 31.9961C45.9083 32.1443 45.8829 32.2944 45.8525 32.4495Z" fill="#2790C3"/>
<path d="M44.8636 31.5698C44.7045 31.5233 44.5439 31.4822 44.382 31.4464C44.2125 31.4092 44.042 31.3768 43.8707 31.3492C43.2574 31.25 42.5875 31.2031 41.8682 31.2031H35.7996C35.6547 31.2029 35.5117 31.2354 35.3813 31.2982C35.2394 31.3659 35.1162 31.4672 35.0222 31.5933C34.9283 31.7194 34.8666 31.8664 34.8423 32.0218L33.5524 40.2004L33.5152 40.4388C33.6 39.9006 34.0603 39.5037 34.6054 39.5037H36.8773C41.339 39.5037 44.8326 37.6915 45.8531 32.449C45.8835 32.2939 45.909 32.1437 45.9324 31.9956C45.674 31.8593 45.3942 31.7412 45.093 31.6414C45.017 31.6162 44.9406 31.5923 44.8637 31.5698" fill="#1F264F"/>
</g>
<defs>
<clipPath id="clip0_956_2941">
<rect width="21.1921" height="25" fill="white" transform="translate(26.904 25.5996)"/>
</clipPath>
</defs>
</svg>
