
<svg width="200px" height="199px" viewBox="0 0 200 199" version="1.1" xmlns="http://www.w3.org/2000/svg" xmlns:xlink="http://www.w3.org/1999/xlink">
    <title>ic_tabbar_search</title>
    <defs>
        <linearGradient x1="8.34087936%" y1="8.63638744%" x2="94.8385149%" y2="95.1209687%" id="linearGradient-1">
            <stop stop-color="#8F2AC7" offset="0%"></stop>
            <stop stop-color="#DA5673" offset="60%"></stop>
            <stop stop-color="#DA5673" offset="100%"></stop>
        </linearGradient>
    </defs>
    <g id="Page-1" stroke="none" stroke-width="1" fill="none" fill-rule="evenodd">
        <g id="ic_tabbar_search" transform="translate(0.980000, 0.000000)" fill="url(#linearGradient-1)" fill-rule="nonzero">
            <path d="M72.69,0 C92.77,0 110.93,8.13 124.09,21.28 C137.22,34.42 145.35,52.58 145.35,72.64 L145.37,72.67 C145.37,89.91 139.37,105.76 129.32,118.22 L198.78,187.68 L187.71,198.75 L118.25,129.29 C105.79,139.32 89.95,145.32 72.71,145.32 L72.66,145.32 C52.6,145.32 34.43,137.19 21.29,124.06 C8.14,110.91 0,92.73 0,72.67 L0.03,72.64 C0.03,52.58 8.16,34.42 21.29,21.28 C34.44,8.13 52.61,0 72.67,0 L72.69,0 Z M72.71,15.88 C57.01,15.88 42.81,22.24 32.54,32.51 C22.26,42.79 15.9,56.99 15.88,72.66 C15.9,88.35 22.26,102.56 32.54,112.83 C42.82,123.11 57.03,129.49 72.7,129.49 C88.38,129.49 102.58,123.11 112.86,112.83 C123.14,102.56 129.500024,88.35 129.500024,72.67 C129.51,56.99 123.14,42.79 112.86,32.51 C102.59,22.24 88.39,15.88 72.71,15.88 Z" id="Shape"></path>
        </g>
    </g>
</svg>