<svg width="15" height="16" viewBox="0 0 15 16" fill="none" xmlns="http://www.w3.org/2000/svg">
<path d="M7.50025 0.5C5.51119 0.5 3.6036 1.29015 2.19713 2.69663C0.790651 4.1031 0.000501312 6.01069 0.000501312 7.99975C-0.010989 8.98782 0.17515 9.96822 0.547979 10.8833C0.920808 11.7984 1.4728 12.6298 2.17152 13.3285C2.87024 14.0272 3.70158 14.5792 4.61668 14.952C5.53178 15.3248 6.51218 15.511 7.50025 15.4995C7.67074 15.4995 7.83425 15.4318 7.9548 15.3112C8.07536 15.1907 8.14309 15.0272 8.14309 14.8567C8.14309 14.6862 8.07536 14.5227 7.9548 14.4021C7.83425 14.2816 7.67074 14.2138 7.50025 14.2138C6.68166 14.223 5.86948 14.0686 5.1114 13.7595C4.35333 13.4505 3.66463 12.9931 3.08576 12.4142C2.50689 11.8354 2.04951 11.1467 1.74048 10.3886C1.43145 9.63052 1.27699 8.81834 1.28617 7.99975C1.28844 6.35237 1.94386 4.77311 3.10874 3.60824C4.27361 2.44336 5.85287 1.78794 7.50025 1.78567C11.623 1.78567 13.7143 3.87703 13.7143 7.99975V9.18257C13.7286 9.35503 13.707 9.52859 13.6508 9.69227C13.5947 9.85595 13.5051 10.0062 13.3879 10.1335C13.2707 10.2609 13.1284 10.3625 12.9699 10.432C12.8115 10.5015 12.6403 10.5374 12.4672 10.5374C12.2942 10.5374 12.123 10.5015 11.9645 10.432C11.806 10.3625 11.6637 10.2609 11.5465 10.1335C11.4293 10.0062 11.3398 9.85595 11.2836 9.69227C11.2274 9.52859 11.2058 9.35503 11.2201 9.18257V4.897C11.2201 4.72651 11.1524 4.563 11.0318 4.44244C10.9113 4.32189 10.7478 4.25416 10.5773 4.25416C10.4068 4.25416 10.2433 4.32189 10.1227 4.44244C10.0022 4.563 9.93445 4.72651 9.93445 4.897V5.18842C9.26024 4.60012 8.39504 4.27719 7.50025 4.27987C6.51368 4.27987 5.56751 4.67179 4.8699 5.3694C4.17229 6.06701 3.78038 7.01318 3.78038 7.99975C3.78038 8.98632 4.17229 9.93249 4.8699 10.6301C5.56751 11.3277 6.51368 11.7196 7.50025 11.7196C8.02756 11.7178 8.54833 11.6029 9.02741 11.3825C9.50649 11.1622 9.93271 10.8417 10.2773 10.4425C10.5544 10.9265 10.9838 11.3052 11.4985 11.5198C12.0132 11.7344 12.5845 11.7729 13.1233 11.6291C13.6621 11.4854 14.1383 11.1675 14.4777 10.725C14.8172 10.2825 15.0008 9.74024 15 9.18257V7.99975C15 3.16563 12.3344 0.5 7.50025 0.5ZM7.50025 10.434C7.01881 10.434 6.54818 10.2912 6.14788 10.0237C5.74758 9.75624 5.43558 9.37607 5.25134 8.93128C5.0671 8.48649 5.01889 7.99705 5.11282 7.52486C5.20674 7.05267 5.43858 6.61894 5.77901 6.27851C6.11944 5.93808 6.55317 5.70624 7.02536 5.61232C7.49755 5.51839 7.98699 5.5666 8.43178 5.75084C8.87657 5.93508 9.25674 6.24707 9.52422 6.64738C9.79169 7.04768 9.93445 7.51831 9.93445 7.99975C9.9322 8.64464 9.67501 9.26248 9.219 9.7185C8.76298 10.1745 8.14515 10.4317 7.50025 10.434Z" fill="#8358D3"/>
</svg>
