<svg width="13" height="16" viewBox="0 0 13 16" fill="none" xmlns="http://www.w3.org/2000/svg">
<path d="M8.70627 2.89234C8.98979 2.56557 9.20597 2.18602 9.34239 1.77547C9.47881 1.36492 9.53279 0.931467 9.50122 0.5C8.63081 0.570261 7.82283 0.979635 7.25137 1.63992C6.97771 1.95638 6.77034 2.32454 6.64152 2.72259C6.5127 3.12063 6.46506 3.54048 6.50142 3.95727C6.926 3.96081 7.3457 3.8666 7.72804 3.68193C8.11037 3.49727 8.44509 3.2271 8.70627 2.89234ZM10.5961 8.47197C10.6012 7.89731 10.7525 7.33341 11.036 6.83348C11.3194 6.33355 11.7255 5.91408 12.216 5.61466C11.9065 5.16862 11.4972 4.80084 11.0208 4.54049C10.5444 4.28014 10.0138 4.13437 9.47122 4.11476C8.3013 3.99477 7.22137 4.79721 6.59891 4.79721C5.97645 4.79721 5.09901 4.12976 4.12408 4.14476C3.48672 4.16575 2.86568 4.35158 2.32153 4.68411C1.77739 5.01664 1.32872 5.48453 1.01928 6.04213C-0.300628 8.33698 0.681807 11.7493 2.00172 13.6016C2.60168 14.5091 3.35163 15.5365 4.34156 15.499C5.3315 15.4615 5.65398 14.884 6.8014 14.884C7.94882 14.884 8.3013 15.499 9.27624 15.4765C10.2512 15.454 10.9411 14.5466 11.5711 13.6391C12.0173 12.9803 12.3659 12.2604 12.606 11.5018C12.0117 11.2483 11.5046 10.8263 11.1474 10.2878C10.7902 9.74939 10.5986 9.11811 10.5961 8.47197Z" fill="#8358D3"/>
</svg>
