<svg width="20" height="20" viewBox="0 0 20 20" fill="none" xmlns="http://www.w3.org/2000/svg"> <path d="M19.2501 10H16.2881C16.0781 10 15.9721 10 15.8831 10.042C15.8017 10.0805 15.7323 10.1403 15.6821 10.215C15.6211 10.303 15.5901 10.42 15.5271 10.655L13.7101 17.5011C13.4771 18.3761 13.3611 18.8141 13.1861 18.9271C13.1141 18.975 13.0296 19.0004 12.9432 19C12.8569 18.9996 12.7726 18.9736 12.701 18.9251C12.526 18.8101 12.413 18.3711 12.187 17.4951L8.31398 2.50489C8.08698 1.62888 7.97398 1.18987 7.79897 1.07487C7.72746 1.02642 7.64315 1.00036 7.55678 1C7.4704 0.999648 7.38587 1.02501 7.31397 1.07287C7.13896 1.18587 7.02296 1.62288 6.78996 2.49889L4.97293 9.34399C4.90993 9.58 4.87893 9.697 4.81893 9.784C4.76859 9.85921 4.69877 9.91935 4.61693 9.958C4.52793 10 4.42292 10 4.21192 10H1.24988" stroke="#BCB5D1" stroke-width="1.44002" stroke-linecap="round" stroke-linejoin="round"/> </svg>