<svg width="21" height="20" viewBox="0 0 21 20" fill="none" xmlns="http://www.w3.org/2000/svg">
<g clip-path="url(#clip0_214_9727)">
<path d="M17.5555 4.44434H13.111V5.55545H17.5555V17.2221H13.111V18.3332H18.6666V5.55545C18.6666 5.26076 18.5495 4.97815 18.3411 4.76977C18.1328 4.5614 17.8502 4.44434 17.5555 4.44434Z" fill="#8358D3"/>
<path d="M11.3777 1.66675H3.73326C3.42089 1.66675 3.12132 1.79083 2.90044 2.01171C2.67957 2.23259 2.55548 2.53216 2.55548 2.84453V18.3334H12.5555V2.84453C12.5555 2.53216 12.4314 2.23259 12.2105 2.01171C11.9896 1.79083 11.6901 1.66675 11.3777 1.66675ZM11.4444 17.2223H9.7777V15.5556H5.33326V17.2223H3.66659V2.84453C3.66659 2.83577 3.66832 2.8271 3.67167 2.81901C3.67502 2.81093 3.67993 2.80358 3.68612 2.79739C3.69231 2.79119 3.69966 2.78628 3.70775 2.78293C3.71583 2.77958 3.7245 2.77786 3.73326 2.77786H11.3777C11.3865 2.77786 11.3951 2.77958 11.4032 2.78293C11.4113 2.78628 11.4187 2.79119 11.4248 2.79739C11.431 2.80358 11.4359 2.81093 11.4393 2.81901C11.4426 2.8271 11.4444 2.83577 11.4444 2.84453V17.2223Z" fill="#8358D3"/>
<path d="M4.77771 4.44434H5.88882V5.55545H4.77771V4.44434Z" fill="#8358D3"/>
<path d="M6.99994 4.44434H8.11105V5.55545H6.99994V4.44434Z" fill="#8358D3"/>
<path d="M9.22217 4.44434H10.3333V5.55545H9.22217V4.44434Z" fill="#8358D3"/>
<path d="M4.77771 7.22217H5.88882V8.33328H4.77771V7.22217Z" fill="#8358D3"/>
<path d="M6.99994 7.22217H8.11105V8.33328H6.99994V7.22217Z" fill="#8358D3"/>
<path d="M9.22217 7.22217H10.3333V8.33328H9.22217V7.22217Z" fill="#8358D3"/>
<path d="M4.77771 10H5.88882V11.1111H4.77771V10Z" fill="#8358D3"/>
<path d="M6.99994 10H8.11105V11.1111H6.99994V10Z" fill="#8358D3"/>
<path d="M9.22217 10H10.3333V11.1111H9.22217V10Z" fill="#8358D3"/>
<path d="M4.77771 12.7778H5.88882V13.8889H4.77771V12.7778Z" fill="#8358D3"/>
<path d="M6.99994 12.7778H8.11105V13.8889H6.99994V12.7778Z" fill="#8358D3"/>
<path d="M9.22217 12.7778H10.3333V13.8889H9.22217V12.7778Z" fill="#8358D3"/>
<path d="M13.111 7.22217H14.2221V8.33328H13.111V7.22217Z" fill="#8358D3"/>
<path d="M15.3333 7.22217H16.4444V8.33328H15.3333V7.22217Z" fill="#8358D3"/>
<path d="M13.111 10H14.2221V11.1111H13.111V10Z" fill="#8358D3"/>
<path d="M15.3333 10H16.4444V11.1111H15.3333V10Z" fill="#8358D3"/>
<path d="M13.111 12.7778H14.2221V13.8889H13.111V12.7778Z" fill="#8358D3"/>
<path d="M15.3333 12.7778H16.4444V13.8889H15.3333V12.7778Z" fill="#8358D3"/>
</g>
<defs>
<clipPath id="clip0_214_9727">
<rect width="20" height="20" fill="white" transform="translate(0.333252)"/>
</clipPath>
</defs>
</svg>
