<svg width="36" height="38" viewBox="0 0 36 38" fill="none" xmlns="http://www.w3.org/2000/svg">
<path d="M7.5 17.25C7.5 12.301 7.5 9.82475 9.03825 8.28825C10.5748 6.75 13.051 6.75 18 6.75H23.25C28.199 6.75 30.6753 6.75 32.2118 8.28825C33.75 9.82475 33.75 12.301 33.75 17.25V26C33.75 30.949 33.75 33.4253 32.2118 34.9618C30.6753 36.5 28.199 36.5 23.25 36.5H18C13.051 36.5 10.5748 36.5 9.03825 34.9618C7.5 33.4253 7.5 30.949 7.5 26V17.25Z" stroke="#8358D3" stroke-width="2.625"/>
<path d="M7.5 31.25C6.10761 31.25 4.77226 30.6969 3.78769 29.7123C2.80312 28.7277 2.25 27.3924 2.25 26V15.5C2.25 8.90075 2.25 5.60025 4.301 3.551C6.352 1.50175 9.65075 1.5 16.25 1.5H23.25C24.6424 1.5 25.9777 2.05312 26.9623 3.03769C27.9469 4.02226 28.5 5.35761 28.5 6.75" stroke="#8358D3" stroke-width="2.625"/>
</svg>
