<svg width="16" height="16" viewBox="0 0 16 16" fill="none" xmlns="http://www.w3.org/2000/svg">
<path d="M7.875 0.125C6.31748 0.125 4.79492 0.586861 3.49989 1.45218C2.20485 2.31749 1.19549 3.5474 0.599452 4.98637C0.00341213 6.42534 -0.152539 8.00874 0.151319 9.53634C0.455178 11.0639 1.2052 12.4671 2.30654 13.5685C3.40788 14.6698 4.81107 15.4198 6.33867 15.7237C7.86627 16.0275 9.44967 15.8716 10.8886 15.2756C12.3276 14.6795 13.5575 13.6702 14.4228 12.3751C15.2881 11.0801 15.75 9.55753 15.75 8C15.75 5.91142 14.9203 3.90838 13.4435 2.43153C11.9666 0.954685 9.96358 0.125 7.875 0.125ZM6.75 11.1444L3.9375 8.33187L4.83188 7.4375L6.75 9.35563L10.9181 5.1875L11.8159 6.07963L6.75 11.1444Z" fill="#66686C"/>
</svg>
