<svg
        width="78"
        height="70"
        viewBox="0 0 78 70"
        fill="none"
        xmlns="http://www.w3.org/2000/svg"
        >
    <defs>
        <linearGradient
                id="paint0_linear_393_269"
                x1="40.0002"
                y1="3"
                x2="40.0002"
                y2="67"
                gradientUnits="userSpaceOnUse"
                >
            <stop stop-color="#8F2AC7" />
            <stop
                    offset="0.595"
                    stop-color="#DA5673"
                    />
        </linearGradient>
        <linearGradient
                id="paint1_linear_393_269"
                x1="39"
                y1="3"
                x2="39"
                y2="57.626"
                gradientUnits="userSpaceOnUse"
                >
            <stop stop-color="#8F2AC7" />
            <stop
                    offset="0.595"
                    stop-color="#DA5673"
                    />
        </linearGradient>
        <linearGradient
                id="paint2_linear_393_269"
                x1="40.7476"
                y1="25"
                x2="40.7476"
                y2="45"
                gradientUnits="userSpaceOnUse"
                >
            <stop stop-color="#8F2AC7" />
            <stop
                    offset="0.595"
                    stop-color="#DA5673"
                    />
        </linearGradient>
    </defs>
    <path
            d="M19.2173 20.7778C18.1816 23.9052 17.6582 27.1794 17.6671 30.4738C17.6671 44.7564 27.2173 56.3333 39.0004 56.3333M39.0004 56.3333C50.7836 56.3333 60.3338 44.7564 60.3338 30.4738C60.3427 27.1794 59.8192 23.9052 58.7835 20.7778M39.0004 56.3333C45.4644 56.3333 47.8893 67 47.8893 67M39.0004 56.3333C32.5364 56.3333 30.1115 67 30.1115 67M62.1827 10.9289C63.2209 16.8524 58.556 20.7778 58.556 20.7778C58.556 20.7778 52.8564 18.776 51.8182 12.8489C50.78 6.92533 55.4449 3 55.4449 3C55.4449 3 61.1444 5.00178 62.1827 10.9289Z"
            stroke="url(#paint0_linear_393_269)"
            stroke-width="5.33333"
            stroke-linecap="round"
            stroke-linejoin="round"
            />
    <path
            d="M16.8383 57.0089C22.1716 54.9609 23 49.2222 23 49.2222C23 49.2222 18.4952 45.528 13.1618 47.576C7.82849 49.624 7.00005 55.3627 7.00005 55.3627C7.00005 55.3627 11.5049 59.0533 16.8383 57.0053M71.3343 35.4978C66.7796 39.9991 60.6107 38.2 60.6107 38.2C60.6107 38.2 58.9965 31.8996 63.5547 27.3911C68.1058 22.8898 74.2783 24.6889 74.2783 24.6889C74.2783 24.6889 75.8925 30.9893 71.3343 35.4978ZM61.1654 57.0089C55.832 54.9609 55 49.2222 55 49.2222C55 49.2222 59.5049 45.5316 64.8383 47.576C70.1716 49.624 71 55.3627 71 55.3627C71 55.3627 66.4987 59.0533 61.1654 57.0089ZM6.66582 35.4978C11.2205 39.9991 17.3894 38.2 17.3894 38.2C17.3894 38.2 19.0036 31.8996 14.4454 27.3911C9.89071 22.8933 3.72183 24.6889 3.72183 24.6889C3.72183 24.6889 2.1076 30.9893 6.66582 35.4978ZM15.8178 10.9289C14.7796 16.8524 19.4445 20.7778 19.4445 20.7778C19.4445 20.7778 25.144 18.776 26.1823 12.8489C27.2205 6.92533 22.5556 3 22.5556 3C22.5556 3 16.856 5.00178 15.8178 10.9289Z"
            stroke="url(#paint1_linear_393_269)"
            stroke-width="5.33333"
            stroke-linecap="round"
            stroke-linejoin="round"
            />
    <path
            d="M53.2683 25.6826C53.75 26.138 54.0312 26.7661 54.0499 27.4288C54.0687 28.0915 53.8235 28.7344 53.3683 29.2164L39.2 44.2181C38.9704 44.4608 38.6944 44.655 38.3885 44.7893C38.0825 44.9235 37.7528 44.9951 37.4187 44.9998C37.0846 45.0044 36.753 44.9421 36.4434 44.8164C36.1338 44.6907 35.8526 44.5043 35.6163 44.2681L28.1154 36.7672C27.6737 36.2933 27.4333 35.6664 27.4447 35.0186C27.4562 34.3709 27.7186 33.7529 28.1767 33.2948C28.6348 32.8367 29.2528 32.5743 29.9005 32.5628C30.5483 32.5514 31.1752 32.7918 31.6491 33.2335L37.3331 38.9142L49.7345 25.7826C50.19 25.3009 50.818 25.0198 51.4807 25.001C52.1434 24.9822 52.7864 25.2274 53.2683 25.6826Z"
            fill="url(#paint2_linear_393_269)"
            />

</svg>