<svg
        width="20"
        height="20"
        viewBox="0 0 20 20"
        fill="none"
        xmlns="http://www.w3.org/2000/svg"
        >
    <defs>
        <linearGradient
                id="paint0_linear_1621_2788"
                x1="9.99829"
                y1="0.998138"
                x2="9.99829"
                y2="18.9981"
                gradientUnits="userSpaceOnUse"
                >
            <stop stop-color="#8F2AC7" />
            <stop
                    offset="0.595"
                    stop-color="#DA5673"
                    />
        </linearGradient>
    </defs>
    <path
            d="M10.7453 4.59733C10.889 4.19005 10.9329 3.75424 10.8734 3.32647C10.8139 2.8987 10.6526 2.49144 10.4032 2.13887C10.1537 1.7863 9.82335 1.4987 9.43977 1.30022C9.05619 1.10173 8.63059 0.998138 8.19869 0.998138C7.7668 0.998138 7.3412 1.10173 6.95762 1.30022C6.57404 1.4987 6.24366 1.7863 5.9942 2.13887C5.74475 2.49144 5.58349 2.8987 5.52397 3.32647C5.46445 3.75424 5.5084 4.19005 5.65213 4.59733C3.59526 4.60453 2.49796 4.67835 1.78863 5.38767C1.07931 6.097 1.00549 7.1943 0.998291 9.25027C1.4055 9.10703 1.84111 9.06348 2.26861 9.12329C2.69611 9.1831 3.10305 9.34452 3.4553 9.59402C3.80756 9.84352 4.09488 10.1738 4.29316 10.5573C4.49145 10.9407 4.59493 11.3661 4.59493 11.7977C4.59493 12.2294 4.49145 12.6548 4.29316 13.0382C4.09488 13.4216 3.80756 13.7519 3.4553 14.0014C3.10305 14.2509 2.69611 14.4124 2.26861 14.4722C1.84111 14.532 1.4055 14.4884 0.998291 14.3452C1.00549 16.4012 1.07931 17.4985 1.78863 18.2078C2.49796 18.9171 3.59526 18.9909 5.65123 18.9981C5.50799 18.5909 5.46444 18.1553 5.52425 17.7278C5.58406 17.3003 5.74548 16.8934 5.99498 16.5411C6.24448 16.1889 6.57479 15.9016 6.95822 15.7033C7.34165 15.505 7.76703 15.4015 8.19869 15.4015C8.63036 15.4015 9.05574 15.505 9.43917 15.7033C9.8226 15.9016 10.1529 16.1889 10.4024 16.5411C10.6519 16.8934 10.8133 17.3003 10.8731 17.7278C10.9329 18.1553 10.8894 18.5909 10.7462 18.9981C12.8021 18.9909 13.8994 18.9171 14.6088 18.2078C15.3181 17.4985 15.3919 16.4012 15.3991 14.3443C15.8064 14.488 16.2422 14.532 16.67 14.4725C17.0977 14.4129 17.505 14.2517 17.8576 14.0022C18.2101 13.7528 18.4977 13.4224 18.6962 13.0388C18.8947 12.6552 18.9983 12.2296 18.9983 11.7977C18.9983 11.3658 18.8947 10.9402 18.6962 10.5567C18.4977 10.1731 18.2101 9.8427 17.8576 9.59324C17.505 9.34379 17.0977 9.18253 16.67 9.12301C16.2422 9.06349 15.8064 9.10744 15.3991 9.25117C15.3919 7.1943 15.3181 6.097 14.6088 5.38767C13.8994 4.67744 12.8021 4.60453 10.7453 4.59733Z"
            stroke="url(#paint0_linear_1621_2788)"
            stroke-width="1.35024"
            stroke-linecap="round"
            stroke-linejoin="round"
            />

</svg>