<svg width="25" height="25" viewBox="0 0 25 25" fill="none" xmlns="http://www.w3.org/2000/svg">
<path d="M10.062 3.5C8.80037 3.49962 7.55908 3.81749 6.45295 4.42418C5.34682 5.03087 4.41161 5.90679 3.73387 6.97086C3.05612 8.03494 2.65775 9.25278 2.57561 10.5117C2.49347 11.7706 2.73022 13.0299 3.26395 14.173L2.53995 17.015C2.48674 17.2238 2.48838 17.4427 2.54472 17.6507C2.60107 17.8586 2.71019 18.0484 2.86152 18.2018C3.01284 18.3551 3.20123 18.4668 3.40841 18.5258C3.61558 18.5849 3.83451 18.5895 4.04395 18.539C4.79395 18.359 5.94695 18.082 6.97395 17.837C7.99367 18.2968 9.10333 18.5227 10.2217 18.4982C11.34 18.4736 12.4387 18.1992 13.4372 17.6951C14.4358 17.191 15.3089 16.4698 15.9927 15.5845C16.6765 14.6993 17.1535 13.6722 17.389 12.5787C17.6245 11.4852 17.6123 10.3528 17.3535 9.26455C17.0947 8.17631 16.5957 7.15974 15.8931 6.28932C15.1905 5.41889 14.3021 4.71664 13.293 4.23401C12.2839 3.75138 11.1796 3.50058 10.061 3.5M4.06095 11C4.06135 9.6953 4.48701 8.42628 5.27344 7.38523C6.05986 6.34419 7.16419 5.58785 8.4191 5.23083C9.674 4.87381 11.0111 4.93556 12.2277 5.40672C13.4444 5.87789 14.4743 6.73279 15.1614 7.84189C15.8486 8.95099 16.1554 10.2538 16.0356 11.553C15.9157 12.8522 15.3756 14.0769 14.4972 15.0416C13.6188 16.0062 12.4498 16.6583 11.1675 16.8989C9.88516 17.1395 8.55935 16.9556 7.39095 16.375L7.14695 16.254L6.88295 16.317C5.95995 16.537 4.89295 16.792 4.09495 16.984L4.78495 14.276L4.85495 14L4.72495 13.747C4.28805 12.8973 4.06041 11.9555 4.06095 11ZM15.061 21.5C13.1692 21.5022 11.3469 20.7876 9.96095 19.5H10.061C10.779 19.5 11.476 19.411 12.141 19.243C13.006 19.725 14.001 20 15.061 20C16.021 20 16.927 19.775 17.731 19.375L17.974 19.254L18.238 19.317C19.16 19.537 20.204 19.762 20.978 19.927C20.803 19.176 20.564 18.171 20.336 17.276L20.266 17L20.396 16.747C20.8332 15.8974 21.0612 14.9556 21.061 14C21.061 12.9969 20.8096 12.0099 20.3297 11.1291C19.8498 10.2483 19.1568 9.50182 18.314 8.958C18.1381 8.24358 17.8691 7.55535 17.514 6.911C18.5067 7.25475 19.4162 7.80315 20.1835 8.52069C20.9509 9.23823 21.559 10.1089 21.9685 11.0764C22.378 12.0439 22.5797 13.0865 22.5607 14.1369C22.5416 15.1873 22.3022 16.222 21.858 17.174C22.111 18.182 22.367 19.274 22.529 19.977C22.5764 20.1807 22.5718 20.393 22.5155 20.5944C22.4592 20.7958 22.3531 20.9798 22.2068 21.1293C22.0606 21.2788 21.879 21.3891 21.6789 21.4498C21.4788 21.5106 21.2666 21.52 21.062 21.477C20.0886 21.2746 19.1175 21.0612 18.149 20.837C17.1784 21.2747 16.1257 21.5007 15.061 21.5Z" fill="#8358D3"/>
</svg>
