<svg width="18" height="18" viewBox="0 0 18 18" fill="none" xmlns="http://www.w3.org/2000/svg">
<path d="M1 8.80293C1 5.83327 1 4.34804 1.92295 3.42588C2.8459 2.50372 4.33034 2.50293 7.3 2.50293H10.45C13.4197 2.50293 14.9049 2.50293 15.827 3.42588C16.7492 4.34883 16.75 5.83327 16.75 8.80293V10.3779C16.75 13.3476 16.75 14.8328 15.827 15.755C14.9041 16.6771 13.4197 16.6779 10.45 16.6779H7.3C4.33034 16.6779 2.84511 16.6779 1.92295 15.755C1.00079 14.832 1 13.3476 1 10.3779V8.80293Z" stroke="#8358D3" stroke-width="1.18125"/>
<path d="M4.93755 2.50352V1.32227M12.8125 2.50352V1.32227M1.3938 6.44102H16.3563" stroke="#8358D3" stroke-width="1.18125" stroke-linecap="round"/>
<path d="M4.93713 12.3467C5.04156 12.3467 5.14259 12.3881 5.21643 12.4619C5.29009 12.5357 5.33167 12.6359 5.33167 12.7402C5.33166 12.8445 5.29009 12.9447 5.21643 13.0186C5.14259 13.0924 5.04156 13.1338 4.93713 13.1338C4.83285 13.1337 4.73256 13.0923 4.65881 13.0186C4.58509 12.9447 4.54358 12.8446 4.54358 12.7402C4.54358 12.6359 4.58509 12.5357 4.65881 12.4619C4.73256 12.3882 4.83285 12.3468 4.93713 12.3467ZM8.87463 12.3467C8.97906 12.3467 9.08009 12.3881 9.15393 12.4619C9.22759 12.5357 9.26917 12.6359 9.26917 12.7402C9.26916 12.8445 9.22759 12.9447 9.15393 13.0186C9.08009 13.0924 8.97906 13.1338 8.87463 13.1338C8.77035 13.1337 8.67006 13.0923 8.59631 13.0186C8.52259 12.9447 8.48108 12.8446 8.48108 12.7402C8.48108 12.6359 8.52259 12.5357 8.59631 12.4619C8.67006 12.3882 8.77035 12.3468 8.87463 12.3467ZM12.8121 12.3467C12.9166 12.3467 13.0176 12.3881 13.0914 12.4619C13.1651 12.5357 13.2067 12.6359 13.2067 12.7402C13.2067 12.8445 13.1651 12.9447 13.0914 13.0186C13.0176 13.0924 12.9166 13.1338 12.8121 13.1338C12.7078 13.1337 12.6076 13.0923 12.5338 13.0186C12.4601 12.9447 12.4186 12.8446 12.4186 12.7402C12.4186 12.6359 12.4601 12.5357 12.5338 12.4619C12.6076 12.3882 12.7078 12.3468 12.8121 12.3467ZM4.93713 9.19629C5.04156 9.19629 5.14259 9.23768 5.21643 9.31152C5.29012 9.38526 5.33156 9.4856 5.33167 9.58984C5.33167 9.69427 5.29027 9.7953 5.21643 9.86914C5.14259 9.94298 5.04156 9.98438 4.93713 9.98438C4.83289 9.98427 4.73255 9.94283 4.65881 9.86914C4.58497 9.7953 4.54358 9.69427 4.54358 9.58984C4.54368 9.48556 4.58506 9.38527 4.65881 9.31152C4.73256 9.23777 4.83285 9.19639 4.93713 9.19629ZM8.87463 9.19629C8.97906 9.19629 9.08009 9.23768 9.15393 9.31152C9.22762 9.38526 9.26906 9.4856 9.26917 9.58984C9.26917 9.69427 9.22777 9.7953 9.15393 9.86914C9.08009 9.94298 8.97906 9.98438 8.87463 9.98438C8.77039 9.98427 8.67006 9.94283 8.59631 9.86914C8.52247 9.7953 8.48108 9.69427 8.48108 9.58984C8.48118 9.48556 8.52256 9.38527 8.59631 9.31152C8.67006 9.23777 8.77035 9.19639 8.87463 9.19629ZM12.8121 9.19629C12.9166 9.19629 13.0176 9.23768 13.0914 9.31152C13.1651 9.38526 13.2066 9.4856 13.2067 9.58984C13.2067 9.69427 13.1653 9.7953 13.0914 9.86914C13.0176 9.94298 12.9166 9.98438 12.8121 9.98438C12.7079 9.98427 12.6076 9.94283 12.5338 9.86914C12.46 9.7953 12.4186 9.69427 12.4186 9.58984C12.4187 9.48556 12.4601 9.38527 12.5338 9.31152C12.6076 9.23777 12.7078 9.19639 12.8121 9.19629Z" fill="black" stroke="#8358D3" stroke-width="0.7875"/>
</svg>
