<svg width="15" height="16" viewBox="0 0 15 16" fill="none" xmlns="http://www.w3.org/2000/svg">
<path d="M7.5 11.3516C7.375 11.3516 7.25781 11.3322 7.14843 11.2934C7.03906 11.2547 6.9375 11.1881 6.84375 11.0938L3.46875 7.71875C3.28125 7.53125 3.19125 7.3125 3.19875 7.0625C3.20625 6.8125 3.29625 6.59375 3.46875 6.40625C3.65625 6.21875 3.87906 6.12125 4.13719 6.11375C4.39531 6.10625 4.61781 6.19594 4.80469 6.38281L6.5625 8.14063V1.4375C6.5625 1.17188 6.6525 0.949378 6.8325 0.770003C7.0125 0.590628 7.235 0.500628 7.5 0.500003C7.765 0.499378 7.98781 0.589378 8.16844 0.770003C8.34906 0.950628 8.43875 1.17313 8.4375 1.4375V8.14063L10.1953 6.38281C10.3828 6.19531 10.6056 6.10531 10.8637 6.11281C11.1219 6.12031 11.3444 6.21813 11.5312 6.40625C11.7031 6.59375 11.7931 6.8125 11.8012 7.0625C11.8094 7.3125 11.7194 7.53125 11.5312 7.71875L8.15625 11.0938C8.0625 11.1875 7.96093 11.2541 7.85156 11.2934C7.74218 11.3328 7.625 11.3522 7.5 11.3516ZM1.875 15.5C1.35937 15.5 0.918124 15.3166 0.55125 14.9497C0.184375 14.5828 0.000625 14.1412 0 13.625V11.75C0 11.4844 0.0900001 11.2619 0.27 11.0825C0.45 10.9031 0.6725 10.8131 0.9375 10.8125C1.2025 10.8119 1.42531 10.9019 1.60594 11.0825C1.78656 11.2631 1.87625 11.4856 1.875 11.75V13.625H13.125V11.75C13.125 11.4844 13.215 11.2619 13.395 11.0825C13.575 10.9031 13.7975 10.8131 14.0625 10.8125C14.3275 10.8119 14.5503 10.9019 14.7309 11.0825C14.9116 11.2631 15.0012 11.4856 15 11.75V13.625C15 14.1406 14.8166 14.5822 14.4497 14.9497C14.0828 15.3172 13.6412 15.5006 13.125 15.5H1.875Z" fill="#8358D3"/>
</svg>
