<svg width="20" height="22" viewBox="0 0 20 22" fill="none" xmlns="http://www.w3.org/2000/svg">
<path d="M17.7001 19.8H2.3001V7.7H17.7001M14.4001 0V2.2H5.6001V0H3.4001V2.2H2.3001C1.0791 2.2 0.100098 3.179 0.100098 4.4V19.8C0.100098 20.3834 0.331877 20.943 0.744459 21.3556C1.15704 21.7682 1.71662 22 2.3001 22H17.7001C18.2835 22 18.8431 21.7682 19.2557 21.3556C19.6683 20.943 19.9001 20.3834 19.9001 19.8V4.4C19.9001 3.81652 19.6683 3.25694 19.2557 2.84436C18.8431 2.43178 18.2835 2.2 17.7001 2.2H16.6001V0M15.5001 12.1H10.0001V17.6H15.5001V12.1Z" fill="#8358D3"/>
</svg>
