<svg width="20" height="12" viewBox="0 0 20 12" fill="none" xmlns="http://www.w3.org/2000/svg">
<path d="M1 7.125C4.6 -0.875 15.4 -0.875 19 7.125" stroke="black" stroke-width="1.5" stroke-linecap="round" stroke-linejoin="round"/>
<path d="M10 11.125C9.60603 11.125 9.21593 11.0474 8.85195 10.8966C8.48797 10.7459 8.15726 10.5249 7.87868 10.2463C7.6001 9.96774 7.37913 9.63703 7.22836 9.27305C7.0776 8.90907 7 8.51897 7 8.125C7 7.73103 7.0776 7.34093 7.22836 6.97695C7.37913 6.61297 7.6001 6.28226 7.87868 6.00368C8.15726 5.7251 8.48797 5.50413 8.85195 5.35336C9.21593 5.2026 9.60603 5.125 10 5.125C10.7956 5.125 11.5587 5.44107 12.1213 6.00368C12.6839 6.56629 13 7.32935 13 8.125C13 8.92065 12.6839 9.68371 12.1213 10.2463C11.5587 10.8089 10.7956 11.125 10 11.125Z" stroke="black" stroke-width="1.5" stroke-linecap="round" stroke-linejoin="round"/>
</svg>
