<svg width="15" height="21" viewBox="0 0 15 21" fill="none" xmlns="http://www.w3.org/2000/svg">
<path d="M3.361 4.42057C3.361 6.52307 5.07423 8.22795 7.16837 8.22795C9.26252 8.22795 10.9758 6.52307 10.9758 4.42057C10.9758 2.31823 9.27072 0.613194 7.16837 0.613194C5.06603 0.613194 3.361 2.31823 3.361 4.42057ZM4.5378 4.42057C4.5378 2.96615 5.7216 1.79 7.16837 1.79C8.61515 1.79 9.79895 2.96615 9.79895 4.42057C9.79895 5.87519 8.623 7.05114 7.16837 7.05114C5.71375 7.05114 4.5378 5.87519 4.5378 4.42057Z" fill="#8358D3" stroke="#8358D3" stroke-width="0.211111"/>
<path d="M14.0499 14.159V14.1579C14.0499 12.7137 13.3001 11.4529 12.067 10.5568C10.8349 9.66139 9.1182 9.12735 7.16847 9.12735C5.21874 9.12735 3.50205 9.66139 2.26994 10.5558C1.03722 11.4506 0.287295 12.709 0.286954 14.1489L0.246748 16.32C0.237924 16.5917 0.34664 16.8604 0.550655 17.0647C0.832093 17.3546 1.25582 17.5066 1.70423 17.5066H5.95027C6.10082 17.5066 6.24999 17.4657 6.36427 17.3798C6.48131 17.2918 6.55777 17.1588 6.55777 16.9906C6.55777 16.8282 6.48652 16.6655 6.38031 16.544C6.27425 16.4226 6.12191 16.3298 5.95027 16.3298H1.70423C1.56255 16.3298 1.4705 16.2911 1.4245 16.2633L1.46374 14.1599L1.46376 14.1599V14.1579C1.46376 13.0702 2.06284 12.11 3.07943 11.4175C4.09678 10.7245 5.52758 10.3042 7.16847 10.3042C8.80925 10.3042 10.24 10.7265 11.2574 11.4215C12.274 12.116 12.8731 13.0782 12.8731 14.166L12.8731 14.5448H12.8731L12.8732 14.548C12.883 14.8719 13.1483 15.1223 13.4696 15.1223V15.1223L13.4728 15.1222C13.7877 15.1127 14.0547 14.8745 14.0459 14.5439L14.0499 14.159Z" fill="#8358D3" stroke="#8358D3" stroke-width="0.211111"/>
<path d="M14.0447 17.4903C14.4349 17.4903 14.7537 17.1714 14.7537 16.7812C14.7537 16.3911 14.4349 16.0722 14.0447 16.0722H11.8572V13.8847C11.8572 13.4945 11.5384 13.1757 11.1482 13.1757C10.758 13.1757 10.4392 13.4945 10.4392 13.8847V16.0722H8.25164C7.86145 16.0722 7.54264 16.3911 7.54264 16.7812C7.54264 17.1714 7.86145 17.4903 8.25164 17.4903H10.4392V19.6778C10.4392 20.068 10.758 20.3868 11.1482 20.3868C11.5384 20.3868 11.8572 20.068 11.8572 19.6778V17.4903H14.0447Z" fill="#8358D3" stroke="#8358D3" stroke-width="0.211111"/>
</svg>
