<svg width="17" height="17" viewBox="0 0 17 17" fill="none" xmlns="http://www.w3.org/2000/svg">
<path d="M11.7048 13.0621C11.5875 12.4253 11.3696 11.8388 11.0513 11.3026C10.7329 10.7664 10.3391 10.3027 9.86989 9.91175C9.40069 9.52075 8.87284 9.21354 8.28635 8.99012C7.69985 8.76669 7.08263 8.65497 6.4347 8.65497C5.94316 8.65497 5.46838 8.71921 5.01035 8.84768C4.55232 8.97615 4.12502 9.15489 3.72844 9.38391C3.33185 9.61292 2.97158 9.8922 2.64761 10.2218C2.32364 10.5513 2.04436 10.9144 1.80976 11.311C1.57516 11.7075 1.39363 12.1349 1.26516 12.5929C1.13668 13.0509 1.07245 13.5257 1.07245 14.0172H0C0 13.3637 0.0977493 12.7241 0.293248 12.0985C0.488747 11.4729 0.770823 10.8948 1.13948 10.3642C1.50813 9.83355 1.94661 9.36156 2.4549 8.94822C2.9632 8.53488 3.53015 8.21929 4.15574 8.00145C3.84294 7.80037 3.56366 7.56856 3.31789 7.30603C3.07212 7.04351 2.85987 6.75585 2.68112 6.44305C2.50238 6.13025 2.37112 5.7979 2.28733 5.446C2.20355 5.09411 2.15607 4.73383 2.1449 4.36518C2.1449 3.7731 2.25661 3.21732 2.48004 2.69785C2.70347 2.17839 3.00789 1.72315 3.3933 1.33216C3.77871 0.941158 4.23394 0.633946 4.75899 0.410519C5.28405 0.187092 5.84262 0.0753784 6.4347 0.0753784C7.02678 0.0753784 7.58255 0.187092 8.10202 0.410519C8.62149 0.633946 9.07672 0.938365 9.46772 1.32378C9.85872 1.70919 10.1659 2.16442 10.3894 2.68947C10.6128 3.21453 10.7245 3.7731 10.7245 4.36518C10.7245 4.73383 10.6798 5.09411 10.5904 5.446C10.5011 5.7979 10.367 6.13025 10.1883 6.44305C10.0095 6.75585 9.80007 7.04351 9.55988 7.30603C9.3197 7.56856 9.03762 7.80037 8.71365 8.00145C9.26663 8.21371 9.77772 8.49299 10.2469 8.8393C10.7161 9.18561 11.1267 9.58499 11.4786 10.0374C11.8305 10.4899 12.1237 10.9842 12.3583 11.5204C12.5929 12.0567 12.7437 12.6208 12.8107 13.2129L12.3332 13.6988L11.7048 13.0621ZM3.21735 4.36518C3.21735 4.81203 3.30113 5.22816 3.4687 5.61357C3.63627 5.99899 3.86529 6.33971 4.15574 6.63575C4.4462 6.93179 4.78692 7.1636 5.17792 7.33117C5.56892 7.49874 5.98784 7.58253 6.4347 7.58253C6.87597 7.58253 7.2921 7.49874 7.68309 7.33117C8.07409 7.1636 8.41482 6.93459 8.70527 6.64413C8.99573 6.35368 9.22753 6.01295 9.40069 5.62195C9.57385 5.23096 9.65763 4.81203 9.65205 4.36518C9.65205 3.92391 9.56826 3.50778 9.40069 3.11678C9.23312 2.72578 9.00411 2.38506 8.71365 2.0946C8.4232 1.80414 8.07968 1.57234 7.68309 1.39918C7.28651 1.22603 6.87038 1.14224 6.4347 1.14783C5.98784 1.14783 5.57171 1.23161 5.1863 1.39918C4.80089 1.56675 4.46016 1.79577 4.16412 2.08622C3.86808 2.37668 3.63627 2.7202 3.4687 3.11678C3.30113 3.51336 3.21735 3.92949 3.21735 4.36518ZM17 12.2494L12.3332 16.9246L10.0793 14.6624L10.8334 13.9083L12.3332 15.3997L16.2459 11.4953L17 12.2494Z" fill="url(#paint0_linear_85_412)"/>
<defs>
<linearGradient id="paint0_linear_85_412" x1="8.5" y1="0.0753784" x2="8.5" y2="16.9246" gradientUnits="userSpaceOnUse">
<stop stop-color="#8F2AC7"/>
<stop offset="0.595" stop-color="#DA5673"/>
</linearGradient>
</defs>
</svg>
