<svg width="44" height="38" viewBox="0 0 44 38" fill="none" xmlns="http://www.w3.org/2000/svg">
<path d="M1.77068 11.6147V27.7522C1.77068 30.0722 2.69233 32.2973 4.33286 33.9378C5.97339 35.5784 8.19843 36.5 10.5185 36.5H33.4815C35.8016 36.5 38.0266 35.5784 39.6671 33.9378C41.3077 32.2973 42.2293 30.0722 42.2293 27.7522V15.3084C42.2293 12.9884 41.3077 10.7633 39.6671 9.12278C38.0266 7.48225 35.8016 6.56061 33.4815 6.56061H22M1.77068 11.6147V8.06086C1.77068 6.32081 2.46191 4.65203 3.69231 3.42163C4.92271 2.19123 6.59149 1.5 8.33154 1.5H14.6737C15.3917 1.49987 16.1028 1.64117 16.7662 1.91585C17.4296 2.19052 18.0324 2.59319 18.5402 3.10085L22 6.5628L18.549 10.0138C18.0412 10.5215 17.4384 10.9241 16.7749 11.1988C16.1115 11.4735 15.4005 11.6148 14.6825 11.6147H1.77068Z" stroke="#8358D3" stroke-width="2.5" stroke-linejoin="round"/>
</svg>
