<svg width="21" height="20" viewBox="0 0 21 20" fill="none" xmlns="http://www.w3.org/2000/svg">
<mask id="mask0_422_1443" style="mask-type:luminance" maskUnits="userSpaceOnUse" x="0" y="0" width="21" height="20">
<path d="M19.817 8.18182H10.4988V12.0455H15.8625C15.3625 14.5 13.2716 15.9091 10.4988 15.9091C7.22611 15.9091 4.58975 13.2727 4.58975 10C4.58975 6.72727 7.22611 4.09091 10.4988 4.09091C11.9079 4.09091 13.1807 4.59091 14.1807 5.40909L17.0897 2.5C15.317 0.954545 13.0443 0 10.4988 0C4.95339 0 0.49884 4.45455 0.49884 10C0.49884 15.5455 4.95339 20 10.4988 20C15.4988 20 20.0443 16.3636 20.0443 10C20.0443 9.40909 19.9534 8.77273 19.817 8.18182Z" fill="white"/>
</mask>
<g mask="url(#mask0_422_1443)">
<path d="M-0.410217 15.908V4.08984L7.31706 9.99893L-0.410217 15.908Z" fill="#FBBC05"/>
</g>
<mask id="mask1_422_1443" style="mask-type:luminance" maskUnits="userSpaceOnUse" x="0" y="0" width="21" height="20">
<path d="M19.817 8.18182H10.4988V12.0455H15.8625C15.3625 14.5 13.2716 15.9091 10.4988 15.9091C7.22611 15.9091 4.58975 13.2727 4.58975 10C4.58975 6.72727 7.22611 4.09091 10.4988 4.09091C11.9079 4.09091 13.1807 4.59091 14.1807 5.40909L17.0897 2.5C15.317 0.954545 13.0443 0 10.4988 0C4.95339 0 0.49884 4.45455 0.49884 10C0.49884 15.5455 4.95339 20 10.4988 20C15.4988 20 20.0443 16.3636 20.0443 10C20.0443 9.40909 19.9534 8.77273 19.817 8.18182Z" fill="white"/>
</mask>
<g mask="url(#mask1_422_1443)">
<path d="M-0.410217 4.08984L7.31706 9.99893L10.4989 7.22621L21.408 5.45348V-0.910156H-0.410217V4.08984Z" fill="#EA4335"/>
</g>
<mask id="mask2_422_1443" style="mask-type:luminance" maskUnits="userSpaceOnUse" x="0" y="0" width="21" height="20">
<path d="M19.817 8.18182H10.4988V12.0455H15.8625C15.3625 14.5 13.2716 15.9091 10.4988 15.9091C7.22611 15.9091 4.58975 13.2727 4.58975 10C4.58975 6.72727 7.22611 4.09091 10.4988 4.09091C11.9079 4.09091 13.1807 4.59091 14.1807 5.40909L17.0897 2.5C15.317 0.954545 13.0443 0 10.4988 0C4.95339 0 0.49884 4.45455 0.49884 10C0.49884 15.5455 4.95339 20 10.4988 20C15.4988 20 20.0443 16.3636 20.0443 10C20.0443 9.40909 19.9534 8.77273 19.817 8.18182Z" fill="white"/>
</mask>
<g mask="url(#mask2_422_1443)">
<path d="M-0.410217 15.908L13.2261 5.45348L16.8171 5.90803L21.408 -0.910156V20.908H-0.410217V15.908Z" fill="#34A853"/>
</g>
<mask id="mask3_422_1443" style="mask-type:luminance" maskUnits="userSpaceOnUse" x="0" y="0" width="21" height="20">
<path d="M19.817 8.18182H10.4988V12.0455H15.8625C15.3625 14.5 13.2716 15.9091 10.4988 15.9091C7.22611 15.9091 4.58975 13.2727 4.58975 10C4.58975 6.72727 7.22611 4.09091 10.4988 4.09091C11.9079 4.09091 13.1807 4.59091 14.1807 5.40909L17.0897 2.5C15.317 0.954545 13.0443 0 10.4988 0C4.95339 0 0.49884 4.45455 0.49884 10C0.49884 15.5455 4.95339 20 10.4988 20C15.4988 20 20.0443 16.3636 20.0443 10C20.0443 9.40909 19.9534 8.77273 19.817 8.18182Z" fill="white"/>
</mask>
<g mask="url(#mask3_422_1443)">
<path d="M21.4079 20.908L7.31702 9.99893L5.49884 8.6353L21.4079 4.08984V20.908Z" fill="#4285F4"/>
</g>
</svg>
