<svg width="26" height="26" viewBox="0 0 26 26" fill="none" xmlns="http://www.w3.org/2000/svg">
<g clip-path="url(#clip0_166_6)">
<path fill-rule="evenodd" clip-rule="evenodd" d="M7.3241 4.59522H19.3426C19.6137 4.59497 19.879 4.67436 20.1054 4.82352C20.3319 4.97269 20.5096 5.18506 20.6164 5.43429L24.4103 14.2875V19.826C24.4103 20.5604 24.1185 21.2648 23.5992 21.7841C23.0798 22.3035 22.3755 22.5952 21.641 22.5952H5.02564C4.29119 22.5952 3.58683 22.3035 3.0675 21.7841C2.54817 21.2648 2.25641 20.5604 2.25641 19.826V14.2875L6.05025 5.43429C6.15709 5.18506 6.33476 4.97269 6.56122 4.82352C6.78767 4.67436 7.05294 4.59497 7.3241 4.59522Z" stroke="#8358D3" stroke-width="1.38462" stroke-linecap="round" stroke-linejoin="round"/>
<path d="M2.25641 14.2875H7.79487C8.16209 14.2875 8.51428 14.4334 8.77394 14.6931C9.03361 14.9527 9.17949 15.3049 9.17949 15.6721V17.0567C9.17949 17.424 9.32536 17.7761 9.58503 18.0358C9.8447 18.2955 10.1969 18.4414 10.5641 18.4414H16.1026C16.4698 18.4414 16.822 18.2955 17.0816 18.0358C17.3413 17.7761 17.4872 17.424 17.4872 17.0567V15.6721C17.4872 15.3049 17.6331 14.9527 17.8927 14.6931C18.1524 14.4334 18.5046 14.2875 18.8718 14.2875H24.4103" stroke="#8358D3" stroke-width="1.38462" stroke-linecap="round" stroke-linejoin="round"/>
</g>
<defs>
<clipPath id="clip0_166_6">
<rect width="25" height="25" fill="white" transform="translate(0.833344 0.5)"/>
</clipPath>
</defs>
</svg>
