<svg width="20" height="19" viewBox="0 0 20 19" fill="none" xmlns="http://www.w3.org/2000/svg">
<path d="M15.3747 0.433594V3.18359H19.0413C19.0163 5.3962 18.6686 6.95658 17.9984 7.86474L17.8955 7.99609C17.3567 8.64269 16.4369 9.10228 15.1363 9.37488C14.5351 11.3433 12.8597 12.8431 10.7933 13.1905C10.7916 13.2153 10.7913 13.2411 10.7913 13.2669C10.7913 15.292 12.4329 16.9336 14.458 16.9336V18.7669H5.29131V16.9336C7.31634 16.9336 8.95801 15.292 8.95801 13.2669L8.95603 13.1905C6.88958 12.8431 5.21418 11.3433 4.61335 9.3747C3.31243 9.10225 2.39258 8.64272 1.85381 7.99609C1.11624 7.11097 0.734305 5.5068 0.708008 3.18359H4.37466V0.433594H15.3747ZM9.87466 2.2669L8.81501 4.7859L6.20801 5.06825L8.16231 6.90159L7.60866 9.60025L9.87466 8.21425L12.1407 9.60025L11.587 6.90525L13.5413 5.0719L10.9343 4.78959L9.87466 2.2669ZM4.37466 5.0169H2.66781L2.68771 5.1489C2.80527 5.90137 2.98565 6.43525 3.20226 6.74386L3.26224 6.8224C3.43137 7.02539 3.74929 7.21655 4.22032 7.37713L4.37466 7.4259V5.0169ZM17.0815 5.0169H15.3747V7.4259L15.529 7.37713C16 7.21655 16.3179 7.02539 16.4871 6.8224L16.547 6.74386C16.7637 6.43525 16.9441 5.90137 17.0616 5.1489L17.0815 5.0169Z" fill="url(#paint0_linear_154_8407)"/>
<defs>
<linearGradient id="paint0_linear_154_8407" x1="9.87466" y1="0.433594" x2="9.87466" y2="18.7669" gradientUnits="userSpaceOnUse">
<stop stop-color="#8F2AC7"/>
<stop offset="0.595" stop-color="#DA5673"/>
</linearGradient>
</defs>
</svg>
