<svg width="18" height="20" viewBox="0 0 18 20" fill="none" xmlns="http://www.w3.org/2000/svg">
<path d="M8 9.89947V14.9995C8 15.2647 8.10536 15.519 8.29289 15.7066C8.48043 15.8941 8.73478 15.9995 9 15.9995C9.26522 15.9995 9.51957 15.8941 9.70711 15.7066C9.89464 15.519 10 15.2647 10 14.9995V9.89947C11.214 9.65165 12.2928 8.96188 13.0272 7.96388C13.7616 6.96588 14.0992 5.73075 13.9747 4.49794C13.8501 3.26514 13.2723 2.12249 12.3532 1.29153C11.434 0.460568 10.2391 0.000488281 9 0.000488281C7.76092 0.000488281 6.56598 0.460568 5.64685 1.29153C4.72771 2.12249 4.14986 3.26514 4.02532 4.49794C3.90078 5.73075 4.23843 6.96588 4.9728 7.96388C5.70718 8.96188 6.78596 9.65165 8 9.89947ZM9 1.99947C9.59334 1.99947 10.1734 2.17542 10.6667 2.50506C11.1601 2.8347 11.5446 3.30324 11.7716 3.85142C11.9987 4.3996 12.0581 5.0028 11.9424 5.58474C11.8266 6.16668 11.5409 6.70123 11.1213 7.12079C10.7018 7.54035 10.1672 7.82607 9.58527 7.94182C9.00333 8.05758 8.40013 7.99817 7.85195 7.77111C7.30377 7.54404 6.83524 7.15953 6.50559 6.66618C6.17595 6.17283 6 5.59281 6 4.99947C6 4.20382 6.31607 3.44076 6.87868 2.87815C7.44129 2.31554 8.20435 1.99947 9 1.99947ZM13.21 12.4195C13.0787 12.3919 12.9432 12.3904 12.8113 12.4152C12.6795 12.44 12.5537 12.4905 12.4414 12.5639C12.329 12.6372 12.2322 12.732 12.1565 12.8428C12.0808 12.9535 12.0276 13.0781 12 13.2095C11.9724 13.3408 11.971 13.4763 11.9958 13.6081C12.0205 13.74 12.071 13.8657 12.1444 13.9781C12.2178 14.0904 12.3125 14.1873 12.4233 14.263C12.5341 14.3387 12.6587 14.3919 12.79 14.4195C15.06 14.8695 16 15.6795 16 15.9995C16 16.5795 13.55 17.9995 9 17.9995C4.45 17.9995 2 16.5795 2 15.9995C2 15.6795 2.94 14.8695 5.21 14.3795C5.34132 14.3519 5.46593 14.2987 5.5767 14.223C5.68747 14.1473 5.78224 14.0504 5.8556 13.9381C5.92896 13.8257 5.97947 13.7 6.00424 13.5681C6.02902 13.4363 6.02758 13.3008 6 13.1695C5.97242 13.0381 5.91925 12.9135 5.84352 12.8028C5.76778 12.692 5.67097 12.5972 5.55861 12.5239C5.44626 12.4505 5.32055 12.4 5.18867 12.3752C5.05679 12.3504 4.92132 12.3519 4.79 12.3795C1.75 13.0795 0 14.3895 0 15.9995C0 18.6295 4.53 19.9995 9 19.9995C13.47 19.9995 18 18.6295 18 15.9995C18 14.3895 16.25 13.0795 13.21 12.4195Z" fill="black"/>
</svg>
