<?xml version="1.0" encoding="UTF-8"?>
<svg width="22px" height="20px" viewBox="0 0 22 20" version="1.1" xmlns="http://www.w3.org/2000/svg" xmlns:xlink="http://www.w3.org/1999/xlink">
    <title>ic_like</title>
    <g id="Page-1" stroke="none" stroke-width="1" fill="none" fill-rule="evenodd" stroke-linejoin="round">
        <g id="ic_like" transform="translate(1.742190, 1.775389)" fill="#6750A4" stroke="#6750A4" stroke-width="2">
            <path d="M1.40537,1.46538134 C2.3055,0.565521338 3.52618,0.0600113375 4.79897,0.0600113375 C6.07176,0.0600113375 7.29244,0.565521338 8.19257,1.46538134 L9.59901,2.87058134 L11.00541,1.46538134 C11.44811,1.00693134 11.97781,0.641261338 12.56341,0.389701338 C13.14901,0.138131338 13.77891,0.00572133753 14.41621,0.000181337529 C15.05361,-0.00535866247 15.68561,0.116091338 16.27551,0.357441338 C16.86541,0.598791338 17.40141,0.955201338 17.85211,1.40589134 C18.30271,1.85657134 18.65921,2.39250134 18.90051,2.98240134 C19.14181,3.57231134 19.26331,4.20437134 19.2579887,4.84171134 C19.25221,5.47905134 19.11981,6.10891134 18.86821,6.69453134 C18.61671,7.28014134 18.25101,7.80980134 17.79261,8.25261134 L9.59901,16.4474113 L1.40537,8.25261134 C0.50551,7.35245134 -8.8817842e-16,6.13177134 -8.8817842e-16,4.85898134 C-8.8817842e-16,3.58620134 0.50551,2.36552134 1.40537,1.46538134 Z" id="Path"></path>
        </g>
    </g>
</svg>