<svg width="19" height="16" viewBox="0 0 19 16" fill="none" xmlns="http://www.w3.org/2000/svg">
<path d="M2.98836 0.5C2.20318 0.5 1.45016 0.811912 0.89495 1.36712C0.339744 1.92232 0.027832 2.67535 0.027832 3.46053V12.5395C0.027832 13.3247 0.339744 14.0777 0.89495 14.6329C1.45016 15.1881 2.20318 15.5 2.98836 15.5H16.0115C16.7967 15.5 17.5497 15.1881 18.1049 14.6329C18.6601 14.0777 18.972 13.3247 18.972 12.5395V3.46053C18.972 2.67535 18.6601 1.92232 18.1049 1.36712C17.5497 0.811912 16.7967 0.5 16.0115 0.5H2.98836ZM1.21204 3.46053C1.21204 2.98942 1.39919 2.53761 1.73231 2.20448C2.06544 1.87136 2.51725 1.68421 2.98836 1.68421H16.0115C16.4826 1.68421 16.9344 1.87136 17.2676 2.20448C17.6007 2.53761 17.7878 2.98942 17.7878 3.46053V4.07553L9.49836 8.32132L1.21204 4.07711V3.46053ZM1.21204 5.40816L9.22836 9.51342C9.31192 9.55624 9.40447 9.57856 9.49836 9.57856C9.59225 9.57856 9.6848 9.55624 9.76836 9.51342L17.7878 5.40658V12.5403C17.7878 13.0114 17.6007 13.4632 17.2676 13.7963C16.9344 14.1294 16.4826 14.3166 16.0115 14.3166H2.98915C2.51804 14.3166 2.06623 14.1294 1.7331 13.7963C1.39998 13.4632 1.21283 13.0114 1.21283 12.5403L1.21204 5.40816Z" fill="#66686C"/>
</svg>
