<svg width="133" height="133" viewBox="0 0 133 133" fill="none" xmlns="http://www.w3.org/2000/svg">
<path d="M46.9102 62.5821C53.1889 56.3033 64.1392 56.3033 70.4179 62.5821L74.3359 66.5L82.1718 58.6641L78.2538 54.7461C73.028 49.5148 66.0677 46.6276 58.6641 46.6276C51.2604 46.6276 44.3 49.5148 39.0743 54.7461L27.3148 66.5C22.1322 71.7035 19.2223 78.7484 19.2223 86.0926C19.2223 93.4367 22.1322 100.482 27.3148 105.685C29.8849 108.26 32.9388 110.302 36.3008 111.692C39.6628 113.083 43.2665 113.795 46.9046 113.787C50.5437 113.795 54.1485 113.084 57.5115 111.693C60.8745 110.303 63.9292 108.261 66.5 105.685L70.4179 101.767L62.582 93.9313L58.6641 97.8492C55.5412 100.958 51.314 102.704 46.9074 102.704C42.5008 102.704 38.2736 100.958 35.1508 97.8492C32.0391 94.7278 30.2919 90.5 30.2919 86.0926C30.2919 81.6851 32.0391 77.4574 35.1508 74.3359L46.9102 62.5821Z" fill="#BCB5D1"/>
<path d="M66.5 27.3148L62.582 31.2328L70.4179 39.0687L74.3359 35.1508C77.4588 32.0418 81.686 30.2964 86.0926 30.2964C90.4991 30.2964 94.7263 32.0418 97.8492 35.1508C100.961 38.2722 102.708 42.4999 102.708 46.9074C102.708 51.3149 100.961 55.5426 97.8492 58.6641L86.0898 70.4179C79.8111 76.6966 68.8607 76.6966 62.582 70.4179L58.6641 66.5L50.8282 74.3359L54.7461 78.2538C59.9719 83.4852 66.9322 86.3724 74.3359 86.3724C81.7396 86.3724 88.6999 83.4852 93.9257 78.2538L105.685 66.5C110.868 61.2965 113.778 54.2515 113.778 46.9074C113.778 39.5633 110.868 32.5183 105.685 27.3148C100.484 22.1268 93.4385 19.2132 86.0926 19.2132C78.7466 19.2132 71.7006 22.1268 66.5 27.3148Z" fill="#BCB5D1"/>
</svg>
