<svg width="14" height="19" viewBox="0 0 14 19" fill="none" xmlns="http://www.w3.org/2000/svg">
<path d="M7 18.5C6.76667 18.5 6.56667 18.44 6.4 18.32C6.23333 18.2 6.10833 18.0425 6.025 17.8475C5.70833 17.0075 5.30833 16.22 4.825 15.485C4.35833 14.75 3.7 13.8875 2.85 12.8975C2 11.9075 1.30833 10.9625 0.775 10.0625C0.258333 9.1625 0 8.075 0 6.8C0 5.045 0.675 3.56 2.025 2.345C3.39167 1.115 5.05 0.5 7 0.5C8.95 0.5 10.6 1.115 11.95 2.345C13.3167 3.56 14 5.045 14 6.8C14 8.165 13.7083 9.305 13.125 10.22C12.5583 11.12 11.9 12.0125 11.15 12.8975C10.25 13.9775 9.56667 14.8775 9.1 15.5975C8.65 16.3025 8.275 17.0525 7.975 17.8475C7.89167 18.0575 7.75833 18.2225 7.575 18.3425C7.40833 18.4475 7.21667 18.5 7 18.5ZM7 15.2825C7.28333 14.7725 7.6 14.27 7.95 13.775C8.31667 13.28 8.85 12.62 9.55 11.795C10.2667 10.955 10.85 10.1825 11.3 9.4775C11.7667 8.7575 12 7.865 12 6.8C12 5.555 11.5083 4.4975 10.525 3.6275C9.55833 2.7425 8.38333 2.3 7 2.3C5.61667 2.3 4.43333 2.7425 3.45 3.6275C2.48333 4.4975 2 5.555 2 6.8C2 7.865 2.225 8.7575 2.675 9.4775C3.14167 10.1825 3.73333 10.955 4.45 11.795C5.15 12.62 5.675 13.28 6.025 13.775C6.39167 14.27 6.71667 14.7725 7 15.2825ZM7 9.05C7.7 9.05 8.29167 8.8325 8.775 8.3975C9.25833 7.9625 9.5 7.43 9.5 6.8C9.5 6.17 9.25833 5.6375 8.775 5.2025C8.29167 4.7675 7.7 4.55 7 4.55C6.3 4.55 5.70833 4.7675 5.225 5.2025C4.74167 5.6375 4.5 6.17 4.5 6.8C4.5 7.43 4.74167 7.9625 5.225 8.3975C5.70833 8.8325 6.3 9.05 7 9.05Z" fill="#2C233D"/>
</svg>
