<svg width="23" height="22" viewBox="0 0 23 22" fill="none" xmlns="http://www.w3.org/2000/svg">
<path d="M2.1275 22C1.53135 22 1.03397 21.8007 0.635386 21.4021C0.236797 21.0035 0.0370719 20.5057 0.0362091 19.9087V3.38541C0.0362091 2.78925 0.235935 2.29188 0.635386 1.89329C1.03484 1.49471 1.53178 1.29498 2.12621 1.29412H14.1719V2.58823H2.1275C1.92821 2.58823 1.74531 2.67106 1.5788 2.83671C1.41229 3.00235 1.32946 3.18525 1.33033 3.38541V19.91C1.33033 20.1084 1.41315 20.2909 1.5788 20.4574C1.74444 20.6239 1.92691 20.7067 2.12621 20.7059H18.6521C18.8505 20.7059 19.033 20.6231 19.1995 20.4574C19.366 20.2918 19.4488 20.1093 19.448 19.91V7.86435H20.7421V19.91C20.7421 20.5053 20.5428 21.0027 20.1442 21.4021C19.7456 21.8016 19.2478 22.0009 18.6508 22H2.1275ZM5.85974 17.4706V16.1765H14.9186V17.4706H5.85974ZM5.85974 13.5882V12.2941H14.9186V13.5882H5.85974ZM5.85974 9.70588V8.41176H14.9186V9.70588H5.85974ZM18.1539 6.47059V3.88235H15.5656V2.58823H18.1539V0H19.448V2.58823H22.0362V3.88235H19.448V6.47059H18.1539Z" fill="#6750A4"/>
</svg>
