<svg width="36" height="36" viewBox="0 0 36 36" fill="none" xmlns="http://www.w3.org/2000/svg">
<path fill-rule="evenodd" clip-rule="evenodd" d="M24.5117 9.45358C23.972 9.45358 23.4544 9.66797 23.0728 10.0496C22.6912 10.4312 22.4768 10.9488 22.4768 11.4885C22.4768 12.0281 22.6912 12.5457 23.0728 12.9273C23.4544 13.309 23.972 13.5233 24.5117 13.5233C25.0513 13.5233 25.5689 13.309 25.9505 12.9273C26.3322 12.5457 26.5465 12.0281 26.5465 11.4885C26.5465 10.9488 26.3322 10.4312 25.9505 10.0496C25.5689 9.66797 25.0513 9.45358 24.5117 9.45358ZM20.0349 11.4885C20.0349 10.3012 20.5066 9.16248 21.3461 8.32293C22.1857 7.48337 23.3243 7.01172 24.5117 7.01172C25.699 7.01172 26.8376 7.48337 27.6772 8.32293C28.5167 9.16248 28.9884 10.3012 28.9884 11.4885C28.9884 12.6758 28.5167 13.8144 27.6772 14.654C26.8376 15.4936 25.699 15.9652 24.5117 15.9652C23.3243 15.9652 22.1857 15.4936 21.3461 14.654C20.5066 13.8144 20.0349 12.6758 20.0349 11.4885Z" fill="#8358D3"/>
<path fill-rule="evenodd" clip-rule="evenodd" d="M17.9072 0.5H18.0928C21.8516 0.5 24.7965 0.5 27.0951 0.809302C29.4458 1.12512 31.3016 1.78605 32.7586 3.2414C34.2156 4.69837 34.8749 6.55419 35.1907 8.90651C35.5 11.2035 35.5 14.1484 35.5 17.9072V18.0928C35.5 21.8516 35.5 24.7965 35.1907 27.0951C34.8749 29.4458 34.214 31.3016 32.7586 32.7586C31.3016 34.2156 29.4458 34.8749 27.0935 35.1907C24.7965 35.5 21.8516 35.5 18.0928 35.5H17.9072C14.1484 35.5 11.2035 35.5 8.90488 35.1907C6.55419 34.8749 4.69837 34.214 3.2414 32.7586C1.78442 31.3016 1.12512 29.4458 0.809302 27.0935C0.5 24.7965 0.5 21.8516 0.5 18.0928V17.9072C0.5 14.1484 0.5 11.2035 0.809302 8.90488C1.12512 6.55419 1.78605 4.69837 3.2414 3.2414C4.69837 1.78442 6.55419 1.12512 8.90651 0.809302C11.2035 0.5 14.1484 0.5 17.9072 0.5ZM4.9686 31.0314C4.0407 30.1035 3.50837 28.85 3.22837 26.7679C2.9793 24.9105 2.94674 22.5402 2.94186 19.3674L5.37558 17.2381C5.85728 16.8163 6.48131 16.5935 7.12122 16.6146C7.76114 16.6358 8.36908 16.8994 8.82186 17.3521L15.8056 24.3358C16.5506 25.0812 17.5348 25.5399 18.5848 25.631C19.6348 25.7221 20.6832 25.4399 21.5456 24.834L22.0307 24.4921C22.709 24.0152 23.5291 23.7826 24.3568 23.8322C25.1845 23.8819 25.9708 24.211 26.5872 24.7656L31.834 29.4898C31.8915 29.5408 31.9517 29.5858 32.0146 29.6249C31.7725 30.1481 31.4396 30.6243 31.0314 31.0314C30.1035 31.9593 28.85 32.4916 26.7679 32.7716C24.6516 33.0549 21.8712 33.0581 18 33.0581C14.1288 33.0581 11.3484 33.0549 9.23209 32.7716C7.15 32.4916 5.89651 31.9577 4.9686 31.0314ZM9.23209 3.22837C7.15 3.50837 5.89488 4.04233 4.96698 4.9686C4.0407 5.89651 3.50837 7.15 3.22837 9.23209C2.99233 10.9902 2.95163 13.2042 2.94349 16.123L3.76884 15.4002C4.71688 14.5709 5.94471 14.1328 7.20362 14.1748C8.46254 14.2169 9.65843 14.7358 10.5491 15.6265L17.5328 22.6102C17.8716 22.9485 18.3188 23.1564 18.7958 23.1975C19.2728 23.2386 19.749 23.1102 20.1407 22.8349L20.6258 22.493C21.7565 21.6984 23.1234 21.311 24.5029 21.3941C25.8824 21.4772 27.1928 22.0259 28.22 22.9505L32.7358 27.0153L32.7716 26.7679C33.0549 24.6516 33.0581 21.8712 33.0581 18C33.0581 14.1288 33.0549 11.3484 32.7716 9.23209C32.4916 7.15 31.9577 5.89488 31.0314 4.96698C30.1035 4.0407 28.85 3.50837 26.7679 3.22837C24.6516 2.94512 21.8712 2.94186 18 2.94186C14.1288 2.94186 11.3484 2.94512 9.23209 3.22837Z" fill="#8358D3"/>
</svg>
