<svg width="20" height="20" viewBox="0 0 20 20" fill="none" xmlns="http://www.w3.org/2000/svg">
<path d="M11.0802 4.59919C11.2239 4.19191 11.2679 3.7561 11.2084 3.32833C11.1489 2.90056 10.9876 2.4933 10.7381 2.14073C10.4887 1.78816 10.1583 1.50056 9.77473 1.30208C9.39115 1.10359 8.96555 1 8.53366 1C8.10176 1 7.67617 1.10359 7.29258 1.30208C6.909 1.50056 6.57862 1.78816 6.32916 2.14073C6.07971 2.4933 5.91845 2.90056 5.85893 3.32833C5.79941 3.7561 5.84336 4.19191 5.98709 4.59919C3.93022 4.60639 2.83292 4.68021 2.1236 5.38953C1.41427 6.09886 1.34045 7.19616 1.33325 9.25214C1.74046 9.10889 2.17607 9.06534 2.60357 9.12515C3.03107 9.18496 3.43801 9.34639 3.79027 9.59589C4.14252 9.84539 4.42984 10.1757 4.62812 10.5591C4.82641 10.9426 4.92989 11.3679 4.92989 11.7996C4.92989 12.2313 4.82641 12.6566 4.62812 13.0401C4.42984 13.4235 4.14252 13.7538 3.79027 14.0033C3.43801 14.2528 3.03107 14.4142 2.60357 14.474C2.17607 14.5338 1.74046 14.4903 1.33325 14.3471C1.34045 16.403 1.41427 17.5003 2.1236 18.2097C2.83292 18.919 3.93022 18.9928 5.98619 19C5.84295 18.5928 5.7994 18.1572 5.85921 17.7297C5.91902 17.3022 6.08044 16.8952 6.32995 16.543C6.57945 16.1907 6.90975 15.9034 7.29318 15.7051C7.67661 15.5068 8.10199 15.4034 8.53366 15.4034C8.96532 15.4034 9.3907 15.5068 9.77413 15.7051C10.1576 15.9034 10.4879 16.1907 10.7374 16.543C10.9869 16.8952 11.1483 17.3022 11.2081 17.7297C11.2679 18.1572 11.2244 18.5928 11.0811 19C13.1371 18.9928 14.2344 18.919 14.9437 18.2097C15.653 17.5003 15.7269 16.403 15.7341 14.3462C16.1413 14.4899 16.5771 14.5338 17.0049 14.4743C17.4327 14.4148 17.84 14.2535 18.1925 14.0041C18.5451 13.7546 18.8327 13.4243 19.0312 13.0407C19.2297 12.6571 19.3333 12.2315 19.3333 11.7996C19.3333 11.3677 19.2297 10.9421 19.0312 10.5585C18.8327 10.1749 18.5451 9.84456 18.1925 9.5951C17.84 9.34565 17.4327 9.18439 17.0049 9.12487C16.5771 9.06535 16.1413 9.1093 15.7341 9.25303C15.7269 7.19616 15.653 6.09886 14.9437 5.38953C14.2344 4.67931 13.1371 4.60639 11.0802 4.59919Z" stroke="#BCB5D1" stroke-width="1.35024" stroke-linecap="round" stroke-linejoin="round"/>
</svg>
