<svg width="48" height="40" viewBox="0 0 48 40" fill="none" xmlns="http://www.w3.org/2000/svg">
<path d="M2.5501 0.5C2.03293 0.5 1.53694 0.705446 1.17124 1.07114C0.805544 1.43684 0.600098 1.93283 0.600098 2.45C0.600098 2.96717 0.805544 3.46316 1.17124 3.82886C1.53694 4.19455 2.03293 4.4 2.5501 4.4H45.4501C45.9673 4.4 46.4633 4.19455 46.829 3.82886C47.1947 3.46316 47.4001 2.96717 47.4001 2.45C47.4001 1.93283 47.1947 1.43684 46.829 1.07114C46.4633 0.705446 45.9673 0.5 45.4501 0.5H2.5501ZM2.5501 12.2C2.03293 12.2 1.53694 12.4054 1.17124 12.7711C0.805544 13.1368 0.600098 13.6328 0.600098 14.15C0.600098 14.6672 0.805544 15.1632 1.17124 15.5289C1.53694 15.8946 2.03293 16.1 2.5501 16.1H25.9501C26.4673 16.1 26.9633 15.8946 27.329 15.5289C27.6947 15.1632 27.9001 14.6672 27.9001 14.15C27.9001 13.6328 27.6947 13.1368 27.329 12.7711C26.9633 12.4054 26.4673 12.2 25.9501 12.2H2.5501ZM2.5501 23.9C2.03293 23.9 1.53694 24.1054 1.17124 24.4711C0.805544 24.8368 0.600098 25.3328 0.600098 25.85C0.600098 26.3672 0.805544 26.8632 1.17124 27.2289C1.53694 27.5946 2.03293 27.8 2.5501 27.8H25.9501C26.4673 27.8 26.9633 27.5946 27.329 27.2289C27.6947 26.8632 27.9001 26.3672 27.9001 25.85C27.9001 25.3328 27.6947 24.8368 27.329 24.4711C26.9633 24.1054 26.4673 23.9 25.9501 23.9H2.5501ZM2.5501 35.6C2.03293 35.6 1.53694 35.8054 1.17124 36.1711C0.805544 36.5368 0.600098 37.0328 0.600098 37.55C0.600098 38.0672 0.805544 38.5632 1.17124 38.9289C1.53694 39.2946 2.03293 39.5 2.5501 39.5H45.4501C45.9673 39.5 46.4633 39.2946 46.829 38.9289C47.1947 38.5632 47.4001 38.0672 47.4001 37.55C47.4001 37.0328 47.1947 36.5368 46.829 36.1711C46.4633 35.8054 45.9673 35.6 45.4501 35.6H2.5501ZM41.9908 14.6453C41.4259 14.2663 40.847 13.9086 40.2553 13.5728L41.0743 12.2C41.5501 12.4886 42.1377 12.8617 42.8371 13.3193C43.5391 13.7769 44.2021 14.3333 44.8261 14.9885C45.4345 15.6281 45.9519 16.3587 46.3783 17.1803C46.8047 17.9863 47.0179 18.8859 47.0179 19.8791C47.0179 21.2831 46.7371 22.418 46.1755 23.2838C45.6113 24.1366 44.674 24.563 43.3636 24.563C42.5264 24.563 41.8712 24.2887 41.398 23.7401C40.9398 23.2489 40.6787 22.606 40.6648 21.9344C40.6648 21.0374 40.9391 20.3601 41.4877 19.9025C42.0207 19.4293 42.7604 19.1927 43.7068 19.1927H44.8027C44.742 18.5248 44.5802 17.8699 44.323 17.2505C44.0749 16.7199 43.7431 16.2327 43.3402 15.8075C42.9362 15.3699 42.4835 14.9799 41.9908 14.6453ZM33.5356 14.6453C32.9707 14.2663 32.3918 13.9086 31.8001 13.5728L32.6191 12.2C33.0949 12.4886 33.6825 12.8617 34.3819 13.3193C35.0839 13.7769 35.7469 14.3333 36.3709 14.9885C36.9793 15.6281 37.4967 16.3587 37.9231 17.1803C38.3495 17.9863 38.5627 18.8859 38.5627 19.8791C38.5627 21.2831 38.2819 22.418 37.7203 23.2838C37.1561 24.1366 36.2188 24.563 34.9084 24.563C34.0712 24.563 33.416 24.2887 32.9428 23.7401C32.4846 23.2489 32.2235 22.606 32.2096 21.9344C32.2096 21.0374 32.4839 20.3601 33.0325 19.9025C33.5681 19.4293 34.3078 19.1927 35.2516 19.1927H36.3475C36.2865 18.5348 36.1328 17.8888 35.8912 17.2739C35.6378 16.7348 35.2979 16.2407 34.885 15.8114C34.4815 15.371 34.0287 14.9823 33.5356 14.6453Z" fill="#8358D3"/>
</svg>
