<svg width="18" height="18" viewBox="0 0 18 18" fill="none" xmlns="http://www.w3.org/2000/svg">
<path d="M15.8311 17.2329L10.0776 11.4795C9.62101 11.8448 9.09589 12.134 8.50228 12.3471C7.90868 12.5602 7.27702 12.6667 6.60731 12.6667C4.94825 12.6667 3.54414 12.0921 2.39498 10.943C1.24582 9.7938 0.671234 8.38969 0.671234 6.73063C0.671234 5.07157 1.24582 3.66746 2.39498 2.5183C3.54414 1.36914 4.94825 0.794556 6.60731 0.794556C8.26636 0.794556 9.67047 1.36914 10.8196 2.5183C11.9688 3.66746 12.5434 5.07157 12.5434 6.73063C12.5434 7.40034 12.4368 8.032 12.2237 8.62561C12.0107 9.21921 11.7215 9.74433 11.3562 10.2009L17.1096 15.9544L15.8311 17.2329ZM6.60731 10.8402C7.74886 10.8402 8.71918 10.4407 9.51827 9.64159C10.3174 8.8425 10.7169 7.87218 10.7169 6.73063C10.7169 5.58908 10.3174 4.61876 9.51827 3.81967C8.71918 3.02058 7.74886 2.62104 6.60731 2.62104C5.46575 2.62104 4.49544 3.02058 3.69635 3.81967C2.89726 4.61876 2.49772 5.58908 2.49772 6.73063C2.49772 7.87218 2.89726 8.8425 3.69635 9.64159C4.49544 10.4407 5.46575 10.8402 6.60731 10.8402Z" fill="#6C57A4"/>
</svg>
