<svg width="23" height="24" viewBox="0 0 23 24" fill="none" xmlns="http://www.w3.org/2000/svg">
<path d="M22.2141 18.9028L18.3288 15.0175L15.3404 13.7829C16.3355 12.3678 16.8686 10.6797 16.8666 8.94976C16.8666 4.2996 13.0835 0.516449 8.43331 0.516449C3.78316 0.516449 0 4.2996 0 8.94976C0 13.5999 3.78316 17.3831 8.43331 17.3831C10.1783 17.3851 11.8804 16.8428 13.3025 15.8317L14.534 18.8121L18.4191 22.6976C18.6683 22.9467 18.9641 23.1444 19.2897 23.2793C19.6152 23.4141 19.9641 23.4835 20.3165 23.4836C20.6689 23.4836 21.0179 23.4142 21.3434 23.2793C21.669 23.1445 21.9648 22.9468 22.214 22.6977C22.4632 22.4485 22.6608 22.1527 22.7957 21.8271C22.9306 21.5016 23 21.1526 23 20.8003C23 20.4479 22.9306 20.0989 22.7958 19.7734C22.6609 19.4478 22.4633 19.152 22.2141 18.9028ZM1.53333 8.94976C1.53333 5.14519 4.62874 2.04978 8.43331 2.04978C12.2379 2.04978 15.3333 5.14519 15.3333 8.94976C15.3333 12.7543 12.2379 15.8497 8.43331 15.8497C4.62874 15.8497 1.53333 12.7543 1.53333 8.94976ZM21.1298 21.6133C20.914 21.8287 20.6215 21.9496 20.3166 21.9496C20.0117 21.9496 19.7193 21.8287 19.5034 21.6133L15.8344 17.9443L14.6894 15.173L17.4608 16.3179L21.1299 19.987C21.3452 20.2029 21.4661 20.4953 21.4661 20.8002C21.4661 21.1051 21.3451 21.3975 21.1298 21.6133Z" fill="#65558F"/>
</svg>
