<svg width="19" height="19" viewBox="0 0 19 19" fill="none" xmlns="http://www.w3.org/2000/svg">
<path d="M17.1643 12.3421L15.4401 11.1105C15.7243 10.0874 15.7432 8.97895 15.4401 7.87053L17.1643 6.6579L15.7906 4.28947L13.8675 5.16105C13.119 4.40316 12.1717 3.81579 11.0632 3.54105L10.8738 1.44737H8.1264L7.93693 3.54105C6.82851 3.81579 5.88114 4.40316 5.13272 5.16105L3.20956 4.28947L1.83588 6.6579L3.56009 7.87053C3.25693 8.97895 3.27588 10.0874 3.56009 11.1105L1.83588 12.3421L3.20956 14.7105L5.13272 13.8295C5.88114 14.5779 6.82851 15.1463 7.93693 15.44L8.1264 17.5526H10.8738L11.0632 15.44C12.1717 15.1463 13.119 14.5779 13.8675 13.8295L15.7906 14.7105L17.1643 12.3421ZM11.3948 0.5C11.6506 0.5 11.8685 0.689474 11.8685 0.93579L12.039 2.86842C12.759 3.13368 13.4032 3.52211 13.9811 3.98632L15.7338 3.16211C15.9517 3.04842 16.2264 3.12421 16.359 3.34211L18.2538 6.6579C18.3864 6.85684 18.3106 7.13158 18.1022 7.27368L16.5201 8.38211C16.6432 9.14 16.6338 9.88842 16.5201 10.6179L18.1022 11.7263C18.3106 11.8684 18.3864 12.1432 18.2538 12.3421L16.359 15.6579C16.2264 15.8568 15.9517 15.9326 15.7338 15.8189L13.9811 15.0042C13.4032 15.4684 12.759 15.8474 12.039 16.1316L11.8685 18.0263C11.8685 18.3011 11.6506 18.5 11.3948 18.5H7.60535C7.47972 18.5 7.35924 18.4501 7.2704 18.3613C7.18157 18.2724 7.13167 18.1519 7.13167 18.0263L6.96114 16.1316C6.24114 15.8474 5.59693 15.4684 5.01903 15.0042L3.2664 15.8189C3.04851 15.9326 2.77377 15.8568 2.64114 15.6579L0.746403 12.3421C0.613771 12.1432 0.689561 11.8684 0.897982 11.7263L2.48009 10.6179C2.3664 9.88842 2.35693 9.14 2.48009 8.38211L0.897982 7.27368C0.689561 7.13158 0.613771 6.85684 0.746403 6.6579L2.64114 3.34211C2.77377 3.12421 3.04851 3.04842 3.2664 3.16211L5.01903 3.98632C5.59693 3.52211 6.24114 3.13368 6.96114 2.86842L7.13167 0.93579C7.13167 0.689474 7.34956 0.5 7.60535 0.5H11.3948ZM9.50009 6.18421C10.3795 6.18421 11.2229 6.53355 11.8447 7.15538C12.4665 7.77721 12.8159 8.6206 12.8159 9.5C12.8159 10.3794 12.4665 11.2228 11.8447 11.8446C11.2229 12.4664 10.3795 12.8158 9.50009 12.8158C8.62068 12.8158 7.7773 12.4664 7.15547 11.8446C6.53364 11.2228 6.1843 10.3794 6.1843 9.5C6.1843 8.6206 6.53364 7.77721 7.15547 7.15538C7.7773 6.53355 8.62068 6.18421 9.50009 6.18421ZM9.50009 7.13158C8.87194 7.13158 8.26953 7.38111 7.82536 7.82527C7.3812 8.26944 7.13167 8.87186 7.13167 9.5C7.13167 10.1281 7.3812 10.7306 7.82536 11.1747C8.26953 11.6189 8.87194 11.8684 9.50009 11.8684C10.1282 11.8684 10.7306 11.6189 11.1748 11.1747C11.619 10.7306 11.8685 10.1281 11.8685 9.5C11.8685 8.87186 11.619 8.26944 11.1748 7.82527C10.7306 7.38111 10.1282 7.13158 9.50009 7.13158Z" fill="#66686C"/>
</svg>
