<svg width="26" height="24" viewBox="0 0 26 24" fill="none" xmlns="http://www.w3.org/2000/svg">
<path d="M10.6473 5.63792L13.3256 8.31859C14.6276 9.64159 16.6699 9.64159 17.9297 8.38182L13.3868 3.83878M13.3993 3.8513C10.6838 1.13584 5.90241 0.756942 3.18694 3.47234C0.47148 6.18781 0.47148 10.5904 3.18694 13.3058M10.603 5.66535L3.73997 12.5284C3.12834 13.1398 3.15506 14.1313 3.76669 14.7427C4.37808 15.3542 5.36956 15.3541 5.98101 14.7426M10.5978 10.1412L5.97531 14.7637C5.3638 15.3754 5.39052 16.3667 6.00203 16.9781C6.61354 17.5897 7.60496 17.5896 8.21635 16.9781L12.8388 12.3555M8.21071 16.9992C7.59914 17.6107 7.62592 18.6022 8.23737 19.2135C8.84888 19.825 9.84035 19.8249 10.4518 19.2135M22.0581 13.8769L22.6862 13.2489C25.4016 10.5334 25.7805 5.75197 23.0651 3.03663C20.3497 0.321106 15.9471 0.321165 13.2316 3.03663L13.0409 3.22845M12.4356 22.5545C13.0471 23.166 14.0386 23.1393 14.65 22.5278C15.2615 21.9163 15.2613 20.925 14.65 20.3135L13.0963 18.7598C12.4848 18.1483 11.4933 18.1751 10.882 18.7866C10.2704 19.3981 10.2705 20.3894 10.882 21.0008L12.4356 22.5545ZM14.6711 20.3191C15.2826 20.9306 16.274 20.9039 16.8854 20.2924C17.497 19.6809 17.4968 18.6895 16.8854 18.0781L15.3318 16.5245C14.7201 15.913 13.7287 15.9397 13.1173 16.5511C12.5058 17.1626 12.5059 18.154 13.1173 18.7655L14.6711 20.3191ZM16.9064 18.0838C17.518 18.6953 18.5094 18.6685 19.1209 18.057C19.7323 17.4455 19.7322 16.4542 19.1208 15.8427L17.5671 14.2891C16.9556 13.6774 15.9641 13.7042 15.3528 14.3157C14.7412 14.9272 14.7413 15.9187 15.3528 16.5301L16.9064 18.0838ZM19.1419 15.8483C19.7534 16.4598 20.7448 16.4332 21.3562 15.8216C21.9677 15.2101 21.9676 14.2187 21.3562 13.6073L19.8026 12.0536C19.1909 11.4421 18.1996 11.4688 17.5881 12.0803C16.9766 12.6918 16.9768 13.6833 17.5882 14.2947L19.1419 15.8483Z" stroke="#65558F" stroke-width="1.06866" stroke-linecap="round"/>
</svg>
