<svg width="18" height="18" viewBox="0 0 18 18" fill="none" xmlns="http://www.w3.org/2000/svg">
<path d="M8.875 1.125C4.52564 1.125 1 4.65064 1 9C1 13.3494 4.52564 16.875 8.875 16.875C13.2244 16.875 16.75 13.3494 16.75 9C16.75 4.65064 13.2244 1.125 8.875 1.125Z" stroke="#8358D3" stroke-width="1.18125" stroke-linecap="round" stroke-linejoin="round"/>
<path d="M2.78845 13.9979C2.78845 13.9979 4.54379 11.7566 8.87504 11.7566C13.2063 11.7566 14.9624 13.9979 14.9624 13.9979M8.87504 9.00039C9.50161 9.00039 10.1025 8.75149 10.5456 8.30843C10.9886 7.86538 11.2375 7.26446 11.2375 6.63789C11.2375 6.01132 10.9886 5.41041 10.5456 4.96735C10.1025 4.5243 9.50161 4.27539 8.87504 4.27539C8.24847 4.27539 7.64755 4.5243 7.2045 4.96735C6.76145 5.41041 6.51254 6.01132 6.51254 6.63789C6.51254 7.26446 6.76145 7.86538 7.2045 8.30843C7.64755 8.75149 8.24847 9.00039 8.87504 9.00039Z" stroke="#8358D3" stroke-width="1.18125" stroke-linecap="round" stroke-linejoin="round"/>
</svg>
