<svg width="15" height="15" viewBox="0 0 15 15" fill="none" xmlns="http://www.w3.org/2000/svg">
<path fill-rule="evenodd" clip-rule="evenodd" d="M2.41071 0C1.07931 0 0 1.07931 0 2.41071V10.4464C0 10.8902 0.359771 11.25 0.803571 11.25C1.24737 11.25 1.60714 10.8902 1.60714 10.4464V2.41071C1.60714 1.96692 1.96692 1.60714 2.41071 1.60714H10.4464C10.8902 1.60714 11.25 1.24737 11.25 0.803571C11.25 0.359771 10.8902 0 10.4464 0H2.41071ZM4.82143 3.21429C3.93382 3.21429 3.21429 3.93382 3.21429 4.82143V13.3929C3.21429 14.2804 3.93382 15 4.82143 15H13.3929C14.2804 15 15 14.2804 15 13.3929V4.82143C15 3.93382 14.2804 3.21429 13.3929 3.21429H4.82143Z" fill="#6750A4"/>
</svg>
