<svg width="19" height="18" viewBox="0 0 19 18" fill="none" xmlns="http://www.w3.org/2000/svg">
<path d="M2.32434 16.75H16.4335C16.6627 16.75 16.8879 16.6905 17.0872 16.5773C17.2865 16.4642 17.453 16.3013 17.5705 16.1046C17.688 15.9078 17.7524 15.684 17.7575 15.4549C17.7626 15.2258 17.7082 14.9993 17.5996 14.7975L10.5454 1.69664C10.0449 0.767786 8.71292 0.767786 8.21248 1.69664L1.1583 14.7975C1.04966 14.9993 0.995234 15.2258 1.00033 15.4549C1.00542 15.684 1.06986 15.9078 1.18736 16.1046C1.30485 16.3013 1.47138 16.4642 1.67067 16.5773C1.86995 16.6905 2.09518 16.75 2.32434 16.75Z" stroke="#FF6B35" stroke-width="1.32457" stroke-linecap="round" stroke-linejoin="round"/>
<path d="M9.14176 6.36629L9.37936 11.4162L9.61654 6.36836C9.618 6.33609 9.61287 6.30386 9.60146 6.27364C9.59004 6.24342 9.57259 6.21585 9.55016 6.1926C9.52773 6.16936 9.50079 6.15093 9.471 6.13845C9.4412 6.12597 9.40917 6.11969 9.37687 6.12001C9.34514 6.12032 9.31378 6.12698 9.28466 6.13961C9.25555 6.15224 9.22925 6.17057 9.20734 6.19353C9.18542 6.21649 9.16833 6.2436 9.15707 6.27328C9.1458 6.30295 9.1406 6.33458 9.14176 6.36629Z" stroke="#FF6B35" stroke-width="1.32457" stroke-linecap="round" stroke-linejoin="round"/>
<path d="M9.37864 14.7218C9.2149 14.7218 9.05485 14.6732 8.91871 14.5822C8.78257 14.4913 8.67646 14.362 8.6138 14.2107C8.55114 14.0594 8.53475 13.893 8.56669 13.7324C8.59863 13.5718 8.67748 13.4243 8.79326 13.3085C8.90903 13.1927 9.05654 13.1139 9.21713 13.0819C9.37772 13.05 9.54418 13.0664 9.69545 13.1291C9.84672 13.1917 9.97601 13.2978 10.067 13.434C10.1579 13.5701 10.2065 13.7302 10.2065 13.8939C10.2065 14.1135 10.1193 14.324 9.96402 14.4793C9.80877 14.6345 9.5982 14.7218 9.37864 14.7218Z" fill="#FF6B35"/>
</svg>
