<svg width="14" height="14" viewBox="0 0 14 14" fill="none" xmlns="http://www.w3.org/2000/svg">
<path d="M7 0.777778L5.37444 2.40333L7 4.02889M0.987778 0L0 0.987778L3.67889 4.66667H0V9.33333H3.11111L7 13.2222V7.98778L10.3056 11.3011C9.78444 11.6978 9.20111 12.0244 8.55556 12.2111V13.8211C9.62889 13.5722 10.6011 13.0822 11.4178 12.4133L13.0122 14L14 13.0122L7 6.01222M12.4444 7C12.4444 7.73111 12.2889 8.41556 12.0244 9.05333L13.1989 10.2278C13.7243 9.23294 13.9992 8.12504 14 7C14 3.67111 11.6667 0.886667 8.55556 0.178889V1.78111C10.8033 2.45 12.4444 4.53444 12.4444 7ZM10.5 7C10.5 5.62333 9.72222 4.44111 8.55556 3.86556V5.58444L10.4611 7.49C10.5 7.33444 10.5 7.16333 10.5 7Z" fill="white"/>
</svg>
