<?xml version="1.0" encoding="UTF-8"?>
<svg width="25px" height="29px" viewBox="0 0 25 29" version="1.1" xmlns="http://www.w3.org/2000/svg" xmlns:xlink="http://www.w3.org/1999/xlink">
    <title>Path</title>
    <g id="Page-1" stroke="none" stroke-width="1" fill="none" fill-rule="evenodd">
        <path d="M24.0915522,9.4173085 C23.2579514,10.8024473 21.5587867,11.7446629 21.4017344,11.8252016 C21.0836836,11.9943091 20.9668808,12.2399303 20.9870056,12.6063595 C21.0071304,12.9727691 20.9185418,14.788697 19.8112831,15.5901376 C19.243448,16.000723 16.9523775,16.5322546 15.9013499,16.7094317 C15.3619262,16.8019664 15.2370341,16.9671081 14.9391081,17.1442853 C14.5364148,17.3938723 13.1069619,19.3749815 12.8654643,19.8139783 C12.8976245,19.809835 17.3710523,18.4206318 17.5724976,18.3884716 C18.1040291,18.3079724 18.5065252,18.4610787 18.7683449,18.8475933 C19.0179319,19.2179291 19.2635728,19.5924082 19.5092138,19.9668874 C19.5978024,20.0998689 19.6824449,20.2367965 19.7668902,20.3735268 L19.8554788,20.5145977 C19.887639,20.5668827 19.9320319,20.6272571 19.9521567,20.7077563 C19.9683355,20.7641847 20.0044418,20.9533973 19.8957284,21.066254 C19.7951044,21.170824 19.6220705,21.170824 19.5293386,21.1467532 C19.44075,21.1224851 19.3079658,21.0702 19.1992524,20.9816115 L19.0502894,20.8567193 C18.9334866,20.7560953 18.7119165,20.7077563 18.5388827,20.7158457 C18.3374374,20.7239351 18.0716716,20.6594173 17.9428334,20.5789181 C17.6932464,20.4179197 17.6287287,20.0152264 17.6287287,20.0112803 C17.5965684,19.8782988 17.4998905,19.8421925 17.4113019,19.8421925 C17.2503035,19.8380492 17.1254113,19.8863882 16.9965731,19.9226917 C16.4088105,20.0998689 15.824994,20.2809921 15.2370341,20.4662587 L14.3955412,20.7278811 C13.9808124,20.8567193 13.5660836,20.9855575 13.1553009,21.1224851 C13.0426415,21.1587886 12.9339281,21.215217 12.8171253,21.2755914 C12.7687864,21.2996622 12.7204276,21.3239304 12.6721084,21.3480012 C12.6237891,21.3722694 12.5714449,21.4004835 12.5231257,21.4285004 C12.4144123,21.4888748 12.297649,21.5533926 12.168791,21.5896961 C11.7500373,21.714391 11.3836081,21.5332678 11.2104756,21.114593 C11.0977175,20.8446839 11.198381,20.3092063 11.2587949,20.1521539 C11.6372792,19.1695901 12.8694104,17.3175164 12.8694104,17.3052837 C12.8492856,17.2973916 11.5044161,17.8368152 11.2829446,18.005903 C10.6749389,18.4689708 9.24953072,19.564194 9.22938619,19.6689614 C9.13679237,20.1561 8.83478223,20.5226871 8.37173422,20.7038103 C8.0375244,20.8326485 7.83619747,21.0984142 7.63889549,21.3560906 C7.63889549,21.3560906 4.0673351,26.2766046 3.82573883,26.5423704 C3.75325008,26.6228696 3.08485017,27.3234889 2.907673,27.6496291 C2.86740366,27.7301283 2.71439598,28.0523224 2.67414638,28.1328216 C2.64192696,28.1971421 2.56943822,28.3703732 2.29564226,28.3583378 C2.02182658,28.3463024 2.01377666,27.9637338 2.00170178,27.7985921 C1.97350732,27.3919527 2.06209591,26.9932054 2.27549773,26.5745306 C2.29564226,26.534281 2.53723853,26.1678912 2.44864995,25.8739113 C2.36811128,25.6162349 2.2916173,25.2174876 2.41240557,25.0162396 C2.60165763,24.6981888 2.93586745,24.6861534 3.38281562,24.6135462 C3.69285594,24.5612612 3.91835237,24.4081549 4.13577915,24.0901041 C4.5948022,23.421645 6.32222047,20.969576 6.71277974,20.4017409 C6.8174879,20.2527779 6.89800683,20.0596193 6.93425121,19.8702094 C7.04698956,19.2984283 7.39327426,18.8998783 7.99725507,18.6542373 C8.12611299,18.6019523 10.5299811,16.592629 10.5299811,16.3349526 C10.5299811,16.149686 10.26826,16.049062 10.0669134,15.9926337 C10.0387386,15.9847416 8.52876687,15.5940837 7.84022243,15.2799789 C7.465763,15.1108911 7.1838974,14.9619281 6.84968758,14.7202332 C6.39468949,14.3860037 5.48469331,14.5471994 5.35181043,14.5673242 C4.70756028,14.6598588 4.2283927,14.9498927 3.68480602,15.3162825 C3.58816752,15.3847463 3.09290009,15.5619234 2.8432539,15.4208525 C2.3560364,15.1430513 1.28496288,14.6438773 0.890358929,14.043882 C0.709176524,13.7660019 0.733326286,13.3150288 0.862184207,12.8157364 C1.27691296,11.656094 1.88896343,11.1366571 3.02043108,10.8225918 C3.82573883,10.5447512 5.44844894,10.4843571 6.22960693,10.4239629 C6.28195114,10.4078433 8.01337464,10.367574 9.22938619,9.7434684 C10.0387386,9.32871991 12.4426067,7.73017929 15.9013499,7.83889268 C17.2986425,7.88318698 19.9401213,9.24820098 20.9587914,9.28847031 C21.9975863,9.33274487 22.5170824,9.21598156 23.1170778,8.59590091 C23.2861656,8.41872373 24.0069097,6.86445768 23.3264152,6.01485563 C23.0726848,5.70079035 22.8110624,5.41892474 22.5089931,5.16122863 C22.1023537,4.81494393 21.6795356,4.48475907 21.3131458,4.09418008 C20.5038131,3.23652811 20.2542261,2.06479113 20.6365973,1.15076999 C20.8822383,0.510544802 21.3977883,0.232704158 22.1426033,0.377661921 C22.6660454,0.478325389 23.048614,0.949443051 23.4230931,1.19908924 C23.6324305,1.34000231 23.9828388,1.42054098 24.212301,1.47691016 C24.5021376,1.54537394 24.7195644,1.76682568 24.707529,1.9158084 C24.6954936,2.06479113 24.312925,2.19364905 23.9465353,2.1654546 C23.5116817,2.13727987 22.7666695,2.13325491 22.3197805,2.28223764 C22.0218545,2.39095103 21.888873,2.72111616 21.9774615,3.04727605 C22.0500687,3.31302209 22.6177065,3.78816471 22.8311872,3.96534188 C23.2579514,4.31565154 23.7129297,4.63374179 24.0672841,5.07264004 C24.4660314,5.57193242 24.6753688,6.13968859 24.7396892,6.76781917 C24.8363672,7.73017929 24.5826368,8.59590091 24.0915522,9.4173085 Z" id="Path" fill="#7C43C7"></path>
    </g>
</svg>