<svg width="21" height="21" viewBox="0 0 21 21" fill="none" xmlns="http://www.w3.org/2000/svg">
<path d="M10.5 19.8184C15.4706 19.8184 19.5 15.7889 19.5 10.8184C19.5 5.8478 15.4706 1.81836 10.5 1.81836M10.5 19.8184C5.52944 19.8184 1.5 15.7889 1.5 10.8184C1.5 5.8478 5.52944 1.81836 10.5 1.81836M10.5 19.8184C8.32538 19.8184 6.5625 15.7889 6.5625 10.8184C6.5625 5.8478 8.32538 1.81836 10.5 1.81836M10.5 19.8184C12.6746 19.8184 14.4375 15.7889 14.4375 10.8184C14.4375 5.8478 12.6746 1.81836 10.5 1.81836M3.1875 15.1928C4.83632 14.2486 7.57573 13.6309 10.6764 13.6309C13.9124 13.6309 16.755 14.3038 18.375 15.3184M3.1875 6.44394C4.83632 7.38811 7.57573 8.00586 10.6764 8.00586C13.9124 8.00586 16.755 7.33296 18.375 6.31836" stroke="#65558F" stroke-width="2"/>
</svg>
