<?xml version="1.0" encoding="UTF-8"?>
<svg width="253px" height="96px" viewBox="0 0 253 96" version="1.1" xmlns="http://www.w3.org/2000/svg" xmlns:xlink="http://www.w3.org/1999/xlink">
    <title>gathr-Logo</title>
    <g id="Page-1" stroke="none" stroke-width="1" fill="none" fill-rule="evenodd">
        <g id="gathr-Logo" transform="translate(0.700000, -0.000000)" fill="#000000" fill-rule="nonzero">
            <g id="Group" transform="translate(126.150000, 47.945997) scale(-1, 1) rotate(-180.000000) translate(-126.150000, -47.945997) translate(0.000000, 0.000000)">
                <path d="M158.3,60.3919931 C158.3,18.9919931 157.8,20.8919931 168.1,20.8919931 L174,20.8919931 L174.6,32.0919931 C175,38.2919931 175.3,47.0919931 175.3,51.5919931 L175.3,59.7919931 L178.6,60.3919931 C183,61.1919931 189.5,59.4919931 191.9,56.7919931 C193.4,55.0919931 193.8,52.4919931 194.3,39.2919931 C194.9,21.0919931 195,20.8919931 204.5,20.8919931 L210.3,20.8919931 L210.3,38.1919931 C210.3,57.4919931 209.6,61.3919931 205,66.5919931 C200.4,71.7919931 194.5,74.0919931 184.1,74.6919931 L175.3,75.1919931 L175.3,83.0919931 C175.3,90.0919931 175,91.2919931 172.8,93.3919931 C170.8,95.4919931 169.4,95.8919931 164.3,95.8919931 L158.3,95.8919931 L158.3,60.3919931 Z" id="Path"></path>
                <path d="M117.5,59.6919931 C117.7,37.4919931 118.1,32.8919931 119.5,30.3919931 C121.3,26.9919931 124.7,23.6919931 128.2,21.8919931 C131.4,20.1919931 145.4,20.3919931 149,22.0919931 C152.4,23.6919931 154,27.8919931 152.7,31.6919931 C151.8,34.1919931 151.4,34.3919931 144.8,34.6919931 C134.7,35.0919931 134.3,35.6919931 134.3,49.0919931 L134.3,59.8919931 L142.2,59.8919931 C149.3,59.8919931 150.4,60.0919931 151.7,62.0919931 C153.8,65.0919931 153.7,70.1919931 151.5,72.1919931 C150.3,73.2919931 147.4,73.8919931 142.3,74.0919931 L134.8,74.3919931 L134.5,78.3919931 C134,84.5919931 132.2,85.8919931 124.1,85.8919931 L117.2,85.8919931 L117.5,59.6919931 Z" id="Path"></path>
                <path d="M15.5,72.9919931 C4.7,69.2919931 0,61.5919931 0,47.7919931 C0,36.4919931 3.2,29.1919931 10,24.8919931 C14.5,21.9919931 23.5,19.8919931 31.2,19.8919931 C34.7,19.8919931 35.4,19.5919931 35.1,18.1919931 C34.3,13.9919931 26.5,13.1919931 10.9,15.5919931 L7,16.1919931 L7.5,10.4919931 C7.8,7.39199314 8.6,4.09199314 9.4,3.39199314 C11.5,1.19199314 21.8,-0.408006855 29.8,0.0919931448 C40.6,0.791993145 48.5,5.89199314 51.2,13.7919931 C52.9,19.0919931 52.7,62.1919931 50.9,65.6919931 C48.8,69.7919931 45.3,72.5919931 40.8,73.7919931 C34.5,75.4919931 21.6,75.0919931 15.5,72.9919931 Z M35.1,47.1919931 L35.4,34.8919931 L29.8,34.8919931 C22.1,34.8919931 18.7,36.8919931 17.3,42.0919931 C15.7,47.7919931 16.9,54.5919931 19.9,57.5919931 C22,59.6919931 23.1,59.9919931 28.6,59.6919931 L34.8,59.3919931 L35.1,47.1919931 Z" id="Shape"></path>
                <path d="M70.4,73.8919931 C64.5,72.5919931 62.3,70.4919931 62.3,65.7919931 C62.3,60.1919931 64.3,58.6919931 70.6,59.5919931 C80.1,60.9919931 87.9,60.5919931 90.2,58.4919931 C91.4,57.3919931 92.3,56.2919931 92.3,55.8919931 C92.3,55.4919931 87.6,54.8919931 81.9,54.5919931 C70.6,53.9919931 66.1,52.5919931 62.3,48.3919931 C60.1,45.9919931 59.8,44.8919931 59.8,37.8919931 C59.8,30.5919931 60,29.7919931 62.7,26.9919931 C67.1,22.3919931 71.2,21.3919931 85.8,21.3919931 C100.1,21.3919931 103,22.1919931 106.7,27.1919931 C108.6,29.7919931 108.8,31.3919931 108.8,45.7919931 C108.8,61.1919931 108.7,61.5919931 106.1,65.5919931 C102,71.7919931 96,74.2919931 84.3,74.5919931 C79.1,74.6919931 72.8,74.3919931 70.4,73.8919931 Z M92.1,38.1919931 L91.8,34.3919931 L83.8,34.3919931 L75.8,34.3919931 L75.5,37.2919931 C75,41.1919931 76.5,41.8919931 85.1,41.8919931 L92.4,41.8919931 L92.1,38.1919931 Z" id="Shape"></path>
                <path d="M234.3,73.8919931 C231.3,73.4919931 227.4,72.4919931 225.6,71.5919931 C219.5,68.3919931 219.3,67.5919931 219.3,44.6919931 C219.3,24.4919931 219.3,23.9919931 221.5,22.4919931 C222.7,21.5919931 225.6,20.8919931 227.9,20.8919931 C231.3,20.8919931 232.6,21.3919931 234.2,23.4919931 C236.1,25.9919931 236.3,27.4919931 236.3,42.3919931 L236.3,58.5919931 L240.1,59.2919931 C242.1,59.5919931 245.2,59.8919931 247,59.8919931 C250.9,59.8919931 252.3,61.9919931 252.3,67.7919931 C252.3,74.4919931 248.6,75.7919931 234.3,73.8919931 Z" id="Path"></path>
            </g>
        </g>
    </g>
</svg>