<svg width="19" height="20" viewBox="0 0 19 20" fill="none" xmlns="http://www.w3.org/2000/svg">
<path d="M5.40155 13.199C5.2352 13.3693 5.14183 13.5997 5.14183 13.8399C5.14183 14.0801 5.2352 14.3105 5.40155 14.4808C5.48458 14.566 5.58336 14.6337 5.6922 14.6798C5.80104 14.726 5.91778 14.7497 6.03568 14.7497C6.15359 14.7497 6.27032 14.726 6.37916 14.6798C6.488 14.6337 6.58678 14.566 6.66981 14.4808C6.83616 14.3105 6.92953 14.0801 6.92953 13.8399C6.92953 13.5997 6.83616 13.3693 6.66981 13.199C6.58678 13.1138 6.488 13.0462 6.37916 13C6.27032 12.9539 6.15359 12.9301 6.03568 12.9301C5.91778 12.9301 5.80104 12.9539 5.6922 13C5.58336 13.0462 5.48458 13.1138 5.40155 13.199ZM5.40155 5.48082C5.2352 5.65115 5.14183 5.88156 5.14183 6.12173C5.14183 6.36189 5.2352 6.5923 5.40155 6.76263C5.48458 6.84784 5.58336 6.91547 5.6922 6.96163C5.80104 7.00778 5.91778 7.03154 6.03568 7.03154C6.15359 7.03154 6.27032 7.00778 6.37916 6.96163C6.488 6.91547 6.58678 6.84784 6.66981 6.76263C6.83616 6.5923 6.92953 6.36189 6.92953 6.12173C6.92953 5.88156 6.83616 5.65115 6.66981 5.48082C6.58678 5.39561 6.488 5.32798 6.37916 5.28182C6.27032 5.23567 6.15359 5.21191 6.03568 5.21191C5.91778 5.21191 5.80104 5.23567 5.6922 5.28182C5.58336 5.32798 5.48458 5.39561 5.40155 5.48082ZM9.82259 14.5717C9.64595 14.5717 9.47327 14.625 9.32639 14.7249C9.17951 14.8248 9.06504 14.9668 8.99744 15.1329C8.92984 15.299 8.91215 15.4818 8.94661 15.6582C8.98108 15.8345 9.06614 15.9965 9.19105 16.1236C9.31595 16.2508 9.4751 16.3374 9.64835 16.3724C9.8216 16.4075 10.0012 16.3895 10.1644 16.3207C10.3276 16.2519 10.4671 16.1354 10.5652 15.9859C10.6633 15.8364 10.7157 15.6606 10.7157 15.4808C10.7218 15.3577 10.7032 15.2345 10.661 15.1189C10.6188 15.0034 10.554 14.8977 10.4705 14.8084C10.3869 14.7191 10.2864 14.6481 10.175 14.5995C10.0636 14.551 9.94373 14.5261 9.82259 14.5263V14.5717ZM4.46376 9.11718C4.28711 9.11718 4.11443 9.1705 3.96755 9.27039C3.82068 9.37028 3.7062 9.51226 3.6386 9.67838C3.571 9.84449 3.55332 10.0273 3.58778 10.2036C3.62224 10.38 3.7073 10.542 3.83221 10.6691C3.95712 10.7962 4.11626 10.8828 4.28951 10.9179C4.46277 10.953 4.64235 10.935 4.80555 10.8662C4.96875 10.7974 5.10823 10.6808 5.20637 10.5313C5.30451 10.3818 5.3569 10.2061 5.3569 10.0263C5.36295 9.90312 5.34433 9.78 5.30217 9.6644C5.26 9.5488 5.19518 9.44315 5.11163 9.35385C5.02808 9.26456 4.92756 9.19351 4.81618 9.145C4.70481 9.0965 4.5849 9.07157 4.46376 9.07172V9.11718ZM9.82259 3.66263C9.64595 3.66263 9.47327 3.71595 9.32639 3.81584C9.17951 3.91574 9.06504 4.05772 8.99744 4.22383C8.92984 4.38995 8.91215 4.57273 8.94661 4.74908C8.98108 4.92543 9.06614 5.08741 9.19105 5.21455C9.31595 5.34169 9.4751 5.42827 9.64835 5.46335C9.8216 5.49843 10.0012 5.48042 10.1644 5.41162C10.3276 5.34281 10.4671 5.22629 10.5652 5.07679C10.6633 4.92729 10.7157 4.75153 10.7157 4.57173C10.7218 4.44857 10.7032 4.32545 10.661 4.20986C10.6188 4.09426 10.554 3.9886 10.4705 3.89931C10.3869 3.81002 10.2864 3.73896 10.175 3.69046C10.0636 3.64196 9.94373 3.61703 9.82259 3.61718V3.66263ZM12.9843 5.52627C12.8589 5.65319 12.7733 5.81517 12.7384 5.99166C12.7035 6.16815 12.7209 6.35122 12.7883 6.51765C12.8558 6.68408 12.9702 6.82638 13.1172 6.92651C13.2642 7.02664 13.4371 7.08009 13.614 7.08009C13.7908 7.08009 13.9637 7.02664 14.1107 6.92651C14.2577 6.82638 14.3722 6.68408 14.4396 6.51765C14.5071 6.35122 14.5244 6.16815 14.4896 5.99166C14.4547 5.81517 14.3691 5.65319 14.2436 5.52627C14.0823 5.35078 13.8592 5.24747 13.6232 5.23895C13.3872 5.23043 13.1575 5.3174 12.9843 5.48082V5.52627ZM18.6111 5.52627C17.7945 3.86472 16.5394 2.46756 14.9864 1.49145C13.4333 0.515346 11.6439 -0.00110839 9.81867 1.78606e-06C7.99343 0.00111196 6.20459 0.519743 4.65273 1.49774C3.10087 2.47573 1.84735 3.87442 1.03274 5.53696C0.218136 7.1995 -0.125354 9.06015 0.0407923 10.9103C0.206938 12.7604 0.876151 14.5268 1.97339 16.0115C3.07062 17.4961 4.5525 18.6403 6.25284 19.3158C7.95318 19.9912 9.80476 20.1711 11.5999 19.8354C12.0514 19.7489 12.4813 19.5717 12.8647 19.3142C13.2481 19.0566 13.5772 18.7239 13.8328 18.3354C14.1082 17.913 14.2982 17.439 14.3917 16.9411C14.4853 16.4432 14.4805 15.9314 14.3776 15.4354C14.3214 15.1356 14.2915 14.8314 14.2883 14.5263C14.2922 13.6453 14.5475 12.7845 15.0232 12.0486C15.4989 11.3126 16.1745 10.7332 16.9677 10.3808C17.3954 10.1859 17.7793 9.90383 18.0958 9.55203C18.4122 9.20023 18.6545 8.78616 18.8076 8.33536C18.9624 7.87471 19.0248 7.3871 18.9911 6.90144C18.9573 6.41578 18.8281 5.94196 18.6111 5.50809V5.52627ZM17.0927 7.74445C17.0165 7.96201 16.8982 8.16181 16.7448 8.33201C16.5914 8.50221 16.406 8.63937 16.1996 8.73536C15.101 9.2359 14.1677 10.0486 13.5118 11.0758C12.8559 12.103 12.5053 13.3012 12.502 14.5263C12.5033 14.9536 12.5452 15.3798 12.627 15.799C12.6816 16.0552 12.6852 16.3199 12.6376 16.5775C12.5901 16.8351 12.4924 17.0804 12.3502 17.299C12.2299 17.4903 12.0716 17.6538 11.8854 17.779C11.6993 17.9043 11.4895 17.9885 11.2695 18.0263C10.7924 18.1175 10.308 18.1632 9.82259 18.1626C8.74562 18.1632 7.67952 17.9434 6.68761 17.5164C5.69569 17.0894 4.7982 16.4639 4.04841 15.677C3.29863 14.89 2.71185 13.9578 2.32292 12.9355C1.93398 11.9133 1.75083 10.8219 1.78434 9.72627C1.85366 7.68335 2.66766 5.73986 4.06777 4.27442C5.46787 2.80897 7.35381 1.92653 9.35816 1.799H9.81366C11.3103 1.79938 12.7772 2.22508 14.049 3.02815C15.3209 3.83122 16.3472 4.97977 17.0124 6.34445C17.2171 6.77625 17.246 7.27289 17.0927 7.72627V7.74445ZM9.82259 9.07172C9.64595 9.07172 9.47327 9.12504 9.32639 9.22493C9.17951 9.32483 9.06504 9.46681 8.99744 9.63292C8.92984 9.79904 8.91215 9.98182 8.94661 10.1582C8.98108 10.3345 9.06614 10.4965 9.19105 10.6236C9.31595 10.7508 9.4751 10.8374 9.64835 10.8724C9.8216 10.9075 10.0012 10.8895 10.1644 10.8207C10.3276 10.7519 10.4671 10.6354 10.5652 10.4859C10.6633 10.3364 10.7157 10.1606 10.7157 9.98081C10.7157 9.73971 10.6216 9.50848 10.4541 9.33799C10.2866 9.1675 10.0595 9.07172 9.82259 9.07172Z" fill="#129BE8"/>
</svg>
