<?xml version="1.0" standalone="no"?>
<!DOCTYPE svg PUBLIC "-//W3C//DTD SVG 20010904//EN"
    "http://www.w3.org/TR/2001/REC-SVG-20010904/DTD/svg10.dtd">
<svg version="1.0" xmlns="http://www.w3.org/2000/svg"
    width="512.000000pt" height="512.000000pt" viewBox="0 0 512.000000 512.000000"
    preserveAspectRatio="xMidYMid meet">

    <g transform="translate(0.000000,512.000000) scale(0.100000,-0.100000)"
        fill="#000000" stroke="none">
        <path d="M1667 5109 c-177 -26 -361 -188 -476 -417 -40 -80 -95 -243 -115
-344 -34 -167 -37 -426 -7 -609 32 -197 121 -413 225 -548 130 -168 281 -253
452 -252 311 0 574 309 671 786 14 71 18 136 17 305 0 232 -12 319 -70 495
-52 162 -159 342 -255 431 -131 123 -287 176 -442 153z"/>
        <path d="M3325 5113 c-120 -16 -221 -69 -320 -168 -167 -165 -278 -418 -315
-719 -16 -124 -8 -390 15 -506 92 -470 360 -782 670 -782 135 0 247 48 360
154 156 146 279 403 320 668 26 171 21 431 -11 588 -84 416 -325 722 -600 762
-38 5 -73 9 -79 8 -5 0 -23 -3 -40 -5z"/>
        <path d="M423 3509 c-164 -27 -287 -160 -338 -364 -22 -85 -24 -267 -6 -375
31 -178 134 -419 244 -565 180 -242 415 -379 619 -362 166 14 288 122 355 314
26 73 28 88 28 248 0 153 -3 180 -27 272 -83 310 -268 586 -490 730 -90 58
-148 82 -238 99 -84 15 -76 15 -147 3z"/>
        <path d="M4557 3509 c-221 -32 -467 -243 -615 -528 -64 -121 -86 -179 -120
-305 -24 -91 -27 -119 -27 -271 0 -160 2 -175 28 -248 115 -327 401 -409 712
-206 196 127 372 373 459 640 45 138 59 230 59 369 -1 369 -202 592 -496 549z"/>
        <path d="M2505 2471 c-195 -23 -371 -93 -511 -202 -199 -157 -555 -628 -871
-1154 -184 -305 -225 -410 -226 -575 0 -160 41 -265 145 -368 98 -99 251 -154
463 -168 207 -13 402 39 599 159 64 39 159 78 246 99 39 9 130 13 310 13 249
-1 257 -2 345 -29 49 -15 116 -42 150 -61 108 -62 239 -122 306 -143 150 -46
380 -49 544 -7 134 34 246 109 316 211 89 130 109 326 49 498 -73 213 -452
805 -767 1199 -115 143 -255 295 -320 346 -92 74 -233 134 -386 165 -94 20
-294 28 -392 17z"/>
    </g>
</svg>
