<?xml version="1.0" encoding="UTF-8"?>
<svg version="1.1" xmlns="http://www.w3.org/2000/svg" width="512" height="512">
<path d="M0 0 C1.16527725 0.00031723 1.16527725 0.00031723 2.35409546 0.00064087 C14.01909975 0.0323699 24.77568525 0.73787019 35.9375 4.375 C37.1646875 4.73722656 38.391875 5.09945313 39.65625 5.47265625 C58.34713795 11.4659301 71.40872783 23.8315509 83.9375 38.375 C84.87048638 39.43412909 85.80411545 40.49269227 86.73828125 41.55078125 C93.69552328 49.48527946 100.11980784 57.72978485 106.36035156 66.23583984 C107.97388417 68.42434955 109.60597171 70.59793954 111.2421875 72.76953125 C120.00676494 84.4535471 128.14669713 96.50224483 136.171875 108.703125 C137.68299916 110.9898704 139.20877641 113.26474472 140.75 115.53125 C180.43650051 173.92022729 180.43650051 173.92022729 175.4296875 207.8125 C174.77673148 210.45434504 173.97988476 212.86322948 172.9375 215.375 C172.58558594 216.2309375 172.23367188 217.086875 171.87109375 217.96875 C165.91774813 231.01502555 155.48362615 239.18990372 142.21435547 244.23071289 C132.23758937 247.71462756 122.57722868 248.86388759 112.05395508 248.76611328 C110.00469168 248.75003681 107.95740719 248.76605744 105.90820312 248.78515625 C93.97071425 248.80573134 82.5554725 247.01741065 71.5625 242.25 C70.86116943 241.95504639 70.15983887 241.66009277 69.43725586 241.35620117 C63.54792657 238.80435604 58.02081239 235.71920964 52.4675293 232.51464844 C26.68563774 217.67568756 -8.38090689 218.32558992 -36.6484375 225.25390625 C-42.50822696 227.05402152 -47.71237449 229.64935406 -53.03125 232.66796875 C-70.46146452 242.48369523 -86.47988787 248.55983723 -106.73535156 248.67016602 C-108.18564694 248.68158187 -109.63590388 248.7018649 -111.0859375 248.73168945 C-129.10935342 249.10098793 -146.72343208 245.3935222 -161 233.625 C-171.31260768 223.63825539 -176.07078299 211.51388974 -176.53344727 197.32592773 C-176.7013178 180.63621086 -171.93849012 167.86950048 -164.0625 153.375 C-163.47855469 152.2921875 -162.89460938 151.209375 -162.29296875 150.09375 C-142.51198555 114.58279106 -119.22998792 79.49839213 -93.0625 48.375 C-92.25014893 47.40602783 -92.25014893 47.40602783 -91.42138672 46.41748047 C-66.43675129 16.74312434 -39.67586258 -0.0994277 0 0 Z " fill="#DBBD1C" transform="translate(265.0625,263.625)"/>
<path d="M0 0 C22.90758328 16.65683188 33.98853138 44.32309527 39.01171875 71.41015625 C40.4151414 80.86706582 40.76163931 90.15951843 40.76953125 99.70703125 C40.77020599 100.44124298 40.77088074 101.17545471 40.77157593 101.93191528 C40.75476222 113.4669018 40.18317736 124.57455323 37.51953125 135.83203125 C37.26212158 136.95254883 37.26212158 136.95254883 36.99951172 138.09570312 C31.10429721 163.06738925 18.96442962 187.88539742 -2.79296875 202.70703125 C-14.85218957 209.84136748 -27.68016109 211.58147868 -41.3984375 209.359375 C-43.88591006 208.69894906 -46.12773408 207.87327531 -48.48046875 206.83203125 C-49.34671875 206.45304688 -50.21296875 206.0740625 -51.10546875 205.68359375 C-73.00697053 194.91950339 -85.71367487 172.67781073 -93.46264648 150.48510742 C-106.2539734 111.434384 -102.75136577 67.67266771 -85.23046875 30.76953125 C-76.65532182 14.08225829 -63.65947079 -0.53879245 -45.98046875 -7.60546875 C-29.88133093 -12.44778755 -13.71753973 -9.32164717 0 0 Z " fill="#DBBD1C" transform="translate(367.48046875,9.16796875)"/>
<path d="M0 0 C24.98983569 17.20668854 36.88729227 45.5608701 42.28515625 74.484375 C48.43614147 110.87832701 42.90530814 150.71525495 23.046875 182.23828125 C20.25229422 186.1121484 17.25826347 189.70516898 14.046875 193.23828125 C13.47324219 193.893125 12.89960938 194.54796875 12.30859375 195.22265625 C3.79487741 204.40690395 -8.97035211 211.65223938 -21.60546875 212.4765625 C-38.45817535 212.91693672 -51.43726031 208.44851341 -63.89208984 196.81665039 C-82.96111638 178.25845066 -91.94056932 153.04877456 -95.953125 127.23828125 C-96.13875 126.08972656 -96.324375 124.94117188 -96.515625 123.7578125 C-97.32046027 117.02098283 -97.19670539 110.2016835 -97.203125 103.42578125 C-97.20413208 102.69006897 -97.20513916 101.95435669 -97.20617676 101.1963501 C-97.19548554 89.6419736 -96.56411413 78.52377323 -93.953125 67.23828125 C-93.80858887 66.58311523 -93.66405273 65.92794922 -93.51513672 65.25292969 C-88.08561789 41.11772639 -76.19106815 15.29234112 -54.953125 1.23828125 C-37.31323572 -8.88037483 -17.88628858 -10.67025946 0 0 Z " fill="#DBBC1C" transform="translate(200.953125,6.76171875)"/>
<path d="M0 0 C1.051875 0.598125 2.10375 1.19625 3.1875 1.8125 C15.51970837 11.40421762 21.34399307 23.70530394 24 39 C24.83140976 53.40732335 24.83875034 68.0222602 21 82 C20.72591309 83.02335449 20.72591309 83.02335449 20.44628906 84.06738281 C15.5529333 101.83291579 6.94530268 118.93536942 -5 133 C-5.73992187 133.87785156 -6.47984375 134.75570312 -7.2421875 135.66015625 C-20.84773744 151.26652236 -37.41835647 162.99936628 -58.39453125 165.2578125 C-69.31406187 165.78703046 -79.46668339 161.97998495 -87.5 154.75 C-102.0973153 138.69295317 -104.72469221 120.7884219 -104.12744141 99.66113281 C-102.67348152 69.30066785 -87.49228548 40.72182261 -67 19 C-66.41476562 18.36191406 -65.82953125 17.72382813 -65.2265625 17.06640625 C-49.7499484 0.75420031 -21.50722267 -12.35703251 0 0 Z " fill="#DBBC1C" transform="translate(482,164)"/>
<path d="M0 0 C4.74179145 3.44628131 9.02145707 7.32283713 13.2265625 11.3984375 C14.10828125 12.16994141 14.10828125 12.16994141 15.0078125 12.95703125 C35.68206443 31.72964209 48.65804775 64.52284886 50.38623047 91.93066406 C51.27286927 111.99592567 48.65705394 130.85277616 34.6640625 146.2109375 C33.8596875 146.9328125 33.0553125 147.6546875 32.2265625 148.3984375 C31.5046875 149.0790625 30.7828125 149.7596875 30.0390625 150.4609375 C20.5147064 157.02216059 9.63244527 158.72362102 -1.59375 156.71484375 C-24.99172278 151.62405969 -43.25709013 135.16991068 -56.34423828 115.64111328 C-64.5407911 102.77921813 -70.82910139 89.12535027 -74.7734375 74.3984375 C-75.11117187 73.16867188 -75.44890625 71.93890625 -75.796875 70.671875 C-79.73877571 53.49386733 -80.29121227 32.95015501 -73.7734375 16.3984375 C-73.4228125 15.48578125 -73.0721875 14.573125 -72.7109375 13.6328125 C-68.40359178 3.88146038 -60.43313016 -5.02607029 -50.71484375 -9.5625 C-33.04265825 -16.05918877 -14.78655569 -10.28160763 0 0 Z " fill="#DBBC1C" transform="translate(83.7734375,171.6015625)"/>
</svg>
