<svg width="14" height="17" viewBox="0 0 14 17" fill="none" xmlns="http://www.w3.org/2000/svg">
<path d="M11.6667 0H5.44444C4.82561 0 4.23211 0.244236 3.79453 0.67898C3.35694 1.11372 3.11111 1.70336 3.11111 2.31818H2.33333C1.71449 2.31818 1.121 2.56242 0.683418 2.99716C0.245833 3.43191 0 4.02154 0 4.63636V6.95455C0 7.56937 0.245833 8.159 0.683418 8.59375C1.121 9.02849 1.71449 9.27273 2.33333 9.27273H7C7.20628 9.27273 7.40411 9.35414 7.54997 9.49905C7.69583 9.64397 7.77778 9.84051 7.77778 10.0455V10.8182C7.36522 10.8182 6.96956 10.981 6.67783 11.2708C6.38611 11.5607 6.22222 11.9538 6.22222 12.3636V15.4545C6.22222 15.8644 6.38611 16.2575 6.67783 16.5473C6.96956 16.8372 7.36522 17 7.77778 17H9.33333C9.74589 17 10.1416 16.8372 10.4333 16.5473C10.725 16.2575 10.8889 15.8644 10.8889 15.4545V12.3636C10.8889 11.9538 10.725 11.5607 10.4333 11.2708C10.1416 10.981 9.74589 10.8182 9.33333 10.8182V10.0455C9.33333 9.43063 9.0875 8.841 8.64992 8.40625C8.21233 7.97151 7.61884 7.72727 7 7.72727H2.33333C2.12705 7.72727 1.92922 7.64586 1.78336 7.50095C1.6375 7.35603 1.55556 7.15949 1.55556 6.95455V4.63636C1.55556 4.43142 1.6375 4.23488 1.78336 4.08996C1.92922 3.94505 2.12705 3.86364 2.33333 3.86364H3.11111C3.11111 4.47846 3.35694 5.0681 3.79453 5.50284C4.23211 5.93758 4.82561 6.18182 5.44444 6.18182H11.6667C12.2855 6.18182 12.879 5.93758 13.3166 5.50284C13.7542 5.0681 14 4.47846 14 3.86364V2.31818C14 1.70336 13.7542 1.11372 13.3166 0.67898C12.879 0.244236 12.2855 0 11.6667 0ZM9.33333 12.3636V15.4545H7.77778V12.3636H9.33333ZM12.4444 3.86364C12.4444 4.06858 12.3625 4.26512 12.2166 4.41004C12.0708 4.55495 11.8729 4.63636 11.6667 4.63636H5.44444C5.23816 4.63636 5.04033 4.55495 4.89447 4.41004C4.74861 4.26512 4.66667 4.06858 4.66667 3.86364V2.31818C4.66667 2.11324 4.74861 1.9167 4.89447 1.77178C5.04033 1.62687 5.23816 1.54545 5.44444 1.54545H11.6667C11.8729 1.54545 12.0708 1.62687 12.2166 1.77178C12.3625 1.9167 12.4444 2.11324 12.4444 2.31818V3.86364Z" fill="#65558F"/>
</svg>
