<svg width="75" height="76" viewBox="0 0 75 76" fill="none" xmlns="http://www.w3.org/2000/svg">
<rect y="0.599609" width="75" height="75" rx="37.5" fill="#F6F4FA"/>
<path d="M37.0296 25.5996L25 31.3917V34.405H49.9148V31.3757L37.0296 25.5996ZM48.2538 32.744H26.661V32.4354L37.0546 27.4311L48.2538 32.4514V32.744ZM26.661 46.0319H48.2538V47.6929H26.661V46.0319ZM25 48.9386H49.9148V50.5996H25V48.9386ZM27.0762 36.066H28.7372V44.3709H27.0762V36.066ZM46.1776 36.066H47.8385V44.3709H46.1776V36.066ZM41.1946 36.066H42.8556V44.3709H41.1946V36.066ZM32.0592 36.066H33.7202V44.3709H32.0592V36.066ZM36.6269 36.066H38.2879V44.3709H36.6269V36.066Z" fill="#8358D3"/>
</svg>
