<svg width="75" height="76" viewBox="0 0 75 76" fill="none" xmlns="http://www.w3.org/2000/svg">
<rect y="0.599609" width="75" height="75" rx="37.5" fill="#F79626"/>
<path d="M46.8933 35.6496C47.2808 33.0177 45.2891 31.6149 42.5446 30.6621L43.4335 27.1163L41.2669 26.576L40.4016 30.0343L38.6724 29.6218L39.5488 26.1385L37.3821 25.5996L36.4919 29.1579L35.1141 28.8329V28.8191L32.1183 28.0691L31.5419 30.3857C31.5419 30.3857 33.146 30.7635 33.121 30.7746C33.9974 31.001 34.1488 31.5774 34.1238 32.0288L33.1196 36.0885L33.346 36.1635L33.1085 36.1135L31.6919 41.7899C31.5919 42.0538 31.3169 42.4538 30.703 42.2899C30.728 42.3288 29.1363 41.9149 29.1363 41.9149L28.0585 44.3843L30.878 45.0857L32.4196 45.4871L31.5169 49.0843L33.6835 49.6218L34.5627 46.0635L36.303 46.5135L35.4141 50.0607L37.5808 50.5996L38.471 47.0024C42.1683 47.7038 44.9502 47.4288 46.1169 44.0829C47.0558 41.3885 46.0655 39.8468 44.1238 38.8191C45.5405 38.5066 46.6044 37.5663 46.8808 35.6496H46.8933ZM41.9433 42.5927C41.278 45.2871 36.7419 43.8204 35.2766 43.4677L36.4669 38.6954C37.9321 39.0704 42.6446 39.7843 41.9433 42.5788V42.5927ZM42.6071 35.6121C42.0058 38.0566 38.221 36.8149 37.0058 36.5149L38.0821 32.1913C39.3113 32.4927 43.246 33.0691 42.6071 35.6121Z" fill="white"/>
</svg>
