<?xml version="1.0" encoding="UTF-8"?>
<svg version="1.1" xmlns="http://www.w3.org/2000/svg" width="512" height="512">
<path d="M0 0 C2.07529955 1.79816227 4.10956958 3.63509154 6.125 5.5 C6.89384521 6.2110791 6.89384521 6.2110791 7.67822266 6.93652344 C39.05883315 36.34295468 55.07044722 76.63121585 57.31640625 119.12109375 C58.05710186 161.04446536 42.81344761 202.29824696 13.85546875 232.71875 C12.95441406 233.6365625 12.05335938 234.554375 11.125 235.5 C10.65143066 235.98726563 10.17786133 236.47453125 9.68994141 236.9765625 C1.12866001 245.77685714 1.12866001 245.77685714 -3.5625 249.5 C-17.200884 260.95754455 -24.51626295 280.00774106 -26.265625 297.37890625 C-26.41263692 299.68944365 -26.52933423 302.00232357 -26.6015625 304.31640625 C-26.875 307.5 -26.875 307.5 -27.875 310.55151367 C-29.26451128 315.28616336 -29.15365982 319.95893518 -29.1484375 324.859375 C-29.16873192 326.88281798 -29.18958281 328.90625544 -29.2109375 330.9296875 C-29.23346847 334.08696167 -29.24998887 337.24401647 -29.25585938 340.40136719 C-29.30452503 355.95977584 -29.5250341 368.68426876 -40.875 380.5 C-45.62094595 384.5 -45.62094595 384.5 -48.875 384.5 C-48.84019531 385.69496094 -48.80539062 386.88992188 -48.76953125 388.12109375 C-48.51887746 400.1033525 -48.86050532 408.83857621 -56.78515625 418.421875 C-65.34626808 426.9349806 -75.09662713 428.80963066 -86.671875 428.8359375 C-87.70129211 428.8425943 -88.73070923 428.8492511 -89.7913208 428.85610962 C-91.963076 428.8662023 -94.134862 428.87092769 -96.30664062 428.87060547 C-99.60079046 428.87496794 -102.89358769 428.91129542 -106.1875 428.94921875 C-108.30728713 428.95509001 -110.42708057 428.95905733 -112.546875 428.9609375 C-113.51808289 428.97530853 -114.48929077 428.98967957 -115.4899292 429.00448608 C-125.74964336 428.93715182 -135.46732161 425.82663158 -142.875 418.5 C-149.35937046 410.58589084 -151.21106002 403.13655724 -151 393.0625 C-150.99097656 392.23556641 -150.98195313 391.40863281 -150.97265625 390.55664062 C-150.94931512 388.53763292 -150.91345288 386.51877644 -150.875 384.5 C-152.00615234 384.08041016 -152.00615234 384.08041016 -153.16015625 383.65234375 C-161.31069004 380.19276466 -165.4446682 373.40818103 -168.875 365.5 C-169.64785365 362.23300649 -170.00796015 359.1732884 -170.04858398 355.82080078 C-170.06207382 354.92281769 -170.07556366 354.02483459 -170.08946228 353.09963989 C-170.10511986 351.66199783 -170.10511986 351.66199783 -170.12109375 350.1953125 C-170.15402953 348.1471311 -170.18724122 346.09895412 -170.22070312 344.05078125 C-170.26808571 340.83613078 -170.31254277 337.62149857 -170.35180664 334.40673828 C-170.39165932 331.29441136 -170.44316533 328.18244076 -170.49609375 325.0703125 C-170.5045079 324.11593292 -170.51292206 323.16155334 -170.52159119 322.17825317 C-170.61911692 316.87893204 -171.25382529 312.53761528 -172.875 307.5 C-173.20629883 305.10742188 -173.20629883 305.10742188 -173.33203125 302.96875 C-173.38963623 302.16566406 -173.44724121 301.36257813 -173.5065918 300.53515625 C-173.5662915 299.69855469 -173.62599121 298.86195313 -173.6875 298 C-175.84616293 273.42237062 -188.41748252 255.93554922 -206.37841797 239.84423828 C-236.81580251 212.50521067 -253.80805421 173.05396325 -256.71484375 132.5703125 C-258.86002765 91.4455674 -246.02205131 50.01116214 -218.7265625 18.83203125 C-215.85316931 15.64362236 -212.87742962 12.56685944 -209.875 9.5 C-209.19050781 8.76523438 -208.50601563 8.03046875 -207.80078125 7.2734375 C-152.83012845 -50.57827677 -59.27170594 -49.80914076 0 0 Z M-132.875 -10.5 C-133.55062988 -10.31808105 -134.22625977 -10.13616211 -134.92236328 -9.94873047 C-169.61107624 -0.26151564 -199.18894782 24.70624793 -217.1875 55.5 C-233.56904019 85.21457291 -239.29039554 121.41996955 -230.875 154.5 C-230.7193457 155.16112793 -230.56369141 155.82225586 -230.40332031 156.50341797 C-226.30730024 173.70915496 -218.47356332 190.34677449 -207.875 204.5 C-207.02808594 205.67755859 -207.02808594 205.67755859 -206.1640625 206.87890625 C-198.62276103 216.87360056 -189.25571458 225.96703315 -179.71875 234.05859375 C-176.10224146 237.19169447 -173.1694743 240.49950955 -170.375 244.375 C-169.68071899 245.33394165 -169.68071899 245.33394165 -168.97241211 246.31225586 C-158.58400947 261.15308733 -152.90096966 277.81494563 -151.64501953 295.84130859 C-151.24274113 301.00115591 -150.42985048 304.95361797 -147.875 309.5 C-143.67676156 312.85953016 -139.67731573 312.93401071 -134.50805664 312.90405273 C-133.6781572 312.91091599 -132.84825775 312.91777924 -131.99320984 312.92485046 C-129.25701665 312.9431126 -126.52139716 312.93928181 -123.78515625 312.93359375 C-121.87853306 312.93815589 -119.97191151 312.94346156 -118.06529236 312.94947815 C-114.07153641 312.95840814 -110.07798043 312.95598744 -106.08422852 312.94604492 C-100.97180858 312.93455634 -95.86007947 312.95476562 -90.74775028 312.98396206 C-86.81086356 313.00232775 -82.87414226 313.00203084 -78.93722343 312.99632454 C-77.0526069 312.99617136 -75.16797912 313.00221251 -73.2834034 313.01461601 C-70.64561025 313.02953098 -68.00909175 313.01884566 -65.37133789 313.00170898 C-64.59660126 313.01137695 -63.82186462 313.02104492 -63.02365112 313.03100586 C-57.83909544 312.96064586 -54.8428578 311.82348516 -50.875 308.5 C-48.56762253 303.79676155 -48.45238011 298.83307788 -48.0625 293.6875 C-46.2057843 273.97774871 -39.08030373 255.48180199 -25.875 240.5 C-25.23820313 239.74460937 -24.60140625 238.98921875 -23.9453125 238.2109375 C-20.85952227 234.6208547 -17.72451631 231.26534728 -14.125 228.1875 C11.37597899 206.37942208 27.35964701 177.55745564 33.125 144.5 C33.39957031 143.00919922 33.39957031 143.00919922 33.6796875 141.48828125 C38.49077193 106.25060042 29.19971805 69.21847171 7.76953125 40.8203125 C3.54242043 35.41277111 -1.11701504 30.43875946 -5.875 25.5 C-6.51695312 24.79488281 -7.15890625 24.08976562 -7.8203125 23.36328125 C-28.69065862 1.09254394 -62.14332962 -13.73284571 -92.54296875 -14.73828125 C-106.48613303 -14.97511465 -119.39890677 -14.16653375 -132.875 -10.5 Z M-147.875 333.5 C-149.31937076 353.39909707 -149.31937076 353.39909707 -144.875 362.5 C-140.96785699 365.89766065 -137.02737772 365.93508918 -132.05883789 365.90405273 C-130.90177086 365.91434761 -130.90177086 365.91434761 -129.72132874 365.92485046 C-127.17991555 365.94310175 -124.6391207 365.93928343 -122.09765625 365.93359375 C-120.3255544 365.93815644 -118.55345432 365.94346227 -116.78135681 365.94947815 C-113.07006637 365.95840601 -109.35899116 365.95598994 -105.64770508 365.94604492 C-100.89847016 365.93455689 -96.14997894 365.95476559 -91.40084171 365.98396206 C-87.7418905 366.00233393 -84.08311717 366.00202962 -80.42413139 365.99632454 C-78.67348627 365.99617144 -76.92282901 366.00220653 -75.17222786 366.01461601 C-72.72120025 366.0295429 -70.27154224 366.01883758 -67.82055664 366.00170898 C-66.74260834 366.01621094 -66.74260834 366.01621094 -65.6428833 366.03100586 C-60.60944349 365.95758124 -57.63149061 364.84951475 -53.875 361.5 C-50.71549819 353.07558713 -50.71549819 353.07558713 -51.875 333.5 C-83.555 333.5 -115.235 333.5 -147.875 333.5 Z M-128.875 387.5 C-129.59325315 397.57458747 -129.59325315 397.57458747 -124.875 404.5 C-119.95122216 406.64035207 -115.49038979 406.80695008 -110.22265625 406.80078125 C-109.40429794 406.80506638 -108.58593964 406.8093515 -107.74278259 406.81376648 C-106.01904217 406.81948671 -104.29527762 406.82002713 -102.5715332 406.81567383 C-99.94895869 406.81251381 -97.32751348 406.83600128 -94.70507812 406.86132812 C-93.02343891 406.86360152 -91.34179669 406.86430443 -89.66015625 406.86328125 C-88.49577782 406.87709587 -88.49577782 406.87709587 -87.30787659 406.89118958 C-82.10783915 406.84747218 -78.50162789 405.91314145 -73.875 403.5 C-69.19708964 398.67118931 -70.875 394.87665698 -70.875 387.5 C-90.015 387.5 -109.155 387.5 -128.875 387.5 Z " fill="#000000" transform="translate(355.875,60.5)"/>
<path d="M0 0 C1.30710937 -0.03996094 2.61421875 -0.07992187 3.9609375 -0.12109375 C8.733318 0.60646532 10.25838471 2.05562814 13.625 5.4375 C15.23929923 8.66609847 15.22070657 11.94743653 14.625 15.4375 C12.88897895 18.46258145 10.78919863 20.85540069 7.625 22.4375 C5.60368382 22.6310079 3.58177718 22.81989576 1.55761719 22.98095703 C-19.29114552 24.70679394 -37.638782 31.26930372 -53.375 45.4375 C-54.05820313 46.02789062 -54.74140625 46.61828125 -55.4453125 47.2265625 C-71.26762503 61.80790934 -79.42128773 83.78020573 -80.4284668 104.86523438 C-80.83148764 110.6648323 -82.19694659 113.3551272 -86.375 117.4375 C-89.60359847 119.05179923 -92.88493653 119.03320657 -96.375 118.4375 C-99.40008145 116.70147895 -101.79290069 114.60169863 -103.375 111.4375 C-105.52027189 84.49851196 -95.69087473 58.47243621 -78.5546875 37.90234375 C-58.24007993 14.93009039 -30.85923212 0.92027646 0 0 Z " fill="#000000" transform="translate(252.375,63.5625)"/>
</svg>
