<svg width="20" height="20" viewBox="0 0 20 20" fill="none" xmlns="http://www.w3.org/2000/svg"> <path d="M14.6932 10.5192C14.4259 12.7453 12.9679 13.6348 12.3382 14.2805C11.7075 14.9281 11.8205 15.057 11.8628 16.0068C11.8699 16.1243 11.8528 16.242 11.8127 16.3527C11.7725 16.4633 11.7101 16.5646 11.6294 16.6502C11.5486 16.7358 11.4511 16.804 11.343 16.8506C11.2349 16.8971 11.1183 16.921 11.0006 16.9208H8.49871C8.38107 16.9206 8.26471 16.8964 8.15672 16.8497C8.04873 16.8031 7.95138 16.7349 7.87061 16.6494C7.78984 16.5638 7.72734 16.4628 7.68693 16.3523C7.64652 16.2418 7.62904 16.1242 7.63556 16.0068C7.63556 15.0749 7.72216 14.8584 7.16116 14.2805C6.44579 13.5651 4.76279 12.5551 4.76279 9.77743C4.7585 9.08747 4.89718 8.40411 5.17009 7.77041C5.44301 7.13671 5.84425 6.56643 6.34851 6.09549C6.85277 5.62456 7.44912 5.2632 8.09997 5.03418C8.75083 4.80516 9.44206 4.71346 10.1301 4.76485C10.8182 4.81625 11.4881 5.00962 12.0977 5.33278C12.7073 5.65594 13.2434 6.10189 13.6721 6.6425C14.1008 7.18312 14.4129 7.80669 14.5886 8.4739C14.7644 9.14111 14.8 9.83749 14.6932 10.5192Z" stroke="#BCB5D1" stroke-width="1.53" stroke-linecap="round" stroke-linejoin="round"/> <path d="M8.29996 16.869V18.2922C8.29996 18.6809 8.51646 19 8.78284 19H10.7153C10.9835 19 11.1991 18.68 11.1991 18.2922V16.869M9.01533 6.94792C8.45954 6.94817 7.9266 7.16913 7.53369 7.56222C7.14078 7.95531 6.92005 8.48835 6.92005 9.04414M16.651 9.96753H18.3773M14.9134 4.30858L16.138 3.08398M15.8546 14.7643L17.0792 15.9879M9.74953 1V2.39591M3.38651 3.08304L4.60263 4.30858M2.44523 15.9879L3.66136 14.7643M2.8481 9.96753H1.12274" stroke="#BCB5D1" stroke-width="1.53" stroke-linecap="round" stroke-linejoin="round"/> </svg>