<svg
        width="19"
        height="19"
        viewBox="0 0 19 19"
        fill="none"
        version="1.1"
        id="svg1"
        xmlns="http://www.w3.org/2000/svg"
        xmlns:svg="http://www.w3.org/2000/svg"
        >
    <defs id="defs1"></defs>
    <path
            fill-rule="evenodd"
            clip-rule="evenodd"
            d="M 4.94846,18.4015 C 4.71449,18.3036 4.51471,18.1387 4.37423,17.9275 4.23376,17.7163 4.15888,17.4684 4.159,17.2147 V 15.1331 H 3.07126 c -0.68201,0 -1.33608,-0.2709 -1.81833,-0.7532 C 0.770681,13.8977 0.499756,13.2436 0.499756,12.5616 V 3.07275 c 0,-0.682 0.270925,-1.33607 0.753174,-1.81832 C 1.73518,0.772177 2.38925,0.501251 3.07126,0.501251 H 15.9288 c 0.682,0 1.3361,0.270926 1.8183,0.753179 0.4823,0.48225 0.7532,1.13632 0.7532,1.81832 v 9.48885 c 0,0.682 -0.2709,1.3361 -0.7532,1.8183 -0.4822,0.4823 -1.1363,0.7532 -1.8183,0.7532 H 9.3843 L 6.34993,18.1302 C 6.16937,18.3086 5.94006,18.4295 5.6909,18.4778 5.44173,18.5261 5.18256,18.4995 4.94846,18.4015 Z m 0.49758,-3.2684 c 0,-0.341 -0.13546,-0.668 -0.37659,-0.9092 C 4.82833,13.9828 4.50129,13.8474 4.16029,13.8474 H 3.07126 c -0.341,0 -0.66804,-0.1355 -0.90916,-0.3766 C 1.92097,13.2296 1.78551,12.9026 1.78551,12.5616 V 3.07275 c 0,-0.341 0.13546,-0.66803 0.37659,-0.90916 C 2.40322,1.92247 2.73026,1.787 3.07126,1.787 H 15.9288 c 0.341,0 0.668,0.13547 0.9091,0.37659 0.2412,0.24113 0.3766,0.56816 0.3766,0.90916 v 9.48885 c 0,0.341 -0.1354,0.668 -0.3766,0.9092 -0.2411,0.2411 -0.5681,0.3766 -0.9091,0.3766 H 9.3843 c -0.33801,4e-4 -0.66227,0.1338 -0.9026,0.3715 l -3.03694,2.9958 z"
            fill="#66686c"
            id="path1"
            />
</svg>