<svg width="16" height="17" viewBox="0 0 16 17" fill="none" xmlns="http://www.w3.org/2000/svg">
<g clip-path="url(#clip0_225_4505)">
<path d="M8.746 8.5L11.846 5.4C11.895 5.35102 11.9338 5.29287 11.9603 5.22887C11.9869 5.16487 12.0005 5.09627 12.0005 5.027C12.0005 4.95773 11.9869 4.88913 11.9603 4.82513C11.9338 4.76113 11.895 4.70298 11.846 4.654C11.797 4.60502 11.7389 4.56616 11.6749 4.53965C11.6109 4.51314 11.5423 4.4995 11.473 4.4995C11.4037 4.4995 11.3351 4.51314 11.2711 4.53965C11.2071 4.56616 11.149 4.60502 11.1 4.654L8 7.754L4.9 4.654C4.85102 4.60502 4.79287 4.56616 4.72887 4.53965C4.66487 4.51314 4.59627 4.4995 4.527 4.4995C4.45773 4.4995 4.38913 4.51314 4.32513 4.53965C4.26113 4.56616 4.20298 4.60502 4.154 4.654C4.10502 4.70298 4.06616 4.76113 4.03965 4.82513C4.01314 4.88913 3.9995 4.95773 3.9995 5.027C3.9995 5.09627 4.01314 5.16487 4.03965 5.22887C4.06616 5.29287 4.10502 5.35102 4.154 5.4L7.254 8.5L4.154 11.6C4.10502 11.649 4.06616 11.7071 4.03965 11.7711C4.01314 11.8351 3.9995 11.9037 3.9995 11.973C3.9995 12.0423 4.01314 12.1109 4.03965 12.1749C4.06616 12.2389 4.10502 12.297 4.154 12.346C4.20298 12.395 4.26113 12.4338 4.32513 12.4603C4.38913 12.4869 4.45773 12.5005 4.527 12.5005C4.59627 12.5005 4.66487 12.4869 4.72887 12.4603C4.79287 12.4338 4.85102 12.395 4.9 12.346L8 9.246L11.1 12.346C11.149 12.395 11.2071 12.4338 11.2711 12.4603C11.3351 12.4869 11.4037 12.5005 11.473 12.5005C11.5423 12.5005 11.6109 12.4869 11.6749 12.4603C11.7389 12.4338 11.797 12.395 11.846 12.346C11.895 12.297 11.9338 12.2389 11.9603 12.1749C11.9869 12.1109 12.0005 12.0423 12.0005 11.973C12.0005 11.9037 11.9869 11.8351 11.9603 11.7711C11.9338 11.7071 11.895 11.649 11.846 11.6L8.746 8.5ZM8 16.5C5.87827 16.5 3.84344 15.6571 2.34315 14.1569C0.842855 12.6566 0 10.6217 0 8.5C0 6.37827 0.842855 4.34344 2.34315 2.84315C3.84344 1.34285 5.87827 0.5 8 0.5C10.1217 0.5 12.1566 1.34285 13.6569 2.84315C15.1571 4.34344 16 6.37827 16 8.5C16 10.6217 15.1571 12.6566 13.6569 14.1569C12.1566 15.6571 10.1217 16.5 8 16.5Z" fill="#E81212"/>
</g>
<defs>
<clipPath id="clip0_225_4505">
<rect width="16" height="16" fill="white" transform="translate(0 0.5)"/>
</clipPath>
</defs>
</svg>
