<svg width="25" height="17" viewBox="0 0 25 17" fill="none" xmlns="http://www.w3.org/2000/svg">
<path d="M20.541 5.1074C19.7762 3.40163 18.4567 1.98665 16.7847 1.07941C15.1127 0.172175 13.1806 -0.177248 11.2847 0.0847204C9.38867 0.346689 7.63345 1.20559 6.28812 2.52973C4.94278 3.85387 4.08158 5.57016 3.83657 7.41546C2.64448 7.69282 1.59875 8.38586 0.897955 9.36296C0.197164 10.3401 -0.10988 11.5332 0.0351329 12.7158C0.180146 13.8983 0.767117 14.988 1.68458 15.7778C2.60204 16.5676 3.78609 17.0025 5.01188 17H18.7655C20.2651 16.996 21.7133 16.4684 22.8459 15.5135C23.9784 14.5585 24.72 13.2399 24.9352 11.798C25.1505 10.3562 24.8251 8.88718 24.0185 7.65897C23.2118 6.43076 21.9776 5.52519 20.541 5.1074ZM18.7655 14.5704H5.01188C4.34866 14.5704 3.71261 14.3145 3.24364 13.8589C2.77468 13.4032 2.51121 12.7853 2.51121 12.1409C2.51121 11.4966 2.77468 10.8786 3.24364 10.423C3.71261 9.96734 4.34866 9.71137 5.01188 9.71137C5.34349 9.71137 5.66152 9.58339 5.896 9.35557C6.13048 9.12776 6.26221 8.81878 6.26221 8.4966C6.26541 7.05987 6.79271 5.67075 7.75045 4.57604C8.70818 3.48132 10.0343 2.7519 11.4933 2.51736C12.9523 2.28281 14.4496 2.55833 15.7192 3.29497C16.9888 4.03161 17.9486 5.18167 18.428 6.54083C18.5013 6.74731 18.6306 6.93075 18.8022 7.07185C18.9739 7.21295 19.1815 7.30647 19.4032 7.34257C20.3197 7.50687 21.1404 7.99676 21.7055 8.7168C22.2705 9.43684 22.5395 10.3355 22.4599 11.2376C22.3803 12.1398 21.9579 12.9808 21.2749 13.5969C20.592 14.213 19.6974 14.5601 18.7655 14.5704Z" fill="#65558F"/>
</svg>
