<?xml version="1.0" encoding="UTF-8" standalone="no"?>
<svg
   width="551.6601"
   height="262.18857"
   viewBox="0 0 551.6601 262.18857"
   fill="none"
   version="1.1"
   id="svg32"
   sodipodi:docname="ic_connected_world.svg"
   inkscape:version="1.4 (e7c3feb1, 2024-10-09)"
   xmlns:inkscape="http://www.inkscape.org/namespaces/inkscape"
   xmlns:sodipodi="http://sodipodi.sourceforge.net/DTD/sodipodi-0.dtd"
   xmlns="http://www.w3.org/2000/svg"
   xmlns:svg="http://www.w3.org/2000/svg">
  <sodipodi:namedview
     id="namedview32"
     pagecolor="#ffffff"
     bordercolor="#111111"
     borderopacity="1"
     inkscape:showpageshadow="0"
     inkscape:pageopacity="0"
     inkscape:pagecheckerboard="1"
     inkscape:deskcolor="#d1d1d1"
     inkscape:zoom="2.3248848"
     inkscape:cx="279.36868"
     inkscape:cy="116.99504"
     inkscape:window-width="2560"
     inkscape:window-height="1359"
     inkscape:window-x="0"
     inkscape:window-y="25"
     inkscape:window-maximized="0"
     inkscape:current-layer="svg32" />
  <g
     id="g32"
     transform="translate(158.854,-99.525886)">
    <path
       d="m -30.5857,123.58 c -0.1983,-1.465 -0.5993,-2.899 -1.1931,-4.267 -0.0757,-0.259 -0.2083,-0.5 -0.3892,-0.708 -0.181,-0.208 -0.4064,-0.379 -0.6619,-0.501 -0.3415,-0.083 -0.6995,-0.087 -1.0429,-0.011 l -5.3546,0.765 c -0.4482,0.019 -0.8773,0.175 -1.2218,0.443 -0.6974,0.686 -0.0106,1.789 -0.032,2.734 -0.024,1.063 -1.035,1.926 -2.1313,2.211 -1.119,0.211 -2.2734,0.198 -3.3865,-0.039 l -7.4873,-1.087 c 2.2051,-0.658 4.1679,-1.881 5.6642,-3.531 0.9853,-1.09 1.5095,-3.126 0.0855,-3.642 -0.4231,-0.109 -0.8642,-0.142 -1.3004,-0.098 -3.3923,0.025 -6.0618,-2.621 -9.2375,-3.735 -2.0326,-0.667 -4.2389,-0.717 -6.3035,-0.142 -2.0646,0.575 -3.8817,1.745 -5.1914,3.343 l 3.9885,0.179 c 0.3753,-0.019 0.7474,0.074 1.0625,0.265 0.8741,0.671 -0.2126,1.96 -0.0895,3.01 0.16,1.365 2.1,1.656 3.5624,1.794 1.4624,0.138 3.3176,1.248 2.6142,2.454 -7.3502,2.365 -14.8299,-4.623 -22.5491,-3.763 -1.9537,0.218 -3.7986,0.935 -5.706,1.386 -11.6521,2.754 -23.6986,-4.594 -35.6016,-3.038 -2.646,0.421 -5.247,1.062 -7.772,1.914 -1.62,0.497 -3.309,1.034 -4.487,2.187 -1.177,1.152 -1.625,3.123 -0.509,4.328 -3.074,0.236 -6.168,-0.038 -9.139,-0.812 0.803,0.418 1.472,1.029 1.935,1.771 0.463,0.741 0.704,1.586 0.697,2.445 -4.799,0.731 -9.471,2.061 -13.89,3.956 0.825,1.281 1.788,2.48 2.875,3.578 l -6.076,3.646 c 2.053,0.483 3.114,3.097 1.92,4.73 2.129,-0.884 3.448,-3.172 5.724,-3.636 1.491,-0.304 3.008,0.266 4.422,0.801 1.415,0.535 2.969,1.054 4.433,0.653 1.465,-0.402 2.545,-2.176 1.614,-3.306 6.259,-1.706 12.727,-2.65 19.244,-2.808 0.503,-0.059 1.013,0.031 1.458,0.258 0.848,0.55 0.625,1.737 0.579,2.701 -0.045,0.964 0.759,2.23 1.68,1.796 -1.084,0.878 -0.157,2.533 0.884,3.457 1.04,0.923 2.295,2.198 1.658,3.4 -0.167,0.314 -0.449,0.565 -0.609,0.881 -0.472,0.935 0.278,2.024 1.162,2.644 0.885,0.621 1.968,1.055 2.582,1.914 0.615,0.859 0.336,2.363 -0.763,2.483 l -3.122,-3.704 c -1.067,1.034 -1.799,2.328 -2.11,3.734 3.311,2.529 3.81,7.675 1.037,10.718 -1.416,1.554 -3.431,2.499 -5.189,3.712 -1.758,1.212 -3.385,2.939 -3.381,4.981 0.008,3.527 -0.301,6.804 1.114,10.074 2.609,6.03 5.622,11.9 9.019,17.577 0.893,1.491 2.046,3.125 3.853,3.381 -2.284,-5.194 -4.34,-10.47 -6.169,-15.826 1.191,0.004 2.567,0.092 3.265,0.993 0.578,0.747 0.454,1.761 0.634,2.667 0.228,0.878 0.609,1.714 1.128,2.477 l 10.908,18.151 c 0.904,1.505 1.9413,3.12 3.6696,3.729 1.105,0.39 2.3834,0.316 3.4004,0.877 0.7972,0.44 1.3341,1.22 2.1468,1.635 2.2978,1.171 5.4933,-1.075 7.6407,0.323 0.614,0.4 1.0047,1.035 1.5704,1.492 1.9834,1.605 5.2369,0.531 7.5264,1.728 1.4756,0.772 2.2403,2.314 3.0274,3.712 1.9714,3.502 5.1614,6.933 9.3864,7.212 1.3272,0.088 2.6828,-0.148 3.9801,0.128 1.2973,0.276 2.5743,1.334 2.3661,2.561 -0.357,2.105 0.7561,4.409 0.4571,6.521 -0.5445,3.848 -6.387,5.539 -6.8888,9.392 -0.1099,0.843 0.0621,1.714 -0.1529,2.54 -0.2636,1.012 -1.0772,1.836 -1.3663,2.841 -0.5478,1.907 0.9142,3.804 2.5202,5.086 1.6061,1.283 3.5219,2.389 4.4,4.184 0.9281,1.897 0.4722,4.11 0.774,6.177 0.659,4.512 4.8314,7.858 9.1254,10.015 1.3083,0.657 2.7131,1.293 3.5598,2.433 1.1053,1.488 0.9952,3.45 1.3642,5.228 0.9039,4.355 4.8281,7.943 4.9395,12.377 0.0792,3.152 -1.7964,6.011 -2.9167,8.985 -1.0504,2.849 -1.4305,5.877 -1.1144,8.876 0.3161,2.999 1.321,5.899 2.9461,8.502 0.8381,1.322 1.8405,2.569 2.4334,4.002 1.058,2.557 0.7147,5.464 1.6902,8.05 1.2897,3.419 4.8335,6.243 4.4943,9.854 1.6089,3.121 5.1617,4.655 8.7341,5.584 l 6.4026,1.664 c 1.226,0.319 2.5071,0.641 3.7554,0.41 1.2483,-0.231 2.43967,-1.199 2.40745,-2.388 -3.13975,-0.661 -6.38025,-1.365 -8.96845,-3.152 -2.5882,-1.787 -4.3612,-4.97 -3.3792,-7.833 0.4554,-1.328 1.4241,-2.861 0.5031,-3.958 -0.5273,-0.628 -1.4916,-0.792 -2.0864,-1.365 -0.9278,-0.894 -0.609,-2.396 0.0579,-3.474 0.667,-1.078 1.631,-2.041 1.9001,-3.261 0.1358,-0.682 0.045,-1.386 -0.2601,-2.019 -0.3051,-0.633 -0.81,-1.163 -1.447,-1.52 1.1872,-0.419 2.2669,-1.066 3.1691,-1.9 0.8334,-0.889 1.2183,-2.259 0.5627,-3.27 1.9469,0.231 4.2453,0.344 5.5233,-1.047 1.0205,-1.111 0.9504,-2.772 0.5472,-4.187 -0.4033,-1.414 -1.0848,-2.788 -1.106,-4.252 4.491,0.199 8.9918,0.056 13.45807,-0.426 -0.64585,-2.032 -2.1135,-3.749 -4.09172,-4.787 2.02276,-0.32 3.86557,-2.582 4.50462,-4.403 0.639069,-1.821 0.476075,-3.805 0.081086,-5.685 -0.151703,-0.485 -0.172501,-0.996 -0.060517,-1.49 0.227783,-0.678 0.940888,-1.092 1.600632,-1.446 L 10.9487,294.387 c 0.5991,-0.281 1.1422,-0.655 1.6055,-1.107 1.052,-1.155 0.8961,-2.897 0.3575,-4.327 -0.5386,-1.43 -1.4014,-2.775 -1.6088,-4.278 -0.6206,-4.496 4.532,-7.722 6.2709,-11.955 0.6824,-1.661 0.8215,-3.466 0.9535,-5.241 0.1419,-1.907 0.1524,-4.121 -1.4144,-5.349 -1.502,-1.178 -3.8488,-0.915 -5.4205,-2.01 -1.4409,-1.005 -1.93805,-2.955 -3.51218,-3.766 -1.42955,-0.737 -3.22192,-0.268 -4.81186,-0.615 -2.79939,-0.61 -4.56108,-3.624 -7.42006,-3.903 -1.61308,-0.157 -3.43875,0.58 -4.76083,-0.298 -1.16498,-0.773 -1.21167,-2.328 -1.43337,-3.646 -0.3887,-2.05 -1.4403,-3.939 -3.0134,-5.413 -1.5731,-1.475 -3.5921,-2.463 -5.785,-2.833 -1.6632,-0.249 -3.4735,-0.154 -4.8884,-1.008 -1.4327,-0.865 -2.0896,-2.483 -3.2151,-3.681 -1.8137,-1.929 -4.6704,-2.615 -7.3464,-3.202 l -10.885,-2.391 c -1.9322,-0.424 -4.4229,-0.649 -5.4599,0.932 -0.3069,0.602 -0.5242,1.24 -0.6458,1.898 -0.3885,1.188 -1.1704,2.231 -2.2334,2.978 -1.0629,0.748 -2.3522,1.161 -3.6824,1.181 -0.9122,-1.454 -2.3901,-2.522 -4.1253,-2.982 -1.1038,-0.287 -2.2852,-0.319 -3.3379,-0.742 -0.5733,-0.261 -1.0834,-0.629 -1.4993,-1.081 -0.4158,-0.452 -0.7285,-0.979 -0.9189,-1.547 -0.1904,-0.569 -0.2546,-1.168 -0.1887,-1.761 0.066,-0.593 0.2608,-1.167 0.5725,-1.687 0.6275,-1.043 0.8699,-2.251 0.6897,-3.436 -0.1803,-1.185 -0.7731,-2.282 -1.687,-3.122 -1.8511,-1.552 -4.5288,-1.927 -7.0109,-1.772 -0.6501,-1.325 0.4369,-2.82 1.6082,-3.783 1.1713,-0.963 2.5936,-1.909 2.8487,-3.347 0.4012,-2.262 -2.6883,-3.98 -5.0341,-3.306 -2.3458,0.675 -3.843,2.803 -4.8327,4.901 -0.5678,1.204 -1.0506,2.472 -1.9463,3.487 -0.8958,1.015 -2.3382,1.742 -3.7026,1.416 -1.9316,-0.461 -2.6776,-2.605 -3.1051,-4.424 -0.5735,-2.441 -1.1504,-4.915 -1.0302,-7.411 0.1201,-2.496 1.021,-5.059 2.9914,-6.749 3.2108,-2.754 8.1365,-2.484 12.4698,-2.045 -1.0237,-1.077 -0.7707,-2.893 0.3247,-3.907 0.5782,-0.48 1.2731,-0.821 2.0242,-0.994 0.7512,-0.172 1.5361,-0.171 2.2866,0.004 1.3057,0.254 2.482,0.911 3.3395,1.866 1.2314,1.402 1.5816,3.296 2.5124,4.888 0.9307,1.592 3.0237,2.949 4.7367,2.095 1.4796,-0.737 1.7145,-2.654 1.3462,-4.182 -0.3682,-1.529 -1.1504,-3.015 -1.017,-4.577 0.2546,-2.98 3.5614,-4.774 6.4795,-6.001 2.9182,-1.227 6.2596,-2.878 6.7219,-5.836 0.0158,-0.579 0.1328,-1.152 0.3463,-1.696 0.3235,-0.48 0.7733,-0.876 1.3065,-1.148 8.5166,-5.257 17.1749,-10.579 26.9089,-13.452 0.5064,-0.15 0.5659,0.017 1.082,-0.101 0.7223,-0.39 0.2437,-1.468 -0.4488,-1.903 -0.6926,-0.435 -1.6182,-0.768 -1.7939,-1.53 -0.1292,-0.56 0.2241,-1.11 0.3158,-1.676 0.2255,-1.392 -1.557,-2.677 -2.9413,-2.121 -0.7819,-0.967 0.7653,-2.091 2.0163,-2.413 3.7566,-0.966 7.6129,-1.554 11.50327,-1.755 0.44893,-0.067 0.90887,0.006 1.30896,0.208 0.65341,0.423 0.56993,1.392 0.10686,1.996 -0.46308,0.603 -1.18341,0.982 -1.76049,1.493 -0.63047,0.574 -1.08017,1.298 -1.29997,2.094 -0.2198,0.797 -0.20128,1.634 0.05353,2.421 2.03096,0.965 4.23894,1.958 6.48833,1.618 2.249371,-0.34 4.24586,-2.7 3.188565,-4.586 -0.984589,-1.756 -3.942065,-2.152 -4.450655,-4.076 -0.59547,-2.253 2.81893,-4.257 2.04981,-6.464 -0.3369,-0.967 -1.36817,-1.536 -2.15947,-2.233 -0.93456,-0.856 -1.57025,-1.956 -1.82361,-3.155 -0.25337,-1.199 -0.11257,-2.442 0.40391,-3.565 -1.28892,0.211 -2.61343,0.131 -3.86242,-0.234 -1.24902,-0.365 -2.38602,-1.004 -3.31572,-1.865 -1.717,-1.618 -3.0868,-4.172 -5.5249,-4.099 -2.2374,0.066 -4.1645,2.504 -6.2565,1.761 -0.5147,-0.183 -1.0574,-0.556 -1.5561,-0.338 -0.1634,0.099 -0.3005,0.232 -0.4011,0.388 -0.1005,0.156 -0.1618,0.331 -0.1793,0.512 -0.5316,2.375 0.383,5.08 -1.0024,7.132 -1.5075,2.233 -4.9945,2.542 -6.822,4.556 -0.9921,1.093 -1.3765,2.565 -2.2884,3.717 -0.9118,1.153 -2.8473,1.885 -3.9416,0.881 0.5378,-1.033 0.6847,-2.205 0.4166,-3.326 -0.2681,-1.121 -0.9353,-2.124 -1.8925,-2.845 -1.0161,-0.619 -2.1113,-1.117 -3.26,-1.481 -1.2835,-0.508 -2.5046,-1.143 -3.6419,-1.896 -0.5696,-0.321 -1.0325,-0.784 -1.3369,-1.337 -0.2408,-0.692 -0.2084,-1.441 0.0914,-2.113 0.5549,-1.486 1.5339,-2.802 2.8311,-3.807 1.2973,-1.004 2.8637,-1.659 4.53,-1.892 1.457,-0.185 3.1529,-0.12 4.1171,-1.157 0.5102,-0.549 0.778,-1.379 1.5185,-1.601 0.4737,-0.089 0.9655,-0.033 1.402,0.161 l 5.4385,1.788 c 0.6068,0.256 1.2747,0.359 1.9374,0.299 0.3286,-0.041 0.6283,-0.197 0.8389,-0.436 0.2107,-0.239 0.3168,-0.544 0.2969,-0.853 -0.1738,-0.844 -1.5635,-1.249 -1.437,-2.1 0.0708,-0.275 0.2295,-0.525 0.4551,-0.714 1.9627,-1.952 4.363,-3.474 7.029,-4.457 2.6661,-0.984 5.5319,-1.404 8.3923,-1.232 0.6865,1.053 -0.3992,2.3 -1.3025,3.199 -0.9033,0.899 -1.6292,2.506 -0.5368,3.198 0.4477,0.213 0.9457,0.318 1.4481,0.304 1.3389,0.169 2.6402,0.538 3.85424,1.092 1.87932,0.764 3.72256,1.6 5.52974,2.508 -0.15963,-1.113 -0.31199,-2.286 0.13966,-3.326 0.45164,-1.041 1.73524,-1.858 2.856415,-1.452 1.080505,0.39 1.634659,1.727 2.785825,1.849 1.5356,0.164 2.14142,-1.956 1.49999,-3.269 -0.64142,-1.314 -1.91121,-2.413 -2.0172,-3.854 -0.07152,-0.971 0.32434,-2.177 -0.506561,-2.765 -0.295685,-0.177 -0.631332,-0.287 -0.980362,-0.321 L -20.8841,115.283 c -1.232,-0.212 -3.012,-0.05 -3.0666,1.119 -0.0305,0.653 0.5934,1.298 0.3171,1.898 -0.295,0.641 -1.264,0.582 -1.9698,0.809 -1.0952,0.351 -1.6447,1.566 -1.5395,2.643 0.1926,1.07 0.6363,2.088 1.2995,2.979 -1.3495,-0.527 -3.3928,-0.624 -4.7423,-1.151 z"
       fill="#d0cfd4"
       id="path1" />
    <path
       d="m -14.5589,101.933 c -2.4473,0.486 -4.8245,1.24 -7.0823,2.247 1.0644,0.382 1.9692,1.074 2.581,1.973 0.6119,0.898 0.8985,1.957 0.8176,3.02 -0.0955,0.408 -0.0845,0.831 0.0322,1.234 0.2601,0.589 1.0139,0.81 1.6765,0.961 1.1905,0.339 2.4337,0.487 3.6771,0.439 0.6219,-0.031 1.226,-0.205 1.7574,-0.509 0.5314,-0.303 0.9735,-0.726 1.28621,-1.229 0.18019,-0.477 0.39158,-0.944 0.63295,-1.397 1.58834,-2.26 6.30688,0.472 8.01222,-1.712 0.600729,-0.769 0.545788,-1.927 1.328905,-2.537 0.405113,-0.265 0.874555,-0.433 1.366095,-0.487 3.42944,-0.636 6.89356,-1.097 10.37682,-1.38 1.6505,-0.135 3.8018,-0.688 3.8155,-2.236 -6.21662,-1.1403 -12.66249,-0.3302 -18.33547,2.304 -2.04392,0.957 -4.7472,2.968 -6.71601,1.701 -0.73712,-0.475 -0.70062,-1.753 -1.71522,-2.287 -1.0373,-0.546 -2.4104,-0.324 -3.5115,-0.105 z"
       fill="#d0cfd4"
       id="path2" />
    <path
       d="m 5.77115,105.483 2.91821,0.524 c -0.53717,-0.022 -1.07323,0.063 -1.57242,0.25 -0.49919,0.186 -0.95004,0.47 -1.32246,0.832 -0.37242,0.363 -0.65786,0.795 -0.83726,1.269 -0.1794,0.473 -0.24863,0.977 -0.20309,1.477 2.73276,0.853 5.71207,0.023 8.59077,0.137 2.8787,0.113 6.228,2.034 5.7366,4.686 -0.1486,0.802 -0.6445,1.603 -0.3866,2.38 0.1807,0.545 0.6951,0.932 0.9854,1.434 0.6051,1.045 0.1215,2.368 -0.6424,3.318 -0.764,0.951 -1.7908,1.709 -2.4614,2.72 -1.6678,2.512 -0.7202,5.76 0.2733,8.567 0.2872,1.06 0.8177,2.05 1.5546,2.9 1.472,1.462 3.8706,1.589 6.0188,1.618 1.5636,0.022 3.3547,-0.051 4.3434,-1.182 1.2909,-1.478 0.3882,-3.783 1.2381,-5.517 0.7719,-1.574 2.7384,-2.25 4.5202,-2.729 3.2641,-0.878 6.5906,-1.624 9.6764,-2.95 3.8319,-1.647 7.4131,-4.212 11.6248,-4.424 1.1816,-0.06 2.3925,0.07 3.5306,-0.232 1.1382,-0.302 2.2193,-1.222 2.1332,-2.324 -0.0736,-0.942 -0.9268,-1.634 -1.5934,-2.344 -0.6666,-0.71 -1.1901,-1.802 -0.5774,-2.553 l 11.0394,-1.926 c -0.7825,-1.992 -1.3921,-4.616 0.406,-5.913 0.6488,-0.468 1.5174,-0.655 2.0698,-1.22 0.9415,-0.964 0.4681,-2.625 -0.6187,-3.445 -1.0868,-0.819 -2.5563,-1.0098 -3.9484,-1.1178 -4.8406,-0.3756 -9.7089,-0.1274 -14.5588,0.1209 -9.4805,0.4859 -18.9611,0.9709 -28.4416,1.4559 -1.9085,0.098 -4.112,-0.051 -5.8624,0.557 -1.4819,0.515 -2.5355,1.46 -4.2303,1.792 -3.1287,0.613 -6.57178,0.199 -9.40295,1.839 z"
       fill="#d0cfd4"
       id="path3" />
    <path
       d="m 58.0493,127.031 c -0.2974,-0.044 -0.6015,0.021 -0.8494,0.18 -0.164,0.169 -0.2615,0.385 -0.2765,0.612 -0.1884,1.003 0.036,2.036 0.6283,2.892 0.3017,0.42 0.7182,0.756 1.2062,0.975 0.488,0.218 1.0297,0.311 1.5689,0.268 1.314,-0.157 2.2824,-1.204 3.4904,-1.715 1.8618,-0.787 9.7688,-2.013 4.2992,-4.774 -1.885,-0.951 -3.1029,-0.111 -4.5886,0.515 -1.6903,0.808 -3.5844,1.17 -5.4785,1.047 z"
       fill="#d0cfd4"
       id="path4" />
    <path
       d="m 105.957,103.926 c -0.639,0.243 -1.173,0.678 -1.519,1.235 -0.16,0.283 -0.197,0.613 -0.104,0.92 0.093,0.308 0.31,0.571 0.604,0.734 0.239,0.081 0.492,0.118 0.745,0.11 l 2.597,0.073 c 1.103,0.031 2.481,0.25 2.778,1.243 0.22,0.738 -0.273,1.685 0.322,2.212 0.255,0.185 0.562,0.297 0.883,0.322 0.856,0.205 1.749,0.232 2.617,0.079 1.889,-0.473 0.896,-1.551 1.491,-2.51 0.911,-1.468 0.753,-0.579 2.358,-1.42 1.185,-0.622 2.716,-1.749 1.727,-3.332 -1.72,-2.753 -11.961,-0.849 -14.499,0.334 z"
       fill="#d0cfd4"
       id="path5" />
    <path
       d="m 157.213,102.541 -1.507,0.188 c -3.401,0.424 -6.821,0.852 -10.096,1.806 1.418,0.524 2.905,0.864 4.421,1.013 0.835,0.039 1.664,0.149 2.477,0.329 1.447,0.402 2.904,1.441 4.302,0.909 0.866,-0.33 1.149,-1.173 1.867,-1.619 0.495,-0.309 2.375,-0.808 2.585,-1.119 1.699,-2.517 -2.743,-1.669 -4.049,-1.507 z"
       fill="#d0cfd4"
       id="path6" />
    <path
       d="m 163.834,108.943 c -2.014,1.052 -3.883,2.331 -5.565,3.807 -0.708,0.622 -1.432,1.396 -1.367,2.302 0.085,1.205 1.459,1.904 2.649,2.375 l 4.82,1.906 c 0.585,-0.77 0.05,-1.833 -0.554,-2.589 -0.605,-0.757 -1.323,-1.632 -1.056,-2.543 0.305,-1.039 1.661,-1.393 2.798,-1.572 1.853,-0.292 6.852,-0.268 6.251,-3.058 -0.707,-3.287 -6.116,-1.599 -7.976,-0.628 z"
       fill="#d0cfd4"
       id="path7" />
    <path
       d="m 162.865,294.958 c -0.459,1.241 -0.502,2.703 0.292,3.787 0.89,1.216 2.673,1.669 4.215,1.361 1.536,-0.382 2.905,-1.204 3.915,-2.351 0.923,-0.961 1.682,-2.049 2.251,-3.225 0.794,-1.834 1.354,-3.748 1.669,-5.704 l 1.496,-7.341 c 0.335,-1.641 0.322,-6.67 -2.906,-5.032 -0.882,0.448 -2.924,3.983 -3.848,4.985 -1.666,1.807 -1.886,3.56 -2.763,5.748 -1.098,2.742 -3.305,5.026 -4.321,7.772 z"
       fill="#d0cfd4"
       id="path8" />
    <path
       d="m 333.358,332.524 c -1.056,-0.385 -2.081,-0.841 -3.067,-1.364 -0.989,2.539 -1.514,5.215 -1.555,7.917 l 7.228,-3.821 c 1.087,-0.575 2.319,-1.373 2.296,-2.54 0.01,-0.144 -0.022,-0.288 -0.093,-0.417 -0.07,-0.128 -0.176,-0.237 -0.307,-0.314 -0.16,-0.06 -0.335,-0.079 -0.506,-0.055 -1.072,0.083 -2.049,0.576 -3.06,0.918 -1.011,0.343 -2.194,0.524 -3.121,0.016"
       fill="#d0cfd4"
       id="path9" />
    <path
       d="m 371.485,334.792 c -0.793,0.202 -1.568,0.462 -2.317,0.777 -1.659,0.788 -2.787,2.286 -4.28,3.324 -1.428,0.994 -3.148,1.539 -4.835,2.07 -0.497,0.41 -0.269,1.235 0.27,1.596 0.58,0.308 1.244,0.447 1.909,0.4 1.754,0.037 3.601,0.052 5.137,-0.739 0.865,-0.524 1.675,-1.125 2.419,-1.793 1.795,-1.4 3.952,-2.323 6.087,-3.216 0.777,-0.274 1.495,-0.675 2.121,-1.185 1.342,-1.234 1.436,-3.139 -0.498,-3.559 -1.563,-0.34 -4.524,1.875 -6.013,2.325 z"
       fill="#d0cfd4"
       id="path10" />
    <path
       d="m 388.332,324.512 c 0.087,-0.849 -0.034,-1.706 -0.354,-2.505 -0.319,-0.8 -0.829,-1.521 -1.491,-2.11 -0.02,1.7 -0.075,3.511 -1.098,4.916 -0.729,1.002 -1.872,1.678 -2.671,2.632 -0.799,0.954 -1.154,2.466 -0.217,3.303 0.599,0.426 1.329,0.661 2.081,0.67 1.866,0.205 4.024,0.319 5.333,-0.94 0.714,-0.687 1.061,-1.704 1.932,-2.21 0.324,-0.127 0.614,-0.32 0.848,-0.566 0.359,-0.534 -0.212,-1.238 -0.855,-1.43 -0.643,-0.193 -1.352,-0.102 -1.999,-0.285 -0.646,-0.183 -1.239,-0.862 -0.907,-1.411"
       fill="#d0cfd4"
       id="path11" />
    <path
       d="m 358.391,262.196 c -0.978,0.222 -1.992,0.278 -2.992,0.165 -1.66,-0.285 -2.953,-1.454 -4.293,-2.413 -3.187,-2.267 -7.061,-3.531 -11.066,-3.612 -3.642,-0.064 -7.319,0.858 -10.897,0.215 0.234,1.214 1.346,2.125 2.533,2.667 1.187,0.541 2.497,0.814 3.69,1.344 1.91,0.858 3.425,2.33 4.268,4.147 0.384,0.838 0.625,1.749 1.207,2.481 1.19,1.495 3.444,1.823 5.434,1.701 2.594,-0.16 5.303,-0.857 7.716,0.046 1.847,0.691 3.168,2.2 4.709,3.374 1.542,1.174 3.713,2.045 5.483,1.198 -1.838,-0.556 -3.439,-1.647 -4.567,-3.112 -1.128,-1.466 -1.725,-3.23 -1.704,-5.035 1.736,0.149 6.736,0.091 6.467,-2.664 -0.229,-2.336 -4.497,-0.754 -5.988,-0.502 z"
       fill="#d0cfd4"
       id="path12" />
    <path
       d="m 335.68,281.197 c 0.308,-1.58 1.994,-2.974 1.469,-4.503 -0.363,-1.057 -1.675,-1.579 -2.863,-1.605 -1.188,-0.026 -2.355,0.305 -3.543,0.336 -0.774,-0.039 -1.549,-0.028 -2.32,0.031 -2.359,0.362 -3.812,2.671 -6.035,3.492 -1.351,0.499 -2.869,0.403 -4.274,0.748 -3.191,0.784 -5.209,3.6 -7.439,5.87 -3.604,3.653 -8.298,6.21 -13.475,7.341 -1.814,0.392 -3.764,0.643 -5.205,1.744 -1.91,1.457 -2.38,3.955 -2.805,6.224 -1.173,6.266 -2.967,12.417 -5.357,18.373 l 7.575,0.903 c 1.44,0.172 2.933,0.34 4.32,-0.058 1.009,-0.356 1.964,-0.831 2.842,-1.414 3.374,-1.957 7.15,-3.23 11.083,-3.738 1.984,-0.254 4.064,-0.301 5.926,0.388 1.861,0.689 3.458,2.251 3.614,4.116 0.805,-0.234 1.663,-0.26 2.482,-0.073 0.82,0.186 1.569,0.576 2.169,1.129 1.187,1.129 1.963,2.578 2.221,4.141 0.199,0.968 0.399,2.128 1.361,2.535 0.784,0.331 1.684,-0.026 2.543,-0.09 2.912,-0.218 5.329,2.954 8.191,2.408 3.07,-0.586 3.824,-4.881 6.819,-5.741 1.72,-0.494 4.133,0.107 4.957,-1.388 0.726,-1.317 -0.723,-2.838 -0.573,-4.313 0.184,-1.816 2.477,-2.587 4.246,-3.362 6.096,-2.673 8.989,-10.337 6.035,-15.99 -1.751,-3.349 -5.195,-5.985 -5.831,-9.665 -0.489,-2.83 0.706,-6.131 -1.226,-8.36 -0.983,-1.133 -2.647,-1.759 -3.232,-3.111 -0.368,-0.852 -0.22,-1.818 -0.419,-2.717 -0.198,-0.899 -1.038,-1.84 -1.988,-1.607 -2.76,0.677 -3.641,8.641 -5.118,10.575 -2.246,2.942 -6.857,1.004 -6.15,-2.619 z"
       fill="#d0cfd4"
       id="path13" />
    <path
       d="m 284.671,265.205 c -0.943,-0.247 -1.973,-0.49 -2.876,-0.137 -0.904,0.353 -1.432,1.592 -0.707,2.207 5.674,-0.207 11.383,-0.412 17.008,0.308 6.482,0.83 12.896,2.884 19.406,2.279 -3.718,-1.024 -7.499,-1.844 -11.32,-2.454 l -6.373,-1.137 c -1.71,-0.334 -3.438,-0.584 -5.176,-0.747 -3.635,-0.28 -6.387,0.617 -9.962,-0.319 z"
       fill="#d0cfd4"
       id="path14" />
    <path
       d="m 290.35,246.746 c -0.471,-0.037 -1.054,-0.069 -1.298,0.31 -0.232,0.361 0.034,0.839 -0.091,1.244 -0.171,0.554 -0.947,0.695 -1.559,0.62 -0.612,-0.076 -1.273,-0.256 -1.815,0.019 -0.275,0.176 -0.481,0.43 -0.589,0.724 -0.107,0.294 -0.109,0.613 -0.006,0.909 0.222,0.587 0.58,1.12 1.049,1.562 0.802,0.943 1.715,1.799 2.722,2.55 1.95,1.345 4.592,1.993 5.82,3.945 0.173,0.378 0.44,0.713 0.777,0.977 0.59,0.349 1.359,0.084 1.994,-0.187 l 2.225,-0.95 c 0.401,-0.135 0.759,-0.362 1.04,-0.661 0.509,-0.644 0.196,-1.561 -0.23,-2.255 -0.427,-0.694 -0.973,-1.412 -0.882,-2.208 0.164,-1.419 2.117,-1.962 2.92,-3.176 0.809,-1.224 0.282,-2.801 0.376,-4.237 0.109,-1.679 1.239,-3.864 -0.579,-5.119 -1.545,-1.066 -3.021,-0.081 -4.13,1.097 -2.339,2.482 -3.444,5.171 -7.744,4.836 z"
       fill="#d0cfd4"
       id="path15" />
    <path
       d="m 303.858,221.653 c 0.76,1.359 2.343,2.17 3.172,3.493 0.898,1.435 0.796,3.288 1.77,4.678 0.999,1.426 3.01,2.184 3.571,3.806 0.612,1.771 -0.777,3.924 0.33,5.472 0.207,0.253 0.467,0.463 0.765,0.617 0.298,0.154 0.627,0.249 0.966,0.278 0.339,0.029 0.681,-0.008 1.004,-0.109 0.323,-0.101 0.62,-0.263 0.872,-0.477 0.467,-0.474 0.716,-1.1 0.696,-1.745 -0.021,-0.644 -0.309,-1.255 -0.805,-1.703 -0.656,-0.558 -1.596,-0.799 -2.144,-1.451 -0.285,-0.376 -0.474,-0.808 -0.555,-1.263 -0.298,-1.311 -0.25,-2.671 0.139,-3.961 0.147,-0.328 0.184,-0.689 0.107,-1.036 -0.246,-0.669 -1.216,-0.717 -1.896,-1.027 -1.545,-0.705 -1.508,-2.742 -1.238,-4.328 -0.18,1.056 -4.207,-0.741 -4.629,-1.339 -0.838,-1.188 -0.382,-3.481 -0.548,-4.794 -1.808,0.814 -2.506,3.228 -1.577,4.889 z"
       fill="#d0cfd4"
       id="path16" />
    <path
       d="m 263.283,242.561 c -0.744,-0.778 -1.863,-1.591 -2.86,-1.122 -0.76,0.358 -0.97,1.34 -0.672,2.085 0.364,0.724 0.923,1.346 1.622,1.806 2.077,1.6 4.313,3.044 6.125,4.904 3.243,3.329 4.961,7.82 8.487,10.887 0.709,0.711 1.647,1.185 2.672,1.351 1.027,0.089 2.181,-0.525 2.299,-1.483 0.097,-0.789 -0.491,-1.494 -1.066,-2.079 -1.37,-1.392 -2.87,-2.673 -4.163,-4.127 -0.597,-0.559 -0.973,-1.291 -1.064,-2.076 -0.007,-0.783 0.758,-1.603 1.57,-1.409 -0.988,-0.236 -1.72,-1.773 -3.17,-2.062 -1.212,-0.242 -1.505,0.459 -2.947,-0.119 -2.75,-1.101 -4.907,-4.542 -6.833,-6.556 z"
       fill="#d0cfd4"
       id="path17" />
    <path
       d="m 327.902,166.867 c -0.789,-0.219 -1.564,-0.478 -2.323,-0.775 -2.042,-0.573 -4.744,0.829 -4.472,2.805 0.181,1.312 1.489,2.197 2.211,3.335 1.071,1.688 0.785,3.829 0.222,5.72 -0.138,0.585 -0.401,1.139 -0.772,1.627 -0.52,0.516 -1.141,0.934 -1.83,1.23 -2.757,1.444 -5.189,3.374 -7.161,5.683 -0.214,0.213 -0.363,0.476 -0.432,0.761 -0.098,0.667 0.62,1.153 1.026,1.709 0.901,1.236 0.25,2.898 0.339,4.391 -0.014,0.211 0.03,0.422 0.128,0.613 0.098,0.19 0.247,0.354 0.432,0.476 0.543,0.258 1.186,-0.18 1.481,-0.678 0.977,-1.654 0.241,-4.308 2.074,-5.105 0.347,-0.151 0.767,-0.214 0.998,-0.499 0.367,-0.451 0.013,-1.12 0.199,-1.659 0.279,-0.81 1.465,-0.846 2.375,-0.811 1.568,0.062 3.135,-0.133 4.631,-0.575 0.587,-0.131 1.12,-0.419 1.533,-0.83 0.548,-0.638 0.5,-1.547 0.39,-2.359 -0.548,-4.049 -1.921,-7.962 -4.044,-11.529 1.61,0.192 3.361,0.359 4.751,-0.425 0.778,-0.439 1.711,-1.752 1.325,-2.645 -0.61,-1.413 -1.713,-0.224 -3.081,-0.46 z"
       fill="#d0cfd4"
       id="path18" />
    <path
       d="m 121.489,189.135 c 0.193,0.965 0.383,1.982 0.044,2.912 -0.339,0.929 -1.404,1.706 -2.41,1.421 -0.781,-0.221 -1.232,-0.954 -1.786,-1.513 -3.084,-3.11 -10.04,-1.31 -11.944,-5.156 -0.778,-1.57 -0.249,-3.451 -0.779,-5.108 -0.335,-0.958 -1.001,-1.785 -1.893,-2.351 -0.892,-0.566 -1.96,-0.84 -3.0364,-0.777 -0.9818,0.132 -1.9374,0.399 -2.8363,0.791 -6.0219,2.253 -12.3438,3.73 -18.792,4.39 -1.2254,0.07 -2.4376,0.276 -3.6108,0.614 -2.6477,0.897 -4.4568,3.19 -5.7442,5.53 -1.2874,2.34 -2.2379,4.873 -3.964,6.951 -1.814,2.185 -4.356,3.715 -6.7272,5.37 -0.9134,0.55 -1.674,1.294 -2.2192,2.173 -0.5141,0.985 -0.4851,2.132 -0.4452,3.228 l 0.4846,13.311 c 0.0624,1.712 0.1406,3.486 0.961,5.018 1.0243,1.913 3.0479,3.166 4.4517,4.856 1.4326,1.737 2.1789,3.883 2.1126,6.075 -0.0299,0.881 -0.1237,1.923 0.611,2.477 0.4469,0.271 0.9699,0.411 1.5024,0.404 l 19.2753,1.473 c 3.3907,0.259 7.1483,0.686 9.362,3.099 1.0448,1.139 1.8841,2.776 3.4843,2.899 0.6864,0.052 1.3543,-0.211 2.0409,-0.262 1.7325,-0.128 3.2535,1.1 4.2145,2.453 1.453,2.061 2.113,4.524 1.87,6.982 -0.157,1.543 -0.669,3.043 -0.78,4.59 -0.42,5.884 4.921,10.997 5.024,16.894 0.061,3.469 -1.702,6.71 -3.42,9.786 2.774,3.925 0.502,9.152 1.607,13.741 1.047,4.353 4.933,7.761 5.901,12.131 0.444,2 0.469,4.462 2.358,5.492 0.828,0.378 1.747,0.549 2.667,0.499 5.55,0.062 11.037,-1.105 16.012,-3.405 2.335,-1.083 4.755,-2.698 5.163,-5.103 0.329,-1.94 -0.724,-4.109 0.347,-5.798 1.263,-1.992 4.498,-1.834 6.356,-3.365 3.015,-2.483 0.664,-7.219 1.886,-10.796 1.097,-3.215 4.877,-4.924 6.75,-7.809 0.737,-1.241 1.266,-2.581 1.568,-3.972 0.859,-3.324 1.393,-6.714 1.596,-10.129 0.05,-2.074 0.214,-4.145 0.491,-6.204 2.02,-11.721 14.424,-19.57 18.452,-30.83 0.384,-1.075 0.565,-2.508 -0.459,-3.116 -0.608,-0.271 -1.296,-0.338 -1.951,-0.191 l -8.885,1.047 c -1.104,0.13 -2.274,0.251 -3.287,-0.177 -1.014,-0.428 -1.74,-1.626 -1.202,-2.536 1.509,-2.553 -1.596,-5.78 -2.975,-8.397 -3.714,-7.047 -8.137,-13.747 -13.209,-20.012 -0.325,-0.322 -0.528,-0.734 -0.579,-1.174 l 2.521,0.078 c -0.851,-2.853 -2.256,-5.976 -5.223,-7.02 -1.672,-0.588 -3.524,-0.385 -5.309,-0.293 -5.11,0.26 -10.589,-0.46 -15.647,-1.191 z"
       fill="#d0cfd4"
       id="path19" />
    <path
       d="m 137.14,124.833 c 1.338,1.327 2.836,2.733 4.771,2.964 3.418,0.409 5.875,-2.893 7.439,-5.76 0.058,0.731 0.419,1.412 1.006,1.898 0.587,0.487 1.354,0.74 2.138,0.706 0.844,-0.133 1.649,-0.427 2.365,-0.864 6.771,-3.456 14.355,-5.288 22.071,-5.33 -0.074,-0.546 0.071,-1.098 0.408,-1.55 0.336,-0.452 0.839,-0.772 1.413,-0.897 1.569,-0.291 2.982,0.976 3.739,2.292 0.756,1.316 1.228,2.842 2.431,3.827 1.202,0.985 3.53,0.942 4.005,-0.484 0.456,-1.37 -1.072,-2.538 -2.341,-3.345 -1.269,-0.808 -2.606,-2.302 -1.752,-3.494 6.483,-1.341 13.007,-2.686 19.641,-2.953 1.129,0.037 2.255,-0.144 3.306,-0.532 1.012,-0.464 1.816,-1.516 1.544,-2.538 -1.448,0.318 -2.964,0.226 -4.356,-0.264 -1.391,-0.491 -2.595,-1.357 -3.457,-2.489 9.205,-0.709 18.996,-1.314 27.153,2.732 0.979,1.963 -4.01,3.596 -2.675,5.367 0.426,0.565 1.279,0.631 2.018,0.644 5.669,0.098 11.371,0.195 16.976,-0.605 2.048,-0.292 4.117,-0.705 6.173,-0.468 3.426,0.395 6.355,2.53 9.725,3.226 1.372,0.283 2.91,0.293 4.066,-0.452 1.156,-0.745 1.653,-2.442 0.705,-3.411 3.173,-2.905 8.439,-2.185 12.625,-0.794 4.186,1.39 8.151,3.633 12.581,3.943 3.177,0.222 6.398,-0.576 9.537,-0.068 1.973,0.318 3.809,1.138 5.737,1.642 3.646,0.952 7.504,0.751 11.29,0.797 9.66,0.122 19.214,1.895 28.19,5.233 1.168,0.355 2.237,0.945 3.134,1.729 0.835,0.836 1.261,2.134 0.7,3.15 l -9.275,-1.266 c 0.873,1.607 3.134,1.881 4.97,2.435 1.836,0.555 3.74,2.449 2.636,3.927 -1.989,-0.591 -3.792,1.267 -4.796,2.976 -1.005,1.709 -2.23,3.757 -4.315,3.861 -1.867,0.093 -4.124,-1.392 -5.341,-0.066 1.681,1.981 3.121,4.131 4.292,6.41 1.202,2.34 2.058,5.287 0.433,7.392 -0.255,0.376 -0.643,0.657 -1.096,0.795 -1.327,0.314 -2.189,-1.203 -3.141,-2.122 -1.199,-1.158 -3.013,-1.486 -4.637,-2.03 -1.624,-0.543 -3.335,-1.611 -3.462,-3.218 -0.079,-1 0.486,-1.93 0.903,-2.854 0.699,-1.557 1.005,-3.244 0.894,-4.93 -0.091,-1.357 -0.498,-2.768 -1.541,-3.715 -1.043,-0.948 -2.843,-1.249 -3.963,-0.381 -0.522,0.405 -0.941,1.053 -1.619,1.077 -1.198,0.043 -2.119,-1.909 -3.083,-1.242 0.113,0.71 -0.044,1.434 -0.445,2.047 -2.878,2.337 -7.298,1.348 -11.008,2.174 -1.763,0.472 -3.452,1.161 -5.022,2.049 -0.587,0.234 -1.086,0.626 -1.435,1.125 -0.463,0.841 0.048,1.917 0.864,2.476 0.865,0.496 1.838,0.806 2.847,0.908 4.523,0.8 9.111,2.039 12.682,4.753 3.57,2.713 5.911,7.199 4.782,11.367 l -8.919,-7.961 c 0.339,3.343 0.531,6.694 0.577,10.055 0.058,0.656 -0.039,1.316 -0.283,1.934 -0.636,1.312 -2.359,1.753 -3.869,2.043 -0.42,0.074 -0.818,0.231 -1.169,0.46 -0.35,0.228 -0.645,0.524 -0.865,0.866 -0.22,0.343 -0.359,0.725 -0.41,1.121 -0.05,0.397 -0.01,0.799 0.118,1.18 0.536,1.634 1.874,2.907 3.099,4.176 1.225,1.269 2.43,2.712 2.59,4.414 0.161,1.702 -1.214,3.62 -3.039,3.502 -1.383,-0.09 -2.409,-1.246 -2.999,-2.419 -0.59,-1.172 -0.942,-2.478 -1.828,-3.474 -2.683,-3.014 -8.71,-1.723 -11.114,-4.937 -0.613,0.65 -1.038,1.435 -1.235,2.28 -0.196,0.846 -0.159,1.725 0.111,2.553 1.118,-0.654 2.649,-0.046 3.489,0.904 0.84,0.95 1.237,2.169 1.896,3.236 0.891,1.44 2.308,2.717 2.432,4.376 -0.033,0.627 -0.022,1.256 0.034,1.882 0.221,1.005 1.13,1.727 1.761,2.567 1.467,1.955 1.395,4.641 0.449,6.859 -0.946,2.218 -2.645,4.072 -4.328,5.869 -2.94,3.139 -5.939,6.259 -9.424,8.866 -0.995,0.744 -2.056,1.475 -2.675,2.515 -0.62,1.04 -0.651,2.5 0.3,3.291 -0.681,0.031 -1.902,0.344 -2.583,0.376 -0.239,-2.552 -0.291,-5.116 -0.156,-7.674 -2.687,-1.206 -5.58,2.022 -5.234,4.788 0.347,2.766 2.489,4.986 4.013,7.379 1.115,1.75 1.944,3.79 1.572,5.797 -0.372,2.006 -2.29,3.857 -4.462,3.68 -3.454,-0.281 -4.899,-4.914 -8.32,-5.444 -0.302,-0.066 -0.618,-0.037 -0.9,0.083 -0.508,0.261 -0.596,0.895 -0.625,1.436 -0.14,2.652 -0.261,5.41 0.848,7.856 1.621,3.578 5.81,6.582 4.932,10.38 -4.734,-2.056 -7.196,-7.015 -8.313,-11.778 -1.118,-4.764 -1.304,-9.765 -3.307,-14.268 -1.521,1.822 -4.718,0.316 -6.108,-1.595 -1.318,-1.811 -2.129,-3.906 -3.407,-5.742 -1.279,-1.836 -3.237,-3.48 -5.579,-3.581 -2.455,-0.105 -4.584,1.469 -6.457,2.956 -1.54,1.223 -3.121,2.494 -4.021,4.184 -1.31,2.46 -0.967,5.36 -1.031,8.107 -0.068,2.97 -0.741,6.103 -2.908,8.277 -2.167,2.174 -6.166,2.931 -8.556,0.972 -1.247,-1.023 -1.851,-2.552 -2.389,-4.019 -2.594,-7.071 -4.754,-14.274 -6.47,-21.575 -0.402,1.666 -1.968,3.814 -3.465,2.832 -0.335,-0.264 -0.607,-0.591 -0.798,-0.96 -2.791,-4.42 -7.96,-7.07 -13.183,-8.66 -5.223,-1.589 -10.718,-2.33 -15.882,-4.077 -2.895,-0.979 -5.659,-2.266 -8.24,-3.834 -0.657,0.903 -1.041,1.955 -1.111,3.045 -0.07,1.09 0.177,2.177 0.715,3.147 1.146,1.895 3.739,2.991 5.958,2.329 1.147,-0.342 2.115,-1.086 3.253,-1.453 1.138,-0.368 2.665,-0.187 3.163,0.837 0.476,0.98 -0.244,2.166 0.114,3.189 0.543,1.559 3.06,1.679 3.94,3.098 0.655,1.055 0.116,2.457 -0.819,3.309 -0.934,0.851 -2.182,1.318 -3.323,1.911 -3.703,1.924 -6.337,5.208 -9.573,7.762 -3.237,2.555 -7.803,4.421 -11.66,2.782 0.92,-4.349 -4.626,-7.542 -5.646,-11.871 -0.336,-1.425 -0.162,-2.939 -0.641,-4.327 -0.694,-2.011 -2.604,-3.393 -4.17,-4.917 -1.9,-1.868 -3.38,-4.072 -4.353,-6.483 -0.973,-2.411 -1.419,-4.98 -1.313,-7.555 0.085,-1.789 0.437,-3.607 0.001,-5.351 -0.437,-1.744 -1.982,-3.432 -3.898,-3.353 -4.374,0.18 -9.885,0.484 -12.181,-2.999 -0.819,-1.244 -1.175,-3.065 0.009,-4.017 0.836,-0.672 2.069,-0.609 3.166,-0.508 l 9.857,0.906 c 2.305,0.212 4.797,0.386 6.775,-0.739 1.978,-1.126 2.836,-4.115 1.004,-5.439 -1.339,-0.968 -3.736,-0.915 -4.126,-2.454 -0.324,-1.282 1.195,-2.736 0.375,-3.807 -0.588,-0.768 -1.91,-0.555 -2.711,0.021 -0.802,0.576 -1.383,1.418 -2.279,1.853 -1.573,0.765 -3.452,0.037 -5.145,-0.457 -1.692,-0.495 -3.96,-0.537 -4.781,0.931 -0.918,1.642 0.814,3.794 -0.097,5.439 -1.204,2.175 -5.283,0.937 -6.974,2.808 -1.941,2.147 1.32,5.349 0.666,8.092 -0.836,0.386 -1.765,0.564 -2.696,0.515 -0.931,-0.049 -1.832,-0.323 -2.616,-0.794 -0.772,-0.49 -1.386,-1.166 -1.779,-1.957 -0.392,-0.79 -0.548,-1.665 -0.451,-2.531 0.162,-1.234 0.85,-2.494 0.389,-3.66 -0.373,-0.942 -1.386,-1.504 -2.328,-1.99 l -9.578,-4.944 c -0.89,1.541 0.235,3.451 1.641,4.609 1.406,1.157 3.167,2.029 4.09,3.552 0.585,1.056 0.716,2.28 0.367,3.422 -0.349,1.143 -1.152,2.118 -2.245,2.726 -0.137,0.088 -0.293,0.148 -0.457,0.175 -0.163,0.026 -0.332,0.02 -0.492,-0.02 -0.153,-0.084 -0.286,-0.196 -0.392,-0.329 -0.106,-0.132 -0.182,-0.284 -0.224,-0.445 -1.69,-4.04 -4.228,-8.023 -8.284,-10.134 -4.0569,-2.11 -9.8859,-1.676 -12.5461,1.879 -0.6318,0.845 -1.0559,1.807 -1.6063,2.7 -2.9243,4.743 -9.1936,6.989 -15.051,6.842 -0.573,0.03 -1.143,-0.095 -1.6419,-0.36 -0.9466,-0.611 -0.904,-1.907 -0.7591,-2.973 l 0.6148,-4.524 c 0.1235,-0.909 0.3024,-1.913 1.0722,-2.48 1.0851,-0.8 2.6504,-0.295 4.0323,-0.314 1.0469,-0.046 2.0535,-0.391 2.8832,-0.989 0.8297,-0.598 1.4424,-1.42 1.7552,-2.355 0.2791,-0.943 0.2774,-1.94 -0.0052,-2.883 -0.2825,-0.943 -0.8351,-1.796 -1.5982,-2.467 -0.6333,-0.556 -1.4834,-1.254 -1.1489,-2.003 0.1335,-0.207 0.314,-0.384 0.5287,-0.519 0.2147,-0.136 0.4586,-0.225 0.7143,-0.263 2.4822,-0.673 5.105,-0.849 7.5458,-1.644 2.4408,-0.794 4.8079,-2.42 5.3859,-4.773 0.1772,-0.722 0.2578,-1.595 0.9513,-1.953 0.3479,-0.137 0.7216,-0.208 1.0993,-0.21 1.3233,-0.175 2.5282,-0.808 3.3774,-1.772 0.8493,-0.964 1.2813,-2.19 1.2113,-3.437 1.17,-0.764 2.809,-0.202 3.94,0.61 1.132,0.812 2.131,1.885 3.508,2.235 2.566,0.653 5.046,-1.47 7.705,-1.48 1.119,-0.004 2.276,0.366 3.329,0.011 1.066,-0.359 1.703,-1.35 2.522,-2.083 0.818,-0.733 2.255,-1.18 3.011,-0.39 l -0.644,-4.454 c 1.296,0.306 2.648,0.349 3.963,0.127 1.316,-0.223 2.566,-0.705 3.665,-1.416 l -8.319,-2.625 c -0.29,-0.068 -0.557,-0.202 -0.778,-0.389 -0.605,-0.608 -0.004,-1.556 0.488,-2.248 1.176,-1.654 1.374,-4.38 -0.561,-5.203 -1.32,-0.563 -2.836,0.112 -4.104,0.772 l -6.072,3.163 c -0.193,1.078 1.219,1.689 2.093,2.416 0.529,0.439 0.904,1.018 1.075,1.659 0.17,0.642 0.129,1.317 -0.118,1.937 -0.248,0.62 -0.69,1.155 -1.27,1.535 -0.579,0.381 -1.267,0.589 -1.975,0.597 0.4,0.485 0.677,1.049 0.812,1.648 0.136,0.6 0.125,1.22 -0.031,1.815 l -4.086,0.274 c -0.458,0.087 -0.935,0 -1.325,-0.241 -0.437,-0.363 -0.377,-0.998 -0.479,-1.536 -0.244,-1.297 -1.604,-2.207 -2.993,-2.44 -1.388,-0.233 -2.808,0.066 -4.1826,0.361 -0.5837,0.196 -1.2247,0.182 -1.7981,-0.039 -0.3288,-0.199 -0.5786,-0.494 -0.7113,-0.839 -0.6027,-1.365 -0.0394,-2.969 0.9285,-4.136 0.968,-1.168 2.2925,-2.021 3.4825,-2.993 2.846,-2.332 4.937,-5.362 6.037,-8.746 2.249,-0.88 4.577,-2.076 6.826,-2.956 3.467,-1.64 7.356,-2.344 11.228,-2.032 l 7.616,0.135 c 2.255,0.041 4.571,0.092 6.656,0.895 2.085,0.803 3.917,2.54 4.061,4.643 0.044,0.238 0.022,0.482 -0.064,0.71 -0.085,0.228 -0.231,0.432 -0.424,0.593 -0.294,0.15 -0.628,0.22 -0.963,0.202 -2.103,0.069 -3,0.559 -5.103,0.628 z"
       fill="#d0cfd4"
       id="path20" />
    <path
       d="m 76.4339,147.131 c 0.2975,-0.263 0.5117,-0.598 0.6189,-0.967 0.1072,-0.37 0.1034,-0.76 -0.0112,-1.127 -0.724,-0.261 -1.5117,-0.328 -2.2744,-0.193 -0.7626,0.134 -1.4699,0.465 -2.0422,0.954 -0.4512,0.427 -0.8401,0.907 -1.1565,1.429 -1.0008,1.525 -1.886,3.347 -1.306,5.052 0.0473,0.186 0.1338,0.361 0.2546,0.515 0.1207,0.155 0.2732,0.285 0.4485,0.383 0.26,0.098 0.5403,0.139 0.8197,0.12 1.1025,-0.001 2.2039,-0.065 3.2983,-0.189 0.6721,-0.077 1.4527,-0.255 1.7124,-0.839 0.3414,-0.767 -0.4849,-1.636 -0.244,-2.437 0.1585,-0.358 0.3987,-0.679 0.7038,-0.941 0.1513,-0.132 0.2677,-0.296 0.3397,-0.477 0.0721,-0.181 0.0979,-0.376 0.0753,-0.568 -0.0972,-0.376 -0.7128,-0.589 -0.9344,-0.263"
       fill="#d0cfd4"
       id="path21" />
    <path
       d="m 82.1508,140.207 c -0.9795,-0.21 -1.9891,-0.269 -2.989,-0.175 -0.2211,-0.007 -0.4403,0.04 -0.6369,0.135 -0.1904,0.131 -0.3285,0.318 -0.3924,0.531 -0.2112,0.633 -0.1593,1.317 0.1454,1.916 0.3046,0.599 0.8396,1.069 1.4985,1.316 0.3591,0.077 0.7031,0.206 1.0194,0.383 0.8454,0.612 0.3065,1.865 0.4665,2.853 0.1797,1.11 1.3296,2.041 1.1188,3.146 -0.1661,0.871 -1.1614,1.56 -1.0012,2.431 0.1679,0.913 1.4077,1.187 2.396,1.261 0.5728,0.093 1.1623,0.03 1.6976,-0.182 0.5364,-0.343 0.918,-0.859 1.071,-1.449 0.4046,-1.125 0.5746,-2.312 0.5008,-3.497 -0.0043,-0.539 -0.1492,-1.069 -0.4221,-1.543 -0.2976,-0.377 -0.6275,-0.729 -0.9864,-1.056 -1.8935,-2.057 0.1002,-5.126 -3.486,-6.07 z"
       fill="#d0cfd4"
       id="path22" />
    <path
       opacity="0.8"
       d="m 331.143,301.382 c 0,0 -145.023,-77.763 -207.458,-63.029 0,0 -132.31708,13.301 -147.6519,42.565 0,0 -42.0611,-122.785 -57.3959,-126.877"
       stroke="#8358d3"
       stroke-width="0.881827"
       stroke-miterlimit="10"
       id="path23" />
    <path
       opacity="0.8"
       d="M -23.9669,280.918 C 0.349743,220.344 219.418,153.222 219.418,153.222 c -31.108,7.367 -95.733,85.13 -95.733,85.13 0,0 -136.6984,-92.907 -205.0478,-84.312 0,0 300.9998,9.209 412.5058,147.342"
       stroke="#8358d3"
       stroke-width="0.881827"
       stroke-miterlimit="10"
       id="path24" />
    <path
       d="m 219.418,159.156 c 3.509,0 6.353,-2.657 6.353,-5.934 0,-3.278 -2.844,-5.935 -6.353,-5.935 -3.509,0 -6.353,2.657 -6.353,5.935 0,3.277 2.844,5.934 6.353,5.934 z"
       fill="url(#paint0_linear_228_8289)"
       id="path25"
       style="fill:url(#paint0_linear_228_8289)" />
    <path
       d="m 331.143,307.316 c 3.508,0 6.353,-2.657 6.353,-5.934 0,-3.278 -2.845,-5.935 -6.353,-5.935 -3.509,0 -6.353,2.657 -6.353,5.935 0,3.277 2.844,5.934 6.353,5.934 z"
       fill="url(#paint1_linear_228_8289)"
       id="path26"
       style="fill:url(#paint1_linear_228_8289)" />
    <path
       d="m 123.685,244.287 c 3.509,0 6.353,-2.657 6.353,-5.934 0,-3.278 -2.844,-5.935 -6.353,-5.935 -3.509,0 -6.353,2.657 -6.353,5.935 0,3.277 2.844,5.934 6.353,5.934 z"
       fill="url(#paint2_linear_228_8289)"
       id="path27"
       style="fill:url(#paint2_linear_228_8289)" />
  </g>
  <defs
     id="defs32">
    <linearGradient
       id="paint0_linear_228_8289"
       x1="219.418"
       y1="147.287"
       x2="219.418"
       y2="159.15601"
       gradientUnits="userSpaceOnUse">
      <stop
         stop-color="#8F2AC7"
         id="stop27" />
      <stop
         offset="0.595"
         stop-color="#DA5673"
         id="stop28" />
    </linearGradient>
    <linearGradient
       id="paint1_linear_228_8289"
       x1="331.14301"
       y1="295.44699"
       x2="331.14301"
       y2="307.31601"
       gradientUnits="userSpaceOnUse">
      <stop
         stop-color="#8F2AC7"
         id="stop29" />
      <stop
         offset="0.595"
         stop-color="#DA5673"
         id="stop30" />
    </linearGradient>
    <linearGradient
       id="paint2_linear_228_8289"
       x1="123.685"
       y1="232.418"
       x2="123.685"
       y2="244.287"
       gradientUnits="userSpaceOnUse">
      <stop
         stop-color="#8F2AC7"
         id="stop31" />
      <stop
         offset="0.595"
         stop-color="#DA5673"
         id="stop32" />
    </linearGradient>
  </defs>
</svg>
