<svg width="17" height="17" viewBox="0 0 17 17" fill="none" xmlns="http://www.w3.org/2000/svg">
<path d="M10.2 5.1H11.05C11.2754 5.1 11.4916 5.01045 11.651 4.85104C11.8104 4.69163 11.9 4.47543 11.9 4.25C11.9 4.02457 11.8104 3.80837 11.651 3.64896C11.4916 3.48955 11.2754 3.4 11.05 3.4H10.2C9.97457 3.4 9.75837 3.48955 9.59896 3.64896C9.43955 3.80837 9.35 4.02457 9.35 4.25C9.35 4.47543 9.43955 4.69163 9.59896 4.85104C9.75837 5.01045 9.97457 5.1 10.2 5.1ZM10.2 8.5H11.05C11.2754 8.5 11.4916 8.41045 11.651 8.25104C11.8104 8.09163 11.9 7.87543 11.9 7.65C11.9 7.42457 11.8104 7.20837 11.651 7.04896C11.4916 6.88955 11.2754 6.8 11.05 6.8H10.2C9.97457 6.8 9.75837 6.88955 9.59896 7.04896C9.43955 7.20837 9.35 7.42457 9.35 7.65C9.35 7.87543 9.43955 8.09163 9.59896 8.25104C9.75837 8.41045 9.97457 8.5 10.2 8.5ZM5.95 5.1H6.8C7.02543 5.1 7.24163 5.01045 7.40104 4.85104C7.56045 4.69163 7.65 4.47543 7.65 4.25C7.65 4.02457 7.56045 3.80837 7.40104 3.64896C7.24163 3.48955 7.02543 3.4 6.8 3.4H5.95C5.72457 3.4 5.50837 3.48955 5.34896 3.64896C5.18955 3.80837 5.1 4.02457 5.1 4.25C5.1 4.47543 5.18955 4.69163 5.34896 4.85104C5.50837 5.01045 5.72457 5.1 5.95 5.1ZM5.95 8.5H6.8C7.02543 8.5 7.24163 8.41045 7.40104 8.25104C7.56045 8.09163 7.65 7.87543 7.65 7.65C7.65 7.42457 7.56045 7.20837 7.40104 7.04896C7.24163 6.88955 7.02543 6.8 6.8 6.8H5.95C5.72457 6.8 5.50837 6.88955 5.34896 7.04896C5.18955 7.20837 5.1 7.42457 5.1 7.65C5.1 7.87543 5.18955 8.09163 5.34896 8.25104C5.50837 8.41045 5.72457 8.5 5.95 8.5ZM16.15 15.3H15.3V0.85C15.3 0.624566 15.2104 0.408365 15.051 0.248959C14.8916 0.0895533 14.6754 0 14.45 0H2.55C2.32457 0 2.10837 0.0895533 1.94896 0.248959C1.78955 0.408365 1.7 0.624566 1.7 0.85V15.3H0.85C0.624566 15.3 0.408365 15.3896 0.248959 15.549C0.0895533 15.7084 0 15.9246 0 16.15C0 16.3754 0.0895533 16.5916 0.248959 16.751C0.408365 16.9104 0.624566 17 0.85 17H16.15C16.3754 17 16.5916 16.9104 16.751 16.751C16.9104 16.5916 17 16.3754 17 16.15C17 15.9246 16.9104 15.7084 16.751 15.549C16.5916 15.3896 16.3754 15.3 16.15 15.3ZM9.35 15.3H7.65V11.9H9.35V15.3ZM13.6 15.3H11.05V11.05C11.05 10.8246 10.9604 10.6084 10.801 10.449C10.6416 10.2896 10.4254 10.2 10.2 10.2H6.8C6.57457 10.2 6.35837 10.2896 6.19896 10.449C6.03955 10.6084 5.95 10.8246 5.95 11.05V15.3H3.4V1.7H13.6V15.3Z" fill="#65558F"/>
</svg>
