<svg width="16" height="20" viewBox="0 0 16 20" fill="none" xmlns="http://www.w3.org/2000/svg">
<path d="M14.3 6.57975L15.21 5.67975C15.3983 5.49144 15.5041 5.23605 15.5041 4.96975C15.5041 4.70344 15.3983 4.44805 15.21 4.25975C15.0217 4.07144 14.7663 3.96565 14.5 3.96565C14.2337 3.96565 13.9783 4.07144 13.79 4.25975L12.89 5.16975C11.4886 4.0856 9.76687 3.49738 7.99503 3.49738C6.22318 3.49738 4.50147 4.0856 3.10003 5.16975L2.19003 4.24975C2.0004 4.06144 1.74373 3.95618 1.47649 3.95712C1.20925 3.95806 0.95333 4.06512 0.765026 4.25475C0.576722 4.44438 0.471462 4.70104 0.472399 4.96828C0.473337 5.23552 0.580396 5.49144 0.770026 5.67975L1.69003 6.58975C0.593042 7.98729 -0.00218316 9.71309 2.6229e-05 11.4897C-0.00323946 12.7652 0.29849 14.0229 0.88005 15.158C1.46161 16.2931 2.30614 17.2728 3.34322 18.0152C4.38029 18.7576 5.57985 19.2413 6.84184 19.426C8.10383 19.6106 9.39168 19.4908 10.598 19.0766C11.8043 18.6624 12.8941 17.9658 13.7764 17.0449C14.6588 16.124 15.3082 15.0054 15.6705 13.7825C16.0328 12.5596 16.0974 11.2678 15.859 10.0149C15.6206 8.76194 15.0861 7.58415 14.3 6.57975ZM8.00003 17.4897C6.81334 17.4897 5.6533 17.1379 4.6666 16.4786C3.67991 15.8193 2.91087 14.8822 2.45675 13.7858C2.00262 12.6895 1.8838 11.4831 2.11531 10.3192C2.34683 9.15532 2.91827 8.08622 3.75739 7.24711C4.5965 6.40799 5.6656 5.83655 6.82948 5.60503C7.99337 5.37352 9.19977 5.49234 10.2961 5.94647C11.3925 6.40059 12.3296 7.16963 12.9888 8.15632C13.6481 9.14302 14 10.3031 14 11.4897C14 13.081 13.3679 14.6072 12.2427 15.7324C11.1174 16.8576 9.59133 17.4897 8.00003 17.4897ZM6.00003 2.48975H10C10.2652 2.48975 10.5196 2.38439 10.7071 2.19685C10.8947 2.00932 11 1.75496 11 1.48975C11 1.22453 10.8947 0.970176 10.7071 0.782639C10.5196 0.595103 10.2652 0.489746 10 0.489746H6.00003C5.73481 0.489746 5.48046 0.595103 5.29292 0.782639C5.10538 0.970176 5.00003 1.22453 5.00003 1.48975C5.00003 1.75496 5.10538 2.00932 5.29292 2.19685C5.48046 2.38439 5.73481 2.48975 6.00003 2.48975ZM9.00003 8.48975C9.00003 8.22453 8.89467 7.97018 8.70713 7.78264C8.5196 7.5951 8.26524 7.48975 8.00003 7.48975C7.73481 7.48975 7.48046 7.5951 7.29292 7.78264C7.10538 7.97018 7.00003 8.22453 7.00003 8.48975V10.3797C6.7736 10.5823 6.614 10.8488 6.54235 11.144C6.47069 11.4392 6.49037 11.7492 6.59877 12.033C6.70717 12.3168 6.89918 12.561 7.14939 12.7333C7.39961 12.9055 7.69624 12.9978 8.00003 12.9978C8.30381 12.9978 8.60044 12.9055 8.85066 12.7333C9.10088 12.561 9.29289 12.3168 9.40129 12.033C9.50968 11.7492 9.52936 11.4392 9.45771 11.144C9.38606 10.8488 9.22646 10.5823 9.00003 10.3797V8.48975Z" fill="black"/>
</svg>
