<svg width="20" height="21" viewBox="0 0 20 21" fill="none" xmlns="http://www.w3.org/2000/svg">
<path d="M6.4 15.831L10 12.231L13.6 15.831L15 14.431L11.4 10.831L15 7.23099L13.6 5.83099L10 9.43099L6.4 5.83099L5 7.23099L8.6 10.831L5 14.431L6.4 15.831ZM10 20.831C8.61667 20.831 7.31667 20.5685 6.1 20.0435C4.88333 19.5185 3.825 18.806 2.925 17.906C2.025 17.006 1.3125 15.9477 0.7875 14.731C0.2625 13.5143 0 12.2143 0 10.831C0 9.44766 0.2625 8.14766 0.7875 6.93099C1.3125 5.71433 2.025 4.65599 2.925 3.75599C3.825 2.85599 4.88333 2.14349 6.1 1.61849C7.31667 1.09349 8.61667 0.830994 10 0.830994C11.3833 0.830994 12.6833 1.09349 13.9 1.61849C15.1167 2.14349 16.175 2.85599 17.075 3.75599C17.975 4.65599 18.6875 5.71433 19.2125 6.93099C19.7375 8.14766 20 9.44766 20 10.831C20 12.2143 19.7375 13.5143 19.2125 14.731C18.6875 15.9477 17.975 17.006 17.075 17.906C16.175 18.806 15.1167 19.5185 13.9 20.0435C12.6833 20.5685 11.3833 20.831 10 20.831ZM10 18.831C12.2333 18.831 14.125 18.056 15.675 16.506C17.225 14.956 18 13.0643 18 10.831C18 8.59766 17.225 6.70599 15.675 5.15599C14.125 3.60599 12.2333 2.83099 10 2.83099C7.76667 2.83099 5.875 3.60599 4.325 5.15599C2.775 6.70599 2 8.59766 2 10.831C2 13.0643 2.775 14.956 4.325 16.506C5.875 18.056 7.76667 18.831 10 18.831Z" fill="#65558F"/>
</svg>
