<svg width="25" height="25" viewBox="0 0 25 25" fill="none" xmlns="http://www.w3.org/2000/svg">
<path d="M12.9543 1C10.9574 1.00062 8.99815 1.54286 7.2851 2.56895C5.57207 3.59506 4.16942 5.06658 3.22656 6.82681C2.2837 8.58704 1.83595 10.5701 1.93099 12.5646C2.02602 14.5592 2.66029 16.4907 3.76624 18.1532L1.91504 23.0786L8.11399 21.9576C9.60669 22.687 11.2448 23.0702 12.9061 23.0784C14.5675 23.0866 16.2093 22.7197 17.7091 22.0051C19.2089 21.2905 20.5282 20.2465 21.5683 18.9511C22.6085 17.6557 23.3431 16.1422 23.7168 14.5234C24.0907 12.9047 24.0945 11.2224 23.7276 9.602C23.3608 7.98161 22.633 6.46491 21.5985 5.16497C20.5639 3.86501 19.2492 2.81535 17.7525 2.0942C16.2558 1.37305 14.6157 0.999021 12.9543 1Z" stroke="#6750A4" stroke-width="2" stroke-linecap="round" stroke-linejoin="round"/>
</svg>
