<svg width="19" height="18" viewBox="0 0 19 18" fill="none" xmlns="http://www.w3.org/2000/svg">
<path d="M4.27294 8.47469L9.05951 11.3272C9.27051 11.4529 9.53345 11.4529 9.74445 11.3272L17.5266 6.68951C17.7443 6.55979 17.7443 6.24456 17.5266 6.11484L9.74445 1.47716C9.53345 1.35142 9.27051 1.35142 9.0595 1.47716L1.27737 6.11484C1.0597 6.24456 1.0597 6.55979 1.27737 6.68951L4.27294 8.47469ZM4.27294 8.47469L4.27294 13.5121C4.27294 13.741 4.38992 13.9539 4.58305 14.0767L8.70997 16.7C9.13461 16.9699 9.67478 16.9788 10.108 16.723L14.5944 14.0738C14.7982 13.9534 14.9233 13.7344 14.9233 13.4977L14.9233 8.47469" stroke="#154FE6" stroke-width="1.33797"/>
</svg>
