<?xml version="1.0" standalone="no"?><!DOCTYPE svg PUBLIC "-//W3C//DTD SVG 20010904//EN"
    "http://www.w3.org/TR/2001/REC-SVG-20010904/DTD/svg10.dtd">
<svg version="1.0" xmlns="http://www.w3.org/2000/svg" width="512.000000pt" height="512.000000pt"
    viewBox="0 0 512.000000 512.000000" preserveAspectRatio="xMidYMid meet">

    <g transform="translate(0.000000,512.000000) scale(0.100000,-0.100000)" fill="#000000" stroke="none">
        <path d="M2335 4313 c-569 -50 -1074 -283 -1474 -684 -277 -277 -517 -659
-631 -1002 l-33 -97 28 -78 c120 -339 403 -758 687 -1012 383 -344 796 -537
1315 -617 159 -24 577 -24 733 0 262 41 460 102 685 212 457 222 825 582 1094
1070 60 109 132 271 165 373 18 52 18 53 -9 135 -81 253 -259 572 -453 813
-415 516 -983 823 -1632 883 -106 10 -381 12 -475 4z m599 -622 c567 -115
1030 -488 1307 -1054 l49 -99 -50 -97 c-195 -380 -498 -692 -835 -860 -148
-74 -261 -114 -424 -148 -118 -26 -142 -27 -381 -28 -278 0 -354 9 -556 66
-475 133 -879 468 -1153 955 -28 51 -51 101 -51 113 0 49 146 304 260 456 290
383 684 631 1115 699 55 9 111 18 125 20 14 2 129 3 255 2 189 -3 249 -7 339
-25z" />
        <path d="M2440 3344 c-337 -66 -581 -283 -666 -594 -28 -101 -26 -301 4 -404
65 -225 217 -405 427 -506 128 -62 189 -74 355 -74 166 0 227 12 355 74 167
80 290 202 371 365 55 113 74 184 81 310 21 375 -225 707 -602 810 -59 16
-275 28 -325 19z m220 -616 c85 -44 124 -126 106 -224 -11 -57 -89 -129 -154
-143 -101 -21 -213 31 -248 116 -30 71 -9 167 48 220 60 56 171 70 248 31z" />
    </g>
</svg>
