<svg width="21" height="16" viewBox="0 0 21 16" fill="none" xmlns="http://www.w3.org/2000/svg">
<path d="M2.49884 16C1.94884 16 1.47801 15.8042 1.08634 15.4125C0.694674 15.0208 0.49884 14.55 0.49884 14V2C0.49884 1.45 0.694674 0.979167 1.08634 0.5875C1.47801 0.195833 1.94884 0 2.49884 0H18.4988C19.0488 0 19.5197 0.195833 19.9113 0.5875C20.303 0.979167 20.4988 1.45 20.4988 2V14C20.4988 14.55 20.303 15.0208 19.9113 15.4125C19.5197 15.8042 19.0488 16 18.4988 16H2.49884ZM10.4988 9L2.49884 4V14H18.4988V4L10.4988 9ZM10.4988 7L18.4988 2H2.49884L10.4988 7ZM2.49884 4V2V14V4Z" fill="#65558F"/>
</svg>
