<svg width="19" height="20" viewBox="0 0 19 20" fill="none" xmlns="http://www.w3.org/2000/svg">
<path d="M14 2.95674C13.1195 2.95604 12.2554 3.19453 11.5 3.64674C10.9523 2.38952 9.99039 1.35788 8.77454 0.723591C7.55869 0.0893041 6.16226 -0.109345 4.81776 0.160723C3.47327 0.430791 2.26186 1.15328 1.38526 2.20787C0.508656 3.26247 0.019767 4.58553 0 5.95674V9.95674C0.00143584 11.3736 0.504246 12.7443 1.41939 13.826C2.33452 14.9077 3.60294 15.6306 5 15.8667V18.9567C5 19.222 5.10536 19.4763 5.29289 19.6638C5.48043 19.8514 5.73478 19.9567 6 19.9567C6.26522 19.9567 6.51957 19.8514 6.70711 19.6638C6.89464 19.4763 7 19.222 7 18.9567V15.8667C8.01873 15.6899 8.97554 15.2563 9.78 14.6067C10.137 15.1797 10.6064 15.6745 11.1598 16.0612C11.7132 16.4479 12.3392 16.7185 13 16.8567V18.9567C13 19.222 13.1054 19.4763 13.2929 19.6638C13.4804 19.8514 13.7348 19.9567 14 19.9567C14.2652 19.9567 14.5196 19.8514 14.7071 19.6638C14.8946 19.4763 15 19.222 15 18.9567V16.8567C16.1294 16.6262 17.1444 16.0126 17.8733 15.1196C18.6022 14.2267 19.0002 13.1094 19 11.9567V7.95674C19 6.63065 18.4732 5.35888 17.5355 4.4212C16.5979 3.48352 15.3261 2.95674 14 2.95674ZM9 7.95674V11.9567C9.00957 12.1477 9.0296 12.338 9.06 12.5267C8.52519 13.1637 7.80512 13.6181 7 13.8267V10.9567C7 10.6915 6.89464 10.4372 6.70711 10.2496C6.51957 10.0621 6.26522 9.95674 6 9.95674C5.73478 9.95674 5.48043 10.0621 5.29289 10.2496C5.10536 10.4372 5 10.6915 5 10.9567V13.8167C4.14353 13.5956 3.38451 13.0968 2.84169 12.3984C2.29887 11.7 2.00287 10.8413 2 9.95674V5.95674C1.99739 5.1643 2.23022 4.38895 2.66894 3.72904C3.10766 3.06912 3.7325 2.55439 4.4642 2.25014C5.19591 1.94589 6.0015 1.86583 6.77877 2.02011C7.55604 2.1744 8.26998 2.55608 8.83 3.11674C9.37135 3.66537 9.7399 4.36074 9.89 5.11674C9.31193 5.95112 9.00151 6.94168 9 7.95674ZM17 11.9567C16.9983 12.5757 16.8051 13.1789 16.4471 13.6838C16.089 14.1887 15.5835 14.5704 15 14.7767V10.9567C15 10.6915 14.8946 10.4372 14.7071 10.2496C14.5196 10.0621 14.2652 9.95674 14 9.95674C13.7348 9.95674 13.4804 10.0621 13.2929 10.2496C13.1054 10.4372 13 10.6915 13 10.9567V14.7767C12.4165 14.5704 11.911 14.1887 11.5529 13.6838C11.1949 13.1789 11.0017 12.5757 11 11.9567V7.95674C11 7.16109 11.3161 6.39803 11.8787 5.83542C12.4413 5.27281 13.2044 4.95674 14 4.95674C14.7956 4.95674 15.5587 5.27281 16.1213 5.83542C16.6839 6.39803 17 7.16109 17 7.95674V11.9567Z" fill="#3A6F2D"/>
</svg>
