<svg width="25" height="25" viewBox="0 0 25 25" fill="none" xmlns="http://www.w3.org/2000/svg">
<path d="M21.9737 12.4995H9.3199M4.85345 12.4995H3.02631M4.85345 12.4995C4.85345 11.9073 5.08868 11.3394 5.50739 10.9207C5.92611 10.502 6.49401 10.2668 7.08616 10.2668C7.67832 10.2668 8.24622 10.502 8.66493 10.9207C9.08365 11.3394 9.31888 11.9073 9.31888 12.4995C9.31888 13.0916 9.08365 13.6595 8.66493 14.0783C8.24622 14.497 7.67832 14.7322 7.08616 14.7322C6.49401 14.7322 5.92611 14.497 5.50739 14.0783C5.08868 13.6595 4.85345 13.0916 4.85345 12.4995ZM21.9737 19.2663H16.0867M16.0867 19.2663C16.0867 19.8585 15.8509 20.4271 15.4321 20.8459C15.0133 21.2647 14.4452 21.5 13.8529 21.5C13.2608 21.5 12.6929 21.2637 12.2742 20.845C11.8554 20.4263 11.6202 19.8584 11.6202 19.2663M16.0867 19.2663C16.0867 18.674 15.8509 18.1065 15.4321 17.6876C15.0133 17.2688 14.4452 17.0335 13.8529 17.0335C13.2608 17.0335 12.6929 17.2688 12.2742 17.6875C11.8554 18.1062 11.6202 18.6741 11.6202 19.2663M11.6202 19.2663H3.02631M21.9737 5.73272H18.7936M14.3271 5.73272H3.02631M14.3271 5.73272C14.3271 5.14056 14.5624 4.57266 14.9811 4.15395C15.3998 3.73523 15.9677 3.5 16.5598 3.5C16.8531 3.5 17.1434 3.55775 17.4143 3.66996C17.6852 3.78216 17.9313 3.94662 18.1386 4.15395C18.3459 4.36127 18.5104 4.60741 18.6226 4.87829C18.7348 5.14918 18.7926 5.43951 18.7926 5.73272C18.7926 6.02592 18.7348 6.31626 18.6226 6.58714C18.5104 6.85803 18.3459 7.10416 18.1386 7.31149C17.9313 7.51881 17.6852 7.68327 17.4143 7.79548C17.1434 7.90768 16.8531 7.96543 16.5598 7.96543C15.9677 7.96543 15.3998 7.7302 14.9811 7.31149C14.5624 6.89277 14.3271 6.32487 14.3271 5.73272Z" stroke="#66686C" stroke-width="1.2" stroke-miterlimit="10" stroke-linecap="round"/>
</svg>
