<?xml version="1.0" encoding="UTF-8" standalone="no"?>
<svg
   width="172.09409"
   height="65.52578"
   viewBox="0 0 172.09409 65.52578"
   fill="none"
   version="1.1"
   id="svg24"
   xmlns="http://www.w3.org/2000/svg"
   xmlns:svg="http://www.w3.org/2000/svg">
  <g
     id="g24"
     transform="translate(-0.95295999,-0.95296001)">
    <path
       d="m 36.0577,26.88 v 25.1189 c 0,9.2477 -7.2581,13.4328 -16.6417,13.4328 -2.9658,0 -6.1788,-0.416 -9.42061,-1.2564 -1.84952,-0.4531 -2.7228,-1.7094 -2.7228,-3.5919 v -4.4858 c 0,-0.2554 0.21008,-0.412 0.45724,-0.3461 3.87207,1.0051 7.42287,1.726 10.63577,1.726 4.7083,0 7.9913,-1.5694 7.9913,-5.4786 v -0.7291 c -1.7095,0.1401 -3.3489,0.206 -4.8854,0.206 C 9.25806,51.4758 2,47.0106 2,33.7179 2,20.421 9.25806,15.9229 21.4715,15.9229 c 10.1868,0 14.5862,3.1388 14.5862,10.9571 z m -9.7008,16.0484 v -14.582 c 0,-2.8587 -0.5602,-4.2551 -5.5486,-4.2551 -6.3848,0 -9.1076,2.4056 -9.1076,9.6307 0,7.2251 2.7228,9.5936 9.2106,9.5936 1.5736,0 3.386,-0.14 5.4456,-0.3872 z"
       fill="url(#paint0_linear_228_8095)"
       stroke="url(#paint1_linear_228_8095)"
       stroke-width="2.09408"
       stroke-miterlimit="10"
       id="path1"
       style="fill:url(#paint0_linear_228_8095);stroke:url(#paint1_linear_228_8095)" />
    <path
       d="m 74.7286,29.3229 v 11.5132 c 0,7.258 -3.3159,10.0138 -10.817,10.0138 h -7.9213 c -8.5144,0 -13.7128,-2.2697 -13.7128,-10.4669 0,-8.2343 5.2355,-10.504 13.7128,-10.504 h 9.0376 v -0.5602 c 0,-3.835 -3.0359,-5.5116 -8.1313,-5.5116 -2.5128,0 -5.7587,0.4202 -9.0005,1.0834 C 45.6964,25.3108 44.37,24.2974 44.37,22.0648 v -1.2934 c 0,-1.9196 1.0793,-3.1718 3.349,-3.629 3.802,-0.8033 7.501,-1.2235 10.5699,-1.2235 9.4577,0.0042 16.4397,4.0163 16.4397,13.404 z M 65.0279,40.35 v -3.5219 h -8.5474 c -4.2222,0 -5.0955,0.9762 -5.0955,3.559 0,2.5457 0.8733,3.5219 5.0584,3.5219 h 5.0955 c 2.9988,-0.0041 3.489,-1.2234 3.489,-3.559 z"
       fill="url(#paint2_linear_228_8095)"
       stroke="url(#paint3_linear_228_8095)"
       stroke-width="2.09408"
       stroke-miterlimit="10"
       id="path2"
       style="fill:url(#paint2_linear_228_8095);stroke:url(#paint3_linear_228_8095)" />
    <path
       d="m 101.36,24.5072 h -9.4909 v 13.68 c 0,3.559 1.5694,5.0584 5.4085,5.0584 1.8496,0 3.0364,-0.3831 4.2554,-0.3831 2.166,0 3.003,0.8362 3.003,2.5456 v 1.7466 c 0,1.7795 -0.837,3.0688 -2.583,3.4189 C 90.8599,53.2223 81.9954,50.4006 81.9954,38.1872 V 8.59473 h 6.6648 c 1.7713,0 3.2089,1.43757 3.2089,3.20887 v 4.7453 h 9.4909 c 1.771,0 3.209,1.4376 3.209,3.2089 v 1.5365 c 0,1.7753 -1.438,3.2129 -3.209,3.2129 z"
       fill="url(#paint4_linear_228_8095)"
       stroke="url(#paint5_linear_228_8095)"
       stroke-width="2.09408"
       stroke-miterlimit="10"
       id="path3"
       style="fill:url(#paint4_linear_228_8095);stroke:url(#paint5_linear_228_8095)" />
    <path
       d="m 143.693,33.685 v 17.1689 h -6.492 c -1.771,0 -3.209,-1.4376 -3.209,-3.2089 V 33.6891 c 0,-7.3981 -2.723,-9.6307 -9.49,-9.6307 -1.5,0 -3.209,0.103 -5.166,0.2471 V 50.858 h -6.488 c -1.771,0 -3.209,-1.4376 -3.209,-3.2089 V 2 h 6.521 c 1.755,0 3.18,1.42113 3.18,3.18003 V 16.133 c 1.677,-0.14 3.316,-0.2101 4.853,-0.2101 12.242,0 19.5,4.4653 19.5,17.7621 z"
       fill="url(#paint6_linear_228_8095)"
       stroke="url(#paint7_linear_228_8095)"
       stroke-width="2.09408"
       stroke-miterlimit="10"
       id="path4"
       style="fill:url(#paint6_linear_228_8095);stroke:url(#paint7_linear_228_8095)" />
    <path
       d="m 172,19.412 v 2.0225 c 0,2.0596 -1.224,3.213 -3.522,3.246 -7.328,0.107 -7.641,0.7332 -7.641,3.353 v 19.6116 c 0,2.0596 -1.149,3.2088 -3.209,3.2088 h -3.456 c -2.06,0 -3.209,-1.1492 -3.209,-3.2088 v -21.008 c 0,-7.9913 2.859,-10.1539 17.618,-10.401 2.233,-0.033 3.419,1.0833 3.419,3.1759 z"
       fill="url(#paint8_linear_228_8095)"
       stroke="url(#paint9_linear_228_8095)"
       stroke-width="2.09408"
       stroke-miterlimit="10"
       id="path5"
       style="fill:url(#paint8_linear_228_8095);stroke:url(#paint9_linear_228_8095)" />
  </g>
  <defs
     id="defs24">
    <linearGradient
       id="paint0_linear_228_8095"
       x1="19.028299"
       y1="65.435799"
       x2="19.028299"
       y2="15.9223"
       gradientUnits="userSpaceOnUse">
      <stop
         offset="1.37753e-07"
         stop-color="#DC5770"
         id="stop5" />
      <stop
         offset="1"
         stop-color="#8C28CB"
         id="stop6" />
    </linearGradient>
    <linearGradient
       id="paint1_linear_228_8095"
       x1="19.028299"
       y1="66.482803"
       x2="19.028299"
       y2="14.8752"
       gradientUnits="userSpaceOnUse">
      <stop
         offset="1.37753e-07"
         stop-color="#DC5770"
         id="stop7" />
      <stop
         offset="1"
         stop-color="#8C28CB"
         id="stop8" />
    </linearGradient>
    <linearGradient
       id="paint2_linear_228_8095"
       x1="58.501999"
       y1="50.851101"
       x2="58.501999"
       y2="15.9225"
       gradientUnits="userSpaceOnUse">
      <stop
         offset="1.37753e-07"
         stop-color="#DC5770"
         id="stop9" />
      <stop
         offset="1"
         stop-color="#8C28CB"
         id="stop10" />
    </linearGradient>
    <linearGradient
       id="paint3_linear_228_8095"
       x1="58.501999"
       y1="51.898102"
       x2="58.501999"
       y2="14.8754"
       gradientUnits="userSpaceOnUse">
      <stop
         offset="1.37753e-07"
         stop-color="#DC5770"
         id="stop11" />
      <stop
         offset="1"
         stop-color="#8C28CB"
         id="stop12" />
    </linearGradient>
    <linearGradient
       id="paint4_linear_228_8095"
       x1="93.282501"
       y1="51.4856"
       x2="93.282501"
       y2="8.5956697"
       gradientUnits="userSpaceOnUse">
      <stop
         offset="1.37753e-07"
         stop-color="#DC5770"
         id="stop13" />
      <stop
         offset="1"
         stop-color="#8C28CB"
         id="stop14" />
    </linearGradient>
    <linearGradient
       id="paint5_linear_228_8095"
       x1="93.282501"
       y1="52.5326"
       x2="93.282501"
       y2="7.5486102"
       gradientUnits="userSpaceOnUse">
      <stop
         offset="1.37753e-07"
         stop-color="#DC5770"
         id="stop15" />
      <stop
         offset="1"
         stop-color="#8C28CB"
         id="stop16" />
    </linearGradient>
    <linearGradient
       id="paint6_linear_228_8095"
       x1="126.664"
       y1="50.851002"
       x2="126.664"
       y2="2"
       gradientUnits="userSpaceOnUse">
      <stop
         offset="1.37753e-07"
         stop-color="#DC5770"
         id="stop17" />
      <stop
         offset="1"
         stop-color="#8C28CB"
         id="stop18" />
    </linearGradient>
    <linearGradient
       id="paint7_linear_228_8095"
       x1="126.664"
       y1="51.897999"
       x2="126.664"
       y2="0.95297903"
       gradientUnits="userSpaceOnUse">
      <stop
         offset="1.37753e-07"
         stop-color="#DC5770"
         id="stop19" />
      <stop
         offset="1"
         stop-color="#8C28CB"
         id="stop20" />
    </linearGradient>
    <linearGradient
       id="paint8_linear_228_8095"
       x1="161.48"
       y1="50.851002"
       x2="161.48"
       y2="16.2353"
       gradientUnits="userSpaceOnUse">
      <stop
         offset="1.37753e-07"
         stop-color="#DC5770"
         id="stop21" />
      <stop
         offset="1"
         stop-color="#8C28CB"
         id="stop22" />
    </linearGradient>
    <linearGradient
       id="paint9_linear_228_8095"
       x1="161.48"
       y1="51.898102"
       x2="161.48"
       y2="15.1883"
       gradientUnits="userSpaceOnUse">
      <stop
         offset="1.37753e-07"
         stop-color="#DC5770"
         id="stop23" />
      <stop
         offset="1"
         stop-color="#8C28CB"
         id="stop24" />
    </linearGradient>
  </defs>
</svg>
