<svg width="11" height="14" viewBox="0 0 11 14" fill="none" xmlns="http://www.w3.org/2000/svg">
<path d="M1.80016 13.5H8.69953C9.31828 13.5 9.81047 12.9909 9.74391 12.4044C9.31422 8.625 6.74985 8.6875 6.74985 7C6.74985 5.3125 9.34703 5.40625 9.7436 1.59562C9.8061 1.00875 9.31828 0.5 8.69953 0.5H1.80016C1.18141 0.5 0.694846 1.00875 0.756096 1.59562C1.15266 5.40625 3.74985 5.28125 3.74985 7C3.74985 8.71875 1.18547 8.625 0.756096 12.4044C0.689221 12.9909 1.18141 13.5 1.80016 13.5Z" stroke="#9FA3B2" stroke-linecap="round" stroke-linejoin="round"/>
<path d="M2.83994 3.89079L2.83994 3.89078C2.78102 3.81014 2.75643 3.71543 2.78066 3.64271C2.80417 3.57214 2.87625 3.51562 3.02638 3.51562H7.4867C7.61304 3.51562 7.6864 3.57093 7.71566 3.64277C7.74537 3.71569 7.73135 3.80967 7.67402 3.88931L7.67401 3.88932C7.34865 4.34219 6.9241 4.68614 6.55449 4.98558C6.51452 5.01797 6.47519 5.04983 6.4367 5.08126C6.23989 5.24193 6.06455 5.39149 5.93845 5.54024C5.81234 5.68901 5.73388 5.83881 5.73388 6V9.1875C5.73388 9.43119 5.84516 9.64579 6.02191 9.84446C6.19852 10.043 6.4416 10.2268 6.70759 10.4092C6.81456 10.4826 6.92506 10.5556 7.03658 10.6293C7.20318 10.7394 7.37204 10.8509 7.53483 10.9674C7.80616 11.1616 8.05835 11.3678 8.24996 11.5996C8.40273 11.7845 8.45141 12.0069 8.40381 12.1818C8.38004 12.2691 8.33234 12.3446 8.26162 12.3982C8.19093 12.4518 8.09633 12.4844 7.97763 12.4844H2.53482C2.29821 12.4844 2.14798 12.3485 2.09727 12.1709C2.04634 11.9924 2.09557 11.7704 2.26282 11.5997C2.46863 11.3911 2.7272 11.197 2.99998 11.0078C3.11046 10.9312 3.22345 10.8553 3.33613 10.7796C3.50105 10.6688 3.66531 10.5584 3.82005 10.447C4.08084 10.2592 4.3168 10.0668 4.48763 9.8605C4.65856 9.65413 4.76513 9.43282 4.76513 9.1875V6C4.76513 5.83968 4.68836 5.6903 4.56448 5.54168C4.44063 5.39309 4.26817 5.24347 4.07388 5.08269C4.03226 5.04824 3.98962 5.01327 3.9462 4.97766C3.58349 4.68018 3.16674 4.33838 2.83994 3.89079Z" fill="black" stroke="#9FA3B2" stroke-width="0.03125"/>
</svg>
