<svg width="35" height="36" viewBox="0 0 35 36" fill="none" xmlns="http://www.w3.org/2000/svg">
<rect y="0.900391" width="35" height="35" rx="17.5" fill="#DFF5E1"/>
<path d="M15.8712 14.0626L17.6973 15.8903C18.585 16.7924 19.9775 16.7924 20.8365 15.9334L17.739 12.8359M17.7476 12.8445C15.8961 10.993 12.6361 10.7347 10.7846 12.5861C8.93315 14.4375 8.93315 17.4393 10.7846 19.2907M15.841 14.0813L11.1617 18.7607C10.7446 19.1776 10.7629 19.8535 11.1799 20.2704C11.5967 20.6874 12.2727 20.6872 12.6896 20.2703M15.8375 17.133L12.6858 20.2848C12.2688 20.7018 12.287 21.3777 12.704 21.7946C13.1209 22.2115 13.7969 22.2115 14.2137 21.7945L17.3654 18.6427M14.2099 21.8089C13.7929 22.2259 13.8112 22.9019 14.2281 23.3187C14.645 23.7356 15.321 23.7355 15.7379 23.3187M23.6513 19.6801L24.0795 19.2519C25.931 17.4004 26.1893 14.1404 24.3379 12.289C22.4864 10.4375 19.4847 10.4375 17.6332 12.289L17.5032 12.4198M17.0905 25.5967C17.5074 26.0136 18.1834 25.9954 18.6003 25.5784C19.0173 25.1615 19.0171 24.4856 18.6003 24.0687L17.541 23.0094C17.1241 22.5924 16.448 22.6107 16.0312 23.0276C15.6142 23.4445 15.6143 24.1204 16.0312 24.5373L17.0905 25.5967ZM18.6147 24.0725C19.0317 24.4894 19.7076 24.4713 20.1244 24.0543C20.5415 23.6374 20.5413 22.9614 20.1244 22.5445L19.0652 21.4853C18.6481 21.0683 17.9721 21.0865 17.5553 21.5034C17.1384 21.9203 17.1385 22.5963 17.5553 23.0132L18.6147 24.0725ZM20.1388 22.5484C20.5557 22.9653 21.2317 22.9471 21.6487 22.5302C22.0655 22.1132 22.0654 21.4373 21.6486 21.0204L20.5893 19.9611C20.1723 19.5441 19.4963 19.5624 19.0795 19.9793C18.6625 20.3962 18.6626 21.0722 19.0795 21.4891L20.1388 22.5484ZM21.663 21.0242C22.0799 21.4411 22.7559 21.423 23.1728 21.0061C23.5897 20.5891 23.5896 19.9131 23.1727 19.4963L22.1134 18.4369C21.6964 18.02 21.0205 18.0382 20.6036 18.4552C20.1867 18.8721 20.1868 19.5481 20.6036 19.9649L21.663 21.0242Z" stroke="#2E7D32" stroke-width="1.125" stroke-linecap="round"/>
</svg>
