<svg width="15" height="19" viewBox="0 0 15 19" fill="none" xmlns="http://www.w3.org/2000/svg">
<path d="M10.0001 1V4.1875C10.0001 4.7743 10.4478 5.25 11.0001 5.25H14M4.50023 5.25H6.50018M4.50023 8.4375H10.5001M4.50023 11.625H10.5001M12.5 2.59375C12.055 2.17065 11.5932 1.66882 11.3016 1.3429C11.1076 1.12603 10.8395 1 10.5579 1H3.00003C1.89549 1 1.00008 1.95139 1.00008 3.12499L1 15.8749C0.999993 17.0486 1.8954 18 2.99994 18L11.9998 18C13.1043 18 13.9997 17.0486 13.9997 15.8751L14 4.61058C14 4.3389 13.9025 4.07774 13.725 3.88215C13.3968 3.52047 12.8488 2.92535 12.5 2.59375Z" stroke="#65558F" stroke-width="2" stroke-linecap="round" stroke-linejoin="round"/>
</svg>
