<svg width="19" height="17" viewBox="0 0 19 17" fill="none" xmlns="http://www.w3.org/2000/svg">
<path d="M11.4227 7.54227H10.4717V6.57891C10.4717 6.32341 10.3715 6.07837 10.1932 5.8977C10.0149 5.71704 9.77299 5.61554 9.52079 5.61554C9.26859 5.61554 9.02671 5.71704 8.84837 5.8977C8.67004 6.07837 8.56985 6.32341 8.56985 6.57891V7.54227H7.61891C7.36671 7.54227 7.12483 7.64377 6.9465 7.82444C6.76816 8.0051 6.66797 8.25014 6.66797 8.50564C6.66797 8.76114 6.76816 9.00618 6.9465 9.18684C7.12483 9.36751 7.36671 9.46901 7.61891 9.46901H8.56985V10.4324C8.56985 10.6879 8.67004 10.9329 8.84837 11.1136C9.02671 11.2942 9.26859 11.3957 9.52079 11.3957C9.77299 11.3957 10.0149 11.2942 10.1932 11.1136C10.3715 10.9329 10.4717 10.6879 10.4717 10.4324V9.46901H11.4227C11.6749 9.46901 11.9167 9.36751 12.0951 9.18684C12.2734 9.00618 12.3736 8.76114 12.3736 8.50564C12.3736 8.25014 12.2734 8.0051 12.0951 7.82444C11.9167 7.64377 11.6749 7.54227 11.4227 7.54227ZM17.2804 1.76207C16.2665 0.74543 14.9272 0.129421 13.5043 0.0251955C12.0814 -0.0790302 10.6686 0.335391 9.52079 1.19368C8.31087 0.281986 6.8049 -0.13142 5.30615 0.036713C3.80741 0.204846 2.42721 0.942028 1.44349 2.09981C0.45978 3.25759 -0.0543779 4.74997 0.00456013 6.27642C0.0634982 7.80287 0.691154 9.25001 1.76113 10.3264L7.46676 16.1548C8.00167 16.696 8.72675 17 9.48275 17C10.2388 17 10.9638 16.696 11.4987 16.1548L17.2044 10.3264C17.7663 9.7702 18.2142 9.10698 18.5223 8.37485C18.8304 7.64272 18.9927 6.85612 18.9998 6.06026C19.0068 5.2644 18.8586 4.47497 18.5635 3.73734C18.2685 2.99971 17.8324 2.32843 17.2804 1.76207ZM15.9396 8.94879L10.234 14.729C10.1456 14.8193 10.0404 14.891 9.92454 14.9399C9.80865 14.9888 9.68436 15.014 9.55883 15.014C9.43329 15.014 9.309 14.9888 9.19312 14.9399C9.07724 14.891 8.97206 14.8193 8.88366 14.729L3.17803 8.94879C2.43226 8.1765 2.01466 7.13907 2.01466 6.05869C2.01466 4.9783 2.43226 3.94087 3.17803 3.16858C3.93798 2.40848 4.96292 1.98226 6.03085 1.98226C7.09877 1.98226 8.12371 2.40848 8.88366 3.16858C8.97206 3.25888 9.07724 3.33055 9.19312 3.37946C9.309 3.42837 9.43329 3.45355 9.55883 3.45355C9.68436 3.45355 9.80865 3.42837 9.92454 3.37946C10.0404 3.33055 10.1456 3.25888 10.234 3.16858C10.9939 2.40848 12.0189 1.98226 13.0868 1.98226C14.1547 1.98226 15.1797 2.40848 15.9396 3.16858C16.6911 3.94173 17.1123 4.98326 17.1123 6.06832C17.1123 7.15338 16.6911 8.19491 15.9396 8.96806V8.94879Z" fill="#65558F"/>
</svg>
