<svg width="18" height="16" viewBox="0 0 18 16" fill="none" xmlns="http://www.w3.org/2000/svg">
<path d="M15.759 0L13.2291 0.00450354L13.032 0.00342273L12.9342 0.171135L11.6968 2.2923L9.57561 2.29681L8.45196 0.373794L8.35738 0.20374L8.16038 0.201579L5.63054 0.206046L5.43239 0.204893L5.33554 0.372641L4.11058 2.47352L1.74849 2.47803L1.55142 2.47695L1.45349 2.6447L0.189149 4.81317L0.0923046 4.98092L0.192463 5.14982L1.31388 7.06941L0.097925 9.15682L0 9.32456L0.100231 9.49346L1.36573 11.6585L1.45915 11.8297L1.6573 11.8308L4.10046 11.8263L5.21842 13.7369L5.31191 13.908L5.51007 13.9092L7.94536 13.9047L9.06898 15.8277L9.16359 15.9977L9.36066 16L11.8905 15.9955L12.0819 15.9988L12.1799 15.8311L13.4104 13.7279L15.7726 13.7234L15.964 13.7268L16.0608 13.5591L17.3319 11.3884L17.4287 11.2206L17.3286 11.0517L16.0631 8.88664L15.9696 8.71659L15.7714 8.71442L13.3362 8.71889L12.3566 7.04357L13.5433 5.01359L15.7602 5.00909L15.9516 5.01251L16.0484 4.84476L17.3184 2.67406L17.4164 2.50627L17.3161 2.33737L16.0506 0.172288L15.9572 0.00230578L15.759 7.20171e-05L15.759 0ZM15.5664 0.672144L16.6293 2.51298L15.5654 4.33918L13.4228 4.34253L12.3554 2.50851L13.4239 0.67445L15.5664 0.672144ZM4.08583 3.1457L5.14866 4.98654L4.08468 6.81274L1.94207 6.81613L0.874768 4.98203L1.94322 3.14801L4.08583 3.14574V3.1457ZM7.93744 5.23535L8.96533 7.01875L7.871 8.89673L5.78928 8.90011L4.72645 7.07286L5.7949 5.23877L7.93751 5.23538L7.93744 5.23535ZM11.7317 7.30136L12.79 9.13657L11.726 10.9639L9.58354 10.9661L8.5488 9.18834L9.64994 7.30474L11.7317 7.30136ZM15.5788 9.3865L16.6416 11.2274L15.5777 13.0536L13.4351 13.0558L12.3678 11.2229L13.4363 9.38877L15.5789 9.3865H15.5788ZM7.84964 9.57348L8.90909 11.4097L7.84517 13.2359L5.70256 13.2382L4.63522 11.4041L5.70022 9.57687L7.84956 9.57348H7.84964Z" fill="#8358D3"/>
</svg>
