<svg width="19" height="17" viewBox="0 0 19 17" fill="none" xmlns="http://www.w3.org/2000/svg">
<path d="M18.9691 10.0492C18.9657 9.99924 18.9575 9.94968 18.9448 9.90117L16.9543 4.68465C17.3166 4.45405 17.6145 4.13795 17.8209 3.76513C18.0274 3.39231 18.1358 2.97459 18.1364 2.55C18.1364 2.32457 18.0454 2.10837 17.8834 1.94896C17.7214 1.78955 17.5018 1.7 17.2727 1.7C17.0437 1.7 16.824 1.78955 16.662 1.94896C16.5001 2.10837 16.4091 2.32457 16.4091 2.55C16.409 2.73942 16.3447 2.92339 16.2263 3.07274C16.1079 3.22208 15.9423 3.32825 15.7556 3.37439C15.5689 3.42053 15.372 3.40401 15.1959 3.32745C15.0199 3.25089 14.8749 3.11867 14.7839 2.95176C14.5623 2.5646 14.2382 2.24376 13.8461 2.02335C13.4541 1.80295 13.0087 1.6912 12.5573 1.7H10.3636V0.85C10.3636 0.624566 10.2726 0.408365 10.1107 0.248959C9.94872 0.0895533 9.72905 0 9.5 0C9.27095 0 9.05128 0.0895533 8.88932 0.248959C8.72735 0.408365 8.63636 0.624566 8.63636 0.85V1.7H6.44273C5.99131 1.6912 5.54591 1.80295 5.15385 2.02335C4.7618 2.24376 4.43775 2.5646 4.21614 2.95176C4.12513 3.11867 3.98011 3.25089 3.80407 3.32745C3.62804 3.40401 3.43106 3.42053 3.2444 3.37439C3.05774 3.32825 2.89208 3.22208 2.77369 3.07274C2.65531 2.92339 2.59098 2.73942 2.59091 2.55C2.59091 2.32457 2.49992 2.10837 2.33796 1.94896C2.17599 1.78955 1.95632 1.7 1.72727 1.7C1.49822 1.7 1.27855 1.78955 1.11659 1.94896C0.954626 2.10837 0.863636 2.32457 0.863636 2.55C0.864202 2.97459 0.972639 3.39231 1.17908 3.76513C1.38552 4.13795 1.68342 4.45405 2.04565 4.68465L0.0552727 9.90117C0.0424961 9.94968 0.0343455 9.99924 0.0309268 10.0492C0.01576 10.0984 0.00540396 10.1489 0 10.2C0 10.2079 0.00232322 10.2151 0.00237503 10.223C0.00263412 10.2342 0.00496588 10.2446 0.00574316 10.2557C0.0191901 11.1472 0.388461 11.9977 1.03377 12.6235C1.67909 13.2493 2.54863 13.6 3.45455 13.6C4.36046 13.6 5.23 13.2493 5.87532 12.6235C6.52063 11.9977 6.8899 11.1472 6.90335 10.2557C6.90408 10.2446 6.90646 10.2342 6.90672 10.223C6.90677 10.2151 6.90909 10.2079 6.90909 10.2C6.9037 10.1489 6.89335 10.0984 6.8782 10.0492C6.87478 9.99924 6.86663 9.94968 6.85385 9.90117L4.86112 4.67858C5.22709 4.44871 5.52826 4.13172 5.73677 3.75693C5.81214 3.64157 5.91709 3.54782 6.04104 3.48515C6.16499 3.42248 6.30355 3.39311 6.44273 3.4H8.63636V15.3H6.04545C5.8164 15.3 5.59674 15.3896 5.43477 15.549C5.27281 15.7084 5.18182 15.9246 5.18182 16.15C5.18182 16.3754 5.27281 16.5916 5.43477 16.751C5.59674 16.9104 5.8164 17 6.04545 17H12.9545C13.1836 17 13.4033 16.9104 13.5652 16.751C13.7272 16.5916 13.8182 16.3754 13.8182 16.15C13.8182 15.9246 13.7272 15.7084 13.5652 15.549C13.4033 15.3896 13.1836 15.3 12.9545 15.3H10.3636V3.4H12.5573C12.6964 3.39311 12.835 3.42249 12.9589 3.48516C13.0829 3.54783 13.1878 3.64157 13.2632 3.75693C13.4717 4.13172 13.7729 4.44871 14.1389 4.67858L12.1462 9.90117C12.1334 9.94968 12.1253 9.99924 12.1218 10.0492C12.1067 10.0984 12.0963 10.1489 12.0909 10.2C12.0909 10.2079 12.0932 10.2151 12.0933 10.223C12.0935 10.2342 12.0959 10.2446 12.0967 10.2557C12.1101 11.1472 12.4794 11.9977 13.1247 12.6235C13.77 13.2493 14.6395 13.6 15.5455 13.6C16.4514 13.6 17.3209 13.2493 17.9662 12.6235C18.6115 11.9977 18.9808 11.1472 18.9943 10.2557C18.995 10.2446 18.9974 10.2342 18.9976 10.223C18.9977 10.2151 19 10.2079 19 10.2C18.9946 10.1489 18.9843 10.0984 18.9691 10.0492ZM3.45455 5.8272L4.79871 9.35H2.11038L3.45455 5.8272ZM4.9423 11.05C4.78988 11.306 4.57277 11.5188 4.31207 11.6677C4.05138 11.8166 3.75596 11.8967 3.45455 11.9C3.15144 11.8999 2.85369 11.8213 2.59122 11.6721C2.32874 11.5229 2.11077 11.3083 1.9592 11.05H4.9423ZM15.5455 5.8272L16.8896 9.35H14.2013L15.5455 5.8272ZM15.5455 11.9C15.2423 11.8999 14.9446 11.8213 14.6821 11.6721C14.4197 11.5229 14.2017 11.3083 14.0501 11.05H17.0332C16.8808 11.306 16.6637 11.5188 16.403 11.6677C16.1423 11.8166 15.8469 11.8967 15.5455 11.9Z" fill="#65558F"/>
</svg>
