<svg width="17" height="17" viewBox="0 0 17 17" fill="none" xmlns="http://www.w3.org/2000/svg">
<path d="M14.45 5.09993H13.6V2.54996C13.6 1.87367 13.3313 1.22508 12.8531 0.746867C12.3749 0.268656 11.7263 0 11.05 0H2.55C1.8737 0 1.2251 0.268656 0.746878 0.746867C0.26866 1.22508 0 1.87367 0 2.54996V12.7498C0.000837659 12.9176 0.0513297 13.0814 0.145113 13.2206C0.238896 13.3598 0.371774 13.468 0.527 13.5318C0.627877 13.5794 0.7385 13.6027 0.85 13.5998C0.961866 13.6005 1.07276 13.579 1.17632 13.5367C1.27988 13.4944 1.37408 13.4321 1.4535 13.3533L3.842 10.9563H5.1V12.1803C5.1 12.8566 5.36866 13.5052 5.84688 13.9834C6.3251 14.4616 6.9737 14.7303 7.65 14.7303H13.532L15.5465 16.7533C15.6259 16.832 15.7201 16.8944 15.8237 16.9367C15.9272 16.979 16.0381 17.0004 16.15 16.9998C16.2615 17.0026 16.3721 16.9793 16.473 16.9318C16.6282 16.868 16.7611 16.7597 16.8549 16.6206C16.9487 16.4814 16.9992 16.3176 17 16.1498V7.64989C17 6.9736 16.7313 6.32501 16.2531 5.8468C15.7749 5.36858 15.1263 5.09993 14.45 5.09993ZM5.1 7.64989V9.25637H3.4935C3.38163 9.25572 3.27074 9.27717 3.16718 9.31946C3.06362 9.36176 2.96942 9.42409 2.89 9.50287L1.7 10.7014V2.54996C1.7 2.32453 1.78955 2.10834 1.94896 1.94893C2.10837 1.78953 2.32457 1.69998 2.55 1.69998H11.05C11.2754 1.69998 11.4916 1.78953 11.651 1.94893C11.8104 2.10834 11.9 2.32453 11.9 2.54996V5.09993H7.65C6.9737 5.09993 6.3251 5.36858 5.84688 5.8468C5.36866 6.32501 5.1 6.9736 5.1 7.64989ZM15.3 14.1013L14.45 13.2513C14.3713 13.171 14.2774 13.1071 14.1738 13.0633C14.0702 13.0196 13.959 12.9968 13.8465 12.9963H7.65C7.42457 12.9963 7.20837 12.9068 7.04896 12.7474C6.88955 12.588 6.8 12.3718 6.8 12.1463V7.64989C6.8 7.42446 6.88955 7.20826 7.04896 7.04886C7.20837 6.88946 7.42457 6.79991 7.65 6.79991H14.45C14.6754 6.79991 14.8916 6.88946 15.051 7.04886C15.2104 7.20826 15.3 7.42446 15.3 7.64989V14.1013Z" fill="#65558F"/>
</svg>
