<svg width="20" height="13" viewBox="0 0 20 13" fill="none" xmlns="http://www.w3.org/2000/svg">
<path d="M19.71 5.79002L14.71 0.790017C14.6166 0.697335 14.5057 0.62401 14.3839 0.574245C14.2621 0.524481 14.1316 0.499256 14 0.500017H3C2.20435 0.500017 1.44129 0.816087 0.87868 1.3787C0.316071 1.94131 0 2.70437 0 3.50002V9.50002C0 10.2957 0.316071 11.0587 0.87868 11.6213C1.44129 12.1839 2.20435 12.5 3 12.5H14C14.1316 12.5008 14.2621 12.4756 14.3839 12.4258C14.5057 12.376 14.6166 12.3027 14.71 12.21L19.71 7.21002C19.8037 7.11705 19.8781 7.00645 19.9289 6.88459C19.9797 6.76273 20.0058 6.63203 20.0058 6.50002C20.0058 6.368 19.9797 6.2373 19.9289 6.11544C19.8781 5.99358 19.8037 5.88298 19.71 5.79002ZM13.59 10.5H3C2.73478 10.5 2.48043 10.3947 2.29289 10.2071C2.10536 10.0196 2 9.76523 2 9.50002V3.50002C2 3.2348 2.10536 2.98045 2.29289 2.79291C2.48043 2.60537 2.73478 2.50002 3 2.50002H13.59L17.59 6.50002L13.59 10.5Z" fill="#65558F"/>
</svg>
