<svg width="17" height="17" viewBox="0 0 17 17" fill="none" xmlns="http://www.w3.org/2000/svg">
<path d="M6.9445 7.2674C7.01309 7.37318 7.10435 7.46238 7.21167 7.52853C7.31899 7.59469 7.43968 7.63614 7.565 7.64989C7.69087 7.66263 7.818 7.64712 7.93711 7.60447C8.05623 7.56183 8.16432 7.49313 8.2535 7.4034L9.214 6.43441L10.3445 8.13439C10.4234 8.24817 10.529 8.34094 10.6519 8.40464C10.7749 8.46834 10.9115 8.50103 11.05 8.49988C11.2171 8.50179 11.3806 8.45125 11.5175 8.35538C11.7038 8.23076 11.8334 8.03757 11.878 7.81788C11.9225 7.59819 11.8785 7.36979 11.7555 7.1824L10.0555 4.63243C9.98691 4.52665 9.89565 4.43745 9.78833 4.3713C9.68101 4.30514 9.56032 4.26369 9.435 4.24994C9.30913 4.2372 9.182 4.25272 9.06289 4.29536C8.94377 4.33801 8.83568 4.4067 8.7465 4.49644L7.786 5.46542L6.6555 3.76545C6.59959 3.66123 6.52255 3.56982 6.42931 3.49707C6.33606 3.42432 6.22865 3.37183 6.11396 3.34296C5.99927 3.31409 5.87982 3.30947 5.76324 3.3294C5.64666 3.34932 5.53552 3.39336 5.43693 3.45869C5.33835 3.52402 5.25448 3.6092 5.19069 3.70879C5.1269 3.80838 5.0846 3.92019 5.06648 4.03706C5.04837 4.15394 5.05485 4.2733 5.0855 4.38753C5.11616 4.50176 5.17031 4.60833 5.2445 4.70043L6.9445 7.2674ZM16.15 10.1999H15.3V1.69998H16.15C16.3754 1.69998 16.5916 1.61042 16.751 1.45102C16.9104 1.29162 17 1.07542 17 0.849988C17 0.624557 16.9104 0.408359 16.751 0.248956C16.5916 0.089552 16.3754 0 16.15 0H0.85C0.624566 0 0.408365 0.089552 0.248959 0.248956C0.0895533 0.408359 0 0.624557 0 0.849988C0 1.07542 0.0895533 1.29162 0.248959 1.45102C0.408365 1.61042 0.624566 1.69998 0.85 1.69998H1.7V10.1999H0.85C0.624566 10.1999 0.408365 10.2894 0.248959 10.4488C0.0895533 10.6082 0 10.8244 0 11.0498C0 11.2753 0.0895533 11.4915 0.248959 11.6509C0.408365 11.8103 0.624566 11.8998 0.85 11.8998H7.65V12.8773L3.7825 15.4273C3.62383 15.5255 3.5019 15.6732 3.4355 15.8476C3.36911 16.022 3.36195 16.2134 3.41513 16.3922C3.4683 16.5711 3.57886 16.7275 3.72974 16.8373C3.88063 16.9471 4.06345 17.0042 4.25 16.9998C4.41711 17.0017 4.58061 16.9511 4.7175 16.8553L7.65 14.9173V16.1498C7.65 16.3752 7.73955 16.5914 7.89896 16.7508C8.05837 16.9102 8.27457 16.9998 8.5 16.9998C8.72543 16.9998 8.94163 16.9102 9.10104 16.7508C9.26045 16.5914 9.35 16.3752 9.35 16.1498V14.9173L12.2825 16.8553C12.4194 16.9511 12.5829 17.0017 12.75 16.9998C12.9316 16.9984 13.108 16.9388 13.2533 16.8299C13.3986 16.721 13.5052 16.5684 13.5575 16.3944C13.6097 16.2205 13.6049 16.0344 13.5438 15.8635C13.4826 15.6925 13.3682 15.5456 13.2175 15.4443L9.35 12.8943V11.8998H16.15C16.3754 11.8998 16.5916 11.8103 16.751 11.6509C16.9104 11.4915 17 11.2753 17 11.0498C17 10.8244 16.9104 10.6082 16.751 10.4488C16.5916 10.2894 16.3754 10.1999 16.15 10.1999ZM13.6 10.1999H3.4V1.69998H13.6V10.1999Z" fill="#65558F"/>
</svg>
