<svg width="17" height="17" viewBox="0 0 17 17" fill="none" xmlns="http://www.w3.org/2000/svg">
<path d="M8.5 0C6.81886 0 5.17547 0.498516 3.77766 1.43251C2.37984 2.3665 1.29037 3.69402 0.647028 5.24719C0.00368291 6.80036 -0.164645 8.50943 0.163329 10.1583C0.491303 11.8071 1.30085 13.3217 2.4896 14.5104C3.67834 15.6992 5.1929 16.5087 6.84174 16.8367C8.49057 17.1646 10.1996 16.9963 11.7528 16.353C13.306 15.7096 14.6335 14.6202 15.5675 13.2223C16.5015 11.8245 17 10.1811 17 8.5C17 7.38376 16.7801 6.27846 16.353 5.24719C15.9258 4.21592 15.2997 3.27889 14.5104 2.48959C13.7211 1.70029 12.7841 1.07419 11.7528 0.647024C10.7215 0.219859 9.61624 0 8.5 0V0ZM9.35 15.2405V14.45C9.35 14.2246 9.26045 14.0084 9.10104 13.849C8.94164 13.6895 8.72544 13.6 8.5 13.6C8.27457 13.6 8.05837 13.6895 7.89896 13.849C7.73956 14.0084 7.65 14.2246 7.65 14.45V15.2405C6.15398 15.0508 4.76347 14.3692 3.69715 13.3028C2.63083 12.2365 1.94922 10.846 1.7595 9.35H2.55C2.77544 9.35 2.99164 9.26044 3.15104 9.10104C3.31045 8.94163 3.4 8.72543 3.4 8.5C3.4 8.27456 3.31045 8.05836 3.15104 7.89896C2.99164 7.73955 2.77544 7.65 2.55 7.65H1.7595C1.94922 6.15398 2.63083 4.76346 3.69715 3.69715C4.76347 2.63083 6.15398 1.94921 7.65 1.7595V2.55C7.65 2.77543 7.73956 2.99163 7.89896 3.15104C8.05837 3.31045 8.27457 3.4 8.5 3.4C8.72544 3.4 8.94164 3.31045 9.10104 3.15104C9.26045 2.99163 9.35 2.77543 9.35 2.55V1.7595C10.846 1.94921 12.2365 2.63083 13.3029 3.69715C14.3692 4.76346 15.0508 6.15398 15.2405 7.65H14.45C14.2246 7.65 14.0084 7.73955 13.849 7.89896C13.6896 8.05836 13.6 8.27456 13.6 8.5C13.6 8.72543 13.6896 8.94163 13.849 9.10104C14.0084 9.26044 14.2246 9.35 14.45 9.35H15.2405C15.0508 10.846 14.3692 12.2365 13.3029 13.3028C12.2365 14.3692 10.846 15.0508 9.35 15.2405ZM11.169 4.7175L6.919 6.5195C6.72088 6.60534 6.56285 6.76337 6.477 6.9615L4.675 11.2115C4.60806 11.3674 4.58928 11.5397 4.6211 11.7063C4.65291 11.873 4.73385 12.0263 4.8535 12.1465C5.01044 12.3066 5.2243 12.3983 5.4485 12.4015C5.56612 12.4016 5.68227 12.3755 5.7885 12.325L10.0385 10.523C10.2366 10.4372 10.3947 10.2791 10.4805 10.081L12.2825 5.831C12.3482 5.67524 12.3659 5.50344 12.3335 5.33754C12.301 5.17164 12.2199 5.01919 12.1003 4.89966C11.9808 4.78013 11.8284 4.69895 11.6625 4.6665C11.4966 4.63406 11.3248 4.65181 11.169 4.7175V4.7175ZM9.0525 9.0525L7.1145 9.9025L7.9645 7.9645L9.9025 7.1145L9.0525 9.0525Z" fill="#65558F"/>
</svg>
