<svg width="22" height="20" viewBox="0 0 22 20" fill="none" xmlns="http://www.w3.org/2000/svg">
<path fill-rule="evenodd" clip-rule="evenodd" d="M3.14756 3.24077C4.04769 2.34091 5.26837 1.8354 6.54116 1.8354C7.81395 1.8354 9.03463 2.34091 9.93476 3.24077L11.3412 4.64597L12.7476 3.24077C13.1903 2.78232 13.72 2.41665 14.3056 2.16509C14.8912 1.91352 15.5211 1.78111 16.1584 1.77557C16.7958 1.77003 17.4278 1.89148 18.0177 2.13283C18.6076 2.37418 19.1436 2.73059 19.5943 3.18128C20.0449 3.63196 20.4014 4.16789 20.6427 4.75779C20.884 5.3477 21.0055 5.97976 21 6.6171C20.9944 7.25444 20.862 7.8843 20.6104 8.46992C20.3589 9.05553 19.9932 9.58519 19.5348 10.028L11.3412 18.2228L3.14756 10.028C2.2477 9.12784 1.74219 7.90716 1.74219 6.63437C1.74219 5.36159 2.2477 4.14091 3.14756 3.24077Z" stroke="#6750A4" stroke-width="2" stroke-linejoin="round"/>
</svg>
