<svg width="17" height="17" viewBox="0 0 17 17" fill="none" xmlns="http://www.w3.org/2000/svg">
<path d="M2.1248 5.10019L14.8748 5.1002M2.1248 11.9002L14.8748 11.9002M8.4998 1.7002L8.4998 15.3002M11.8998 1.7002L11.8998 5.1002M11.8998 11.9002L11.8998 15.3002M5.0998 1.70019L5.0998 5.10019M5.0998 11.9002L5.0998 15.3002M4.24973 1.7002L12.7498 1.7002C14.1581 1.7002 15.2998 2.84187 15.2998 4.2502L15.2998 12.7502C15.2998 14.1585 14.1581 15.3002 12.7498 15.3002L4.24973 15.3002C2.8414 15.3002 1.69973 14.1585 1.69973 12.7502L1.69973 4.25019C1.69973 2.84187 2.8414 1.70019 4.24973 1.7002Z" stroke="#65558F" stroke-width="2" stroke-linecap="round" stroke-linejoin="round"/>
</svg>
