<svg width="21" height="20" viewBox="0 0 21 20" fill="none" xmlns="http://www.w3.org/2000/svg">
<path d="M19.49 2.73L15 0.170001C14.848 0.0822325 14.6755 0.036026 14.5 0.036026C14.3245 0.036026 14.152 0.0822325 14 0.170001L10 2.45L6 0.170001C5.84798 0.0822325 5.67554 0.036026 5.5 0.036026C5.32446 0.036026 5.15202 0.0822325 5 0.170001L0.51 2.73C0.355534 2.81683 0.226912 2.94314 0.1373 3.096C0.0476888 3.24887 0.000305357 3.4228 0 3.6V8.72C0.000305357 8.8972 0.0476888 9.07113 0.1373 9.224C0.226912 9.37686 0.355534 9.50317 0.51 9.59L4.51 11.86V16.4C4.51031 16.5772 4.55769 16.7511 4.6473 16.904C4.73691 17.0569 4.86553 17.1832 5.02 17.27L9.52 19.83C9.67202 19.9178 9.84446 19.964 10.02 19.964C10.1955 19.964 10.368 19.9178 10.52 19.83L15 17.27C15.1545 17.1832 15.2831 17.0569 15.3727 16.904C15.4623 16.7511 15.5097 16.5772 15.51 16.4V11.86L19.51 9.59C19.6645 9.50317 19.7931 9.37686 19.8827 9.224C19.9723 9.07113 20.0197 8.8972 20.02 8.72V3.6C20.0177 3.4208 19.9673 3.2455 19.8741 3.09245C19.7809 2.9394 19.6482 2.81422 19.49 2.73ZM2 8.14V4.14L5.5 2.14L9 4.14V8.14L5.5 10.14L2 8.14ZM13.5 15.82L10 17.82L6.5 15.82V11.82L10 9.82L13.5 11.82V15.82ZM18 8.14L14.5 10.14L11 8.14V4.14L14.5 2.14L18 4.14V8.14Z" fill="black"/>
</svg>
