<svg width="23" height="18" viewBox="0 0 23 18" fill="none" xmlns="http://www.w3.org/2000/svg">
<path d="M22.8252 15.6408L17.074 5.91934C16.9708 5.74349 16.8269 5.59838 16.6558 5.49775C16.4847 5.39712 16.2921 5.3443 16.0963 5.3443C15.9005 5.3443 15.7079 5.39712 15.5368 5.49775C15.3657 5.59838 15.2218 5.74349 15.1186 5.91934L13.9684 7.90008L10.1841 1.09508C10.0823 0.913748 9.93753 0.763533 9.76409 0.659198C9.59066 0.554864 9.39451 0.5 9.19493 0.5C8.99535 0.5 8.7992 0.554864 8.62576 0.659198C8.45233 0.763533 8.30757 0.913748 8.20573 1.09508L0.154114 15.6772C0.0534487 15.8614 0.000307222 16.0703 1.3281e-06 16.283C-0.000304565 16.4957 0.0522357 16.7047 0.152371 16.8893C0.252506 17.0738 0.396728 17.2273 0.570623 17.3345C0.744517 17.4416 0.941993 17.4987 1.14331 17.5H21.8475C22.053 17.5004 22.2549 17.4427 22.4321 17.3328C22.6093 17.2228 22.7554 17.0648 22.8553 16.875C22.9551 16.6852 23.0049 16.4706 22.9996 16.2535C22.9943 16.0365 22.9341 15.8249 22.8252 15.6408ZM9.71253 15.0696H3.14471L9.19493 4.13303L12.5651 10.2089L9.71253 15.0696ZM12.4156 15.0696L14.9461 10.9016L16.0963 8.86007L19.777 15.0696H12.4156Z" fill="#65558F"/>
</svg>
