<svg width="12" height="14" viewBox="0 0 12 14" fill="none" xmlns="http://www.w3.org/2000/svg"> <path fill-rule="evenodd" clip-rule="evenodd" d="M9.56388 9.92035C9.70443 9.85003 9.8659 9.83373 10.0177 9.87455C10.1694 9.91536 10.301 10.0104 10.3873 10.1418L10.4245 10.2072L11.7081 12.7744C11.7539 12.866 11.7771 12.9671 11.7759 13.0695C11.7746 13.1719 11.7489 13.2724 11.7008 13.3628C11.6528 13.4532 11.5838 13.5308 11.4997 13.5891C11.4155 13.6474 11.3186 13.6847 11.2171 13.6979L11.1343 13.7031H0.865634C0.763249 13.7031 0.662341 13.6787 0.571337 13.6317C0.480334 13.5848 0.401875 13.5168 0.342513 13.4334C0.283152 13.35 0.24461 13.2536 0.230105 13.1522C0.215601 13.0509 0.225556 12.9475 0.259138 12.8508L0.291228 12.7738L1.57482 10.2066C1.64676 10.0579 1.77328 9.94264 1.92803 9.88485C2.08279 9.82706 2.25387 9.83117 2.40568 9.89632C2.55748 9.96147 2.67832 10.0827 2.74304 10.2346C2.80776 10.3866 2.81138 10.5577 2.75315 10.7123L2.72299 10.781L1.90406 12.4195H10.0959L9.277 10.781C9.20099 10.6288 9.18852 10.4527 9.24231 10.2913C9.29611 10.1299 9.41177 9.99649 9.56388 9.92035ZM5.99999 0.867188C7.19149 0.867188 8.3342 1.34051 9.17671 2.18303C10.0192 3.02555 10.4926 4.16825 10.4926 5.35975C10.4926 6.88851 9.66528 8.13038 8.80913 9.01156C8.33625 9.49197 7.81636 9.9237 7.25727 10.3003L7.01788 10.4582L6.8048 10.5923L6.70918 10.6501L6.54423 10.7451C6.20537 10.9376 5.79462 10.9376 5.45575 10.7451L5.29081 10.6494L5.09185 10.5281L4.98211 10.4582L4.74272 10.3003C4.18362 9.9237 3.66373 9.49197 3.19086 9.01156C2.3347 8.13038 1.50743 6.88851 1.50743 5.35975C1.50743 4.16825 1.98075 3.02555 2.82327 2.18303C3.66579 1.34051 4.80849 0.867188 5.99999 0.867188ZM5.99999 2.15078C5.14892 2.15078 4.3327 2.48886 3.73091 3.09066C3.12911 3.69246 2.79102 4.50868 2.79102 5.35975C2.79102 6.40973 3.36222 7.34611 4.11119 8.1169C4.56171 8.57193 5.05957 8.97749 5.5963 9.32668L5.81451 9.46595C5.88212 9.50746 5.94394 9.54468 5.99999 9.57763L6.18611 9.46595L6.40368 9.32668C6.94041 8.97749 7.43828 8.57193 7.88879 8.1169C8.63777 7.34675 9.20897 6.40973 9.20897 5.35975C9.20897 4.50868 8.87088 3.69246 8.26908 3.09066C7.66728 2.48886 6.85107 2.15078 5.99999 2.15078ZM5.99999 3.43437C6.51064 3.43437 7.00037 3.63722 7.36144 3.9983C7.72252 4.35938 7.92538 4.84911 7.92538 5.35975C7.92538 5.87039 7.72252 6.36012 7.36144 6.7212C7.00037 7.08228 6.51064 7.28514 5.99999 7.28514C5.48935 7.28514 4.99962 7.08228 4.63854 6.7212C4.27746 6.36012 4.07461 5.87039 4.07461 5.35975C4.07461 4.84911 4.27746 4.35938 4.63854 3.9983C4.99962 3.63722 5.48935 3.43437 5.99999 3.43437ZM5.99999 4.71796C5.82978 4.71796 5.66653 4.78557 5.54618 4.90593C5.42582 5.02629 5.3582 5.18954 5.3582 5.35975C5.3582 5.52997 5.42582 5.69321 5.54618 5.81357C5.66653 5.93393 5.82978 6.00155 5.99999 6.00155C6.17021 6.00155 6.33345 5.93393 6.45381 5.81357C6.57417 5.69321 6.64179 5.52997 6.64179 5.35975C6.64179 5.18954 6.57417 5.02629 6.45381 4.90593C6.33345 4.78557 6.17021 4.71796 5.99999 4.71796Z" fill="#8358D3"/> </svg>