<svg width="18" height="18" viewBox="0 0 18 18" fill="none" xmlns="http://www.w3.org/2000/svg">
<path d="M3.91162 13.4151C4.64518 12.8542 5.46505 12.4119 6.37121 12.0882C7.27738 11.7646 8.22669 11.6028 9.21916 11.6028C10.2116 11.6028 11.1609 11.7646 12.0671 12.0882C12.9733 12.4119 13.7931 12.8542 14.5267 13.4151C15.0301 12.8254 15.4221 12.1566 15.7025 11.4086C15.983 10.6607 16.1233 9.86237 16.1233 9.01374C16.1233 7.10073 15.4508 5.47179 14.106 4.12693C12.7611 2.78207 11.1322 2.10963 9.21916 2.10963C7.30614 2.10963 5.67721 2.78207 4.33234 4.12693C2.98748 5.47179 2.31505 7.10073 2.31505 9.01374C2.31505 9.86237 2.45529 10.6607 2.73577 11.4086C3.01625 12.1566 3.4082 12.8254 3.91162 13.4151ZM9.21916 9.87676C8.37053 9.87676 7.65494 9.58549 7.07241 9.00296C6.48988 8.42042 6.19861 7.70484 6.19861 6.85621C6.19861 6.00758 6.48988 5.292 7.07241 4.70946C7.65494 4.12693 8.37053 3.83566 9.21916 3.83566C10.0678 3.83566 10.7834 4.12693 11.3659 4.70946C11.9484 5.292 12.2397 6.00758 12.2397 6.85621C12.2397 7.70484 11.9484 8.42042 11.3659 9.00296C10.7834 9.58549 10.0678 9.87676 9.21916 9.87676ZM9.21916 17.6439C8.02532 17.6439 6.9034 17.4173 5.8534 16.9643C4.8034 16.5112 3.89005 15.8963 3.11333 15.1196C2.33662 14.3429 1.72173 13.4295 1.26864 12.3795C0.815561 11.3295 0.58902 10.2076 0.58902 9.01374C0.58902 7.81991 0.815561 6.69799 1.26864 5.64799C1.72173 4.59799 2.33662 3.68463 3.11333 2.90792C3.89005 2.13121 4.8034 1.51631 5.8534 1.06323C6.9034 0.610147 8.02532 0.383606 9.21916 0.383606C10.413 0.383606 11.5349 0.610147 12.5849 1.06323C13.6349 1.51631 14.5483 2.13121 15.325 2.90792C16.1017 3.68463 16.7166 4.59799 17.1697 5.64799C17.6228 6.69799 17.8493 7.81991 17.8493 9.01374C17.8493 10.2076 17.6228 11.3295 17.1697 12.3795C16.7166 13.4295 16.1017 14.3429 15.325 15.1196C14.5483 15.8963 13.6349 16.5112 12.5849 16.9643C11.5349 17.4173 10.413 17.6439 9.21916 17.6439Z" fill="#6C57A4"/>
</svg>
