<svg width="12" height="11" viewBox="0 0 12 11" fill="none" xmlns="http://www.w3.org/2000/svg">
<path d="M6.66498 2.49955C6.74483 2.27329 6.76925 2.03117 6.73618 1.79352C6.70311 1.55586 6.61353 1.32961 6.47494 1.13374C6.33636 0.937866 6.15281 0.778092 5.93971 0.667821C5.72661 0.55755 5.49017 0.5 5.25022 0.5C5.01028 0.5 4.77384 0.55755 4.56074 0.667821C4.34764 0.778092 4.16409 0.937866 4.02551 1.13374C3.88692 1.32961 3.79733 1.55586 3.76427 1.79352C3.7312 2.03117 3.75562 2.27329 3.83547 2.49955C2.69276 2.50355 2.08315 2.54456 1.68908 2.93863C1.29501 3.3327 1.254 3.94231 1.25 5.08452C1.47622 5.00494 1.71823 4.98075 1.95573 5.01397C2.19323 5.0472 2.41931 5.13688 2.61501 5.27549C2.81071 5.4141 2.97032 5.59761 3.08048 5.81062C3.19064 6.02364 3.24813 6.25996 3.24813 6.49978C3.24813 6.73959 3.19064 6.97591 3.08048 7.18893C2.97032 7.40194 2.81071 7.58545 2.61501 7.72406C2.41931 7.86267 2.19323 7.95235 1.95573 7.98558C1.71823 8.0188 1.47622 7.99461 1.25 7.91503C1.254 9.05724 1.29501 9.66685 1.68908 10.0609C2.08315 10.455 2.69276 10.496 3.83497 10.5C3.75539 10.2738 3.7312 10.0318 3.76442 9.79427C3.79765 9.55676 3.88733 9.33069 4.02594 9.13499C4.16455 8.93929 4.34806 8.77967 4.56107 8.66952C4.77409 8.55936 5.01041 8.50187 5.25022 8.50187C5.49004 8.50187 5.72636 8.55936 5.93938 8.66952C6.15239 8.77967 6.3359 8.93929 6.47451 9.13499C6.61312 9.33069 6.7028 9.55676 6.73602 9.79427C6.76925 10.0318 6.74506 10.2738 6.66548 10.5C7.80769 10.496 8.4173 10.455 8.81137 10.0609C9.20544 9.66685 9.24645 9.05724 9.25045 7.91453C9.47671 7.99438 9.71883 8.0188 9.95648 7.98573C10.1941 7.95266 10.4204 7.86308 10.6163 7.72449C10.8121 7.58591 10.9719 7.40236 11.0822 7.18926C11.1924 6.97616 11.25 6.73972 11.25 6.49978C11.25 6.25983 11.1924 6.02339 11.0822 5.81029C10.9719 5.59719 10.8121 5.41364 10.6163 5.27506C10.4204 5.13647 10.1941 5.04689 9.95648 5.01382C9.71883 4.98075 9.47671 5.00517 9.25045 5.08502C9.24645 3.94231 9.20544 3.3327 8.81137 2.93863C8.4173 2.54406 7.80769 2.50355 6.66498 2.49955Z" stroke="#8358D3" stroke-width="0.750136" stroke-linecap="round" stroke-linejoin="round"/>
</svg>
