<svg width="15" height="16" viewBox="0 0 15 16" fill="none" xmlns="http://www.w3.org/2000/svg">
<path d="M0.897387 1.23725L7.79747 8.0039L0.948704 14.8329C0.836655 14.687 0.749677 14.5235 0.691332 14.349C0.661158 14.1514 0.661158 13.9505 0.691332 13.7529V2.13173C0.670806 1.81988 0.742649 1.50804 0.896598 1.23725M10.7699 5.05282L8.51748 7.2839L1.6995 0.578818C1.92056 0.502238 2.1574 0.480922 2.38872 0.517238C2.75188 0.616713 3.09847 0.769872 3.41663 0.969612L9.58722 4.38412C9.98828 4.59965 10.3791 4.82624 10.7699 5.05282ZM8.51826 8.73417L10.7596 10.9353L9.13485 11.84L4.17769 14.5953C3.76716 14.8219 3.35505 15.0382 2.95399 15.2853C2.78238 15.3921 2.58995 15.4611 2.38954 15.4877C2.18914 15.5142 1.98538 15.4977 1.79187 15.4393L8.51826 8.73417ZM14.3289 8.0039C14.3346 8.27997 14.2649 8.55236 14.1271 8.79167C13.9894 9.03098 13.7889 9.22813 13.5473 9.36181L11.6951 10.3897L9.25801 8.0039L11.7054 5.57703C12.333 5.92677 12.9504 6.27652 13.567 6.60573C13.8129 6.74317 14.0149 6.94742 14.1496 7.19485C14.2842 7.44227 14.3469 7.72277 14.3289 8.0039Z" fill="#8358D3"/>
</svg>
