<svg width="16" height="16" viewBox="0 0 16 16" fill="none" xmlns="http://www.w3.org/2000/svg">
<path d="M10.8483 10.7493L11.218 10.382L10.3593 9.51927L9.99121 9.88657L10.8483 10.7493ZM12.4578 10.2279L14.0073 11.0704L14.587 10.0017L13.0383 9.16007L12.4578 10.2279ZM14.3048 12.7439L13.1535 13.8897L14.0105 14.7516L15.1619 13.6067L14.3048 12.7439ZM12.4513 14.2578C11.2756 14.368 8.23495 14.2699 4.94135 10.9958L4.08349 11.8577C7.6771 15.431 11.098 15.6062 12.5648 15.4692L12.4513 14.2578ZM4.94135 10.9958C1.80262 7.87409 1.28207 5.24943 1.2172 4.11021L0.00257311 4.17913C0.0836563 5.61268 0.728268 8.52194 4.08349 11.8577L4.94135 10.9958ZM6.05624 5.98485L6.28895 5.75295L5.43271 4.89104L5.20001 5.12212L6.05624 5.98485ZM6.47382 2.80558L5.45217 1.44014L4.47837 2.16989L5.50001 3.53452L6.47382 2.80558ZM2.01344 1.14256L0.74043 2.40746L1.59829 3.27018L2.87049 2.00529L2.01344 1.14256ZM5.62813 5.55349C5.19838 5.12212 5.19838 5.12212 5.19838 5.12375H5.19676L5.19433 5.12699C5.1558 5.16584 5.1213 5.20849 5.09135 5.25429C5.04757 5.31916 4.99973 5.40429 4.95919 5.51214C4.86049 5.79051 4.8359 6.08978 4.88784 6.38054C4.99649 7.08191 5.47974 8.00869 6.71707 9.23953L7.57493 8.3768C6.41625 7.22542 6.14057 6.52486 6.08949 6.19404C6.06516 6.03674 6.0903 5.9589 6.0976 5.94106C6.10246 5.93025 6.10246 5.92863 6.0976 5.9362C6.09037 5.94739 6.08223 5.95797 6.07327 5.96782L6.06516 5.97593L6.05706 5.98323L5.62813 5.55349ZM6.71707 9.23953C7.95521 10.4704 8.88686 10.9504 9.58904 11.0574C9.94824 11.1126 10.2377 11.0688 10.4574 10.9869C10.5805 10.9419 10.6955 10.8772 10.798 10.7955L10.8385 10.759L10.8442 10.7542L10.8466 10.7517L10.8475 10.7501C10.8475 10.7501 10.8483 10.7493 10.4193 10.3179C9.98959 9.88657 9.99202 9.88576 9.99202 9.88576L9.99364 9.88414L9.99527 9.88252L10.0001 9.87847L10.0082 9.87036L10.0391 9.84603C10.0466 9.84117 10.0447 9.84171 10.0334 9.84765C10.0131 9.85495 9.93364 9.88009 9.77391 9.85576C9.43822 9.80387 8.7328 9.52819 7.57493 8.3768L6.71707 9.23953ZM5.45217 1.43933C4.62513 0.336594 3.00022 0.161455 2.01344 1.14256L2.87049 2.00529C3.30185 1.57636 4.06727 1.62095 4.47837 2.16989L5.45217 1.43933ZM1.21801 4.11102C1.20179 3.83047 1.33072 3.53695 1.59829 3.271L0.739619 2.40827C0.304203 2.84125 -0.0387793 3.45424 0.00257311 4.17913L1.21801 4.11102ZM13.1535 13.8897C12.9313 14.1118 12.6913 14.2367 12.4521 14.2586L12.5648 15.4692C13.1608 15.4132 13.6481 15.1132 14.0113 14.7524L13.1535 13.8897ZM6.28895 5.75295C7.08762 4.95915 7.14681 3.70479 6.47463 2.80639L5.50082 3.53533C5.82759 3.97236 5.77894 4.54562 5.4319 4.89185L6.28895 5.75295ZM14.0081 11.0712C14.6705 11.4312 14.7735 12.2793 14.3056 12.7448L15.1635 13.6067C16.25 12.5258 15.9151 10.7234 14.5878 10.0025L14.0081 11.0712ZM11.218 10.3828C11.5294 10.0731 12.0305 9.99685 12.4586 10.2287L13.0391 9.16088C12.1602 8.68249 11.0704 8.81465 10.3601 9.52008L11.218 10.3828Z" fill="#8358D3"/>
</svg>
