<svg width="17" height="18" viewBox="0 0 17 18" fill="none" xmlns="http://www.w3.org/2000/svg">
<path d="M12.75 11.975V13.25C12.75 13.76 12.41 14.1 11.9 14.1C11.39 14.1 11.05 13.76 11.05 13.25V11.975H5.95V13.25C5.95 13.76 5.61 14.1 5.1 14.1C4.59 14.1 4.25 13.76 4.25 13.25V11.975H2.55C1.955 11.975 1.36 11.805 0.85 11.55V14.95C0.85 16.395 1.955 17.5 3.4 17.5H13.6C15.045 17.5 16.15 16.395 16.15 14.95V11.55C15.64 11.805 15.045 11.975 14.45 11.975H12.75ZM16.15 3.9H12.75V3.05C12.75 1.605 11.645 0.5 10.2 0.5H6.8C5.355 0.5 4.25 1.605 4.25 3.05V3.9H0.85C0.34 3.9 0 4.24 0 4.75V8.15C0 9.595 1.105 10.7 2.55 10.7H14.45C15.895 10.7 17 9.595 17 8.15V4.75C17 4.24 16.66 3.9 16.15 3.9ZM11.05 3.9H5.95V3.05C5.95 2.54 6.29 2.2 6.8 2.2H10.2C10.71 2.2 11.05 2.54 11.05 3.05V3.9Z" fill="#65558F"/>
</svg>
