<?xml version="1.0" encoding="UTF-8"?>
<svg version="1.1" xmlns="http://www.w3.org/2000/svg" width="512" height="512">
<path d="M0 0 C0.62261719 0.38929688 1.24523437 0.77859375 1.88671875 1.1796875 C7.91363518 5.59855465 12.10490257 12.66982715 13.34123206 20.03198647 C13.88816954 25.69644629 13.78168729 31.37590907 13.7253418 37.05981445 C13.7286061 38.96153885 13.73454999 40.86326023 13.74295044 42.76496887 C13.75529723 46.83780295 13.74900801 50.91001613 13.72788048 54.98281288 C13.69466548 61.42538959 13.7041562 67.86748539 13.7191925 74.31010437 C13.73802883 84.4977097 13.72908206 94.68506519 13.70787126 104.87265891 C13.67010585 123.12745499 13.66602159 141.38221709 13.69272357 159.63703126 C13.70080633 166.03950479 13.69223486 172.44167679 13.67016065 178.8441149 C13.65906956 182.82472388 13.66006191 186.80526715 13.6640358 190.78588676 C13.66325005 192.62934467 13.65729758 194.47280882 13.64575768 196.31623077 C13.63062057 198.83569185 13.63394769 201.35449773 13.64164734 203.87397766 C13.63270704 204.6002463 13.62376675 205.32651495 13.61455554 206.07479173 C13.65744097 211.15811923 14.70932569 214.55672792 17 219 C19.53040688 221.09412983 20.76330603 221.00966098 24.0625 220.875 C27.57866667 219.8276312 28.22503994 219.15414699 30 216 C30.45395431 212.73100272 30.45395431 212.73100272 30.38526917 209.01179504 C30.39050486 208.30827288 30.39574056 207.60475071 30.40113491 206.87990969 C30.41510408 204.52238577 30.40779311 202.16540871 30.40063477 199.80786133 C30.40637702 198.11745721 30.41345968 196.42705719 30.42178345 194.73666382 C30.43690515 191.09549473 30.44267005 187.45447235 30.44125557 183.81327248 C30.4392225 178.05135066 30.45878641 172.28962597 30.48143005 166.52775574 C30.52243314 155.32968039 30.54100902 144.13162045 30.55760193 132.93348694 C30.57994325 118.69789015 30.6135868 104.46233898 30.66480106 90.22681636 C30.68468051 84.50405949 30.69429997 78.78140537 30.69575322 73.05861533 C30.69851282 69.4897987 30.70936379 65.9210383 30.72226334 62.35224533 C30.72652622 60.70315639 30.72741442 59.05405456 30.72458839 57.40496254 C30.705621 44.89702979 30.74277638 33.60788779 39.859375 24.05078125 C47.66458145 16.8355032 55.46444874 14.81186516 66 15 C74.41002469 16.21661874 80.34773706 20.34773706 86.25 26.25 C92.75844205 36.47755179 92.5651311 46.11513145 92.49829102 57.84863281 C92.50211867 59.75168278 92.50774152 61.65472985 92.51501465 63.55776978 C92.52692507 67.63923689 92.52650725 71.72044657 92.51642036 75.80191803 C92.50081292 82.2566091 92.51456864 88.71103748 92.53245544 95.16571045 C92.5632184 107.69613797 92.564778 120.22648444 92.56280518 132.75694275 C92.56141043 148.72125743 92.57174019 164.68551025 92.6113829 180.64977908 C92.62631633 187.06587456 92.62604724 193.4817362 92.61390507 199.89783525 C92.60919676 203.88606082 92.61670935 207.8741967 92.62744904 211.86240768 C92.62985629 213.71111236 92.6271159 215.55983202 92.61884117 217.40851974 C92.60821776 219.93284155 92.61597273 222.45647427 92.62818909 224.98077393 C92.62061303 225.71131965 92.61303698 226.44186537 92.60523134 227.19454885 C92.65295734 231.84822891 93.49015928 235.07178837 96 239 C99.33069627 240.73775458 101.0771262 241.20974405 104.75 240.375 C107.39968326 238.75574912 107.89231846 237.86043729 109 235 C109.29829929 232.36913386 109.29829929 232.36913386 109.2515564 229.46788025 C109.25693924 228.34236755 109.26232208 227.21685486 109.26786804 226.05723572 C109.26168205 224.21120506 109.26168205 224.21120506 109.25537109 222.32788086 C109.2609289 220.33277436 109.26649104 218.33766787 109.27221513 216.34256184 C109.27655408 214.19897623 109.27608548 212.05543695 109.27439499 209.91184807 C109.27155735 205.43478334 109.28593292 200.95787588 109.30337524 196.48085022 C109.35035202 183.75003441 109.37432326 171.01922871 109.38085938 158.28833008 C109.38462216 151.25604918 109.40275235 144.22394586 109.43595374 137.19174105 C109.45606775 132.75061332 109.45858692 128.30994675 109.44767356 123.86879241 C109.44443032 120.43838812 109.46720936 117.0082341 109.48583984 113.57788086 C109.47358116 111.75310463 109.47358116 111.75310463 109.46107483 109.89146423 C109.56197299 99.4080118 111.64836465 90.42881751 119.08984375 82.71875 C126.35235731 76.18397297 134.09070897 73.59232121 143.875 74 C152.13006184 75.14400857 159.71693622 78.87301283 165.0625 85.3125 C170.76930777 92.93609817 171.43860623 101.41984421 171.3742218 110.63574219 C171.37819621 111.77891561 171.38217061 112.92208902 171.38626546 114.09990406 C171.39585979 117.91568905 171.38408696 121.73110063 171.37231445 125.546875 C171.37308593 128.28906328 171.37834789 131.0312389 171.38337708 133.77342224 C171.39284629 140.44150753 171.38628031 147.10948428 171.37411413 153.77756149 C171.36045264 161.55717813 171.36213587 169.33676929 171.36424746 177.11639488 C171.36743506 191.01137527 171.35578623 204.90630436 171.33618164 218.80126953 C171.31720795 232.25278285 171.31008673 245.70423598 171.31567383 259.15576172 C171.32174942 273.82660675 171.32151982 288.49742534 171.310188 303.1682682 C171.30898082 304.73697535 171.30777484 306.3056825 171.30657005 307.87438965 C171.30566475 309.03189163 171.30566475 309.03189163 171.30474115 310.2127775 C171.30088052 315.62106209 171.30124851 321.02933677 171.3031559 326.43762207 C171.30529151 333.0450393 171.29995224 339.65240414 171.28554235 346.25980669 C171.27836115 349.623959 171.27525622 352.98797282 171.27878571 356.35214043 C171.29424733 373.73624475 170.96017416 390.65620474 166.75 407.625 C166.53529053 408.50470459 166.32058105 409.38440918 166.09936523 410.29077148 C160.89696766 430.76670749 151.22811301 449.86503319 136.6484375 465.17578125 C133.9583907 467.97488404 133.9583907 467.97488404 131.53515625 471.05078125 C115.90510909 489.23365584 89.69577156 499.03548888 67 504.1875 C66.32573975 504.34226807 65.65147949 504.49703613 64.95678711 504.65649414 C50.12991874 507.85417339 35.60285404 508.36951664 20.5 508.3125 C19.47709869 508.31034485 18.45419739 508.3081897 17.40029907 508.30596924 C2.74923218 508.25635079 -11.60727812 507.9942242 -26 505 C-27.49418457 504.70198486 -27.49418457 504.70198486 -29.01855469 504.39794922 C-61.95495512 497.6726365 -91.08937681 483.77992204 -115 460 C-115.4753418 459.52868652 -115.95068359 459.05737305 -116.44042969 458.57177734 C-131.6729581 443.24864257 -142.60796288 424.08842583 -154.35939026 406.09535217 C-160.69355825 396.40116218 -167.06515387 386.73161948 -173.4375 377.0625 C-174.36358566 375.65689819 -174.36358566 375.65689819 -175.30838013 374.22290039 C-183.45988402 361.8526579 -191.64536438 349.50588771 -199.875 337.1875 C-206.12098457 327.83687838 -212.34821612 318.47551703 -218.5 309.0625 C-219.37180908 307.73158325 -219.37180908 307.73158325 -220.26123047 306.3737793 C-228.5600826 293.62990529 -236.13745113 281.94939144 -233.53125 266.16015625 C-231.32226443 255.7332184 -226.93590048 248.72248568 -218.30859375 242.4375 C-209.56126767 236.99077242 -199.68515582 235.62687527 -189.671875 237.68359375 C-171.4222883 242.79772212 -162.19749881 257.84867175 -151.75439453 272.54736328 C-148.79361833 276.68651688 -145.77260251 280.78088634 -142.75 284.875 C-142.20835205 285.61032959 -141.6667041 286.34565918 -141.10864258 287.10327148 C-137.85338595 291.51521331 -134.57357961 295.9083971 -131.28222656 300.29345703 C-130.86868927 300.84461685 -130.45515198 301.39577667 -130.02908325 301.96363831 C-129.01949822 303.30917429 -128.00976451 304.6545987 -127 306 C-127.00037703 304.73293591 -127.00075405 303.46587181 -127.0011425 302.16041183 C-127.00876404 272.05071317 -126.98542658 241.94121092 -126.92420971 211.83158092 C-126.91669409 208.12177053 -126.90943852 204.41195966 -126.90234375 200.70214844 C-126.90021862 199.59436133 -126.90021862 199.59436133 -126.89805056 198.46419469 C-126.87576092 186.52213675 -126.8745151 174.5801653 -126.88111137 162.63809237 C-126.88741404 150.37506122 -126.87095109 138.11221132 -126.83356392 125.84923482 C-126.811224 118.28846588 -126.80642491 110.7281106 -126.82440336 103.16732827 C-126.83630606 97.35966095 -126.81646144 91.55242874 -126.78504753 85.74485016 C-126.77710307 83.36976801 -126.77929967 80.99462602 -126.79260826 78.61956787 C-126.91980556 53.81474027 -126.91980556 53.81474027 -118.05502129 43.80347824 C-111.76689598 37.52072841 -104.27885806 34.81979389 -95.5 34.5 C-86.9363384 34.80224688 -79.80431215 37.39451684 -73.53125 43.3125 C-64.38079978 53.39666964 -64.70462883 65.1117836 -64.74462891 78.11669922 C-64.74187388 79.61905608 -64.73819089 81.12141149 -64.73365784 82.62376404 C-64.72559321 85.83920134 -64.72336523 89.05456931 -64.72560501 92.27001572 C-64.72845279 97.35471975 -64.7140347 102.43928653 -64.69662476 107.5239563 C-64.64972778 121.97558579 -64.62563924 136.42720394 -64.61914062 150.87890625 C-64.61539314 158.87544816 -64.59739804 166.87183277 -64.56404626 174.86830723 C-64.54382252 179.92353083 -64.54146527 184.97834915 -64.55232644 190.03359675 C-64.55492963 193.17285818 -64.54095073 196.31188224 -64.52224541 199.45108223 C-64.51691498 200.90715356 -64.51843477 202.36326837 -64.52728081 203.81932259 C-64.53837572 205.80546448 -64.52264786 207.79170245 -64.50552368 209.77780151 C-64.50443415 210.88940077 -64.50334461 212.00100002 -64.50222206 213.1462841 C-63.88140448 216.67388105 -62.79451602 217.82670055 -60 220 C-57.09648876 221.16448881 -57.09648876 221.16448881 -54 221 C-51.0337913 219.28619053 -49.34247351 218.18028841 -48.36995602 214.82863903 C-47.91254069 211.33129665 -47.87188873 207.88626056 -47.89320374 204.36677551 C-47.89376044 203.60593476 -47.89431715 202.845094 -47.89489073 202.06119746 C-47.89792282 199.51578197 -47.90810384 196.9704453 -47.91821289 194.42504883 C-47.92176984 192.59819623 -47.9248556 190.77134266 -47.92750549 188.94448853 C-47.93405431 185.0114356 -47.94361267 181.07840543 -47.95540047 177.14536476 C-47.97370478 170.9211082 -47.98329584 164.69685715 -47.99131775 158.47257996 C-48.01545891 140.77328063 -48.05128762 123.07401491 -48.09594727 105.37475586 C-48.12053752 95.59874026 -48.13787465 85.82273792 -48.14750665 76.04669589 C-48.15403286 69.86506802 -48.16955756 63.68354964 -48.19182408 57.50195944 C-48.20359658 53.64686297 -48.20692397 49.79179274 -48.20792198 45.93667984 C-48.21006036 44.15576731 -48.21562046 42.3748549 -48.2249527 40.59396553 C-48.35031319 15.69652951 -48.35031319 15.69652951 -40 5 C-37.53147094 2.57737334 -34.9887553 0.7315351 -32 -1 C-31.41863281 -1.33902344 -30.83726562 -1.67804688 -30.23828125 -2.02734375 C-20.98395874 -6.3834999 -8.50880526 -5.51079444 0 0 Z " fill="#020003" transform="translate(287,4)"/>
</svg>
