<svg width="20" height="13" viewBox="0 0 20 13" fill="none" xmlns="http://www.w3.org/2000/svg">
<path d="M10 0.49707C4.3 0.49707 0 2.64707 0 5.49707C0 7.94707 3.19 9.87707 7.71 10.3771L7.29 10.7871C7.19627 10.88 7.12188 10.9906 7.07111 11.1125C7.02034 11.2344 6.9942 11.3651 6.9942 11.4971C6.9942 11.6291 7.02034 11.7598 7.07111 11.8816C7.12188 12.0035 7.19627 12.1141 7.29 12.2071C7.38296 12.3008 7.49356 12.3752 7.61542 12.426C7.73728 12.4767 7.86799 12.5029 8 12.5029C8.13201 12.5029 8.26272 12.4767 8.38458 12.426C8.50644 12.3752 8.61704 12.3008 8.71 12.2071L10.71 10.2071C10.801 10.112 10.8724 9.99982 10.92 9.87707C11.02 9.63361 11.02 9.36053 10.92 9.11707C10.8724 8.99432 10.801 8.88217 10.71 8.78707L8.71 6.78707C8.5217 6.59877 8.2663 6.49298 8 6.49298C7.7337 6.49298 7.4783 6.59877 7.29 6.78707C7.1017 6.97537 6.99591 7.23077 6.99591 7.49707C6.99591 7.76337 7.1017 8.01877 7.29 8.20707L7.41 8.31707C4 7.83707 2 6.49707 2 5.49707C2 4.27707 5.12 2.49707 10 2.49707C14.88 2.49707 18 4.27707 18 5.49707C18 6.32707 16.55 7.49707 13.79 8.09707C13.6594 8.1221 13.535 8.17294 13.4243 8.24661C13.3135 8.32028 13.2186 8.41531 13.145 8.52613C13.0715 8.63694 13.0207 8.76132 12.9958 8.89198C12.9709 9.02264 12.9724 9.15696 13 9.28707C13.0273 9.41591 13.0798 9.53808 13.1544 9.64658C13.2291 9.75508 13.3244 9.84776 13.435 9.91931C13.5456 9.99086 13.6692 10.0399 13.7988 10.0635C13.9283 10.0871 14.0613 10.085 14.19 10.0571C17.84 9.25707 20 7.55707 20 5.49707C20 2.64707 15.7 0.49707 10 0.49707Z" fill="#65558F"/>
</svg>
