<svg width="16" height="17" viewBox="0 0 16 17" fill="none" xmlns="http://www.w3.org/2000/svg">
<path d="M1.875 11.125V12.875H0.125V11.125H1.875ZM0.125 16.375H1.875V14.625H0.125V16.375ZM1.875 12.875V14.625H3.625V12.875H1.875ZM5.375 7.625H3.625V9.375H1.875V11.125H5.375V7.625ZM0.125 7.625V9.375H1.875V7.625H0.125ZM5.375 14.625H3.625V16.375H8V14.625H7.125V12.875H5.375V14.625ZM8.875 1.5H7.125V3.25H8.875V1.5ZM7.125 7.625H8.875V5H7.125V7.625ZM1 5.875C0.767936 5.875 0.545376 5.78281 0.381282 5.61872C0.217187 5.45462 0.125 5.23206 0.125 5V1.5C0.125 1.26794 0.217187 1.04538 0.381282 0.881282C0.545376 0.717187 0.767936 0.625 1 0.625H4.5C4.73206 0.625 4.95462 0.717187 5.11872 0.881282C5.28281 1.04538 5.375 1.26794 5.375 1.5V5C5.375 5.23206 5.28281 5.45462 5.11872 5.61872C4.95462 5.78281 4.73206 5.875 4.5 5.875H1ZM1.875 4.125H3.625V2.375H1.875V4.125ZM15.875 1.5V8.5H14.125V5.875H11.5C11.2679 5.875 11.0454 5.78281 10.8813 5.61872C10.7172 5.45462 10.625 5.23206 10.625 5V1.5C10.625 1.26794 10.7172 1.04538 10.8813 0.881282C11.0454 0.717187 11.2679 0.625 11.5 0.625H15C15.2321 0.625 15.4546 0.717187 15.6187 0.881282C15.7828 1.04538 15.875 1.26794 15.875 1.5ZM14.125 2.375H12.375V4.125H14.125V2.375ZM15.875 12V15.5C15.875 15.7321 15.7828 15.9546 15.6187 16.1187C15.4546 16.2828 15.2321 16.375 15 16.375H11.5C11.2679 16.375 11.0454 16.2828 10.8813 16.1187C10.7172 15.9546 10.625 15.7321 10.625 15.5V12.875H7.125V9.375H8.875V11.125H9.75V7.625H11.5V11.125H15C15.2321 11.125 15.4546 11.2172 15.6187 11.3813C15.7828 11.5454 15.875 11.7679 15.875 12ZM14.125 12.875H12.375V14.625H14.125V12.875Z" fill="#65558F"/>
</svg>
