<svg
        width="92"
        height="20"
        viewBox="0 0 92 20"
        fill="none"
        xmlns="http://www.w3.org/2000/svg"
        >
    <defs>
        <linearGradient
                id="paint0_linear_447_382"
                x1="46"
                y1="-4"
                x2="46"
                y2="20"
                gradientUnits="userSpaceOnUse"
                >
            <stop stop-color="#8F2AC7" />
            <stop
                    offset="0.595"
                    stop-color="#DA5673"
                    />
        </linearGradient>
    </defs>
    <path
            d="M8.42578 11.3379C8.42578 11.0449 8.38021 10.7845 8.28906 10.5566C8.20443 10.3288 8.05143 10.1204 7.83008 9.93164C7.60872 9.74284 7.29622 9.56055 6.89258 9.38477C6.49544 9.20247 5.98763 9.01693 5.36914 8.82812C4.69206 8.61979 4.06706 8.38867 3.49414 8.13477C2.92773 7.87435 2.43294 7.57487 2.00977 7.23633C1.58659 6.89128 1.25781 6.4974 1.02344 6.05469C0.789062 5.60547 0.671875 5.08789 0.671875 4.50195C0.671875 3.92253 0.792318 3.39518 1.0332 2.91992C1.2806 2.44466 1.62891 2.03451 2.07812 1.68945C2.53385 1.33789 3.07096 1.06771 3.68945 0.878906C4.30794 0.683594 4.99154 0.585938 5.74023 0.585938C6.79492 0.585938 7.70312 0.78125 8.46484 1.17188C9.23307 1.5625 9.82227 2.08659 10.2324 2.74414C10.6491 3.40169 10.8574 4.1276 10.8574 4.92188H8.42578C8.42578 4.45312 8.32487 4.03971 8.12305 3.68164C7.92773 3.31706 7.62826 3.0306 7.22461 2.82227C6.82747 2.61393 6.32292 2.50977 5.71094 2.50977C5.13151 2.50977 4.64974 2.59766 4.26562 2.77344C3.88151 2.94922 3.59505 3.18685 3.40625 3.48633C3.21745 3.78581 3.12305 4.12435 3.12305 4.50195C3.12305 4.76888 3.1849 5.01302 3.30859 5.23438C3.43229 5.44922 3.62109 5.65104 3.875 5.83984C4.12891 6.02214 4.44792 6.19466 4.83203 6.35742C5.21615 6.52018 5.66862 6.67643 6.18945 6.82617C6.97721 7.06055 7.66406 7.32096 8.25 7.60742C8.83594 7.88737 9.32422 8.20638 9.71484 8.56445C10.1055 8.92253 10.3984 9.32943 10.5938 9.78516C10.7891 10.2344 10.8867 10.7454 10.8867 11.3184C10.8867 11.9173 10.7663 12.4577 10.5254 12.9395C10.2845 13.4147 9.93945 13.8216 9.49023 14.1602C9.04753 14.4922 8.51367 14.7493 7.88867 14.9316C7.27018 15.1074 6.58008 15.1953 5.81836 15.1953C5.13477 15.1953 4.46094 15.1042 3.79688 14.9219C3.13932 14.7396 2.54036 14.4629 2 14.0918C1.45964 13.7142 1.02995 13.2454 0.710938 12.6855C0.391927 12.1191 0.232422 11.4583 0.232422 10.7031H2.68359C2.68359 11.1654 2.76172 11.5592 2.91797 11.8848C3.08073 12.2103 3.30534 12.4772 3.5918 12.6855C3.87826 12.8874 4.21029 13.0371 4.58789 13.1348C4.97201 13.2324 5.38216 13.2812 5.81836 13.2812C6.39128 13.2812 6.86979 13.1999 7.25391 13.0371C7.64453 12.8743 7.9375 12.6465 8.13281 12.3535C8.32812 12.0605 8.42578 11.722 8.42578 11.3379ZM19.6093 12.5098V4.43359H21.9726V15H19.746L19.6093 12.5098ZM19.9413 10.3125L20.7324 10.293C20.7324 11.0026 20.6542 11.6569 20.498 12.2559C20.3417 12.8483 20.1008 13.3659 19.7753 13.8086C19.4498 14.2448 19.0331 14.5866 18.5253 14.834C18.0175 15.0749 17.4088 15.1953 16.6992 15.1953C16.1848 15.1953 15.7128 15.1204 15.2831 14.9707C14.8535 14.821 14.4824 14.5898 14.1699 14.2773C13.8639 13.9648 13.6262 13.5579 13.457 13.0566C13.2877 12.5553 13.2031 11.9564 13.2031 11.2598V4.43359H15.5566V11.2793C15.5566 11.6634 15.6022 11.9857 15.6933 12.2461C15.7844 12.5 15.9081 12.7051 16.0644 12.8613C16.2206 13.0176 16.4029 13.1283 16.6113 13.1934C16.8196 13.2585 17.041 13.291 17.2753 13.291C17.9459 13.291 18.4732 13.1608 18.8574 12.9004C19.248 12.6335 19.5247 12.2754 19.6874 11.8262C19.8567 11.377 19.9413 10.8724 19.9413 10.3125ZM27.1796 6.46484V19.0625H24.826V4.43359H26.994L27.1796 6.46484ZM34.0643 9.61914V9.82422C34.0643 10.5924 33.9732 11.3053 33.7909 11.9629C33.6151 12.6139 33.3514 13.1836 32.9999 13.6719C32.6548 14.1536 32.2284 14.528 31.7206 14.7949C31.2128 15.0618 30.6268 15.1953 29.9628 15.1953C29.3052 15.1953 28.729 15.0749 28.2343 14.834C27.746 14.5866 27.3326 14.2383 26.994 13.7891C26.6555 13.3398 26.382 12.8125 26.1737 12.207C25.9719 11.5951 25.8287 10.9245 25.744 10.1953V9.4043C25.8287 8.62956 25.9719 7.92643 26.1737 7.29492C26.382 6.66341 26.6555 6.11979 26.994 5.66406C27.3326 5.20833 27.746 4.85677 28.2343 4.60938C28.7225 4.36198 29.2922 4.23828 29.9432 4.23828C30.6073 4.23828 31.1965 4.36849 31.7108 4.62891C32.2251 4.88281 32.6581 5.2474 33.0096 5.72266C33.3612 6.19141 33.6249 6.75781 33.8007 7.42188C33.9764 8.07943 34.0643 8.81185 34.0643 9.61914ZM31.7108 9.82422V9.61914C31.7108 9.13086 31.6652 8.67839 31.5741 8.26172C31.4829 7.83854 31.3397 7.46745 31.1444 7.14844C30.9491 6.82943 30.6984 6.58203 30.3925 6.40625C30.093 6.22396 29.7316 6.13281 29.3085 6.13281C28.8918 6.13281 28.5337 6.20443 28.2343 6.34766C27.9348 6.48438 27.6841 6.67643 27.4823 6.92383C27.2805 7.17122 27.1242 7.46094 27.0135 7.79297C26.9029 8.11849 26.8247 8.47331 26.7792 8.85742V10.752C26.8573 11.2207 26.9908 11.6504 27.1796 12.041C27.3684 12.4316 27.6353 12.7441 27.9803 12.9785C28.3319 13.2064 28.7811 13.3203 29.328 13.3203C29.7512 13.3203 30.1125 13.2292 30.412 13.0469C30.7115 12.8646 30.9556 12.6139 31.1444 12.2949C31.3397 11.9694 31.4829 11.5951 31.5741 11.1719C31.6652 10.7487 31.7108 10.2995 31.7108 9.82422ZM38.8611 6.46484V19.0625H36.5076V4.43359H38.6756L38.8611 6.46484ZM45.7459 9.61914V9.82422C45.7459 10.5924 45.6548 11.3053 45.4725 11.9629C45.2967 12.6139 45.033 13.1836 44.6815 13.6719C44.3364 14.1536 43.91 14.528 43.4022 14.7949C42.8943 15.0618 42.3084 15.1953 41.6443 15.1953C40.9868 15.1953 40.4106 15.0749 39.9158 14.834C39.4275 14.5866 39.0141 14.2383 38.6756 13.7891C38.3371 13.3398 38.0636 12.8125 37.8553 12.207C37.6535 11.5951 37.5102 10.9245 37.4256 10.1953V9.4043C37.5102 8.62956 37.6535 7.92643 37.8553 7.29492C38.0636 6.66341 38.3371 6.11979 38.6756 5.66406C39.0141 5.20833 39.4275 4.85677 39.9158 4.60938C40.4041 4.36198 40.9738 4.23828 41.6248 4.23828C42.2889 4.23828 42.8781 4.36849 43.3924 4.62891C43.9067 4.88281 44.3397 5.2474 44.6912 5.72266C45.0428 6.19141 45.3065 6.75781 45.4822 7.42188C45.658 8.07943 45.7459 8.81185 45.7459 9.61914ZM43.3924 9.82422V9.61914C43.3924 9.13086 43.3468 8.67839 43.2557 8.26172C43.1645 7.83854 43.0213 7.46745 42.826 7.14844C42.6307 6.82943 42.38 6.58203 42.074 6.40625C41.7746 6.22396 41.4132 6.13281 40.99 6.13281C40.5734 6.13281 40.2153 6.20443 39.9158 6.34766C39.6163 6.48438 39.3657 6.67643 39.1639 6.92383C38.9621 7.17122 38.8058 7.46094 38.6951 7.79297C38.5844 8.11849 38.5063 8.47331 38.4608 8.85742V10.752C38.5389 11.2207 38.6723 11.6504 38.8611 12.041C39.0499 12.4316 39.3169 12.7441 39.6619 12.9785C40.0135 13.2064 40.4627 13.3203 41.0096 13.3203C41.4328 13.3203 41.7941 13.2292 42.0936 13.0469C42.393 12.8646 42.6372 12.6139 42.826 12.2949C43.0213 11.9694 43.1645 11.5951 43.2557 11.1719C43.3468 10.7487 43.3924 10.2995 43.3924 9.82422ZM47.7302 9.83398V9.60938C47.7302 8.84766 47.8409 8.14128 48.0623 7.49023C48.2836 6.83268 48.6026 6.26302 49.0193 5.78125C49.4425 5.29297 49.9568 4.91536 50.5623 4.64844C51.1742 4.375 51.8643 4.23828 52.6326 4.23828C53.4073 4.23828 54.0974 4.375 54.7029 4.64844C55.3149 4.91536 55.8324 5.29297 56.2556 5.78125C56.6788 6.26302 57.0011 6.83268 57.2224 7.49023C57.4438 8.14128 57.5544 8.84766 57.5544 9.60938V9.83398C57.5544 10.5957 57.4438 11.3021 57.2224 11.9531C57.0011 12.6042 56.6788 13.1738 56.2556 13.6621C55.8324 14.1439 55.3181 14.5215 54.7126 14.7949C54.1072 15.0618 53.4203 15.1953 52.6521 15.1953C51.8774 15.1953 51.184 15.0618 50.572 14.7949C49.9665 14.5215 49.4522 14.1439 49.029 13.6621C48.6059 13.1738 48.2836 12.6042 48.0623 11.9531C47.8409 11.3021 47.7302 10.5957 47.7302 9.83398ZM50.0837 9.60938V9.83398C50.0837 10.3092 50.1326 10.7585 50.2302 11.1816C50.3279 11.6048 50.4809 11.9759 50.6892 12.2949C50.8975 12.6139 51.1645 12.8646 51.49 13.0469C51.8155 13.2292 52.2029 13.3203 52.6521 13.3203C53.0883 13.3203 53.4659 13.2292 53.7849 13.0469C54.1104 12.8646 54.3774 12.6139 54.5857 12.2949C54.794 11.9759 54.947 11.6048 55.0447 11.1816C55.1488 10.7585 55.2009 10.3092 55.2009 9.83398V9.60938C55.2009 9.14062 55.1488 8.69792 55.0447 8.28125C54.947 7.85807 54.7908 7.48372 54.5759 7.1582C54.3676 6.83268 54.1007 6.57878 53.7751 6.39648C53.4561 6.20768 53.0753 6.11328 52.6326 6.11328C52.1899 6.11328 51.8057 6.20768 51.4802 6.39648C51.1612 6.57878 50.8975 6.83268 50.6892 7.1582C50.4809 7.48372 50.3279 7.85807 50.2302 8.28125C50.1326 8.69792 50.0837 9.14062 50.0837 9.60938ZM62.322 6.44531V15H59.9684V4.43359H62.2145L62.322 6.44531ZM65.5544 4.36523L65.5348 6.55273C65.3916 6.52669 65.2354 6.50716 65.0661 6.49414C64.9033 6.48112 64.7406 6.47461 64.5778 6.47461C64.1742 6.47461 63.8194 6.5332 63.5134 6.65039C63.2074 6.76107 62.9502 6.92383 62.7419 7.13867C62.5401 7.34701 62.3838 7.60091 62.2731 7.90039C62.1625 8.19987 62.0973 8.53516 62.0778 8.90625L61.5407 8.94531C61.5407 8.28125 61.6058 7.66602 61.736 7.09961C61.8662 6.5332 62.0615 6.03516 62.322 5.60547C62.5889 5.17578 62.9209 4.84049 63.3181 4.59961C63.7217 4.35872 64.1872 4.23828 64.7145 4.23828C64.8578 4.23828 65.0108 4.2513 65.1735 4.27734C65.3428 4.30339 65.4697 4.33268 65.5544 4.36523ZM72.7926 4.43359V6.15234H66.8356V4.43359H72.7926ZM68.5543 1.8457H70.9078V12.0801C70.9078 12.4056 70.9534 12.6562 71.0445 12.832C71.1422 13.0013 71.2757 13.1152 71.4449 13.1738C71.6142 13.2324 71.8128 13.2617 72.0406 13.2617C72.2034 13.2617 72.3597 13.252 72.5094 13.2324C72.6591 13.2129 72.7796 13.1934 72.8707 13.1738L72.8805 14.9707C72.6852 15.0293 72.4573 15.0814 72.1969 15.127C71.943 15.1725 71.65 15.1953 71.318 15.1953C70.7776 15.1953 70.2991 15.1009 69.8824 14.9121C69.4658 14.7168 69.1403 14.401 68.9059 13.9648C68.6715 13.5286 68.5543 12.9492 68.5543 12.2266V1.8457ZM79.6988 15.1953C78.9175 15.1953 78.2112 15.0684 77.5796 14.8145C76.9546 14.554 76.4208 14.1927 75.9781 13.7305C75.5419 13.2682 75.2066 12.7246 74.9722 12.0996C74.7378 11.4746 74.6207 10.8008 74.6207 10.0781V9.6875C74.6207 8.86068 74.7411 8.11198 74.982 7.44141C75.2229 6.77083 75.5582 6.19792 75.9878 5.72266C76.4175 5.24089 76.9253 4.87305 77.5113 4.61914C78.0972 4.36523 78.732 4.23828 79.4156 4.23828C80.1708 4.23828 80.8316 4.36523 81.398 4.61914C81.9644 4.87305 82.4332 5.23112 82.8043 5.69336C83.1819 6.14909 83.4618 6.69271 83.6441 7.32422C83.8329 7.95573 83.9273 8.65234 83.9273 9.41406V10.4199H75.7632V8.73047H81.6031V8.54492C81.5901 8.12174 81.5054 7.72461 81.3492 7.35352C81.1994 6.98242 80.9683 6.68294 80.6558 6.45508C80.3433 6.22721 79.9266 6.11328 79.4058 6.11328C79.0152 6.11328 78.6669 6.19792 78.3609 6.36719C78.0614 6.52995 77.8108 6.76758 77.6089 7.08008C77.4071 7.39258 77.2509 7.77018 77.1402 8.21289C77.036 8.64909 76.9839 9.14062 76.9839 9.6875V10.0781C76.9839 10.5404 77.0458 10.9701 77.1695 11.3672C77.2997 11.7578 77.4885 12.0996 77.7359 12.3926C77.9833 12.6855 78.2828 12.9167 78.6343 13.0859C78.9859 13.2487 79.3863 13.3301 79.8355 13.3301C80.4019 13.3301 80.9065 13.2161 81.3492 12.9883C81.7919 12.7604 82.176 12.4382 82.5015 12.0215L83.7418 13.2227C83.5139 13.5547 83.2177 13.8737 82.8531 14.1797C82.4885 14.4792 82.0425 14.7233 81.5152 14.9121C80.9944 15.1009 80.3889 15.1953 79.6988 15.1953ZM88.5581 6.44531V15H86.2046V4.43359H88.4507L88.5581 6.44531ZM91.7905 4.36523L91.771 6.55273C91.6278 6.52669 91.4715 6.50716 91.3022 6.49414C91.1395 6.48112 90.9767 6.47461 90.814 6.47461C90.4103 6.47461 90.0555 6.5332 89.7495 6.65039C89.4435 6.76107 89.1864 6.92383 88.978 7.13867C88.7762 7.34701 88.6199 7.60091 88.5093 7.90039C88.3986 8.19987 88.3335 8.53516 88.314 8.90625L87.7768 8.94531C87.7768 8.28125 87.842 7.66602 87.9722 7.09961C88.1024 6.5332 88.2977 6.03516 88.5581 5.60547C88.825 5.17578 89.1571 4.84049 89.5542 4.59961C89.9578 4.35872 90.4233 4.23828 90.9507 4.23828C91.0939 4.23828 91.2469 4.2513 91.4097 4.27734C91.5789 4.30339 91.7059 4.33268 91.7905 4.36523Z"
            fill="url(#paint0_linear_447_382)"
            />

</svg>