<svg width="38" height="42" viewBox="0 0 38 42" fill="none" xmlns="http://www.w3.org/2000/svg">
<path d="M30.667 40.4444C33.8886 40.4444 36.5001 37.8329 36.5001 34.6114C36.5001 31.3899 33.8886 28.7783 30.667 28.7783C27.4455 28.7783 24.834 31.3899 24.834 34.6114C24.834 37.8329 27.4455 40.4444 30.667 40.4444Z" stroke="#8358D3" stroke-width="3" stroke-linecap="round" stroke-linejoin="round"/>
<path d="M7.33306 26.8321C10.5546 26.8321 13.1661 24.2206 13.1661 20.9991C13.1661 17.7776 10.5546 15.166 7.33306 15.166C4.11155 15.166 1.5 17.7776 1.5 20.9991C1.5 24.2206 4.11155 26.8321 7.33306 26.8321Z" stroke="#8358D3" stroke-width="3" stroke-linecap="round" stroke-linejoin="round"/>
<path d="M12.3694 23.9351L25.6493 31.6736" stroke="#8358D3" stroke-width="3" stroke-linecap="round" stroke-linejoin="round"/>
<path d="M30.667 13.2218C33.8886 13.2218 36.5001 10.6102 36.5001 7.38873C36.5001 4.16721 33.8886 1.55566 30.667 1.55566C27.4455 1.55566 24.834 4.16721 24.834 7.38873C24.834 10.6102 27.4455 13.2218 30.667 13.2218Z" stroke="#8358D3" stroke-width="3" stroke-linecap="round" stroke-linejoin="round"/>
<path d="M25.6299 10.3247L12.3694 18.0632" stroke="#8358D3" stroke-width="3" stroke-linecap="round" stroke-linejoin="round"/>
</svg>
