<svg width="17" height="17" viewBox="0 0 17 17" fill="none" xmlns="http://www.w3.org/2000/svg">
<path d="M16.8749 3.00173C16.7618 2.27662 16.4219 1.60596 15.9039 1.0859V1.0859C15.3837 0.568111 14.7129 0.228307 13.9876 0.115221C12.1063 -0.143998 10.1905 0.035556 8.39012 0.639829C6.58978 1.2441 4.95374 2.2567 3.61005 3.59837C2.26636 4.94004 1.25148 6.57438 0.644826 8.37348C0.0381756 10.1726 -0.143781 12.0876 0.113198 13.9687C0.226315 14.6938 0.566213 15.3645 1.08415 15.8846V15.8846C1.60434 16.4024 2.2752 16.7422 3.0005 16.8552C3.58624 16.9504 4.17863 16.9989 4.77206 17C8.00921 16.9769 11.1054 15.6727 13.3829 13.3727C14.7379 12.0391 15.76 10.4054 16.3667 8.60377C16.9733 6.80213 17.1474 4.88307 16.8749 3.00173V3.00173ZM1.85921 13.9091C1.83428 13.8426 1.81435 13.7743 1.79959 13.7048C1.56579 12.0885 1.71616 10.4398 2.23851 8.89247C2.76085 7.34509 3.64049 5.9425 4.80613 4.79834C6.76667 2.81973 9.43029 1.69643 12.216 1.67342C12.7182 1.67077 13.2196 1.71065 13.715 1.79263C13.7845 1.80739 13.8529 1.82732 13.9194 1.85223L9.7205 6.05853L9.09875 5.43695C9.01957 5.35714 8.92537 5.2938 8.82159 5.25057C8.7178 5.20734 8.60647 5.18508 8.49404 5.18508C8.3816 5.18508 8.27028 5.20734 8.16649 5.25057C8.0627 5.2938 7.9685 5.35714 7.88932 5.43695C7.73069 5.59648 7.64165 5.81229 7.64165 6.03724C7.64165 6.26219 7.73069 6.478 7.88932 6.63753L8.51107 7.25911L7.26757 8.48523L6.64582 7.86366C6.48624 7.70507 6.27038 7.61605 6.04537 7.61605C5.82036 7.61605 5.60449 7.70507 5.44491 7.86366C5.36508 7.94281 5.30172 8.03699 5.25848 8.14075C5.21524 8.24451 5.19298 8.3558 5.19298 8.4682C5.19298 8.58061 5.21524 8.6919 5.25848 8.79566C5.30172 8.89942 5.36508 8.9936 5.44491 9.07275L6.06666 9.69433L1.85921 13.9091ZM12.1819 12.2062C11.0331 13.3638 9.62849 14.2357 8.08119 14.7518C6.53389 15.2679 4.88703 15.4138 3.27305 15.1778C3.20352 15.1631 3.1352 15.1432 3.06864 15.1182L7.26757 10.9119L7.88932 11.5335C7.96818 11.6129 8.0619 11.676 8.16514 11.7192C8.26838 11.7624 8.37912 11.7848 8.49103 11.7852C8.60294 11.7856 8.71383 11.7639 8.81737 11.7215C8.92092 11.679 9.01508 11.6166 9.09449 11.5378C9.17391 11.4589 9.23701 11.3653 9.2802 11.262C9.32339 11.1588 9.34583 11.0481 9.34622 10.9362C9.34662 10.8244 9.32497 10.7135 9.28251 10.61C9.24004 10.5065 9.17761 10.4123 9.09875 10.3329L8.49404 9.71136L9.7205 8.48523L10.3423 9.10681C10.4218 9.18573 10.5162 9.24816 10.62 9.29054C10.7238 9.33291 10.8349 9.35439 10.947 9.35374C11.1154 9.35303 11.2799 9.30241 11.4195 9.20827C11.5592 9.11413 11.6678 8.9807 11.7316 8.82485C11.7954 8.669 11.8116 8.49773 11.778 8.33271C11.7445 8.16768 11.6628 8.0163 11.5432 7.89772L10.9214 7.27614L15.1289 3.07836C15.1538 3.1449 15.1737 3.21321 15.1885 3.28271C15.4195 4.89633 15.2678 6.54164 14.7455 8.08582C14.2232 9.63 13.3451 11.0298 12.1819 12.1721V12.2062Z" fill="#65558F"/>
</svg>
