
<svg xmlns="http://www.w3.org/2000/svg" xml:space="preserve" width="5.1307mm" height="5.1305mm" version="1.1" style="shape-rendering:geometricPrecision; text-rendering:geometricPrecision; image-rendering:optimizeQuality; fill-rule:evenodd; clip-rule:evenodd"
viewBox="0 0 56.87 56.87"
 xmlns:xlink="http://www.w3.org/1999/xlink"
 xmlns:xodm="http://www.corel.com/coreldraw/odm/2003">
 <defs>
  <style type="text/css">
   <![CDATA[
    .fil0 {fill:url(#id0);fill-rule:nonzero}
   ]]>
  </style>
  <linearGradient id="id0" gradientUnits="userSpaceOnUse" x1="28.28" y1="-1.47" x2="28.28" y2="55.4">
   <stop offset="0" style="stop-opacity:1; stop-color:#8F2AC7"/>
   <stop offset="0.6" style="stop-opacity:1; stop-color:#DA5673"/>
   <stop offset="1" style="stop-opacity:1; stop-color:#DA5673"/>
  </linearGradient>
 </defs>
 <g id="Слой_x0020_1">
  <metadata id="CorelCorpID_0Corel-Layer"/>
  <path class="fil0" d="M28.69 11.92c0.16,-0.45 0.26,-0.9 0.3,-1.36 0.05,-0.46 0.04,-0.94 -0.03,-1.4 -0.07,-0.47 -0.19,-0.93 -0.35,-1.35 -0.17,-0.44 -0.4,-0.85 -0.67,-1.23 -0.28,-0.38 -0.59,-0.73 -0.93,-1.03 -0.36,-0.31 -0.75,-0.58 -1.16,-0.79 -0.42,-0.22 -0.86,-0.39 -1.31,-0.49 -0.44,-0.11 -0.9,-0.16 -1.39,-0.16 -0.49,0 -0.96,0.06 -1.39,0.16 -0.44,0.11 -0.88,0.27 -1.31,0.49 -0.41,0.21 -0.79,0.48 -1.15,0.79l-0.1 0.08c-0.31,0.28 -0.59,0.6 -0.84,0.95l-0.05 0.07c-0.25,0.36 -0.45,0.75 -0.62,1.16l-0.05 0.12c-0.14,0.39 -0.25,0.81 -0.31,1.23 -0.06,0.47 -0.07,0.94 -0.03,1.4 0.05,0.45 0.15,0.91 0.31,1.36 0.38,1.07 -0.18,2.24 -1.25,2.62 -0.27,0.09 -0.54,0.13 -0.81,0.11 -2.83,0.01 -5,0.07 -6.67,0.36 -1.38,0.24 -2.36,0.65 -3.07,1.36 -0.71,0.71 -1.12,1.69 -1.36,3.07 -0.2,1.17 -0.29,2.59 -0.33,4.31 0.64,-0.04 1.29,-0.01 1.93,0.08 0.78,0.11 1.55,0.31 2.3,0.61 0.73,0.29 1.43,0.67 2.08,1.13 0.66,0.46 1.26,1 1.77,1.59 0.51,0.59 0.96,1.25 1.33,1.97 0.36,0.7 0.64,1.45 0.83,2.22 0.19,0.78 0.29,1.58 0.29,2.35 0,0.78 -0.1,1.57 -0.29,2.35 -0.19,0.78 -0.47,1.52 -0.83,2.22 -0.36,0.7 -0.81,1.36 -1.33,1.96 -0.51,0.6 -1.11,1.14 -1.77,1.6l-0.15 0.09c-0.61,0.42 -1.26,0.76 -1.94,1.03 -0.74,0.29 -1.52,0.5 -2.3,0.61 -0.64,0.09 -1.28,0.12 -1.93,0.08 0.04,1.71 0.13,3.13 0.33,4.3 0.24,1.39 0.65,2.38 1.35,3.08l0.01 0.01c0.7,0.71 1.68,1.11 3.07,1.35 1.17,0.2 2.59,0.29 4.31,0.33 -0.04,-0.64 -0.01,-1.29 0.08,-1.93 0.11,-0.78 0.31,-1.55 0.61,-2.3 0.29,-0.73 0.67,-1.43 1.13,-2.08 0.47,-0.66 1,-1.25 1.59,-1.76 0.59,-0.52 1.25,-0.97 1.96,-1.33 0.7,-0.36 1.45,-0.64 2.22,-0.83 0.78,-0.19 1.58,-0.29 2.35,-0.29 0.78,0 1.57,0.1 2.35,0.29 0.77,0.19 1.52,0.47 2.22,0.83 0.7,0.36 1.36,0.81 1.96,1.33 0.58,0.5 1.12,1.1 1.59,1.77 0.46,0.65 0.84,1.35 1.13,2.08 0.29,0.74 0.5,1.52 0.61,2.3 0.09,0.64 0.12,1.29 0.08,1.93 1.72,-0.04 3.14,-0.13 4.31,-0.33 1.39,-0.24 2.37,-0.65 3.07,-1.35l0.01 -0.01c0.7,-0.7 1.11,-1.68 1.35,-3.07 0.3,-1.71 0.35,-3.92 0.36,-6.8 0,-1.13 0.92,-2.05 2.05,-2.05 0.24,0 0.47,0.04 0.68,0.12 0.45,0.15 0.91,0.26 1.36,0.3 0.46,0.05 0.94,0.04 1.4,-0.03 0.47,-0.06 0.93,-0.18 1.35,-0.35l0.01 -0.01c0.43,-0.17 0.84,-0.39 1.22,-0.66 0.39,-0.28 0.74,-0.59 1.04,-0.93 0.31,-0.36 0.58,-0.75 0.79,-1.16 0.22,-0.42 0.38,-0.86 0.49,-1.31 0.11,-0.44 0.16,-0.9 0.16,-1.39 0,-0.48 -0.05,-0.95 -0.16,-1.38l-0.02 -0.08c-0.11,-0.42 -0.27,-0.84 -0.47,-1.24 -0.21,-0.41 -0.48,-0.79 -0.79,-1.15l-0.08 -0.1c-0.28,-0.31 -0.6,-0.59 -0.95,-0.84l-0.12 -0.09c-0.35,-0.23 -0.72,-0.43 -1.11,-0.59 -0.45,-0.17 -0.9,-0.29 -1.35,-0.35 -0.47,-0.06 -0.94,-0.07 -1.4,-0.03 -0.45,0.05 -0.91,0.15 -1.36,0.31 -1.07,0.38 -2.24,-0.18 -2.62,-1.25 -0.09,-0.27 -0.13,-0.54 -0.11,-0.81 -0.01,-2.83 -0.07,-5 -0.36,-6.67 -0.24,-1.38 -0.65,-2.36 -1.36,-3.07l-0.09 -0.1c-0.7,-0.65 -1.65,-1.04 -2.98,-1.27 -1.7,-0.3 -3.91,-0.35 -6.8,-0.36 -1.13,0 -2.05,-0.92 -2.05,-2.05 0,-0.24 0.04,-0.47 0.11,-0.68zm4.34 -3.32c0.09,0.66 0.12,1.32 0.08,1.98 1.98,0.04 3.62,0.14 5.01,0.38 2.17,0.38 3.81,1.09 5.15,2.38l0.14 0.13c1.36,1.36 2.11,3.04 2.5,5.29 0.24,1.39 0.34,3.03 0.38,5.01 0.66,-0.04 1.33,-0.02 1.99,0.08 0.8,0.11 1.57,0.31 2.3,0.6 0.68,0.28 1.33,0.62 1.94,1.04l0.15 0.09c0.6,0.42 1.16,0.92 1.65,1.47l0.11 0.12c0.51,0.59 0.96,1.25 1.33,1.97 0.35,0.68 0.62,1.39 0.81,2.13l0.02 0.08c0.19,0.78 0.29,1.58 0.29,2.36 0,0.78 -0.1,1.57 -0.29,2.35 -0.19,0.77 -0.47,1.52 -0.83,2.22 -0.37,0.72 -0.82,1.38 -1.33,1.97 -0.53,0.6 -1.12,1.14 -1.77,1.59 -0.66,0.46 -1.36,0.85 -2.09,1.13 -0.74,0.29 -1.51,0.49 -2.29,0.6 -0.66,0.09 -1.32,0.12 -1.99,0.08 -0.04,1.98 -0.14,3.63 -0.38,5.01 -0.39,2.23 -1.13,3.9 -2.5,5.27l-0.01 0.01c-1.37,1.37 -3.04,2.11 -5.28,2.5 -1.91,0.33 -4.3,0.4 -7.4,0.41 -0.25,0.01 -0.51,-0.03 -0.76,-0.11 -1.07,-0.37 -1.63,-1.54 -1.26,-2.61 0.16,-0.44 0.26,-0.9 0.3,-1.36 0.05,-0.46 0.04,-0.94 -0.03,-1.4 -0.07,-0.47 -0.19,-0.93 -0.35,-1.35 -0.17,-0.44 -0.4,-0.85 -0.67,-1.23 -0.25,-0.36 -0.57,-0.71 -0.94,-1.03 -0.34,-0.3 -0.73,-0.57 -1.15,-0.78 -0.42,-0.22 -0.86,-0.38 -1.31,-0.49 -0.44,-0.11 -0.9,-0.16 -1.39,-0.16 -0.49,0 -0.95,0.06 -1.39,0.16 -0.44,0.11 -0.89,0.27 -1.31,0.49 -0.41,0.21 -0.79,0.47 -1.15,0.78 -0.36,0.31 -0.68,0.66 -0.94,1.03 -0.27,0.38 -0.49,0.79 -0.67,1.23 -0.17,0.42 -0.29,0.88 -0.35,1.35 -0.06,0.47 -0.07,0.94 -0.03,1.4 0.05,0.46 0.15,0.92 0.3,1.36 0.07,0.21 0.11,0.44 0.11,0.68 0,1.13 -0.92,2.05 -2.05,2.05 -3.14,-0.01 -5.56,-0.07 -7.49,-0.41 -2.24,-0.39 -3.91,-1.13 -5.28,-2.5l-0.01 -0.01c-1.37,-1.37 -2.11,-3.04 -2.5,-5.27 -0.33,-1.91 -0.4,-4.29 -0.41,-7.36 -0.02,-0.27 0.02,-0.55 0.11,-0.82 0.38,-1.07 1.55,-1.63 2.62,-1.25 0.44,0.16 0.9,0.26 1.36,0.3 0.46,0.05 0.94,0.04 1.4,-0.03 0.47,-0.07 0.93,-0.19 1.35,-0.35 0.39,-0.16 0.77,-0.35 1.12,-0.59l0.12 -0.09c0.37,-0.26 0.72,-0.58 1.03,-0.93 0.31,-0.34 0.57,-0.73 0.78,-1.15 0.22,-0.42 0.38,-0.86 0.49,-1.31 0.11,-0.43 0.16,-0.9 0.16,-1.39 0,-0.49 -0.05,-0.95 -0.16,-1.39 -0.11,-0.45 -0.27,-0.89 -0.49,-1.31 -0.21,-0.41 -0.48,-0.79 -0.78,-1.15 -0.31,-0.36 -0.66,-0.67 -1.03,-0.93 -0.38,-0.28 -0.79,-0.5 -1.23,-0.67 -0.42,-0.17 -0.88,-0.29 -1.35,-0.35 -0.47,-0.06 -0.94,-0.07 -1.4,-0.03 -0.46,0.05 -0.92,0.15 -1.36,0.3 -0.21,0.07 -0.44,0.11 -0.68,0.11 -1.13,0 -2.05,-0.92 -2.05,-2.05 0.01,-3.14 0.07,-5.56 0.41,-7.49 0.39,-2.25 1.14,-3.93 2.5,-5.29 1.36,-1.36 3.04,-2.11 5.29,-2.5 1.39,-0.24 3.03,-0.34 5.01,-0.38 -0.04,-0.66 -0.02,-1.33 0.08,-1.98 0.1,-0.72 0.28,-1.44 0.55,-2.14l0.05 -0.15c0.28,-0.7 0.64,-1.38 1.09,-2.02l0.05 -0.07c0.42,-0.6 0.92,-1.16 1.47,-1.65l0.12 -0.11c0.59,-0.51 1.25,-0.96 1.97,-1.33 0.7,-0.36 1.45,-0.64 2.22,-0.83 0.79,-0.19 1.58,-0.29 2.36,-0.29 0.78,0 1.57,0.1 2.36,0.29 0.78,0.19 1.52,0.47 2.22,0.83 0.72,0.37 1.38,0.82 1.97,1.33 0.6,0.53 1.14,1.12 1.59,1.77 0.46,0.66 0.83,1.36 1.12,2.08 0.29,0.74 0.5,1.52 0.61,2.3z"/>
 </g>
</svg>
