
<svg width="113px" height="106px" viewBox="0 0 113 106" version="1.1" xmlns="http://www.w3.org/2000/svg" xmlns:xlink="http://www.w3.org/1999/xlink">
    <title>ic_tabbar_helphub</title>
    <defs>
        <linearGradient x1="49.7136742%" y1="-2.58018684%" x2="49.7136742%" y2="97.3996731%" id="linearGradient-1">
            <stop stop-color="#8F2AC7" offset="0%"></stop>
            <stop stop-color="#DA5673" offset="60%"></stop>
            <stop stop-color="#DA5673" offset="100%"></stop>
        </linearGradient>
    </defs>
    <g id="Page-1" stroke="none" stroke-width="1" fill="none" fill-rule="evenodd">
        <g id="ic_tabbar_helphub" fill="url(#linearGradient-1)" fill-rule="nonzero">
            <path d="M43.91,21.08 C45.37,20.21 47.28,20.41 48.53,21.67 L60.47,33.61 C62.6,35.76 65.32,36.83 68,36.86 C69.45,36.87 70.89,36.58 72.24,35.99 L55.35,19.11 C49.91,13.67 42.35,10.61 34.83,10.33 C27.69,10.07 20.61,12.32 15.5,17.43 C10.22,22.7 7.59,29.61 7.59,36.52 C7.59,42.01 9.25,47.5 12.58,52.17 L42.98,21.77 C43.26,21.49 43.58,21.26 43.92,21.08 L43.91,21.08 Z M55.02,38.88 L45.82,29.66 L17.95,57.53 C17.35,58.13 17.06,58.91 17.06975,59.69 C17.08,60.49 17.42,61.32 18.06,61.96 L18.06,61.98 C18.67,62.58 19.47,62.89 20.28,62.89 C21.08,62.89 21.88,62.58 22.49,61.98 L22.96,61.58 L42.94,41.61 C44.42,40.13 46.83,40.13 48.31,41.61 C49.79,43.09 49.79,45.5 48.31,46.98 L27.84,67.45 C27.24,68.04 26.96,68.82 26.97,69.59 C26.98,70.41 27.32,71.24 27.96,71.88 C28.56,72.49 29.37,72.8 30.18,72.8 C30.98,72.8 31.78,72.49 32.39,71.89 L52.88,51.42 C54.36,49.95 56.76,49.95 58.23,51.44 C59.7,52.92 59.7,55.32 58.21,56.79 L38.17,76.83 L37.73,77.35 C37.14,77.94 36.85,78.72 36.86,79.49 C36.87,80.3 37.21,81.14 37.85,81.78 C38.46,82.39 39.27,82.7002345 40.07,82.7002345 C40.86,82.71 41.67,82.4 42.29,81.79 C42.54,81.53 42.81,81.32 43.11,81.15 C43.43,80.71 43.79,80.28 44.19,79.89 C46.09,78.01 48.51,76.95 50.98,76.74 C51.17,74.29 52.21,71.88 54.09,70 C55.97,68.11 58.39,67.05 60.88,66.84 C61.07,64.38 62.11,61.97 63.99,60.09 L64.01,60.08 C65.88,58.21 68.31,57.14 70.78,56.94 C70.97,54.49 72.01,52.09 73.89,50.21 C75.97,48.12 78.72,47.04 81.47,47 C84.22,46.97 86.96,47.98 89.06,50.08 L95.42,56.43 L96.47,55.38 C101.9,49.93 104.96,42.37 105.24,34.85 C105.5,27.71 103.25,20.63 98.14,15.52 C92.87,10.25 85.96,7.61 79.05,7.61 C72.69,7.61 66.33,9.85 61.25,14.31 L83.44,36.51 C83.09,36.86 80.84,39.19 80.66,39.28 C77.14,42.74 72.55,44.47 67.93,44.43 C63.33,44.39 58.7,42.58 55.1,38.98 L55.01,38.9 L55.02,38.88 Z M35.09,2.76 C42.22,3.02 49.38,5.3 55.4,9.36 C62.04,3.12 70.55,0 79.06,0 C87.9,0 96.75,3.38 103.5,10.13 L103.52,10.14 C110.2,16.82 113.16,25.96 112.82,35.11 C112.47,44.49 108.65,53.93 101.85,60.74 L99.05,63.52 L99.1,64.55 C99.1,67.3 98.05,70.05 95.96,72.14 C94.08,74.02 91.65,75.08 89.17,75.29 C88.98,77.74 87.94,80.14 86.05,82.03 C84.18,83.92 81.75,84.98 79.27,85.19 C79.08,87.65 78.04,90.06 76.16,91.94 C74.28,93.82 71.85,94.88 69.37,95.09 C69.18,97.55 68.14,99.96 66.26,101.84 C64.19,103.91 61.46,104.98 58.73,105.03 C55.96,105.07 53.19,104.07 51.09,101.96 L44.21,95.06 C42.82,93.66 41.89,91.98 41.42,90.2 C40.98,90.26 40.53,90.28 40.09,90.28 C37.35,90.29 34.6,89.25 32.5,87.15 C30.62,85.27 29.56,82.84 29.35,80.35 C26.9,80.16 24.5,79.12 22.62,77.25 L22.6,77.25 C20.72,75.37 19.66,72.94 19.45,70.46 C17,70.27 14.6,69.23 12.72,67.35 L12.7,67.34 C10.77,65.41 9.7,62.9 9.53,60.35 C3.18,53.68 0,45.1 0,36.52 C0,27.68 3.38,18.84 10.12,12.09 L10.13,12.06 C16.81,5.38 25.95,2.42 35.1,2.76 L35.09,2.76 Z M56.44,96.56 C57.05,97.16 57.83,97.45 58.61,97.44 C59.41,97.43 60.24,97.09 60.88,96.45 C61.49,95.84 61.8,95.03 61.8,94.23 C61.81,93.43 61.5,92.63 60.89,92.01 L54,85.14 C53.4,84.54 52.62,84.25 51.84,84.27 C51.03,84.28 50.2,84.62 49.56,85.25 C48.96,85.87 48.65,86.67 48.65,87.48 C48.65,88.29 48.96,89.11 49.57,89.72 L56.44,96.58 L56.44,96.56 Z M66.35,86.66 C66.95,87.26 67.73,87.55 68.51,87.53 C69.32,87.52 70.14,87.18 70.78,86.54 C71.39,85.93 71.7,85.12 71.7,84.32 C71.7,83.51 71.4,82.71 70.79,82.1 L63.91,75.23 C63.3,74.64 62.52,74.35 61.75,74.36 C60.93,74.37 60.1,74.71 59.46,75.35 C58.85,75.95 58.54,76.76 58.54,77.57 C58.54,78.37 58.85,79.18 59.46,79.79 L66.34,86.67 L66.35,86.66 Z M76.25,76.76 C76.84,77.36 77.63,77.65 78.41,77.64 C79.22,77.63 80.04,77.29 80.68,76.65 C81.3,76.05 81.6,75.24 81.6,74.43 C81.6,73.63 81.29,72.82 80.68,72.21 L73.8,65.33 C73.2,64.73 72.42,64.44 71.64,64.46 C70.83,64.47 70,64.81 69.36,65.44 C68.75,66.07 68.44,66.87 68.44,67.67 C68.44,68.47 68.75,69.27 69.36,69.88 L76.24,76.76 L76.25,76.76 Z M86.14,66.86 C86.75,67.46 87.53,67.75 88.31,67.74 C89.11,67.73 89.94,67.39 90.58,66.75 C91.2,66.13 91.5,65.33 91.5,64.53 C91.5,63.73 91.19,62.93 90.58,62.31 L83.7,55.43 C83.12,54.83 82.34,54.55 81.56,54.55 C80.74,54.56 79.91,54.9 79.26,55.54 C78.65,56.14 78.34,56.95 78.34,57.76 C78.34,58.56 78.65,59.37 79.26,59.98 L86.13,66.86 L86.14,66.86 Z" id="Shape"></path>
        </g>
    </g>
</svg>