<svg width="24" height="22" viewBox="0 0 24 22" fill="none" xmlns="http://www.w3.org/2000/svg">
<path d="M9.49488 5.21629L11.9297 7.65326C13.1134 8.85599 14.97 8.85599 16.1153 7.71074L11.9853 3.5807M11.9967 3.59209C9.52812 1.12348 5.18138 0.77903 2.71278 3.24758C0.244177 5.71618 0.244177 9.71852 2.71278 12.1871M9.45461 5.24122L3.21553 11.4804C2.65951 12.0362 2.6838 12.9375 3.23982 13.4933C3.79563 14.0493 4.69698 14.0491 5.25284 13.4933M9.44992 9.31017L5.24766 13.5125C4.69174 14.0685 4.71603 14.9697 5.27195 15.5256C5.82787 16.0815 6.72916 16.0814 7.28497 15.5255L11.4872 11.3231M7.27984 15.5447C6.72387 16.1006 6.74821 17.002 7.30407 17.5577C7.85999 18.1136 8.76133 18.1135 9.3172 17.5577M19.8684 12.7063L20.4393 12.1353C22.9079 9.66671 23.2523 5.31997 20.7838 2.85147C18.3152 0.382816 14.3129 0.38287 11.8443 2.85147L11.6709 3.02586M11.1206 20.595C11.6766 21.1509 12.5779 21.1266 13.1338 20.5707C13.6897 20.0148 13.6895 19.1136 13.1337 18.5577L11.7213 17.1453C11.1654 16.5894 10.264 16.6137 9.70828 17.1696C9.15231 17.7255 9.15242 18.6267 9.70828 19.1826L11.1206 20.595ZM13.1529 18.5628C13.7088 19.1187 14.6101 19.0945 15.1659 18.5386C15.7219 17.9827 15.7218 17.0814 15.1659 16.5255L13.7535 15.1131C13.1975 14.5572 12.2962 14.5815 11.7404 15.1373C11.1845 15.6932 11.1846 16.5946 11.7404 17.1505L13.1529 18.5628ZM15.185 16.5307C15.741 17.0866 16.6423 17.0622 17.1982 16.5064C17.754 15.9504 17.7539 15.0492 17.1981 14.4934L15.7857 13.081C15.2297 12.5249 14.3284 12.5493 13.7726 13.1052C13.2166 13.6611 13.2168 14.5624 13.7726 15.1183L15.185 16.5307ZM17.2173 14.4985C17.7732 15.0543 18.6745 15.0301 19.2303 14.4742C19.7862 13.9183 19.7861 13.017 19.2303 12.4611L17.8179 11.0487C17.2619 10.4928 16.3607 10.5171 15.8048 11.073C15.2488 11.6289 15.249 12.5302 15.8048 13.086L17.2173 14.4985Z" stroke="#BCB5D1" stroke-width="1.5" stroke-linecap="round"/>
</svg>
