<svg width="16" height="17" viewBox="0 0 16 17" fill="none" xmlns="http://www.w3.org/2000/svg">
<path d="M14.4184 6.60467V6.46693C14.4233 5.08869 13.9911 3.7452 13.1853 2.63391C12.3795 1.52262 11.2427 0.702122 9.9418 0.292989H9.89376C9.2219 0.0857592 8.52187 -0.0126838 7.81962 0.00130651C6.14736 0.0941524 4.57315 0.829157 3.41828 2.05631C2.26341 3.28346 1.61494 4.91026 1.60522 6.60467C1.13595 6.77169 0.729487 7.08198 0.441956 7.4927C0.154425 7.90342 0 8.39431 0 8.89762C0 9.40092 0.154425 9.89182 0.441956 10.3025C0.729487 10.7133 1.13595 11.0235 1.60522 11.1906C1.77016 12.7906 2.51729 14.2714 3.70136 15.3451C4.88543 16.4187 6.42181 17.0086 8.01182 16.9999H8.19601C9.73356 16.9246 11.195 16.3006 12.321 15.2385C13.4469 14.1765 14.1645 12.7452 14.3463 11.1987C14.8211 11.0411 15.2356 10.7377 15.5319 10.3306C15.8282 9.92355 15.9918 9.43314 15.9997 8.92764C16.0076 8.42215 15.8596 7.92673 15.5761 7.51037C15.2927 7.094 14.888 6.77741 14.4184 6.60467ZM8.15597 15.3794C6.99669 15.4134 5.8644 15.0219 4.96805 14.2774C4.07169 13.5328 3.47175 12.4854 3.27894 11.3283H12.7046C12.5092 12.4236 11.9535 13.42 11.1277 14.1554C10.3019 14.8908 9.25464 15.3222 8.15597 15.3794ZM13.6176 9.70785H2.40605C2.19365 9.70785 1.98996 9.62248 1.83978 9.47054C1.68959 9.31859 1.60522 9.1125 1.60522 8.89762C1.60522 8.68273 1.68959 8.47665 1.83978 8.3247C1.98996 8.17275 2.19365 8.08739 2.40605 8.08739H4.00769C4.22009 8.08739 4.42378 8.00203 4.57396 7.85008C4.72415 7.69813 4.80852 7.49205 4.80852 7.27716C4.80852 7.06227 4.72415 6.85619 4.57396 6.70424C4.42378 6.55229 4.22009 6.46693 4.00769 6.46693H3.20687C3.24272 5.62641 3.48016 4.80733 3.89872 4.08038C4.31727 3.35342 4.90437 2.74041 5.60934 2.29425V4.84647C5.60934 5.06136 5.69372 5.26745 5.8439 5.41939C5.99408 5.57134 6.19778 5.6567 6.41017 5.6567C6.62256 5.6567 6.82625 5.57134 6.97644 5.41939C7.12662 5.26745 7.21099 5.06136 7.21099 4.84647V1.67848C7.42836 1.64174 7.6476 1.61739 7.86767 1.60556H8.01182C8.2802 1.60938 8.5479 1.63376 8.81264 1.67848V4.84647C8.81264 5.06136 8.89701 5.26745 9.0472 5.41939C9.19738 5.57134 9.40108 5.6567 9.61347 5.6567C9.82586 5.6567 10.0296 5.57134 10.1797 5.41939C10.3299 5.26745 10.4143 5.06136 10.4143 4.84647V2.26995C10.754 2.46896 11.0709 2.70536 11.3593 2.97485C11.821 3.42849 12.1879 3.97136 12.4383 4.57124C12.6887 5.17111 12.8174 5.81577 12.8168 6.46693H12.0159C11.8035 6.46693 11.5999 6.55229 11.4497 6.70424C11.2995 6.85619 11.2151 7.06227 11.2151 7.27716C11.2151 7.49205 11.2995 7.69813 11.4497 7.85008C11.5999 8.00203 11.8035 8.08739 12.0159 8.08739H13.6176C13.83 8.08739 14.0337 8.17275 14.1839 8.3247C14.334 8.47665 14.4184 8.68273 14.4184 8.89762C14.4184 9.1125 14.334 9.31859 14.1839 9.47054C14.0337 9.62248 13.83 9.70785 13.6176 9.70785Z" fill="#65558F"/>
</svg>
