
<svg width="517px" height="479px" viewBox="0 0 517 479" version="1.1" xmlns="http://www.w3.org/2000/svg" xmlns:xlink="http://www.w3.org/1999/xlink">
    <title>ic_tabbar_feed</title>
    <defs>
        <linearGradient x1="49.7166289%" y1="-2.57792262%" x2="49.7166289%" y2="97.4220774%" id="linearGradient-1">
            <stop stop-color="#8F2AC7" offset="0%"></stop>
            <stop stop-color="#DA5673" offset="60%"></stop>
            <stop stop-color="#DA5673" offset="100%"></stop>
        </linearGradient>
    </defs>
    <g id="Page-1" stroke="none" stroke-width="1" fill="none" fill-rule="evenodd">
        <g id="ic_tabbar_feed" transform="translate(0.000000, -0.000000)" fill="url(#linearGradient-1)" fill-rule="nonzero">
            <path d="M258.49,0 L244.94,12.94 L0,257.88 L27.12,285 L51.23,260.82 L51.23,478.68 L220.81,478.68 L220.81,290.27 L296.18,290.27 L296.18,478.68 L465.76,478.68 L465.76,260.82 L489.9,284.98 L516.99,257.88 L272.05,12.94 L258.5,0 L258.49,0 Z M258.49,53.58 L428.07,223.16 L428.07,441.01 L333.86,441.01 L333.86,252.6 L183.13,252.6 L183.13,441.01 L88.92,441.01 L88.92,223.15 L258.5,53.58 L258.49,53.58 Z" id="Shape"></path>
        </g>
    </g>
</svg>