<svg width="16" height="18" viewBox="0 0 16 18" fill="none" xmlns="http://www.w3.org/2000/svg">
<path d="M14.4184 7.10467V6.96693C14.4233 5.58869 13.9911 4.2452 13.1853 3.13391C12.3795 2.02262 11.2427 1.20212 9.9418 0.792989H9.89376C9.2219 0.585759 8.52187 0.487316 7.81962 0.501307C6.14736 0.594152 4.57315 1.32916 3.41828 2.55631C2.26341 3.78346 1.61494 5.41026 1.60522 7.10467C1.13595 7.27169 0.729487 7.58198 0.441956 7.9927C0.154425 8.40342 0 8.89431 0 9.39762C0 9.90092 0.154425 10.3918 0.441956 10.8025C0.729487 11.2133 1.13595 11.5235 1.60522 11.6906C1.77016 13.2906 2.51729 14.7714 3.70136 15.8451C4.88543 16.9187 6.42181 17.5086 8.01182 17.4999H8.19601C9.73356 17.4246 11.195 16.8006 12.321 15.7385C13.4469 14.6765 14.1645 13.2452 14.3463 11.6987C14.8211 11.5411 15.2356 11.2377 15.5319 10.8306C15.8282 10.4235 15.9918 9.93314 15.9997 9.42764C16.0076 8.92215 15.8596 8.42673 15.5761 8.01037C15.2927 7.594 14.888 7.27741 14.4184 7.10467ZM8.15597 15.8794C6.99669 15.9134 5.8644 15.5219 4.96805 14.7774C4.07169 14.0328 3.47175 12.9854 3.27894 11.8283H12.7046C12.5092 12.9236 11.9535 13.92 11.1277 14.6554C10.3019 15.3908 9.25464 15.8222 8.15597 15.8794ZM13.6176 10.2078H2.40605C2.19365 10.2078 1.98996 10.1225 1.83978 9.97054C1.68959 9.81859 1.60522 9.6125 1.60522 9.39762C1.60522 9.18273 1.68959 8.97665 1.83978 8.8247C1.98996 8.67275 2.19365 8.58739 2.40605 8.58739H4.00769C4.22009 8.58739 4.42378 8.50203 4.57396 8.35008C4.72415 8.19813 4.80852 7.99205 4.80852 7.77716C4.80852 7.56227 4.72415 7.35619 4.57396 7.20424C4.42378 7.05229 4.22009 6.96693 4.00769 6.96693H3.20687C3.24272 6.12641 3.48016 5.30733 3.89872 4.58038C4.31727 3.85342 4.90437 3.24041 5.60934 2.79425V5.34647C5.60934 5.56136 5.69372 5.76745 5.8439 5.91939C5.99408 6.07134 6.19778 6.1567 6.41017 6.1567C6.62256 6.1567 6.82625 6.07134 6.97644 5.91939C7.12662 5.76745 7.21099 5.56136 7.21099 5.34647V2.17848C7.42836 2.14174 7.6476 2.11739 7.86767 2.10556H8.01182C8.2802 2.10938 8.5479 2.13376 8.81264 2.17848V5.34647C8.81264 5.56136 8.89701 5.76745 9.0472 5.91939C9.19738 6.07134 9.40108 6.1567 9.61347 6.1567C9.82586 6.1567 10.0296 6.07134 10.1797 5.91939C10.3299 5.76745 10.4143 5.56136 10.4143 5.34647V2.76995C10.754 2.96896 11.0709 3.20536 11.3593 3.47485C11.821 3.92849 12.1879 4.47136 12.4383 5.07124C12.6887 5.67111 12.8174 6.31577 12.8168 6.96693H12.0159C11.8035 6.96693 11.5999 7.05229 11.4497 7.20424C11.2995 7.35619 11.2151 7.56227 11.2151 7.77716C11.2151 7.99205 11.2995 8.19813 11.4497 8.35008C11.5999 8.50203 11.8035 8.58739 12.0159 8.58739H13.6176C13.83 8.58739 14.0337 8.67275 14.1839 8.8247C14.334 8.97665 14.4184 9.18273 14.4184 9.39762C14.4184 9.6125 14.334 9.81859 14.1839 9.97054C14.0337 10.1225 13.83 10.2078 13.6176 10.2078Z" fill="#65558F"/>
</svg>
