<svg width="15" height="17" viewBox="0 0 15 17" fill="none" xmlns="http://www.w3.org/2000/svg">
<path d="M12.5 4.25329H12.2083C12.3985 3.85624 12.4982 3.4205 12.5 2.97862C12.5025 2.3866 12.3312 1.80736 12.0082 1.31546C11.6851 0.823553 11.2251 0.441502 10.6873 0.218481C10.1495 -0.00453979 9.55854 -0.0583233 8.99051 0.0640537C8.42249 0.186431 7.90338 0.479367 7.5 0.905156C7.09662 0.479367 6.57751 0.186431 6.00948 0.0640537C5.44146 -0.0583233 4.85051 -0.00453979 4.31271 0.218481C3.77491 0.441502 3.31488 0.823553 2.99182 1.31546C2.66877 1.80736 2.49748 2.3866 2.5 2.97862C2.50178 3.4205 2.60149 3.85624 2.79167 4.25329H2.5C1.83696 4.25329 1.20107 4.52188 0.732233 4.99998C0.263392 5.47807 0 6.12651 0 6.80263V8.50219C0 8.72757 0.0877973 8.94372 0.244078 9.10308C0.400358 9.26244 0.61232 9.35197 0.833333 9.35197H1.66667V14.4507C1.66667 15.1268 1.93006 15.7752 2.3989 16.2533C2.86774 16.7314 3.50363 17 4.16667 17H10.8333C11.4964 17 12.1323 16.7314 12.6011 16.2533C13.0699 15.7752 13.3333 15.1268 13.3333 14.4507V9.35197H14.1667C14.3877 9.35197 14.5996 9.26244 14.7559 9.10308C14.9122 8.94372 15 8.72757 15 8.50219V6.80263C15 6.12651 14.7366 5.47807 14.2678 4.99998C13.7989 4.52188 13.163 4.25329 12.5 4.25329ZM6.66667 15.3004H4.16667C3.94565 15.3004 3.73369 15.2109 3.57741 15.0515C3.42113 14.8922 3.33333 14.676 3.33333 14.4507V9.35197H6.66667V15.3004ZM6.66667 7.65241H1.66667V6.80263C1.66667 6.57726 1.75446 6.36111 1.91074 6.20175C2.06702 6.04238 2.27899 5.95285 2.5 5.95285H6.66667V7.65241ZM6.66667 4.25329H5.41667C5.16944 4.25329 4.92777 4.17853 4.7222 4.03847C4.51664 3.89841 4.35643 3.69933 4.26182 3.46642C4.16721 3.2335 4.14245 2.97721 4.19068 2.72994C4.23892 2.48268 4.35797 2.25556 4.53278 2.07729C4.7076 1.89903 4.93033 1.77763 5.1728 1.72844C5.41528 1.67926 5.66661 1.7045 5.89502 1.80098C6.12343 1.89745 6.31865 2.06083 6.456 2.27045C6.59336 2.48007 6.66667 2.72651 6.66667 2.97862V4.25329ZM8.33333 2.97862C8.33333 2.72651 8.40664 2.48007 8.544 2.27045C8.68135 2.06083 8.87657 1.89745 9.10498 1.80098C9.33339 1.7045 9.58472 1.67926 9.8272 1.72844C10.0697 1.77763 10.2924 1.89903 10.4672 2.07729C10.642 2.25556 10.7611 2.48268 10.8093 2.72994C10.8575 2.97721 10.8328 3.2335 10.7382 3.46642C10.6436 3.69933 10.4834 3.89841 10.2778 4.03847C10.0722 4.17853 9.83056 4.25329 9.58333 4.25329H8.33333V2.97862ZM11.6667 14.4507C11.6667 14.676 11.5789 14.8922 11.4226 15.0515C11.2663 15.2109 11.0543 15.3004 10.8333 15.3004H8.33333V9.35197H11.6667V14.4507ZM13.3333 7.65241H8.33333V5.95285H12.5C12.721 5.95285 12.933 6.04238 13.0893 6.20175C13.2455 6.36111 13.3333 6.57726 13.3333 6.80263V7.65241Z" fill="#65558F"/>
</svg>
