<svg width="126" height="123" viewBox="0 0 126 123" fill="none" xmlns="http://www.w3.org/2000/svg">
<g clip-path="url(#clip0_90_1663)">
<path d="M79.855 27.4408H46.173C45.4054 27.4418 44.6696 27.7471 44.1268 28.2898C43.5841 28.8326 43.2788 29.5684 43.2778 30.336V105.195L42.8918 105.312L34.6291 107.843C34.2375 107.962 33.8145 107.921 33.453 107.729C33.0915 107.537 32.821 107.209 32.7009 106.818L8.12304 26.5356C8.00343 26.144 8.0442 25.721 8.23638 25.3594C8.42856 24.9978 8.75643 24.7274 9.14793 24.6075L21.8808 20.7087L58.7939 9.40989L71.5267 5.51109C71.7205 5.45145 71.9241 5.43062 72.1259 5.44977C72.3278 5.46892 72.5238 5.52768 72.7029 5.6227C72.882 5.71771 73.0406 5.84711 73.1697 6.00349C73.2987 6.15987 73.3956 6.34016 73.4549 6.53404L79.7373 27.0548L79.855 27.4408Z" fill="#F2F2F2"/>
<path d="M87.2048 27.0548L79.633 2.32254C79.507 1.91045 79.3011 1.52723 79.0269 1.19477C78.7528 0.862301 78.4158 0.587115 78.0353 0.384929C77.6548 0.182744 77.2381 0.05752 76.8092 0.0164189C76.3802 -0.0246823 75.9474 0.0191445 75.5354 0.14539L57.6338 5.62493L20.7227 16.9256L2.82104 22.4071C1.98942 22.6625 1.2931 23.2374 0.884909 24.0056C0.47672 24.7738 0.390015 25.6726 0.643829 26.5047L26.5226 111.029C26.7288 111.701 27.1448 112.289 27.7096 112.707C28.2745 113.125 28.9583 113.351 29.661 113.351C29.9861 113.351 30.3095 113.303 30.6202 113.207L42.8917 109.451L43.2777 109.331V108.928L42.8917 109.045L30.5063 112.838C29.7723 113.062 28.9794 112.985 28.3017 112.625C27.624 112.265 27.1168 111.651 26.8912 110.917L1.01449 26.3908C0.902751 26.0274 0.863809 25.6455 0.899887 25.2669C0.935966 24.8884 1.04635 24.5207 1.22474 24.1849C1.40312 23.8491 1.64599 23.5518 1.93945 23.31C2.2329 23.0682 2.57116 22.8867 2.93488 22.7758L20.8365 17.2943L57.7477 5.99551L75.6493 0.514042C75.9252 0.429851 76.212 0.386924 76.5005 0.386655C77.1195 0.388045 77.7218 0.587609 78.2191 0.956115C78.7165 1.32462 79.0828 1.84271 79.2644 2.43449L86.8014 27.0548L86.9211 27.4408H87.3226L87.2048 27.0548Z" fill="#3F3D56"/>
<path d="M24.1785 24.6707C23.8065 24.6704 23.4444 24.5509 23.1452 24.3298C22.8461 24.1086 22.6257 23.7974 22.5164 23.4418L20.0304 15.3216C19.9636 15.1035 19.9404 14.8743 19.9622 14.6472C19.984 14.4201 20.0502 14.1996 20.1573 13.9981C20.2643 13.7967 20.41 13.6182 20.5859 13.4731C20.7619 13.3279 20.9648 13.2189 21.1829 13.1521L55.1408 2.75588C55.5813 2.62146 56.0572 2.66731 56.4639 2.88336C56.8707 3.09941 57.1751 3.46802 57.3104 3.90829L59.7964 12.0286C59.9308 12.4692 59.8849 12.945 59.6688 13.3517C59.4528 13.7584 59.0842 14.0629 58.644 14.1982L24.686 24.5944C24.5216 24.6449 24.3505 24.6706 24.1785 24.6707Z" fill="#6750A4"/>
<path d="M37.2013 8.67668C39.3332 8.67668 41.0615 6.94842 41.0615 4.81649C41.0615 2.68457 39.3332 0.956299 37.2013 0.956299C35.0694 0.956299 33.3411 2.68457 33.3411 4.81649C33.3411 6.94842 35.0694 8.67668 37.2013 8.67668Z" fill="#6750A4"/>
<path d="M37.2013 7.26086C38.5513 7.26086 39.6457 6.16646 39.6457 4.81646C39.6457 3.46646 38.5513 2.37207 37.2013 2.37207C35.8513 2.37207 34.7569 3.46646 34.7569 4.81646C34.7569 6.16646 35.8513 7.26086 37.2013 7.26086Z" fill="white"/>
<path d="M116.815 112.365H51.5773C51.1424 112.365 50.7254 112.192 50.4178 111.884C50.1103 111.576 49.9373 111.159 49.9368 110.725V32.5556C49.9373 32.1207 50.1103 31.7037 50.4178 31.3961C50.7254 31.0885 51.1424 30.9155 51.5773 30.915H116.815C117.25 30.9155 117.667 31.0885 117.974 31.3961C118.282 31.7037 118.455 32.1207 118.455 32.5556V110.725C118.455 111.159 118.282 111.576 117.974 111.884C117.667 112.192 117.25 112.365 116.815 112.365Z" fill="#E6E6E6"/>
<path d="M86.8016 27.0549H46.1731C45.3032 27.0562 44.4693 27.4023 43.8543 28.0173C43.2392 28.6324 42.8931 29.4663 42.8919 30.3361V109.045L43.2779 108.928V30.3361C43.2788 29.5685 43.5842 28.8327 44.1269 28.29C44.6696 27.7472 45.4055 27.4419 46.1731 27.441H86.9213L86.8016 27.0549ZM122.219 27.0549H46.1731C45.3032 27.0562 44.4693 27.4023 43.8543 28.0173C43.2392 28.6324 42.8931 29.4663 42.8919 30.3361V118.734C42.8931 119.604 43.2392 120.438 43.8543 121.053C44.4693 121.668 45.3032 122.014 46.1731 122.016H122.219C123.089 122.014 123.923 121.668 124.538 121.053C125.153 120.438 125.499 119.604 125.5 118.734V30.3361C125.499 29.4663 125.153 28.6324 124.538 28.0173C123.923 27.4023 123.089 27.0562 122.219 27.0549ZM125.114 118.734C125.113 119.502 124.808 120.238 124.265 120.781C123.722 121.323 122.986 121.629 122.219 121.63H46.1731C45.4055 121.629 44.6696 121.323 44.1269 120.781C43.5842 120.238 43.2788 119.502 43.2779 118.734V30.3361C43.2788 29.5685 43.5842 28.8327 44.1269 28.29C44.6696 27.7472 45.4055 27.4419 46.1731 27.441H122.219C122.986 27.4419 123.722 27.7472 124.265 28.29C124.808 28.8327 125.113 29.5685 125.114 30.3361V118.734Z" fill="#3F3D56"/>
<path d="M101.953 35.5474H66.4391C65.9785 35.5469 65.537 35.3637 65.2113 35.0381C64.8857 34.7124 64.7025 34.2709 64.702 33.8103V25.3179C64.7025 24.8574 64.8857 24.4158 65.2113 24.0902C65.537 23.7645 65.9785 23.5813 66.4391 23.5808H101.953C102.413 23.5813 102.855 23.7645 103.181 24.0902C103.506 24.4158 103.689 24.8574 103.69 25.3179V33.8103C103.689 34.2709 103.506 34.7124 103.181 35.0381C102.855 35.3637 102.413 35.5469 101.953 35.5474Z" fill="#6750A4"/>
<path d="M84.1959 24.1598C86.3278 24.1598 88.0561 22.4316 88.0561 20.2996C88.0561 18.1677 86.3278 16.4395 84.1959 16.4395C82.064 16.4395 80.3357 18.1677 80.3357 20.2996C80.3357 22.4316 82.064 24.1598 84.1959 24.1598Z" fill="#6750A4"/>
<path d="M84.1959 22.6507C85.4945 22.6507 86.5472 21.598 86.5472 20.2995C86.5472 19.0009 85.4945 17.9482 84.1959 17.9482C82.8974 17.9482 81.8447 19.0009 81.8447 20.2995C81.8447 21.598 82.8974 22.6507 84.1959 22.6507Z" fill="white"/>
</g>
<defs>
<clipPath id="clip0_90_1663">
<rect width="125" height="122.016" fill="white" transform="translate(0.5)"/>
</clipPath>
</defs>
</svg>
