<svg width="18" height="17" viewBox="0 0 18 17" fill="none" xmlns="http://www.w3.org/2000/svg">
<path fill-rule="evenodd" clip-rule="evenodd" d="M8.82689 16.5015C13.6059 16.5015 17.4799 12.9198 17.4799 8.50153C17.4799 4.08325 13.6059 0.501526 8.82689 0.501526C4.04794 0.501526 0.173828 4.08325 0.173828 8.50153C0.173828 12.9198 4.04794 16.5015 8.82689 16.5015ZM6.97266 11.2158C6.54597 11.2158 6.20007 11.5356 6.20007 11.9301C6.20007 12.3246 6.54597 12.6444 6.97266 12.6444H8.82689H10.6811C11.1078 12.6444 11.4537 12.3246 11.4537 11.9301C11.4537 11.5356 11.1078 11.2158 10.6811 11.2158H9.59948V7.9301C9.59948 7.53561 9.25358 7.21581 8.82689 7.21581H7.59074C7.16404 7.21581 6.81814 7.53561 6.81814 7.9301C6.81814 8.32459 7.16404 8.64438 7.59074 8.64438H8.05429V11.2158H6.97266ZM10.063 5.07295C10.063 5.70413 9.50959 6.21581 8.82689 6.21581C8.14419 6.21581 7.59074 5.70413 7.59074 5.07295C7.59074 4.44178 8.14419 3.9301 8.82689 3.9301C9.50959 3.9301 10.063 4.44178 10.063 5.07295Z" fill="#65558F"/>
</svg>
