<svg width="18" height="25" viewBox="0 0 18 25" fill="none" xmlns="http://www.w3.org/2000/svg">
<path d="M8.99967 24.5846C8.72745 24.5846 8.49412 24.5041 8.29967 24.343C8.10523 24.1819 7.9594 23.9704 7.86217 23.7086C7.49273 22.5808 7.02606 21.5235 6.46218 20.5367C5.91773 19.5499 5.14967 18.3919 4.15801 17.0628C3.16634 15.7336 2.3594 14.4648 1.73717 13.2565C1.1344 12.0482 0.833008 10.5881 0.833008 8.8763C0.833008 6.52005 1.62051 4.5263 3.19551 2.89505C4.78995 1.24366 6.72467 0.417969 8.99967 0.417969C11.2747 0.417969 13.1997 1.24366 14.7747 2.89505C16.3691 4.5263 17.1663 6.52005 17.1663 8.8763C17.1663 10.7089 16.8261 12.2395 16.1455 13.468C15.4844 14.6763 14.7163 15.8746 13.8413 17.0628C12.7913 18.5128 11.9941 19.7211 11.4497 20.6878C10.9247 21.6343 10.4872 22.6412 10.1372 23.7086C10.04 23.9905 9.8844 24.2121 9.67051 24.3732C9.47606 24.5141 9.25245 24.5846 8.99967 24.5846ZM8.99967 20.2648C9.33023 19.5801 9.69967 18.9055 10.108 18.2409C10.5358 17.5763 11.158 16.6902 11.9747 15.5826C12.8108 14.4548 13.4913 13.4176 14.0163 12.4711C14.5608 11.5044 14.833 10.3062 14.833 8.8763C14.833 7.20477 14.2594 5.78498 13.1122 4.61693C11.9844 3.42873 10.6136 2.83463 8.99967 2.83463C7.38579 2.83463 6.00523 3.42873 4.85801 4.61693C3.73023 5.78498 3.16634 7.20477 3.16634 8.8763C3.16634 10.3062 3.42884 11.5044 3.95384 12.4711C4.49829 13.4176 5.18856 14.4548 6.02468 15.5826C6.84134 16.6902 7.45384 17.5763 7.86217 18.2409C8.28995 18.9055 8.66912 19.5801 8.99967 20.2648ZM8.99967 11.8971C9.81634 11.8971 10.5066 11.6051 11.0705 11.0211C11.6344 10.4371 11.9163 9.72213 11.9163 8.8763C11.9163 8.03047 11.6344 7.31554 11.0705 6.73151C10.5066 6.14748 9.81634 5.85547 8.99967 5.85547C8.18301 5.85547 7.49273 6.14748 6.92884 6.73151C6.36495 7.31554 6.08301 8.03047 6.08301 8.8763C6.08301 9.72213 6.36495 10.4371 6.92884 11.0211C7.49273 11.6051 8.18301 11.8971 8.99967 11.8971Z" fill="#65558F"/>
</svg>
