<svg width="17" height="17" viewBox="0 0 17 17" fill="none" xmlns="http://www.w3.org/2000/svg">
<path d="M0.706558 11.2769C0.644355 11.8257 1.0388 12.321 1.58757 12.3832C2.13634 12.4454 2.63163 12.051 2.69383 11.5022L0.706558 11.2769ZM2.49353 4.39063L1.85083 3.62452C1.6544 3.7893 1.52877 4.02324 1.49989 4.278L2.49353 4.39063ZM4.7229 3.82569C5.14601 3.47073 5.20127 2.83998 4.84631 2.41687C4.49136 1.99375 3.86061 1.9385 3.43749 2.29345L4.7229 3.82569ZM14.3066 11.5022C14.3688 12.051 14.8641 12.4454 15.4128 12.3832C15.9616 12.321 16.356 11.8257 16.2938 11.2769L14.3066 11.5022ZM14.5069 4.39063L15.5005 4.27801C15.4716 4.02324 15.346 3.7893 15.1496 3.62452L14.5069 4.39063ZM13.5629 2.29345C13.1398 1.9385 12.509 1.99375 12.1541 2.41687C11.7991 2.83998 11.8544 3.47073 12.2775 3.82569L13.5629 2.29345ZM5.46019 11.5596C5.46019 12.3217 4.84235 12.9396 4.0802 12.9396V14.9396C5.94692 14.9396 7.46019 13.4263 7.46019 11.5596H5.46019ZM4.0802 12.9396C3.31804 12.9396 2.7002 12.3217 2.7002 11.5596H0.700195C0.700195 13.4263 2.21347 14.9396 4.0802 14.9396V12.9396ZM2.7002 11.5596C2.7002 10.7974 3.31804 10.1796 4.0802 10.1796V8.17957C2.21347 8.17957 0.700195 9.69285 0.700195 11.5596H2.7002ZM4.0802 10.1796C4.84235 10.1796 5.46019 10.7974 5.46019 11.5596H7.46019C7.46019 9.69285 5.94692 8.17957 4.0802 8.17957V10.1796ZM7.30422 11.5503C7.54434 11.1352 7.99068 10.8596 8.50021 10.8596V8.85957C7.24788 8.85957 6.15592 9.54117 5.57301 10.5488L7.30422 11.5503ZM8.50021 10.8596C9.00975 10.8596 9.45609 11.1352 9.6962 11.5503L11.4274 10.5488C10.8445 9.54117 9.75255 8.85957 8.50021 8.85957V10.8596ZM14.3002 11.5596C14.3002 12.3217 13.6823 12.9396 12.9202 12.9396V14.9396C14.7869 14.9396 16.3002 13.4263 16.3002 11.5596H14.3002ZM12.9202 12.9396C12.158 12.9396 11.5402 12.3217 11.5402 11.5596H9.54019C9.54019 13.4263 11.0535 14.9396 12.9202 14.9396V12.9396ZM11.5402 11.5596C11.5402 10.7974 12.158 10.1796 12.9202 10.1796V8.17957C11.0535 8.17957 9.54019 9.69285 9.54019 11.5596H11.5402ZM12.9202 10.1796C13.6823 10.1796 14.3002 10.7974 14.3002 11.5596H16.3002C16.3002 9.69285 14.7869 8.17957 12.9202 8.17957V10.1796ZM2.69383 11.5022L3.48717 4.50326L1.49989 4.278L0.706558 11.2769L2.69383 11.5022ZM3.13623 5.15675L4.7229 3.82569L3.43749 2.29345L1.85083 3.62452L3.13623 5.15675ZM16.2938 11.2769L15.5005 4.27801L13.5132 4.50326L14.3066 11.5022L16.2938 11.2769ZM15.1496 3.62452L13.5629 2.29345L12.2775 3.82569L13.8642 5.15675L15.1496 3.62452Z" fill="#65558F"/>
</svg>
