<svg width="16" height="14" viewBox="0 0 16 14" fill="none" xmlns="http://www.w3.org/2000/svg">
<path d="M9.13039 0.1614C9.2534 0.0734008 9.39735 0.0192119 9.54786 0.00424422C9.69837 -0.0107235 9.85017 0.0140538 9.98811 0.076102C10.126 0.13815 10.2453 0.235298 10.3339 0.357846C10.4226 0.480394 10.4775 0.624053 10.4933 0.77448L10.498 0.864084V13.1351C10.4981 13.2864 10.4584 13.435 10.3831 13.5661C10.3077 13.6973 10.1993 13.8064 10.0686 13.8825C9.93789 13.9586 9.78951 13.9991 9.63825 14C9.487 14.0008 9.33817 13.962 9.20663 13.8873L9.13117 13.8386L3.95851 10.1436H1.85203C1.45543 10.1437 1.07344 9.99394 0.782639 9.72427C0.491833 9.4546 0.313704 9.08498 0.283959 8.6895L0.280029 8.5716V5.4276C0.279904 5.031 0.429689 4.64901 0.699358 4.35821C0.969027 4.0674 1.33865 3.88927 1.73413 3.85953L1.85203 3.8556H3.95851L9.13039 0.1614ZM14.1663 2.89904C14.7432 3.41509 15.2047 4.04707 15.5207 4.75366C15.8367 5.46026 16 6.22557 16 6.9996C16 7.77363 15.8367 8.53894 15.5207 9.24554C15.2047 9.95213 14.7432 10.5841 14.1663 11.1002C14.0896 11.1701 13.9998 11.2242 13.902 11.2593C13.8043 11.2943 13.7006 11.3097 13.5969 11.3044C13.4932 11.2992 13.3915 11.2735 13.2979 11.2287C13.2042 11.184 13.1203 11.1211 13.051 11.0437C12.9817 10.9664 12.9285 10.8761 12.8943 10.778C12.8602 10.68 12.8458 10.5761 12.852 10.4725C12.8582 10.3688 12.8849 10.2674 12.9305 10.1741C12.9761 10.0809 13.0398 9.99756 13.1178 9.92902C13.53 9.5604 13.8597 9.10894 14.0855 8.60414C14.3113 8.09935 14.428 7.55259 14.428 6.9996C14.428 5.83632 13.9234 4.79094 13.1178 4.07018C13.0398 4.00164 12.9761 3.91833 12.9305 3.82505C12.8849 3.73177 12.8582 3.63038 12.852 3.52674C12.8458 3.42309 12.8602 3.31924 12.8943 3.22119C12.9285 3.12313 12.9817 3.03282 13.051 2.95546C13.1203 2.8781 13.2042 2.81523 13.2979 2.77049C13.3915 2.72574 13.4932 2.7 13.5969 2.69475C13.7006 2.6895 13.8043 2.70486 13.902 2.73992C13.9998 2.77498 14.0896 2.82906 14.1663 2.89904ZM12.5943 4.65653C12.9238 4.95133 13.1874 5.31232 13.368 5.71592C13.5485 6.11953 13.6419 6.55667 13.642 6.99881C13.6421 7.44122 13.5489 7.87867 13.3683 8.28256C13.1878 8.68645 12.924 9.04769 12.5943 9.34266C12.4452 9.47505 12.2514 9.54584 12.0522 9.54072C11.8529 9.5356 11.663 9.45494 11.5209 9.31508C11.3789 9.17522 11.2952 8.9866 11.287 8.78742C11.2788 8.58823 11.3466 8.39337 11.4766 8.24226L11.5458 8.17153C11.868 7.88228 12.07 7.46491 12.07 6.9996C12.0701 6.59725 11.916 6.21017 11.6393 5.91806L11.5458 5.82767C11.4678 5.75913 11.4041 5.67582 11.3585 5.58255C11.3129 5.48927 11.2862 5.38788 11.28 5.28423C11.2738 5.18059 11.2882 5.07674 11.3223 4.97868C11.3565 4.88063 11.4097 4.79032 11.479 4.71296C11.5483 4.6356 11.6322 4.57273 11.7259 4.52798C11.8195 4.48323 11.9212 4.45749 12.0249 4.45225C12.1286 4.447 12.2323 4.46235 12.33 4.49742C12.4278 4.53248 12.5176 4.58656 12.5943 4.65653Z" fill="white"/>
</svg>
