<?xml version="1.0" encoding="UTF-8" standalone="no"?>
<svg
   width="19.351566"
   height="19.351574"
   viewBox="0 0 19.351566 19.351574"
   fill="none"
   version="1.1"
   id="svg2"
   xmlns="http://www.w3.org/2000/svg"
   xmlns:svg="http://www.w3.org/2000/svg">
  <defs
     id="defs2">
    <linearGradient
       id="paint0_linear_1621_2788"
       x1="9.9982901"
       y1="0.99813801"
       x2="9.9982901"
       y2="18.9981"
       gradientUnits="userSpaceOnUse"
       gradientTransform="translate(-0.32226221,-0.32226563)">
      <stop
         stop-color="#8F2AC7"
         id="stop1" />
      <stop
         offset="0.595"
         stop-color="#DA5673"
         id="stop2" />
    </linearGradient>
  </defs>
  <path
     id="path2"
     style="fill:url(#paint0_linear_1621_2788);stroke-linecap:round;stroke-linejoin:round"
     d="M 7.8769566,0 C 7.3371115,0 6.8036819,0.13080167 6.3242222,0.37890625 5.8447545,0.62700243 5.4329045,0.98509377 5.1210972,1.4257813 4.8093024,1.8664687 4.6076046,2.3774108 4.5332066,2.9121094 4.49907,3.1574487 4.5875478,3.3954569 4.6074253,3.640625 3.9481228,3.6536407 3.2805405,3.6545324 2.7773472,3.7421875 2.0759757,3.8643648 1.4577514,4.1184306 0.98828469,4.5878906 0.51882454,5.0573574 0.2647619,5.6737375 0.14258154,6.375 0.02040118,7.0762626 0.00362973,7.8901369 3.4170264e-6,8.9257813 A 0.67518751,0.67518751 0 0 0 0.90039399,9.5644532 C 1.2058366,9.4570105 1.5328801,9.4238904 1.853519,9.4687502 c 0.3206473,0.044861 0.624475,0.1663843 0.8886719,0.3535154 0.2642356,0.1871544 0.4801993,0.4350374 0.6289063,0.7226574 0.1487087,0.287532 0.2265625,0.605998 0.2265625,0.929687 0,0.323814 -0.077854,0.644108 -0.2265625,0.931641 -0.1487127,0.287555 -0.3646846,0.535512 -0.6289063,0.722656 -0.2642525,0.187171 -0.5681172,0.306722 -0.8886719,0.351562 -0.3205971,0.04485 -0.6476058,0.01369 -0.95312501,-0.09375 A 0.67518751,0.67518751 0 0 0 3.4170264e-6,14.025391 C 0.00362941,15.061051 0.02040101,15.872956 0.14258154,16.574219 c 0.12218052,0.701264 0.37623538,1.319608 0.84570315,1.789063 0.46947031,0.46945 1.08780261,0.723531 1.78906251,0.845703 0.7012598,0.122172 1.5131859,0.138951 2.5488281,0.142578 a 0.67518751,0.67518751 0 0 0 0.640625,-0.90039 C 5.859359,18.145741 5.8262374,17.820641 5.8710973,17.500001 c 0.04486,-0.320642 0.166341,-0.62633 0.3535156,-0.890625 0.1870367,-0.263613 0.4335275,-0.480387 0.7207031,-0.628907 0.2875989,-0.148738 0.6078972,-0.226562 0.9316407,-0.226562 0.3237558,0 0.6420885,0.07782 0.9296874,0.226562 0.2876137,0.148747 0.5355129,0.364731 0.7226563,0.628907 0.1871645,0.264281 0.3086615,0.569973 0.3535155,0.890625 0.04486,0.3207 0.0117,0.645757 -0.0957,0.951172 a 0.67518751,0.67518751 0 0 0 0.6386721,0.90039 c 1.035607,-0.0036 1.849523,-0.02041 2.550781,-0.142578 0.701258,-0.122171 1.317611,-0.37627 1.78711,-0.845703 0.469457,-0.469458 0.723534,-1.087693 0.845703,-1.789063 0.08765,-0.503192 0.08855,-1.17077 0.101562,-1.830078 0.245506,0.02 0.484755,0.108393 0.730469,0.07422 0.534482,-0.07448 1.043591,-0.275991 1.484375,-0.587891 0.440658,-0.311773 0.798768,-0.72366 1.046875,-1.203125 0.248108,-0.479468 0.378906,-1.012873 0.378906,-1.552734 0,-0.539861 -0.130756,-1.071357 -0.378906,-1.5507814 C 18.72455,9.4443624 18.366388,9.0325128 17.925785,8.7207032 17.485065,8.4089117 16.97604,8.2072132 16.44141,8.1328125 16.195711,8.0986283 15.956457,8.1870484 15.710941,8.2070313 15.697956,7.5468191 15.697121,6.8787268 15.609379,6.375 15.48721,5.6736312 15.233126,5.057361 14.763676,4.5878906 14.29414,4.1178073 13.678001,3.8642471 12.976566,3.7421875 12.473328,3.6546169 11.805716,3.6535629 11.146488,3.640625 11.16635,3.39547 11.254827,3.1574166 11.220707,2.9121094 11.146325,2.3773484 10.944513,1.8664185 10.632816,1.4257813 10.321,0.98515137 9.9072178,0.62700905 9.4277378,0.37890625 8.9482781,0.13080167 8.416809,0 7.8769566,0 Z m 0,1.3515625 c 0.3239473,0 0.6419871,0.077687 0.9296874,0.2265625 0.2876797,0.1488572 0.5354728,0.3643961 0.7226563,0.6289063 0.1871035,0.2645028 0.3088975,0.569846 0.3535155,0.890625 0.04464,0.3209165 0.01207,0.6476639 -0.0957,0.953125 a 0.67518751,0.67518751 0 0 0 0.6328132,0.8984375 c 1.020842,0.00357 1.785453,0.029294 2.324218,0.1230468 0.538766,0.093753 0.824587,0.2305566 1.064453,0.4707032 0.23985,0.2398596 0.376846,0.5256219 0.470703,1.0644531 0.09386,0.5388312 0.119474,1.3034377 0.123047,2.3242187 a 0.67518751,0.67518751 0 0 0 0.898438,0.6347657 c 0.305518,-0.1078128 0.632235,-0.1423021 0.953125,-0.097656 0.32077,0.044639 0.626145,0.1664073 0.890625,0.3535154 0.264397,0.1871113 0.480013,0.4349203 0.628906,0.7226573 0.14885,0.287575 0.226563,0.605748 0.226563,0.929687 0,0.323939 -0.07767,0.643909 -0.226563,0.931641 -0.148893,0.287735 -0.364565,0.53563 -0.628906,0.722656 -0.264416,0.187101 -0.569708,0.308796 -0.890625,0.353516 -0.320857,0.04462 -0.647538,0.01016 -0.953125,-0.09766 a 0.67518751,0.67518751 0 0 0 -0.898438,0.634766 c -0.0036,1.020796 -0.02919,1.785388 -0.123047,2.324219 -0.09386,0.53883 -0.230861,0.824611 -0.470703,1.064453 -0.239901,0.239867 -0.525735,0.376849 -1.064453,0.470703 -0.3688,0.06425 -1.000015,0.06727 -1.589844,0.08203 0.01223,-0.218476 0.09497,-0.430254 0.06445,-0.648437 -0.07475,-0.534343 -0.276055,-1.044053 -0.58789,-1.484372 C 10.319006,15.387901 9.9069838,15.029103 9.4277378,14.78125 8.9484767,14.533388 8.4165406,14.404295 7.8769566,14.404296 c -0.5395767,0 -1.0715202,0.129092 -1.5507813,0.376954 -0.4792421,0.247851 -0.8932166,0.606644 -1.2050781,1.046875 -0.3118254,0.440305 -0.5131304,0.950016 -0.5878906,1.484375 -0.030529,0.218208 0.052205,0.429948 0.064453,0.648437 -0.5891585,-0.01477 -1.221354,-0.01783 -1.5898437,-0.08203 C 2.4691008,17.785052 2.1832225,17.648052 1.9433628,17.408203 1.7035105,17.168357 1.5665189,16.882461 1.4726597,16.34375 c -0.064255,-0.368797 -0.067271,-0.999992 -0.082031,-1.589844 0.2184843,0.01226 0.4302116,0.09498 0.6484375,0.06445 0.5344453,-0.07476 1.0441275,-0.276062 1.484375,-0.587891 0.4402984,-0.311856 0.7990277,-0.725833 1.046875,-1.205078 0.2478713,-0.479267 0.3769531,-1.011195 0.3769531,-1.550781 0,-0.539511 -0.1290818,-1.069561 -0.3769531,-1.5488276 C 4.3224626,9.4464034 3.9637254,9.0325494 3.5234409,8.7207032 3.0831379,8.4088348 2.5734187,8.2075719 2.0390659,8.1328125 1.8208571,8.1022837 1.609119,8.1850177 1.3906284,8.1972656 1.4053886,7.6074207 1.4084045,6.9762187 1.4726597,6.6074219 1.5665191,6.0687095 1.7035029,5.7828321 1.9433628,5.5429688 2.1832261,5.3031089 2.4689874,5.1661283 3.0078159,5.0722656 3.5466445,4.978403 4.3112559,4.952792 5.3320347,4.9492188 A 0.67518751,0.67518751 0 0 0 5.9668003,4.0507813 C 5.8589941,3.7452966 5.8264545,3.4185029 5.8710972,3.0976563 5.9157391,2.7768149 6.0355544,2.4714838 6.2226597,2.2070313 6.4097724,1.9425787 6.6576236,1.7269888 6.9453159,1.578125 7.2330162,1.4292496 7.5530215,1.3515625 7.8769566,1.3515625 Z" />
</svg>
